<svg width="2305" height="797" viewBox="0 0 2305 797" fill="none" xmlns="http://www.w3.org/2000/svg">
<path d="M101.47 4C82.3083 4 63.9312 11.612 50.3817 25.1615C36.8322 38.711 29.2202 57.0881 29.2202 76.25V418.76C29.2202 509.76 80.3002 587.76 147.13 649.59C191.05 690.23 331.5 783.59 331.5 783.59C331.5 783.59 455.76 700.3 513.08 649.08C581.2 588.2 628.78 509.6 628.78 418.25V76.25C628.78 57.0881 621.168 38.711 607.619 25.1615C594.069 11.612 575.692 4 556.53 4H101.47Z" fill="url(#paint0_linear_122_281)" stroke="#271B4C" stroke-width="8" stroke-miterlimit="10"/>
<path d="M330.23 706.06C319.31 702.95 308.11 699.45 296.83 695.62C227.77 671.73 195.37 651.62 174.91 636.82C147.558 615.501 123.616 590.136 103.91 561.6C84.0735 533.187 69.0899 501.679 59.5699 468.36L59.3699 467.65C55.9078 452.128 54.1508 436.274 54.1299 420.37V90.7002C54.1299 73.7926 60.8464 57.5776 72.8018 45.6221C84.7573 33.6667 100.972 26.9502 117.88 26.9502H540.13C557.037 26.9502 573.253 33.6667 585.208 45.6221C597.163 57.5776 603.88 73.7926 603.88 90.7002V419.76C603.875 437.257 601.916 454.698 598.04 471.76C581.04 532.19 544.04 588.53 493.62 630.48C467.37 651.96 435.56 666.99 410.74 677.7C384.511 688.797 357.623 698.269 330.23 706.06Z" fill="url(#paint1_radial_122_281)"/>
<path d="M166.94 267.46C166.94 267.46 134.11 237.88 120.14 165.58C120.14 165.58 12.1899 285.58 136.95 372.33L193.19 356.98L166.94 267.46Z" fill="url(#paint2_linear_122_281)"/>
<path d="M166.94 267.46C166.94 267.46 134.11 237.88 120.14 165.58C120.14 165.58 63.1401 279.07 182.14 360.64L193.14 356.98L166.94 267.46Z" fill="url(#paint3_linear_122_281)"/>
<path d="M145.91 378.95C145.91 378.95 103.6 367.32 69.3602 318.52C69.3602 318.52 32.2202 421.44 153.5 444.36L249 449.18L145.91 378.95Z" fill="url(#paint4_linear_122_281)"/>
<path d="M145.91 378.95C145.91 378.95 103.6 367.32 69.36 318.52C69.36 318.52 59.8 399 194.55 436.01L249 449.18L145.91 378.95Z" fill="url(#paint5_linear_122_281)"/>
<path d="M153.31 450.66C153.31 450.66 107 443.4 71.1899 414.89C71.1899 414.89 78.0699 515.32 188.27 505.96L235.06 496.96L153.31 450.66Z" fill="url(#paint6_linear_122_281)"/>
<path d="M153.31 450.66C153.31 450.66 107 443.4 71.1899 414.89C71.1899 414.89 95.0899 480.44 191.3 491.48L235.06 496.97L153.31 450.66Z" fill="url(#paint7_linear_122_281)"/>
<path d="M195.81 509.24C195.81 509.24 145.59 518.66 107.68 498.65C107.68 498.65 146.48 592.23 251.73 551.65C356.98 511.07 267.2 529.76 267.2 529.76L195.81 509.24Z" fill="url(#paint8_linear_122_281)"/>
<path d="M195.81 509.24C195.81 509.24 145.59 518.66 107.68 498.65C107.68 498.65 164.53 567.97 256.25 528.88C359.69 484.79 261.89 519.88 261.89 519.88L195.81 509.24Z" fill="url(#paint9_linear_122_281)"/>
<path d="M256.3 555.99C231.708 566.841 205.72 574.199 179.09 577.85C179.09 577.85 254.59 622.27 315.71 575.95C376.83 529.63 318.11 555.45 318.11 555.45L256.3 555.99Z" fill="url(#paint10_linear_122_281)"/>
<path d="M256.3 555.99C231.708 566.841 205.72 574.199 179.09 577.85C179.09 577.85 259.41 605.13 316.8 555.45C374.19 505.77 312 548.76 312 548.76L256.3 555.99Z" fill="url(#paint11_linear_122_281)"/>
<path d="M319.84 574.87C305.475 589.554 289.554 602.631 272.36 613.87C272.36 613.87 420.05 623.49 400.18 505.68L319.84 574.87Z" fill="url(#paint12_linear_122_281)"/>
<path d="M319.84 574.87C305.475 589.554 289.554 602.631 272.36 613.87C272.36 613.87 400.36 594.45 400.18 505.68L319.84 574.87Z" fill="url(#paint13_linear_122_281)"/>
<path d="M294.69 352.32C294.69 352.32 202.12 303.95 188.01 208.32C188.01 208.32 49.2298 366.32 316.06 411.96L294.69 352.32Z" fill="url(#paint14_linear_122_281)"/>
<path d="M294.69 352.32C294.69 352.32 202.12 303.95 188.01 208.32C188.01 208.32 134.37 353.49 318.14 387.92L294.69 352.32Z" fill="url(#paint15_linear_122_281)"/>
<path d="M316.11 409.06C316.11 409.06 182.24 389.37 139.11 315.16C139.11 315.16 74.87 473.45 323.66 442.21L316.11 409.06Z" fill="url(#paint16_linear_122_281)"/>
<path d="M316.11 409.06C316.11 409.06 182.24 389.37 139.11 315.16C139.11 315.16 131.11 436.44 320.46 425.95L316.11 409.06Z" fill="url(#paint17_linear_122_281)"/>
<path d="M324.46 440.76C324.46 440.76 206.13 464.57 136.53 411.3C136.53 411.3 132.53 549.66 352.7 478.53L324.46 440.76Z" fill="url(#paint18_linear_122_281)"/>
<path d="M324.46 440.76C324.46 440.76 206.13 464.57 136.53 411.3C136.53 411.3 179.37 515.75 335.31 455.97L324.46 440.76Z" fill="url(#paint19_linear_122_281)"/>
<path d="M342.44 465.06C342.44 465.06 265.8 513.76 166.83 490.4C166.83 490.4 225.23 603.2 360.54 490.06L342.44 465.06Z" fill="url(#paint20_linear_122_281)"/>
<path d="M342.44 465.06C342.44 465.06 265.8 513.76 166.83 490.4C166.83 490.4 235.83 568.74 349.51 478.61L342.44 465.06Z" fill="url(#paint21_linear_122_281)"/>
<path d="M357.77 487.09C357.77 487.09 323.12 530.59 225.91 547.76C225.91 547.76 319.49 619.23 385.53 501.76L357.77 487.09Z" fill="url(#paint22_linear_122_281)"/>
<path d="M357.77 487.09C357.77 487.09 323.12 530.59 225.91 547.76C225.91 547.76 310.04 585 371.82 495.89L357.77 487.09Z" fill="url(#paint23_linear_122_281)"/>
<path d="M383.88 500.76C383.88 500.76 358.38 551.5 298.71 577.91C298.71 577.91 416.44 598.36 406.12 510.01L383.88 500.76Z" fill="url(#paint24_linear_122_281)"/>
<path d="M383.88 500.76C383.88 500.76 358.38 551.5 298.71 577.91C298.71 577.91 395.53 578.69 397.71 504.6L383.88 500.76Z" fill="url(#paint25_linear_122_281)"/>
<path d="M409.5 519.9C409.5 519.9 298.39 488.61 308.68 393.67L276.56 340.81L344.18 383.54C344.18 383.54 329.34 451.33 423.11 447.29C423.11 447.29 440.39 515.27 409.5 519.9Z" fill="url(#paint26_linear_122_281)"/>
<path d="M276.56 340.81L344.18 383.54C344.18 383.54 329.64 451.13 423.11 447.29C423.11 447.29 439.78 517.08 409.5 519.9C409.5 519.9 433.6 511.61 411.92 463.99C411.92 463.99 333.04 460.4 333.28 388.89L276.56 340.81Z" fill="url(#paint27_linear_122_281)"/>
<path d="M100.92 71.4302H120.25C120.666 71.4302 121.066 71.5956 121.36 71.89C121.655 72.1845 121.82 72.5838 121.82 73.0002V132.41C121.812 132.808 121.955 133.194 122.22 133.49C122.486 133.786 122.853 133.971 123.249 134.006C123.645 134.042 124.04 133.926 124.354 133.681C124.668 133.437 124.877 133.083 124.94 132.69L135.94 72.6902C136.008 72.3309 136.198 72.0065 136.48 71.7728C136.761 71.5391 137.115 71.4109 137.48 71.4102H154.48C154.711 71.4088 154.94 71.4588 155.149 71.5566C155.358 71.6543 155.543 71.7973 155.691 71.9753C155.838 72.1533 155.944 72.3618 156.001 72.5857C156.058 72.8096 156.065 73.0434 156.02 73.2702L141.43 149.76C141.39 149.945 141.39 150.136 141.43 150.32L157.23 240.32C157.269 240.545 157.259 240.776 157.2 240.997C157.141 241.218 157.034 241.423 156.887 241.598C156.741 241.773 156.558 241.914 156.351 242.011C156.144 242.108 155.919 242.159 155.69 242.16H137.54C137.168 242.163 136.807 242.032 136.523 241.792C136.239 241.551 136.05 241.218 135.99 240.85L124.94 174.94C124.877 174.55 124.669 174.197 124.358 173.953C124.046 173.71 123.654 173.592 123.26 173.625C122.865 173.658 122.498 173.839 122.231 174.131C121.964 174.423 121.817 174.805 121.82 175.2V240.59C121.82 241.007 121.655 241.406 121.36 241.7C121.066 241.995 120.666 242.16 120.25 242.16H100.92C100.504 242.16 100.104 241.995 99.8099 241.7C99.5155 241.406 99.3501 241.007 99.3501 240.59V73.0002C99.3501 72.794 99.3907 72.5899 99.4696 72.3994C99.5485 72.2089 99.6641 72.0358 99.8099 71.89C99.9557 71.7442 100.129 71.6286 100.319 71.5497C100.51 71.4708 100.714 71.4302 100.92 71.4302Z" fill="white"/>
<path d="M165.42 240.64V73.0002C165.42 72.5838 165.585 72.1844 165.88 71.89C166.174 71.5956 166.574 71.4302 166.99 71.4302H186.55C186.966 71.4302 187.366 71.5956 187.66 71.89C187.954 72.1844 188.12 72.5838 188.12 73.0002V240.64C188.12 241.057 187.954 241.456 187.66 241.75C187.366 242.045 186.966 242.21 186.55 242.21H167C166.793 242.212 166.588 242.172 166.396 242.094C166.204 242.015 166.03 241.9 165.883 241.754C165.736 241.608 165.62 241.434 165.54 241.243C165.461 241.052 165.42 240.847 165.42 240.64Z" fill="white"/>
<path d="M240.47 188.76V188.89C240.487 189.307 240.669 189.699 240.976 189.981C241.282 190.264 241.689 190.412 242.105 190.395C242.521 190.378 242.914 190.196 243.196 189.889C243.478 189.583 243.627 189.177 243.61 188.76L241.39 73.0602C241.386 72.8515 241.424 72.6441 241.501 72.4501C241.578 72.2562 241.693 72.0796 241.839 71.9306C241.985 71.7816 242.16 71.6633 242.352 71.5825C242.545 71.5017 242.751 71.4601 242.96 71.4602H260.24C260.656 71.4602 261.056 71.6256 261.35 71.92C261.645 72.2144 261.81 72.6138 261.81 73.0302V240.64C261.81 241.057 261.645 241.456 261.35 241.75C261.056 242.045 260.656 242.21 260.24 242.21H232C231.604 242.209 231.223 242.059 230.933 241.791C230.642 241.522 230.463 241.155 230.43 240.76L221.6 124.91V124.76C221.584 124.344 221.403 123.951 221.098 123.668C220.792 123.384 220.386 123.234 219.97 123.25C219.554 123.266 219.161 123.447 218.877 123.752C218.594 124.058 218.444 124.464 218.46 124.88L220.68 240.58C220.684 240.789 220.646 240.996 220.569 241.19C220.492 241.384 220.377 241.561 220.231 241.71C220.085 241.859 219.91 241.977 219.718 242.058C219.525 242.139 219.319 242.18 219.11 242.18H201.82C201.404 242.18 201.004 242.015 200.71 241.72C200.415 241.426 200.25 241.027 200.25 240.61V73.0002C200.25 72.5838 200.415 72.1844 200.71 71.89C201.004 71.5956 201.404 71.4302 201.82 71.4302H230C230.396 71.4313 230.777 71.581 231.067 71.8495C231.358 72.118 231.537 72.4858 231.57 72.8802L240.47 188.76Z" fill="white"/>
<path d="M274 73.0002C274 72.5838 274.165 72.1844 274.46 71.89C274.754 71.5956 275.154 71.4302 275.57 71.4302H291.75C318.26 71.4302 329.28 80.4302 329.28 156.82C329.28 230.98 318.94 241.54 294 242.21H275.53C275.114 242.21 274.714 242.045 274.42 241.75C274.125 241.456 273.96 241.057 273.96 240.64L274 73.0002ZM296.24 93.5002V220.14C296.241 220.387 296.301 220.63 296.413 220.85C296.525 221.07 296.688 221.261 296.887 221.407C297.086 221.553 297.317 221.65 297.561 221.69C297.804 221.731 298.054 221.714 298.29 221.64C304.64 219.79 306.13 209.97 306.13 156.82C306.13 103.67 304.64 93.8202 298.29 92.0002C298.052 91.9189 297.798 91.8958 297.549 91.9326C297.3 91.9695 297.063 92.0652 296.859 92.212C296.654 92.3587 296.488 92.5522 296.373 92.7762C296.259 93.0003 296.199 93.2485 296.2 93.5002H296.24Z" fill="white"/>
<path d="M379.57 188.76V188.89C379.587 189.307 379.769 189.699 380.076 189.981C380.383 190.264 380.789 190.412 381.205 190.395C381.621 190.378 382.014 190.196 382.296 189.889C382.578 189.583 382.727 189.177 382.71 188.76L380.49 73.0602C380.486 72.8515 380.524 72.6441 380.601 72.4502C380.678 72.2562 380.793 72.0796 380.939 71.9306C381.085 71.7816 381.26 71.6633 381.452 71.5825C381.645 71.5017 381.851 71.4601 382.06 71.4602H399.34C399.757 71.4602 400.156 71.6256 400.45 71.92C400.745 72.2145 400.91 72.6138 400.91 73.0302V240.64C400.91 241.057 400.745 241.456 400.45 241.75C400.156 242.045 399.757 242.21 399.34 242.21H371.14C370.744 242.209 370.363 242.059 370.073 241.791C369.782 241.522 369.603 241.155 369.57 240.76L360.7 124.91V124.77C360.657 124.375 360.464 124.011 360.163 123.751C359.861 123.492 359.472 123.357 359.074 123.373C358.677 123.39 358.3 123.557 358.021 123.84C357.742 124.124 357.581 124.502 357.57 124.9L359.79 240.6C359.793 240.809 359.754 241.015 359.677 241.209C359.599 241.402 359.484 241.578 359.338 241.727C359.192 241.876 359.018 241.994 358.826 242.075C358.634 242.156 358.428 242.199 358.22 242.2H340.92C340.504 242.2 340.104 242.035 339.81 241.74C339.516 241.446 339.35 241.047 339.35 240.63V73.0002C339.35 72.5838 339.516 72.1845 339.81 71.89C340.104 71.5956 340.504 71.4302 340.92 71.4302H369.13C369.525 71.4292 369.906 71.5784 370.196 71.8475C370.486 72.1167 370.662 72.4858 370.69 72.8802L379.57 188.76Z" fill="white"/>
<path d="M451 242.21H414.62C414.204 242.21 413.804 242.045 413.51 241.75C413.215 241.456 413.05 241.057 413.05 240.64V73.0002C413.05 72.5838 413.215 72.1844 413.51 71.89C413.804 71.5956 414.204 71.4302 414.62 71.4302H451C451.416 71.4302 451.816 71.5956 452.11 71.89C452.405 72.1844 452.57 72.5838 452.57 73.0002V90.0802C452.57 90.4966 452.405 90.8959 452.11 91.1903C451.816 91.4848 451.416 91.6502 451 91.6502H436.87C436.454 91.6502 436.054 91.8156 435.76 92.11C435.465 92.4044 435.3 92.8038 435.3 93.2202V140.64C435.3 141.057 435.465 141.456 435.76 141.75C436.054 142.045 436.454 142.21 436.87 142.21H448.79C449.206 142.213 449.603 142.379 449.897 142.673C450.191 142.967 450.357 143.365 450.36 143.78V161.99C450.36 162.407 450.195 162.806 449.9 163.1C449.606 163.395 449.206 163.56 448.79 163.56H436.87C436.454 163.56 436.054 163.726 435.76 164.02C435.465 164.314 435.3 164.714 435.3 165.13V220.42C435.3 220.837 435.465 221.236 435.76 221.53C436.054 221.825 436.454 221.99 436.87 221.99H451C451.416 221.99 451.816 222.156 452.11 222.45C452.405 222.744 452.57 223.144 452.57 223.56V240.64C452.57 240.846 452.529 241.051 452.451 241.241C452.372 241.431 452.256 241.605 452.11 241.75C451.964 241.896 451.791 242.012 451.601 242.091C451.41 242.17 451.206 242.21 451 242.21Z" fill="white"/>
<path d="M508.78 111.88V125.59C508.78 126.006 508.614 126.406 508.32 126.7C508.026 126.994 507.626 127.16 507.21 127.16H490.13C489.713 127.16 489.314 126.994 489.02 126.7C488.725 126.406 488.56 126.006 488.56 125.59V113C488.56 95.4698 486.76 88.7298 483.84 88.7298C481.59 88.7298 479.79 93.4498 479.79 100.42C479.79 140.64 509.23 168.96 509.23 211.65C509.23 228.51 501.37 243.34 484.29 243.34C469.23 243.34 458.89 234.8 458.89 201.76V190.3C458.89 189.883 459.055 189.484 459.35 189.19C459.644 188.895 460.044 188.73 460.46 188.73H477.55C477.966 188.73 478.366 188.895 478.66 189.19C478.954 189.484 479.12 189.883 479.12 190.3V200.64C479.12 218.17 480.92 224.91 483.84 224.91C486.76 224.91 487.84 218.84 487.84 212.78C487.84 175.92 458.4 148.28 458.4 101.54C458.4 83.7898 468.52 70.2998 483.35 70.2998C498.44 70.2998 508.78 78.8398 508.78 111.88Z" fill="white"/>
<path d="M565.41 111.88V125.59C565.407 126.005 565.241 126.403 564.947 126.697C564.653 126.991 564.256 127.157 563.84 127.16H546.75C546.334 127.157 545.937 126.991 545.643 126.697C545.349 126.403 545.183 126.005 545.18 125.59V113C545.18 95.4698 543.39 88.7298 540.46 88.7298C538.22 88.7298 536.46 93.4498 536.46 100.42C536.46 140.64 565.9 168.96 565.9 211.65C565.9 228.51 558.03 243.34 540.9 243.34C525.9 243.34 515.51 234.8 515.51 201.76V190.3C515.51 189.883 515.675 189.484 515.97 189.19C516.264 188.895 516.664 188.73 517.08 188.73H534.17C534.376 188.73 534.58 188.77 534.771 188.849C534.961 188.928 535.134 189.044 535.28 189.19C535.426 189.335 535.542 189.509 535.62 189.699C535.699 189.889 535.74 190.094 535.74 190.3V200.64C535.74 218.17 537.53 224.91 540.45 224.91C543.37 224.91 544.45 218.84 544.45 212.78C544.45 175.92 515.01 148.28 515.01 101.54C515.01 83.7898 525.12 70.2998 539.96 70.2998C555.07 70.2998 565.41 78.8398 565.41 111.88Z" fill="white"/>
<path d="M250.07 276.38V270.38L243.62 259.09H249.14L251.63 264.32C251.858 264.792 252.062 265.276 252.24 265.77C252.42 266.27 252.6 266.84 252.79 267.48H252.1C252.27 266.84 252.44 266.27 252.6 265.77C252.761 265.275 252.951 264.791 253.17 264.32L255.5 259.09H261L254.74 270.38V276.38H250.07Z" fill="white"/>
<path d="M274.87 276.59C273.525 276.619 272.191 276.353 270.96 275.81C269.87 275.33 268.949 274.534 268.316 273.525C267.683 272.516 267.367 271.34 267.41 270.15V259.07H272.11V269.76C272.1 270.26 272.224 270.754 272.47 271.19C272.703 271.61 273.049 271.957 273.47 272.19C273.904 272.432 274.394 272.552 274.89 272.54C275.393 272.554 275.89 272.433 276.33 272.19C276.75 271.956 277.096 271.609 277.33 271.19C277.576 270.754 277.701 270.26 277.69 269.76V259.07H282.39V270.15C282.434 271.343 282.117 272.522 281.48 273.531C280.843 274.541 279.916 275.335 278.82 275.81C277.577 276.357 276.228 276.624 274.87 276.59Z" fill="white"/>
<path d="M293.36 276.38L288.77 259.07H294L295.4 265.76C295.58 266.61 295.74 267.53 295.88 268.54C296.02 269.55 296.16 270.54 296.29 271.54C296.42 272.54 296.56 273.46 296.7 274.32H295.77C295.94 273.46 296.09 272.54 296.24 271.54C296.39 270.54 296.54 269.54 296.7 268.54C296.86 267.54 297.03 266.61 297.23 265.76L298.76 259.05H303.46L305 265.76C305.19 266.61 305.37 267.53 305.53 268.54C305.69 269.55 305.84 270.54 305.99 271.54C306.14 272.54 306.29 273.46 306.45 274.32H305.51C305.66 273.46 305.8 272.54 305.93 271.54C306.06 270.54 306.2 269.54 306.34 268.54C306.48 267.54 306.64 266.61 306.81 265.76L308.21 259.05H313.46L308.87 276.36H303.56L301.84 269.31C301.527 268.012 301.294 266.696 301.14 265.37C300.96 263.96 300.75 262.6 300.5 261.3H301.73C301.432 262.639 301.215 263.995 301.08 265.36C300.944 266.69 300.72 268.009 300.41 269.31L298.68 276.36L293.36 276.38Z" fill="white"/>
<path d="M317.26 276.38L322.87 259.07H329.28L335.11 276.38H329.78L327.78 269.67C327.35 268.21 326.94 266.67 326.56 265.13C326.18 263.59 325.82 262 325.48 260.45H326.55C326.23 261.996 325.897 263.556 325.55 265.13C325.22 266.7 324.85 268.21 324.43 269.67L322.51 276.38H317.26ZM321.42 273.06V269.55H331V273.06H321.42Z" fill="white"/>
<path d="M341.52 276.38V259.07H349C350.162 259.043 351.315 259.282 352.37 259.77C353.302 260.203 354.087 260.898 354.63 261.77C355.191 262.727 355.471 263.822 355.44 264.93C355.475 266.032 355.187 267.12 354.61 268.06C354.057 268.925 353.25 269.599 352.3 269.99C351.202 270.447 350.019 270.669 348.83 270.64H344.37V267H347.88C348.365 267.012 348.849 266.941 349.31 266.79C349.679 266.673 349.999 266.438 350.22 266.12C350.446 265.766 350.554 265.349 350.53 264.93C350.551 264.505 350.443 264.083 350.22 263.72C349.998 263.399 349.679 263.158 349.31 263.03C348.849 262.876 348.366 262.801 347.88 262.81H346.23V276.36L341.52 276.38ZM350.88 276.38L346.65 268.43H351.65L356 276.38H350.88Z" fill="white"/>
<path d="M361.59 276.38L367.21 259.07H373.62L379.44 276.38H374.12L372.12 269.67C371.69 268.21 371.28 266.67 370.9 265.13C370.52 263.59 370.16 262 369.82 260.45H370.89C370.557 261.996 370.223 263.556 369.89 265.13C369.56 266.7 369.18 268.21 368.76 269.67L366.85 276.38H361.59ZM365.75 273.06V269.55H375.28V273.06H365.75Z" fill="white"/>
<path d="M391.55 276.61C389.856 276.723 388.181 276.203 386.85 275.15C386.286 274.617 385.845 273.966 385.56 273.244C385.275 272.521 385.152 271.745 385.2 270.97V269.89H389.9V271.06C389.86 271.574 390.013 272.084 390.33 272.49C390.66 272.798 391.094 272.969 391.545 272.969C391.996 272.969 392.43 272.798 392.76 272.49C393.067 272.072 393.213 271.557 393.17 271.04V259.04H397.8V270.91C397.849 271.686 397.73 272.463 397.45 273.188C397.171 273.913 396.737 274.569 396.18 275.11C394.881 276.175 393.227 276.711 391.55 276.61Z" fill="white"/>
<path d="M403.75 276.38L409.36 259.07H415.77L421.6 276.38H416.27L414.27 269.67C413.84 268.21 413.43 266.67 413.05 265.13C412.67 263.59 412.31 262 411.97 260.45H413C412.68 261.996 412.347 263.556 412 265.13C411.67 266.7 411.29 268.21 410.88 269.67L409 276.38H403.75ZM407.91 273.06V269.55H417.44V273.06H407.91Z" fill="white"/>
<path d="M317.59 297.601C317.59 304.41 313.23 308.502 312.694 317.682H317.208V320.36H309.826V319.442C309.826 308.464 314.76 304.295 314.76 297.792C314.76 294.962 314.263 293.585 313.651 293.585C312.962 293.585 312.503 294.924 312.503 298.366V300.776H309.826V298.175C309.826 293.126 311.164 291.099 313.765 291.099C316.175 291.099 317.59 293.088 317.59 297.601ZM318.645 305.825C318.645 293.126 320.213 291.099 323.005 291.099C325.836 291.099 327.366 293.126 327.366 305.825C327.366 318.562 325.836 320.551 323.005 320.551C320.213 320.551 318.645 318.562 318.645 305.825ZM324.306 305.825C324.306 295.536 323.923 293.585 323.005 293.585C322.164 293.585 321.705 295.536 321.705 305.825C321.705 316.114 322.164 318.103 323.005 318.103C323.923 318.103 324.306 316.114 324.306 305.825ZM336.379 297.601C336.379 304.41 332.019 308.502 331.483 317.682H335.997V320.36H328.614V319.442C328.614 308.464 333.549 304.295 333.549 297.792C333.549 294.962 333.051 293.585 332.439 293.585C331.751 293.585 331.292 294.924 331.292 298.366V300.776H328.614V298.175C328.614 293.126 329.953 291.099 332.554 291.099C334.964 291.099 336.379 293.088 336.379 297.601ZM343.503 320.36H340.672L340.711 314.508H335.891V312.786L339.219 291.29H343.503V311.983H345.071V314.508H343.503V320.36ZM338.377 311.983H340.749L340.902 294.006L338.377 311.983Z" fill="white"/>
<path d="M321.91 779.14C320.54 778.65 319.53 778.25 318.38 777.82L315.08 776.54L308.6 773.95C304.3 772.21 300.06 770.42 295.83 768.61C287.377 764.977 279.003 761.21 270.71 757.31C254.12 749.49 237.79 741.12 221.78 732.03C213.78 727.51 205.87 722.74 198.06 717.81C190.25 712.88 182.55 707.68 175 702.25C167.45 696.82 160.05 691.1 152.88 685.02C149.27 682.02 145.78 678.82 142.29 675.65L137.17 670.76C135.45 669.11 133.88 667.46 132.23 665.76C106.593 639.402 84.8295 609.537 67.59 577.06C59.0317 561.029 51.6781 544.383 45.59 527.26C39.5463 510.235 34.9991 492.715 32 474.9L39.56 473.22C49.08 506.93 64.81 538.47 84.25 567.06C103.551 595.48 126.782 621.02 153.25 642.92C154.91 644.23 156.54 645.65 158.2 646.86L163.15 650.59C166.57 652.98 169.93 655.4 173.46 657.66C180.46 662.24 187.68 666.554 195.12 670.6C210.09 678.728 225.485 686.045 241.24 692.52C257.05 699.08 273.19 705 289.51 710.36C297.67 713.027 305.867 715.564 314.1 717.97C318.21 719.16 322.33 720.32 326.43 721.42L332.56 723.03L335.56 723.79C336.56 724.03 337.62 724.3 338.37 724.46L321.91 779.14Z" fill="#271B4C"/>
<path d="M324.86 767.14C323.86 766.74 323.11 766.39 322.25 766.02L319.75 764.94L314.82 762.76L305 758.36C298.52 755.36 292.08 752.36 285.68 749.36C272.88 743.25 260.19 736.98 247.68 730.36C235.17 723.74 222.82 716.91 210.68 709.65C198.54 702.39 186.68 694.76 175.22 686.47C172.37 684.39 169.5 682.34 166.72 680.16L162.52 676.92L158.39 673.59C155.61 671.42 152.98 669.04 150.28 666.76C148.94 665.61 147.66 664.38 146.35 663.2C145.04 662.02 143.7 660.84 142.47 659.58C132.438 649.749 122.947 639.38 114.04 628.52C96.3567 606.859 80.7606 583.576 67.46 558.98L69.0099 558.15C72.2499 564.29 75.59 570.39 79.27 576.29C81.05 579.29 82.99 582.15 84.85 585.08C85.85 586.53 86.8499 587.95 87.7899 589.38C88.7299 590.81 89.7899 592.25 90.7899 593.65C94.7899 599.34 99.05 604.81 103.41 610.21C107.77 615.61 112.32 620.83 117.08 625.87C126.495 636.001 136.567 645.502 147.23 654.31C157.771 663.114 168.974 671.094 180.74 678.18C183.65 680 186.65 681.69 189.61 683.42C192.57 685.15 195.61 686.77 198.66 688.42C204.74 691.653 210.893 694.73 217.12 697.65C229.56 703.54 242.29 708.82 255.18 713.65C268.07 718.48 281.18 722.83 294.34 726.65C300.94 728.59 307.57 730.39 314.23 732.05C317.55 732.87 320.87 733.71 324.23 734.43L329.23 735.52L331.7 736.02C332.51 736.18 333.38 736.35 334.08 736.46L324.86 767.14Z" fill="white"/>
<path d="M330.23 706.06C319.31 702.95 308.11 699.45 296.83 695.62C227.77 671.73 195.37 651.62 174.91 636.82C147.558 615.501 123.616 590.136 103.91 561.6C84.0735 533.187 69.0899 501.679 59.5699 468.36L59.3699 467.65C55.9078 452.128 54.1508 436.274 54.1299 420.37V90.7002C54.1299 73.7926 60.8464 57.5776 72.8018 45.6221C84.7573 33.6667 100.972 26.9502 117.88 26.9502H540.13C557.037 26.9502 573.253 33.6667 585.208 45.6221C597.163 57.5776 603.88 73.7926 603.88 90.7002V419.76C603.875 437.257 601.916 454.698 598.04 471.76C581.04 532.19 544.04 588.53 493.62 630.48C467.37 651.96 435.56 666.99 410.74 677.7C384.511 688.797 357.623 698.269 330.23 706.06Z" stroke="white" stroke-width="5" stroke-miterlimit="10"/>
<mask id="mask0_122_281" style="mask-type:luminance" maskUnits="userSpaceOnUse" x="0" y="7" width="658" height="700">
<path d="M0 7.3999V547.15L218.61 666.21L221.91 664.98C240.64 674.28 264.79 684.54 296.83 695.62C308.11 699.45 319.31 702.95 330.23 706.06C357.622 698.288 384.51 688.837 410.74 677.76C435.56 667.05 467.37 652.02 493.62 630.54C525.48 604.017 552.069 571.74 572 535.39L658 534.22V7.3999H0Z" fill="white"/>
</mask>
<g mask="url(#mask0_122_281)">
<path d="M266.07 684.33C322.83 641.86 317.61 590.95 334.87 471.55C335.03 470.46 335.19 469.35 335.36 468.23C336.027 463.876 336.81 459.366 337.71 454.7C340.665 438.959 344.457 423.387 349.07 408.05C349.72 405.93 350.37 403.84 351.07 401.78C360.38 373.01 371.51 350.78 383.16 333.69C385.85 329.69 388.58 326.03 391.31 322.59C406.11 303.99 421.23 292.79 434.13 286.05C443.058 281.239 452.728 277.957 462.74 276.34H462.84C464.63 276.08 466.02 275.96 466.97 275.9C467.92 275.84 468.41 275.85 468.41 275.85C477.58 242.44 520.15 228.54 520.15 228.54L517.49 260.47C528.72 246.28 549.42 246.87 549.42 246.87C549.42 246.87 543.5 259.29 541.73 270.53C540.08 281 528.65 284.79 527.12 285.26H526.99L527.6 285.57L528.79 286.18C540.54 292.38 556.54 302.62 563.06 306.87L565.9 308.72L566.01 308.8C566.95 312.01 568.01 315.05 569.08 317.95C569.08 317.95 569.08 318.04 569.08 318.09C588.02 367.47 630.18 373.16 632.48 373.43H632.58C632.58 373.43 632.68 373.88 632.89 374.72C635.211 384.082 638.257 393.25 642 402.14L642.39 403.06C644.417 407.728 644.536 413.005 642.72 417.76C641.996 419.707 641.036 421.557 639.86 423.27C634.99 430.37 626.19 433.13 617.97 435.44C610.36 437.58 602.31 446.77 602.31 446.77C602.21 446.18 579.07 428.97 572.49 424.2C557.49 413.28 536.07 408.2 536.07 408.2C519.22 420.03 500.89 415.6 500.89 415.6C500.36 416.37 499.89 417.14 499.36 417.9C497.491 420.769 495.846 423.778 494.44 426.9C484.13 449.9 496.59 464.29 513.27 480.23C522.51 489.07 531 491.68 548.09 515.36C548.09 515.36 599.65 575.49 585.25 653.36L332.55 727.12L266.07 684.33Z" fill="url(#paint28_linear_122_281)"/>
<path opacity="0.7" d="M530.3 321.6L552.37 330.67C552.37 330.67 572.08 370.88 598.49 379.16C598.49 379.16 596.91 388.62 603.22 394.92C603.22 394.92 609.53 374.82 623.72 388.62C637.91 402.42 602.27 443.31 602.27 443.31C602.27 443.31 608.85 436.9 617.81 435.23C626.47 433.61 650.13 425.67 642.25 402.81C634.37 379.95 632.39 373.24 632.39 373.24C632.39 373.24 583.91 368.91 565.77 308.6L526.77 285.04C526.77 285.04 565.38 312.14 530.3 321.6Z" fill="url(#paint29_linear_122_281)"/>
<path d="M603 394.53C603 394.53 597.29 374.62 621.33 385.46C621.35 385.46 606 386.05 603 394.53Z" fill="#E08282"/>
<path opacity="0.7" d="M526.36 321.05C526.36 321.05 525.26 348.11 553.36 357.18L551.43 331.31L526.36 321.05Z" fill="url(#paint30_linear_122_281)"/>
<path opacity="0.5" d="M526.16 320.51C526.16 320.51 547.35 318.33 554.53 328.69C559.86 336.39 573.66 361.69 573.66 361.69L551.39 336.27C551.39 336.27 533.84 342.39 526.16 320.51Z" fill="#C65252"/>
<path d="M506.79 280.46C506.79 280.46 527.04 254.89 539.79 252.97C539.76 252.97 537.39 289.18 506.79 280.46Z" fill="url(#paint31_linear_122_281)"/>
<path d="M476.05 289.48C476.05 289.48 483.29 257.99 511.67 246.17C511.67 246.17 509.9 273.81 498.67 279.43C498.66 279.43 488.61 278.69 476.05 289.48Z" fill="url(#paint32_linear_122_281)"/>
<path opacity="0.7" d="M535.91 408.03C535.91 408.03 552.03 402.27 567.25 383.34C569.991 388.338 573.875 392.618 578.584 395.829C583.294 399.041 588.696 401.094 594.35 401.82C594.35 401.82 597.59 413.82 602.35 446.82C602.32 446.81 583.69 421.06 535.91 408.03Z" fill="url(#paint33_linear_122_281)"/>
<path d="M504.32 415.97C483.46 413.58 446.93 416.9 451.06 347.72C451.06 347.72 455.79 417.79 552.32 398.27C552.32 398.27 541.43 405.76 535.91 408.03C526.681 414.397 515.463 417.217 504.32 415.97Z" fill="url(#paint34_linear_122_281)"/>
<path d="M500.65 415.6C500.65 415.6 447.28 416.55 451.06 347.72C451.06 347.72 428.3 417.2 494.52 426.95L500.65 415.6Z" fill="url(#paint35_linear_122_281)"/>
<path d="M467.83 275.2C467.83 275.2 407.15 275.94 392.83 310.63C392.83 310.63 343.25 337.78 344.9 372.83C344.9 372.83 304.55 401.37 323.74 439.83C342.93 478.29 337.89 490.52 337.89 490.52C337.89 490.52 348 470.76 349.4 458.43C351.04 444.64 352 424.29 354.87 418.02C354.87 418.02 375.87 452.65 370.72 470.25C370.72 470.25 390.46 455.49 390.12 431.64C389.76 406.64 386.02 381.75 390.02 369.82C390.02 369.82 409.13 400.93 407.68 415.68C407.68 415.68 429.68 396.68 434.24 305.74C434.24 305.76 446.65 291.76 467.83 275.2Z" fill="url(#paint36_linear_122_281)"/>
<path d="M337.87 490.57C337.87 490.57 340.79 472.82 319.21 441.34C297.63 409.86 336.88 378 344.88 372.83L354.77 419.29C354.77 419.29 359.15 456.91 337.87 490.57Z" fill="url(#paint37_linear_122_281)"/>
<path opacity="0.7" d="M344.82 372.76C344.82 372.76 299.82 403.04 316.56 436.92C316.56 436.92 307.23 405.07 346.96 380.31L344.82 372.76Z" fill="url(#paint38_linear_122_281)"/>
<path d="M370.72 470.25C370.72 470.25 374.85 453 354.72 419.25C334.59 385.5 337 342.86 391.69 308.76L389.85 371.43C389.85 371.43 407.37 444.76 370.72 470.25Z" fill="url(#paint39_linear_122_281)"/>
<path opacity="0.7" d="M391.2 309.16C391.2 309.16 335 339.76 344 390.67C344 390.67 341.73 345.98 385.91 321.09L391.2 309.16Z" fill="url(#paint40_linear_122_281)"/>
<path d="M406.88 417.17C406.88 417.17 408.61 405.96 389.88 371.47C371.15 336.98 386.41 270.73 467.88 275.2C467.88 275.2 434.76 280.2 434.29 305.74C433.82 331.28 433.4 394.68 406.88 417.17Z" fill="url(#paint41_linear_122_281)"/>
<path opacity="0.7" d="M467.23 275.3L467.83 275.2C466.138 275.048 464.439 274.991 462.74 275.03C445.92 274.19 390.85 277.59 383.12 333.39C383.12 333.39 396.05 287.28 449.2 277.22C429.83 283.09 422.5 300.31 425 315.67C436 383.38 406.88 417.17 406.88 417.17C434.11 393.76 433.52 331.45 434.24 305.76C434.9 282.59 461.65 276.37 466.93 275.37H467.58L467.23 275.3Z" fill="url(#paint42_linear_122_281)"/>
<path d="M560.25 341.51C560.25 341.51 550.35 306.44 520.63 322.84C520.63 322.84 524.16 323.37 528.77 329.92C533.27 336.32 541.21 344.61 551.37 336C552 335.45 554 334.37 560.25 341.51Z" fill="url(#paint43_linear_122_281)"/>
<path d="M556.87 330.17C556.87 330.17 554.8 302.59 512.18 318.46C512.18 318.46 536 309.89 556.87 330.17Z" fill="url(#paint44_linear_122_281)"/>
<path opacity="0.5" d="M526.36 323.89C526.36 323.89 541.24 344.02 551.49 333.09C549.4 322.83 533 318.51 526.36 323.89Z" fill="#C65252"/>
<mask id="mask1_122_281" style="mask-type:luminance" maskUnits="userSpaceOnUse" x="266" y="228" width="379" height="500">
<path d="M266.07 684.33C322.83 641.86 317.61 590.95 334.87 471.55C335.03 470.46 335.19 469.35 335.36 468.23C336.027 463.876 336.81 459.366 337.71 454.7C340.665 438.959 344.457 423.387 349.07 408.05C349.72 405.93 350.37 403.84 351.07 401.78C360.38 373.01 371.51 350.78 383.16 333.69C385.85 329.69 388.58 326.03 391.31 322.59C406.11 303.99 421.23 292.79 434.13 286.05C443.058 281.239 452.728 277.957 462.74 276.34H462.84C464.63 276.08 466.02 275.96 466.97 275.9C467.92 275.84 468.41 275.85 468.41 275.85C477.58 242.44 520.15 228.54 520.15 228.54L517.49 260.47C528.72 246.28 549.42 246.87 549.42 246.87C549.42 246.87 543.5 259.29 541.73 270.53C540.08 281 528.65 284.79 527.12 285.26H526.99L527.6 285.57L528.79 286.18C540.54 292.38 556.54 302.62 563.06 306.87L565.9 308.72L566.01 308.8C566.95 312.01 568.01 315.05 569.08 317.95C569.08 317.95 569.08 318.04 569.08 318.09C588.02 367.47 630.18 373.16 632.48 373.43H632.58C632.58 373.43 632.68 373.88 632.89 374.72C635.211 384.082 638.257 393.25 642 402.14L642.39 403.06C644.417 407.728 644.536 413.005 642.72 417.76C641.996 419.707 641.036 421.557 639.86 423.27C634.99 430.37 626.19 433.13 617.97 435.44C610.36 437.58 602.31 446.77 602.31 446.77C602.21 446.18 579.07 428.97 572.49 424.2C557.49 413.28 536.07 408.2 536.07 408.2C519.22 420.03 500.89 415.6 500.89 415.6C500.36 416.37 499.89 417.14 499.36 417.9C497.491 420.769 495.846 423.778 494.44 426.9C484.13 449.9 496.59 464.29 513.27 480.23C522.51 489.07 531 491.68 548.09 515.36C548.09 515.36 599.65 575.49 585.25 653.36L332.55 727.12L266.07 684.33Z" fill="white"/>
</mask>
<g mask="url(#mask1_122_281)">
<path style="mix-blend-mode:multiply" opacity="0.35" d="M405.11 471.62C405.11 471.62 476.05 592.14 432.32 630.76C368.39 687.18 321.73 738.21 321.73 738.21L244.61 684.88L320.39 499.34L405.11 471.62Z" fill="url(#paint45_linear_122_281)"/>
<path style="mix-blend-mode:multiply" opacity="0.35" d="M405.11 471.62C405.11 471.62 450.74 612.82 396.5 636.93C318.58 671.55 254.41 720.35 254.41 720.35L184 621.05L371.82 489.63L405.11 471.62Z" fill="url(#paint46_linear_122_281)"/>
</g>
<path d="M106 279.76C106 279.76 66.8603 247.43 42.3103 162.95C42.3103 162.95 -57.6897 313.95 87.6803 406.45L146 383.59L106 279.76Z" fill="url(#paint47_linear_122_281)"/>
<path d="M106 279.76C106 279.76 66.86 247.43 42.3101 162.95C42.3101 162.95 -3.82995 302.06 134.66 388.88L146 383.59L106 279.76Z" fill="url(#paint48_linear_122_281)"/>
<path d="M98.1401 413.51C98.1401 413.51 51.2101 403.22 8.0001 348.24C8.0001 348.24 -18.2399 473.24 114.91 490.36L218 488.2L98.1401 413.51Z" fill="url(#paint49_linear_122_281)"/>
<path d="M98.14 413.51C98.14 413.51 51.21 403.22 8 348.24C8 348.24 8.37999 444.35 157.86 477.09L218 488.2L98.14 413.51Z" fill="url(#paint50_linear_122_281)"/>
<path d="M115.56 497.83C115.56 497.83 64.92 493.05 22.73 462.24C22.73 462.24 43.38 580.62 160.39 560.46L209.39 545.95L115.56 497.83Z" fill="url(#paint51_linear_122_281)"/>
<path d="M115.56 497.83C115.56 497.83 64.92 493.05 22.73 462.24C22.73 462.24 57.03 537.9 161.73 543.05L209.41 545.95L115.56 497.83Z" fill="url(#paint52_linear_122_281)"/>
<path d="M168.9 563.76C168.9 563.76 116.27 579.039 72.9502 558.479C72.9502 558.479 126.95 666.12 234.51 609.37C342.07 552.62 248.21 582.13 248.21 582.13L168.9 563.76Z" fill="url(#paint53_linear_122_281)"/>
<path d="M168.9 563.76C168.9 563.76 116.27 579.04 72.9502 558.48C72.9502 558.48 143.11 635.89 236.35 582.03C341.51 521.29 241.2 570.86 241.2 570.86L168.9 563.76Z" fill="url(#paint54_linear_122_281)"/>
<path d="M240 614.1C240 614.1 206.1 635.82 160.06 646.35C160.06 646.35 246.94 692.75 306.39 632.86C365.84 572.97 306.26 608.38 306.26 608.38L240 614.1Z" fill="url(#paint55_linear_122_281)"/>
<path d="M240 614.1C240 614.1 206.1 635.82 160.06 646.35C160.06 646.35 249.84 672.05 304.86 608.48C359.88 544.91 298.77 600.95 298.77 600.95L240 614.1Z" fill="url(#paint56_linear_122_281)"/>
<path d="M310.66 631.24C310.66 631.24 285.18 657.42 258.44 680.18C258.44 680.18 424.61 680.59 387.71 542.68L310.66 631.24Z" fill="url(#paint57_linear_122_281)"/>
<path d="M310.66 631.24C310.66 631.24 285.18 657.42 258.44 680.18C258.44 680.18 399.66 647.81 387.71 542.68L310.66 631.24Z" fill="url(#paint58_linear_122_281)"/>
<path d="M254.25 369.7C254.25 369.7 148.53 320.05 120.76 207.96C120.76 207.96 -7.23994 406.54 285.07 438.62L254.25 369.7Z" fill="url(#paint59_linear_122_281)"/>
<path d="M254.25 369.7C254.25 369.7 148.53 320.05 120.76 207.96C120.76 207.96 82.3999 384.33 284.12 409.96L254.25 369.7Z" fill="url(#paint60_linear_122_281)"/>
<path d="M284.73 435.15C284.73 435.15 138.5 422.86 82.4103 338.51C82.4103 338.51 34.4103 531.28 297.21 473.79L284.73 435.15Z" fill="url(#paint61_linear_122_281)"/>
<path d="M284.73 435.15C284.73 435.15 138.5 422.86 82.4102 338.51C82.4102 338.51 89.8902 482.82 291.63 454.8L284.73 435.15Z" fill="url(#paint62_linear_122_281)"/>
<path d="M297.89 472.01C297.89 472.01 174.08 509.95 92.3604 452.6C92.3604 452.6 106.31 616.8 333.18 514.41L297.89 472.01Z" fill="url(#paint63_linear_122_281)"/>
<path d="M297.89 472.01C297.89 472.01 174.08 509.95 92.3604 452.6C92.3604 452.6 152.12 572.78 311.53 489.13L297.89 472.01Z" fill="url(#paint64_linear_122_281)"/>
<path d="M320.39 499.31C320.39 499.31 244.6 563.31 135.32 543.79C135.32 543.79 212.89 672.58 343.11 527.43L320.39 499.31Z" fill="url(#paint65_linear_122_281)"/>
<path d="M320.39 499.31C320.39 499.31 244.6 563.31 135.32 543.79C135.32 543.79 219.71 630.9 329.77 514.79L320.39 499.31Z" fill="url(#paint66_linear_122_281)"/>
<path d="M339.76 524.14C339.76 524.14 308.33 578.52 206.29 606.81C206.29 606.81 316.14 683.81 371.47 539.15L339.76 524.14Z" fill="url(#paint67_linear_122_281)"/>
<path d="M339.76 524.14C339.76 524.14 308.33 578.52 206.29 606.81C206.29 606.81 301.48 643.99 355.99 533.36L339.76 524.14Z" fill="url(#paint68_linear_122_281)"/>
<path d="M369.57 538.14C369.57 538.14 348.91 600.33 288.39 636.53C288.39 636.53 417.39 651.05 394.66 547.25L369.57 538.14Z" fill="url(#paint69_linear_122_281)"/>
<path d="M369.57 538.14C369.57 538.14 348.91 600.33 288.39 636.53C288.39 636.53 392.39 629.47 384.9 541.53L369.57 538.14Z" fill="url(#paint70_linear_122_281)"/>
<path d="M399.6 558.76C399.6 558.76 276.24 530.83 274.73 417.53L233.28 357.53L311.48 402.58C311.48 402.58 304.48 484.08 404.6 471.58C404.6 471.62 432.13 550.7 399.6 558.76Z" fill="url(#paint71_linear_122_281)"/>
<path d="M233.28 357.57L311.48 402.62C311.48 402.62 304.82 483.86 404.6 471.62C404.6 471.62 431.7 552.9 399.6 558.74C399.6 558.74 424.35 546.94 394.79 492.32C394.79 492.32 309.69 494.56 300.49 409.84L233.28 357.57Z" fill="url(#paint72_linear_122_281)"/>
<path d="M400.1 558.76C400.1 558.76 276.75 530.83 275.24 417.53L233.79 357.53L311.99 402.53C311.99 402.53 304.99 484.04 405.11 471.53C405.11 471.62 432.64 550.7 400.1 558.76Z" fill="url(#paint73_linear_122_281)"/>
</g>
<path d="M582.25 514.88C561.725 559.571 531.438 599.091 493.62 630.53C467.37 652.01 435.56 667.04 410.74 677.75C384.51 688.83 357.622 698.285 330.23 706.06C319.31 702.95 308.11 699.45 296.83 695.62C274.544 688.06 252.667 679.342 231.29 669.5" stroke="white" stroke-width="5" stroke-miterlimit="10"/>
<path d="M321.91 724.46C322.66 724.31 323.75 724.03 324.7 723.8L327.7 723.04L333.79 721.44C337.86 720.35 341.95 719.19 346.03 718.02C354.197 715.64 362.337 713.123 370.45 710.47C386.67 705.16 402.7 699.28 418.45 692.79C434.102 686.371 449.407 679.134 464.3 671.11C471.71 667.11 478.87 662.82 485.86 658.33C487.59 657.18 489.35 656.06 491.06 654.9L496.13 651.34C497.83 650.16 499.42 648.89 501.08 647.66C501.9 647.04 502.73 646.45 503.54 645.8L506 643.8C532.397 622.247 555.477 596.925 574.5 568.65C593.67 540.21 608.92 508.72 618.38 475.21L625.94 476.89C620.1 512.16 608.01 546.54 591.23 578.6C574.274 611.014 552.632 640.751 527 666.85L524.57 669.31L522 671.76C520.29 673.38 518.63 675.07 516.89 676.63L511.67 681.35C509.91 682.89 508.12 684.35 506.34 685.9C499.18 691.9 491.85 697.59 484.34 702.9C469.369 713.537 453.847 723.377 437.84 732.38C421.947 741.393 405.747 749.757 389.24 757.47C381 761.343 372.687 765.083 364.3 768.69C360.09 770.48 355.88 772.26 351.61 773.98L345.17 776.56L341.9 777.83C340.76 778.26 339.75 778.65 338.39 779.14L321.91 724.46Z" fill="#271B4C"/>
<path d="M325.53 736.46C326.23 736.35 327.1 736.18 327.9 736.02L330.38 735.52L335.38 734.43C338.72 733.71 342.03 732.87 345.38 732.05C352.047 730.39 358.677 728.59 365.27 726.65C378.457 722.783 391.51 718.45 404.43 713.65C417.32 708.82 430.05 703.54 442.49 697.65C448.73 694.737 454.883 691.66 460.95 688.42C463.95 686.81 466.95 685.13 469.95 683.42C472.95 681.71 475.95 680 478.83 678.18C490.594 671.092 501.797 663.112 512.34 654.31C523.004 645.502 533.075 636.001 542.49 625.87C547.25 620.87 551.76 615.57 556.16 610.21C560.56 604.85 564.8 599.34 568.78 593.65C569.78 592.25 570.78 590.82 571.78 589.38C572.78 587.94 573.78 586.53 574.71 585.08C576.57 582.15 578.52 579.27 580.3 576.29C583.98 570.39 587.3 564.29 590.55 558.15L592.11 558.98C578.81 583.578 563.21 606.862 545.52 628.52C536.616 639.383 527.125 649.752 517.09 659.58C515.86 660.84 514.51 661.99 513.22 663.2C511.93 664.41 510.63 665.61 509.29 666.76C506.59 669.04 503.96 671.42 501.18 673.59L497 676.91L492.81 680.15C490.03 682.33 487.16 684.38 484.3 686.46C472.88 694.76 461 702.36 448.88 709.64C436.76 716.92 424.43 723.79 411.88 730.35C399.33 736.91 386.69 743.23 373.88 749.35C367.48 752.41 361.04 755.35 354.56 758.35L344.82 762.76L339.88 764.95L337.38 766.03C336.53 766.4 335.74 766.75 334.77 767.15L325.53 736.46Z" fill="white"/>
<path d="M330.15 791.52C359.603 791.52 383.48 767.643 383.48 738.19C383.48 708.737 359.603 684.86 330.15 684.86C300.697 684.86 276.82 708.737 276.82 738.19C276.82 767.643 300.697 791.52 330.15 791.52Z" fill="#F6AC94" stroke="white" stroke-width="10" stroke-miterlimit="10"/>
<path d="M330.15 782.92C354.854 782.92 374.88 762.894 374.88 738.19C374.88 713.486 354.854 693.46 330.15 693.46C305.446 693.46 285.42 713.486 285.42 738.19C285.42 762.894 305.446 782.92 330.15 782.92Z" fill="url(#paint74_radial_122_281)"/>
<path d="M305.8 737.83L298.31 716.64H305.49L310.08 730.64H310.2L314.91 716.64H321.36L313.86 737.83L321.73 760.01H314.54L309.54 744.89H309.42L304.34 760.01H297.89L305.8 737.83Z" fill="#271B4C"/>
<path d="M324.7 716.64H331.58L336 750.28H336.12L340.58 716.64H346.84L340.27 760.01H331.27L324.7 716.64Z" fill="#271B4C"/>
<path d="M351.71 716.64H358.53V760.01H351.71V716.64Z" fill="#271B4C"/>
<path d="M799.8 425.3V598H756.9V425.3L716.2 180H758.55L777.25 341.15L779.45 363.15L781.65 341.15L800.35 180H840.5L799.8 425.3ZM855.556 458.3V180H898.456V436.85C898.456 544.65 905.056 565.55 917.156 565.55C929.806 565.55 936.406 544.65 936.406 436.85V180H978.756V458.3C978.756 571.6 960.606 600.75 917.156 600.75C874.256 600.75 855.556 571.6 855.556 458.3ZM996.073 180H1036.22L1053.27 518.8L1056.02 563.9L1058.77 518.8L1078.02 180H1131.92L1150.62 518.8L1153.37 562.25L1155.57 518.8L1173.17 180H1213.32L1184.72 598H1124.22L1107.17 259.75L1104.97 215.75L1102.22 259.75L1085.17 598H1024.12L996.073 180ZM1255.22 180H1316.27L1350.92 598H1307.47L1303.07 517.15H1267.32L1262.37 598H1221.12L1255.22 180ZM1282.72 259.75L1269.52 478.1H1300.87L1288.22 259.75L1285.47 216.85L1282.72 259.75ZM1369.08 180H1410.33C1468.08 180 1492.28 210.25 1492.28 294.4C1492.28 344.45 1481.83 370.85 1462.58 386.25L1491.73 598H1450.48L1427.38 403.85C1422.43 404.4 1416.38 404.95 1411.43 404.95V598H1369.08V180ZM1417.48 219.05H1411.43V369.75H1417.48C1438.38 369.75 1449.38 357.1 1449.38 294.4C1449.38 230.6 1438.38 219.05 1417.48 219.05ZM1537.2 180H1598.25L1632.9 598H1589.45L1585.05 517.15H1549.3L1544.35 598H1503.1L1537.2 180ZM1564.7 259.75L1551.5 478.1H1582.85L1570.2 259.75L1567.45 216.85L1564.7 259.75ZM1642.82 455V388.45H1681.87V434.1C1681.87 547.4 1686.82 565.55 1697.27 565.55C1708.27 565.55 1713.22 547.4 1713.22 434.1V219.05H1646.12V180H1754.47V455C1754.47 576 1737.97 600.75 1697.27 600.75C1657.12 600.75 1642.82 576 1642.82 455ZM1805.76 180H1866.81L1901.46 598H1858.01L1853.61 517.15H1817.86L1812.91 598H1771.66L1805.76 180ZM1833.26 259.75L1820.06 478.1H1851.41L1838.76 259.75L1836.01 216.85L1833.26 259.75ZM2051.36 380.2L2089.86 598H2047.51L2028.26 450.6L2026.61 434.65L2024.96 450.6L2005.71 598H1965.01L2002.96 379.1L1965.01 180H2007.36L2026.61 311.45L2028.26 326.85L2029.91 311.45L2049.16 180H2089.86L2051.36 380.2ZM2131.78 598L2097.68 180H2140.58L2159.83 518.8L2163.13 562.8L2165.88 518.8L2186.23 180H2227.48L2192.83 598H2131.78ZM2289.1 598H2245.65V180H2289.1V598Z" fill="#5A3079"/>
<defs>
<linearGradient id="paint0_linear_122_281" x1="329" y1="849.23" x2="329" y2="-251.79" gradientUnits="userSpaceOnUse">
<stop stop-color="#5A3079"/>
<stop offset="0.48" stop-color="#AE1C71"/>
<stop offset="1" stop-color="#FFBE98"/>
</linearGradient>
<radialGradient id="paint1_radial_122_281" cx="0" cy="0" r="1" gradientUnits="userSpaceOnUse" gradientTransform="translate(329 702.72) scale(515.05 515.05)">
<stop offset="0.06" stop-color="#D84784"/>
<stop offset="1" stop-color="#5A3079"/>
</radialGradient>
<linearGradient id="paint2_linear_122_281" x1="83.2976" y1="410.174" x2="28.4037" y2="84.0401" gradientUnits="userSpaceOnUse">
<stop stop-color="#C28832"/>
<stop offset="1" stop-color="#C6C1C1"/>
</linearGradient>
<linearGradient id="paint3_linear_122_281" x1="98.9507" y1="395.752" x2="65.259" y2="195.584" gradientUnits="userSpaceOnUse">
<stop stop-color="#C28832"/>
<stop offset="1" stop-color="#C6C1C1"/>
</linearGradient>
<linearGradient id="paint4_linear_122_281" x1="103.357" y1="486.669" x2="77.0676" y2="330.48" gradientUnits="userSpaceOnUse">
<stop stop-color="#C28832"/>
<stop offset="1" stop-color="#C6C1C1"/>
</linearGradient>
<linearGradient id="paint5_linear_122_281" x1="109.979" y1="493.698" x2="83.6887" y2="337.5" gradientUnits="userSpaceOnUse">
<stop stop-color="#C28832"/>
<stop offset="1" stop-color="#C6C1C1"/>
</linearGradient>
<linearGradient id="paint6_linear_122_281" x1="99.9511" y1="537.321" x2="81.8459" y2="429.754" gradientUnits="userSpaceOnUse">
<stop stop-color="#C28832"/>
<stop offset="1" stop-color="#C6C1C1"/>
</linearGradient>
<linearGradient id="paint7_linear_122_281" x1="100.65" y1="540.89" x2="82.7609" y2="434.609" gradientUnits="userSpaceOnUse">
<stop stop-color="#C28832"/>
<stop offset="1" stop-color="#C6C1C1"/>
</linearGradient>
<linearGradient id="paint8_linear_122_281" x1="150.625" y1="582.634" x2="137.466" y2="504.451" gradientUnits="userSpaceOnUse">
<stop stop-color="#C28832"/>
<stop offset="1" stop-color="#C6C1C1"/>
</linearGradient>
<linearGradient id="paint9_linear_122_281" x1="196" y1="565.748" x2="144.517" y2="525.149" gradientUnits="userSpaceOnUse">
<stop stop-color="#C28832"/>
<stop offset="1" stop-color="#C6C1C1"/>
</linearGradient>
<linearGradient id="paint10_linear_122_281" x1="206.019" y1="627.793" x2="199.152" y2="586.997" gradientUnits="userSpaceOnUse">
<stop stop-color="#C28832"/>
<stop offset="1" stop-color="#C6C1C1"/>
</linearGradient>
<linearGradient id="paint11_linear_122_281" x1="258.869" y1="599.562" x2="204.457" y2="579.042" gradientUnits="userSpaceOnUse">
<stop stop-color="#C28832"/>
<stop offset="1" stop-color="#C6C1C1"/>
</linearGradient>
<linearGradient id="paint12_linear_122_281" x1="314.574" y1="600.238" x2="238.109" y2="569.495" gradientUnits="userSpaceOnUse">
<stop stop-color="#C28832"/>
<stop offset="1" stop-color="#C6C1C1"/>
</linearGradient>
<linearGradient id="paint13_linear_122_281" x1="316.013" y1="591.369" x2="257.434" y2="586.439" gradientUnits="userSpaceOnUse">
<stop stop-color="#C28832"/>
<stop offset="1" stop-color="#C6C1C1"/>
</linearGradient>
<linearGradient id="paint14_linear_122_281" x1="176.736" y1="214.068" x2="364.867" y2="440.932" gradientUnits="userSpaceOnUse">
<stop offset="0.35" stop-color="#C69476"/>
<stop offset="1" stop-color="#C6C1C1"/>
</linearGradient>
<linearGradient id="paint15_linear_122_281" x1="207.052" y1="471.141" x2="174.065" y2="275.155" gradientUnits="userSpaceOnUse">
<stop stop-color="#C28832"/>
<stop offset="0.03" stop-color="#C69476"/>
<stop offset="1" stop-color="#C6C1C1"/>
</linearGradient>
<linearGradient id="paint16_linear_122_281" x1="178.063" y1="344.67" x2="374.433" y2="399.197" gradientUnits="userSpaceOnUse">
<stop offset="0.35" stop-color="#C69476"/>
<stop offset="1" stop-color="#C6C1C1"/>
</linearGradient>
<linearGradient id="paint17_linear_122_281" x1="182.237" y1="488.151" x2="159.163" y2="351.066" gradientUnits="userSpaceOnUse">
<stop stop-color="#C28832"/>
<stop offset="0.03" stop-color="#C69476"/>
<stop offset="1" stop-color="#C6C1C1"/>
</linearGradient>
<linearGradient id="paint18_linear_122_281" x1="208.268" y1="430.052" x2="372.161" y2="415.666" gradientUnits="userSpaceOnUse">
<stop stop-color="#C28832"/>
<stop offset="1" stop-color="#C6C1C1"/>
</linearGradient>
<linearGradient id="paint19_linear_122_281" x1="185.352" y1="527.963" x2="170.132" y2="437.536" gradientUnits="userSpaceOnUse">
<stop stop-color="#C28832"/>
<stop offset="1" stop-color="#C6C1C1"/>
</linearGradient>
<linearGradient id="paint20_linear_122_281" x1="163.988" y1="495.41" x2="245.139" y2="574.899" gradientUnits="userSpaceOnUse">
<stop stop-color="#C28832"/>
<stop offset="1" stop-color="#C6C1C1"/>
</linearGradient>
<linearGradient id="paint21_linear_122_281" x1="185.444" y1="504.718" x2="271.541" y2="589.055" gradientUnits="userSpaceOnUse">
<stop stop-color="#C28832"/>
<stop offset="1" stop-color="#C6C1C1"/>
</linearGradient>
<linearGradient id="paint22_linear_122_281" x1="189.948" y1="528.753" x2="286.146" y2="601.54" gradientUnits="userSpaceOnUse">
<stop stop-color="#C28832"/>
<stop offset="1" stop-color="#C6C1C1"/>
</linearGradient>
<linearGradient id="paint23_linear_122_281" x1="216.245" y1="540.251" x2="300.991" y2="611.863" gradientUnits="userSpaceOnUse">
<stop stop-color="#C28832"/>
<stop offset="1" stop-color="#C6C1C1"/>
</linearGradient>
<linearGradient id="paint24_linear_122_281" x1="244.821" y1="555.769" x2="325.28" y2="606.683" gradientUnits="userSpaceOnUse">
<stop stop-color="#C28832"/>
<stop offset="1" stop-color="#C6C1C1"/>
</linearGradient>
<linearGradient id="paint25_linear_122_281" x1="275.705" y1="569.129" x2="342.856" y2="598.763" gradientUnits="userSpaceOnUse">
<stop stop-color="#C28832"/>
<stop offset="1" stop-color="#C6C1C1"/>
</linearGradient>
<linearGradient id="paint26_linear_122_281" x1="311.44" y1="557.138" x2="278.459" y2="361.194" gradientUnits="userSpaceOnUse">
<stop stop-color="#B14D43"/>
<stop offset="1" stop-color="#C3C4BD"/>
</linearGradient>
<linearGradient id="paint27_linear_122_281" x1="258.698" y1="510.817" x2="319.124" y2="340.429" gradientUnits="userSpaceOnUse">
<stop stop-color="#B14D43"/>
<stop offset="0.51" stop-color="#C3C4BD"/>
</linearGradient>
<linearGradient id="paint28_linear_122_281" x1="668.87" y1="349.65" x2="233.65" y2="675.42" gradientUnits="userSpaceOnUse">
<stop offset="0.09" stop-color="white"/>
<stop offset="0.24" stop-color="#FFFCFA"/>
<stop offset="0.41" stop-color="#FFF4ED"/>
<stop offset="0.58" stop-color="#FFE5D7"/>
<stop offset="0.76" stop-color="#FFD2B7"/>
<stop offset="0.91" stop-color="#FFBE98"/>
</linearGradient>
<linearGradient id="paint29_linear_122_281" x1="462.88" y1="331.36" x2="674.43" y2="399.68" gradientUnits="userSpaceOnUse">
<stop stop-color="#FBB040"/>
<stop offset="0.84" stop-color="#FFF8F8"/>
</linearGradient>
<linearGradient id="paint30_linear_122_281" x1="525.31" y1="337.04" x2="573.73" y2="343.95" gradientUnits="userSpaceOnUse">
<stop stop-color="#FBB040"/>
<stop offset="0.62" stop-color="#FBB040" stop-opacity="0"/>
</linearGradient>
<linearGradient id="paint31_linear_122_281" x1="551.27" y1="257.02" x2="490.87" y2="285.81" gradientUnits="userSpaceOnUse">
<stop stop-color="white"/>
<stop offset="1" stop-color="#FFBE98"/>
</linearGradient>
<linearGradient id="paint32_linear_122_281" x1="534.87" y1="245.4" x2="466.74" y2="284.73" gradientUnits="userSpaceOnUse">
<stop offset="0.08" stop-color="white"/>
<stop offset="1" stop-color="#FFBE98"/>
</linearGradient>
<linearGradient id="paint33_linear_122_281" x1="544.04" y1="388.81" x2="604.84" y2="435.27" gradientUnits="userSpaceOnUse">
<stop stop-color="#FBB040"/>
<stop offset="0.73" stop-color="#FBB040" stop-opacity="0"/>
</linearGradient>
<linearGradient id="paint34_linear_122_281" x1="437.72" y1="372.32" x2="545.54" y2="402.52" gradientUnits="userSpaceOnUse">
<stop stop-color="#EA6659"/>
<stop offset="1" stop-color="#FCFDF4"/>
</linearGradient>
<linearGradient id="paint35_linear_122_281" x1="323.76" y1="358.73" x2="504.02" y2="393.38" gradientUnits="userSpaceOnUse">
<stop offset="0.27" stop-color="#FFBE98"/>
<stop offset="0.44" stop-color="#FFC09B"/>
<stop offset="0.58" stop-color="#FFC6A5"/>
<stop offset="0.71" stop-color="#FFD1B6"/>
<stop offset="0.83" stop-color="#FFDFCD"/>
<stop offset="0.94" stop-color="#FFF2EB"/>
<stop offset="1" stop-color="white"/>
</linearGradient>
<linearGradient id="paint36_linear_122_281" x1="363.501" y1="401.863" x2="518.994" y2="277.76" gradientUnits="userSpaceOnUse">
<stop stop-color="#EA6659"/>
<stop offset="1" stop-color="#FCFDF4"/>
</linearGradient>
<linearGradient id="paint37_linear_122_281" x1="311.993" y1="450.648" x2="370.581" y2="412.818" gradientUnits="userSpaceOnUse">
<stop stop-color="#EA6659"/>
<stop offset="1" stop-color="#FCFDF4"/>
</linearGradient>
<linearGradient id="paint38_linear_122_281" x1="306.018" y1="420.784" x2="355.197" y2="389.03" gradientUnits="userSpaceOnUse">
<stop stop-color="#FBB040"/>
<stop offset="0.9" stop-color="#FFF8F8"/>
</linearGradient>
<linearGradient id="paint39_linear_122_281" x1="311.525" y1="434.476" x2="419.242" y2="364.924" gradientUnits="userSpaceOnUse">
<stop offset="0.11" stop-color="#EA6659"/>
<stop offset="0.94" stop-color="#FCFDF4"/>
</linearGradient>
<linearGradient id="paint40_linear_122_281" x1="332.267" y1="372.636" x2="402.709" y2="327.152" gradientUnits="userSpaceOnUse">
<stop stop-color="#FBB040"/>
<stop offset="0.9" stop-color="#FFF8F8"/>
</linearGradient>
<linearGradient id="paint41_linear_122_281" x1="353.61" y1="403.62" x2="444.833" y2="318.432" gradientUnits="userSpaceOnUse">
<stop stop-color="#EA6659"/>
<stop offset="1" stop-color="#FCFDF4"/>
</linearGradient>
<linearGradient id="paint42_linear_122_281" x1="352.747" y1="388.647" x2="460.456" y2="319.1" gradientUnits="userSpaceOnUse">
<stop stop-color="#FBB040"/>
<stop offset="0.9" stop-color="#FFF8F8"/>
</linearGradient>
<linearGradient id="paint43_linear_122_281" x1="535.201" y1="337.4" x2="549.096" y2="323.506" gradientUnits="userSpaceOnUse">
<stop stop-color="#FBB040"/>
<stop offset="1" stop-color="#FFF8F8"/>
</linearGradient>
<linearGradient id="paint44_linear_122_281" x1="514.25" y1="309.533" x2="553.968" y2="329.523" gradientUnits="userSpaceOnUse">
<stop stop-color="white"/>
<stop offset="0.55" stop-color="#FFBE98"/>
</linearGradient>
<linearGradient id="paint45_linear_122_281" x1="487.91" y1="397.45" x2="259.81" y2="742.44" gradientUnits="userSpaceOnUse">
<stop stop-color="#FBB040"/>
<stop offset="0.73" stop-color="#FBB040" stop-opacity="0"/>
</linearGradient>
<linearGradient id="paint46_linear_122_281" x1="525.034" y1="449.239" x2="193.821" y2="703.838" gradientUnits="userSpaceOnUse">
<stop stop-color="#FBB040"/>
<stop offset="0.73" stop-color="#FBB040" stop-opacity="0"/>
</linearGradient>
<linearGradient id="paint47_linear_122_281" x1="59.7993" y1="373.976" x2="-38.9681" y2="-9.242" gradientUnits="userSpaceOnUse">
<stop stop-color="#FBB040"/>
<stop offset="1" stop-color="#FFF8F8"/>
</linearGradient>
<linearGradient id="paint48_linear_122_281" x1="74.6749" y1="355.781" x2="14.0541" y2="120.572" gradientUnits="userSpaceOnUse">
<stop stop-color="#FBB040"/>
<stop offset="1" stop-color="#FFF8F8"/>
</linearGradient>
<linearGradient id="paint49_linear_122_281" x1="91.5513" y1="463.113" x2="44.2528" y2="279.594" gradientUnits="userSpaceOnUse">
<stop stop-color="#FBB040"/>
<stop offset="1" stop-color="#FFF8F8"/>
</linearGradient>
<linearGradient id="paint50_linear_122_281" x1="99.5934" y1="470.957" x2="52.2925" y2="287.429" gradientUnits="userSpaceOnUse">
<stop stop-color="#FBB040"/>
<stop offset="1" stop-color="#FFF8F8"/>
</linearGradient>
<linearGradient id="paint51_linear_122_281" x1="94.6712" y1="523.329" x2="62.0966" y2="396.939" gradientUnits="userSpaceOnUse">
<stop stop-color="#FBB040"/>
<stop offset="1" stop-color="#FFF8F8"/>
</linearGradient>
<linearGradient id="paint52_linear_122_281" x1="95.9011" y1="527.513" x2="63.7147" y2="402.63" gradientUnits="userSpaceOnUse">
<stop stop-color="#FBB040"/>
<stop offset="1" stop-color="#FFF8F8"/>
</linearGradient>
<linearGradient id="paint53_linear_122_281" x1="155.119" y1="573.357" x2="131.443" y2="481.495" gradientUnits="userSpaceOnUse">
<stop stop-color="#FBB040"/>
<stop offset="1" stop-color="#FFF8F8"/>
</linearGradient>
<linearGradient id="paint54_linear_122_281" x1="201.555" y1="550.126" x2="136.76" y2="512.896" gradientUnits="userSpaceOnUse">
<stop stop-color="#FBB040"/>
<stop offset="1" stop-color="#FFF8F8"/>
</linearGradient>
<linearGradient id="paint55_linear_122_281" x1="220.6" y1="622.868" x2="208.247" y2="574.939" gradientUnits="userSpaceOnUse">
<stop stop-color="#FBB040"/>
<stop offset="1" stop-color="#FFF8F8"/>
</linearGradient>
<linearGradient id="paint56_linear_122_281" x1="273.546" y1="585.676" x2="210.972" y2="571.663" gradientUnits="userSpaceOnUse">
<stop stop-color="#FBB040"/>
<stop offset="1" stop-color="#FFF8F8"/>
</linearGradient>
<linearGradient id="paint57_linear_122_281" x1="331.876" y1="582.204" x2="238.336" y2="559.239" gradientUnits="userSpaceOnUse">
<stop stop-color="#FBB040"/>
<stop offset="1" stop-color="#FFF8F8"/>
</linearGradient>
<linearGradient id="paint58_linear_122_281" x1="332.671" y1="571.15" x2="266.134" y2="573.578" gradientUnits="userSpaceOnUse">
<stop stop-color="#FBB040"/>
<stop offset="1" stop-color="#FFF8F8"/>
</linearGradient>
<linearGradient id="paint59_linear_122_281" x1="60.0738" y1="241.878" x2="314.534" y2="471.399" gradientUnits="userSpaceOnUse">
<stop offset="0.35" stop-color="#FFBE98"/>
<stop offset="1" stop-color="#FFF8F8"/>
</linearGradient>
<linearGradient id="paint60_linear_122_281" x1="200.76" y1="437.323" x2="141.406" y2="207.03" gradientUnits="userSpaceOnUse">
<stop stop-color="#FBB040"/>
<stop offset="0.03" stop-color="#FFBE98"/>
<stop offset="1" stop-color="#FFF8F8"/>
</linearGradient>
<linearGradient id="paint61_linear_122_281" x1="79.0083" y1="396.87" x2="300.299" y2="427.022" gradientUnits="userSpaceOnUse">
<stop offset="0.35" stop-color="#FFBE98"/>
<stop offset="1" stop-color="#FFF8F8"/>
</linearGradient>
<linearGradient id="paint62_linear_122_281" x1="176.404" y1="459.23" x2="134.889" y2="298.152" gradientUnits="userSpaceOnUse">
<stop stop-color="#FBB040"/>
<stop offset="0.03" stop-color="#FFBE98"/>
<stop offset="1" stop-color="#FFF8F8"/>
</linearGradient>
<linearGradient id="paint63_linear_122_281" x1="122.995" y1="495.663" x2="297.168" y2="461.918" gradientUnits="userSpaceOnUse">
<stop stop-color="#FBB040"/>
<stop offset="1" stop-color="#FFF8F8"/>
</linearGradient>
<linearGradient id="paint64_linear_122_281" x1="185.067" y1="506.139" x2="157.686" y2="399.899" gradientUnits="userSpaceOnUse">
<stop stop-color="#FBB040"/>
<stop offset="1" stop-color="#FFF8F8"/>
</linearGradient>
<linearGradient id="paint65_linear_122_281" x1="157.791" y1="469.125" x2="263.533" y2="546.487" gradientUnits="userSpaceOnUse">
<stop stop-color="#FBB040"/>
<stop offset="1" stop-color="#FFF8F8"/>
</linearGradient>
<linearGradient id="paint66_linear_122_281" x1="182.061" y1="478.616" x2="294.249" y2="560.692" gradientUnits="userSpaceOnUse">
<stop stop-color="#FBB040"/>
<stop offset="1" stop-color="#FFF8F8"/>
</linearGradient>
<linearGradient id="paint67_linear_122_281" x1="190.113" y1="506.752" x2="310.429" y2="572.66" gradientUnits="userSpaceOnUse">
<stop stop-color="#FBB040"/>
<stop offset="1" stop-color="#FFF8F8"/>
</linearGradient>
<linearGradient id="paint68_linear_122_281" x1="219.863" y1="518.485" x2="327.683" y2="585.473" gradientUnits="userSpaceOnUse">
<stop stop-color="#FBB040"/>
<stop offset="1" stop-color="#FFF8F8"/>
</linearGradient>
<linearGradient id="paint69_linear_122_281" x1="252.604" y1="534.824" x2="350.66" y2="578.322" gradientUnits="userSpaceOnUse">
<stop stop-color="#FBB040"/>
<stop offset="1" stop-color="#FFF8F8"/>
</linearGradient>
<linearGradient id="paint70_linear_122_281" x1="287.538" y1="548.424" x2="365.916" y2="570.342" gradientUnits="userSpaceOnUse">
<stop stop-color="#FBB040"/>
<stop offset="1" stop-color="#FFF8F8"/>
</linearGradient>
<linearGradient id="paint71_linear_122_281" x1="324.281" y1="531.683" x2="264.941" y2="301.444" gradientUnits="userSpaceOnUse">
<stop stop-color="#EA6659"/>
<stop offset="1" stop-color="#FCFDF4"/>
</linearGradient>
<linearGradient id="paint72_linear_122_281" x1="261.489" y1="480.594" x2="323.631" y2="280.761" gradientUnits="userSpaceOnUse">
<stop stop-color="#EA6659"/>
<stop offset="0.51" stop-color="#FCFDF4"/>
</linearGradient>
<linearGradient id="paint73_linear_122_281" x1="272.455" y1="458.548" x2="453.249" y2="457.097" gradientUnits="userSpaceOnUse">
<stop offset="0.11" stop-color="#EA6659" stop-opacity="0"/>
<stop offset="0.24" stop-color="white" stop-opacity="0"/>
<stop offset="0.29" stop-color="#FFFEFE" stop-opacity="0.03"/>
<stop offset="0.38" stop-color="#FFFDFC" stop-opacity="0.13"/>
<stop offset="0.49" stop-color="#FFFAF8" stop-opacity="0.28"/>
<stop offset="0.61" stop-color="#FFF7F3" stop-opacity="0.5"/>
<stop offset="0.75" stop-color="#FFF3EC" stop-opacity="0.77"/>
<stop offset="0.86" stop-color="#FFEFE6"/>
</linearGradient>
<radialGradient id="paint74_radial_122_281" cx="0" cy="0" r="1" gradientUnits="userSpaceOnUse" gradientTransform="translate(329.33 688.83) scale(72.23 72.23)">
<stop offset="0.09" stop-color="white"/>
<stop offset="0.24" stop-color="#FFFCFA"/>
<stop offset="0.41" stop-color="#FFF4ED"/>
<stop offset="0.58" stop-color="#FFE5D7"/>
<stop offset="0.76" stop-color="#FFD2B7"/>
<stop offset="0.91" stop-color="#FFBE98"/>
</radialGradient>
</defs>
</svg>
