<svg width="176" height="213" viewBox="0 0 176 213" fill="none" xmlns="http://www.w3.org/2000/svg">
<path d="M0.859611 30.1781C-0.508691 31.9124 -0.211937 34.4276 1.52243 35.7959L29.7856 58.0937C31.52 59.462 34.0352 59.1653 35.4035 57.4309C36.7718 55.6965 36.4751 53.1813 34.7407 51.813L9.61786 31.9928L29.4381 6.86991C30.8064 5.13554 30.5097 2.62033 28.7753 1.25202C27.0409 -0.116279 24.5257 0.180476 23.1574 1.91485L0.859611 30.1781ZM143.123 211.435C144.658 213.024 147.191 213.067 148.779 211.532L174.669 186.517C176.257 184.982 176.301 182.45 174.766 180.861C173.231 179.273 170.699 179.229 169.11 180.764L146.097 203L123.862 179.987C122.327 178.398 119.794 178.355 118.206 179.89C116.617 181.425 116.573 183.957 118.109 185.546L143.123 211.435ZM4.46866 36.628C7.15633 36.3109 9.79235 36.0226 12.3777 35.7628L11.5777 27.8029C8.94485 28.0675 6.26302 28.3608 3.53128 28.6831L4.46866 36.628ZM27.9395 34.5035C33.3637 34.1793 38.5323 34.0002 43.457 33.962L43.395 25.9623C38.3203 26.0016 33.0128 26.186 27.4623 26.5178L27.9395 34.5035ZM59.062 34.3562C64.5039 34.6927 69.5856 35.2381 74.331 35.9831L75.5718 28.08C70.5541 27.2921 65.2216 26.7218 59.5557 26.3715L59.062 34.3562ZM89.2439 39.284C94.4115 40.8131 99.0587 42.654 103.242 44.7845L106.873 37.656C102.213 35.2829 97.1056 33.2674 91.5138 31.6128L89.2439 39.284ZM115.61 52.9861C119.406 56.2317 122.682 59.8781 125.512 63.917L132.064 59.3267C128.861 54.7559 125.135 50.6048 120.81 46.9061L115.61 52.9861ZM132.657 77.023C134.528 81.4831 136.08 86.2878 137.36 91.434L145.123 89.504C143.761 84.0222 142.087 78.8205 140.034 73.9276L132.657 77.023ZM140.241 106.545C140.936 111.468 141.463 116.622 141.855 122L149.834 121.42C149.432 115.894 148.887 110.558 148.162 105.425L140.241 106.545ZM142.623 137.637C142.769 142.705 142.835 147.93 142.845 153.311L150.845 153.297C150.835 147.861 150.768 142.561 150.619 137.407L142.623 137.637ZM142.739 169.057C142.67 174.204 142.573 179.468 142.466 184.848L150.464 185.008C150.572 179.621 150.669 174.337 150.739 169.165L142.739 169.057ZM142.147 200.647C142.096 203.27 142.046 205.917 142.001 208.587L149.999 208.724C150.045 206.062 150.094 203.422 150.145 200.803L142.147 200.647ZM0.859611 30.1781C-0.508691 31.9124 -0.211937 34.4276 1.52243 35.7959L29.7856 58.0937C31.52 59.462 34.0352 59.1653 35.4035 57.4309C36.7718 55.6965 36.4751 53.1813 34.7407 51.813L9.61786 31.9928L29.4381 6.86991C30.8064 5.13554 30.5097 2.62033 28.7753 1.25202C27.0409 -0.116279 24.5257 0.180476 23.1574 1.91485L0.859611 30.1781ZM143.123 211.435C144.658 213.024 147.191 213.067 148.779 211.532L174.669 186.517C176.257 184.982 176.301 182.45 174.766 180.861C173.231 179.273 170.699 179.229 169.11 180.764L146.097 203L123.862 179.987C122.327 178.398 119.794 178.355 118.206 179.89C116.617 181.425 116.573 183.957 118.109 185.546L143.123 211.435ZM4.46866 36.628C7.15633 36.3109 9.79235 36.0226 12.3777 35.7628L11.5777 27.8029C8.94485 28.0675 6.26302 28.3608 3.53128 28.6831L4.46866 36.628ZM27.9395 34.5035C33.3637 34.1793 38.5323 34.0002 43.457 33.962L43.395 25.9623C38.3203 26.0016 33.0128 26.186 27.4623 26.5178L27.9395 34.5035ZM59.062 34.3562C64.5039 34.6927 69.5856 35.2381 74.331 35.9831L75.5718 28.08C70.5541 27.2921 65.2216 26.7218 59.5557 26.3715L59.062 34.3562ZM89.2439 39.284C94.4115 40.8131 99.0587 42.654 103.242 44.7845L106.873 37.656C102.213 35.2829 97.1056 33.2674 91.5138 31.6128L89.2439 39.284ZM115.61 52.9861C119.406 56.2317 122.682 59.8781 125.512 63.917L132.064 59.3267C128.861 54.7559 125.135 50.6048 120.81 46.9061L115.61 52.9861ZM132.657 77.023C134.528 81.4831 136.08 86.2878 137.36 91.434L145.123 89.504C143.761 84.0222 142.087 78.8205 140.034 73.9276L132.657 77.023ZM140.241 106.545C140.936 111.468 141.463 116.622 141.855 122L149.834 121.42C149.432 115.894 148.887 110.558 148.162 105.425L140.241 106.545ZM142.623 137.637C142.769 142.705 142.835 147.93 142.845 153.311L150.845 153.297C150.835 147.861 150.768 142.561 150.619 137.407L142.623 137.637ZM142.739 169.057C142.67 174.204 142.573 179.468 142.466 184.848L150.464 185.008C150.572 179.621 150.669 174.337 150.739 169.165L142.739 169.057ZM142.147 200.647C142.096 203.27 142.046 205.917 142.001 208.587L149.999 208.724C150.045 206.062 150.094 203.422 150.145 200.803L142.147 200.647Z" fill="white"/>
</svg>
