<svg width="1511" height="561" viewBox="0 0 1511 561" fill="none" xmlns="http://www.w3.org/2000/svg">
<path d="M49.2109 436.523C42.6492 436.533 36.2324 434.352 30.7723 430.256C25.3123 426.159 21.0543 420.333 18.5373 413.512C16.0202 406.691 15.3572 399.183 16.632 391.938C17.9068 384.694 21.0621 378.037 25.6989 372.811C30.3356 367.585 36.2454 364.025 42.6803 362.58C49.1153 361.136 55.7864 361.872 61.8494 364.697C67.9125 367.521 73.095 372.305 76.7414 378.446C80.3878 384.586 82.3341 391.806 82.3341 399.191C82.3226 409.08 78.8305 418.56 72.6224 425.557C66.4144 432.554 57.9962 436.497 49.2109 436.523ZM49.2109 366.1C43.3858 366.1 37.6915 368.045 32.8487 371.689C28.0059 375.333 24.2322 380.511 22.005 386.57C19.7779 392.628 19.1973 399.294 20.3369 405.724C21.4766 412.154 24.2851 418.059 28.4072 422.692C32.5292 427.325 37.7795 430.477 43.4938 431.75C49.208 433.023 55.1294 432.36 60.5086 429.844C65.8878 427.328 70.4831 423.073 73.713 417.616C76.943 412.16 78.6625 405.748 78.6538 399.191C78.6306 390.415 75.5197 382.006 70.0019 375.804C64.484 369.603 57.0085 366.113 49.2109 366.1Z" fill="white" fill-opacity="0.75"/>
<path d="M129.673 413.715V378.412L156.827 393.529L183.991 378.412V413.715L156.827 431.36L129.673 413.715Z" fill="white" fill-opacity="0.75"/>
<path d="M156.883 310.081L206.777 342.501V407.289L156.883 439.759L107 407.339V342.551L156.883 310.081ZM156.883 431.756L200.604 403.338V346.502L156.883 318.084L113.106 346.502V403.338L156.883 431.756Z" fill="white" fill-opacity="0.75"/>
<path d="M226.432 228.565L175.539 285.852L226.432 343.138L277.324 285.852L226.432 228.565Z" fill="white" fill-opacity="0.75"/>
<path d="M347.226 371.649H251.994V478.84H347.226V371.649Z" fill="white" fill-opacity="0.75"/>
<path d="M391.329 528.48H290.345V414.815H391.329V528.48ZM296.097 522.006H385.646V421.328H296.097V522.006Z" fill="white" fill-opacity="0.75"/>
<path d="M133.887 237.646H90.8467V189.194H43.0201V237.646H0V291.488H43.0201V339.918H90.8467V291.488H133.887V237.646Z" fill="white" fill-opacity="0.75"/>
<path d="M365.613 251.218C355.883 251.218 346.371 254.466 338.281 260.551C330.191 266.636 323.885 275.284 320.162 285.403C316.438 295.521 315.464 306.656 317.362 317.397C319.261 328.139 323.946 338.006 330.826 345.751C337.706 353.495 346.472 358.769 356.015 360.906C365.558 363.043 375.45 361.946 384.439 357.755C393.428 353.564 401.112 346.466 406.517 337.359C411.923 328.253 414.808 317.546 414.808 306.594C414.808 291.908 409.625 277.822 400.399 267.437C391.173 257.053 378.66 251.218 365.613 251.218ZM365.613 257.35C371.256 257.35 376.773 259.233 381.465 262.763C386.158 266.292 389.815 271.308 391.975 277.177C394.135 283.046 394.7 289.504 393.599 295.735C392.498 301.965 389.78 307.688 385.789 312.18C381.799 316.672 376.715 319.731 371.179 320.971C365.644 322.21 359.907 321.574 354.693 319.143C349.479 316.712 345.023 312.595 341.887 307.313C338.752 302.031 337.078 295.821 337.078 289.469C337.078 280.95 340.085 272.781 345.436 266.757C350.787 260.734 358.045 257.35 365.613 257.35Z" fill="white" fill-opacity="0.75"/>
<path d="M176.518 168.156L206.595 202.012L176.518 235.836L146.468 202.012L176.518 168.156ZM194.677 202.012L176.518 181.603L158.387 202.012L176.518 222.42L194.677 202.012Z" fill="white" fill-opacity="0.75"/>
<path d="M1230.88 178.985L1260.95 212.841L1230.88 246.666L1200.83 212.841L1230.88 178.985ZM1249.03 212.841L1230.88 192.433L1212.75 212.841L1230.88 233.25L1249.03 212.841Z" fill="white" fill-opacity="0.75"/>
<path d="M934.049 30.9292L964.127 64.7852L934.049 98.6095L904 64.7852L934.049 30.9292ZM952.208 64.7852L934.049 44.3767L915.919 64.7852L934.049 85.1937L952.208 64.7852Z" fill="white" fill-opacity="0.75"/>
<path d="M431.441 372.036L461.519 405.892L431.441 439.716L401.392 405.892L431.441 372.036ZM449.6 405.892L431.441 385.484L413.311 405.892L431.441 426.301L449.6 405.892Z" fill="white" fill-opacity="0.75"/>
<path d="M533.325 476.324C546.826 476.324 557.77 464.005 557.77 448.808C557.77 433.612 546.826 421.292 533.325 421.292C519.825 421.292 508.88 433.612 508.88 448.808C508.88 464.005 519.825 476.324 533.325 476.324Z" fill="white" fill-opacity="0.75"/>
<path d="M533.326 402.351C541.488 402.351 549.468 405.076 556.255 410.18C563.042 415.285 568.332 422.541 571.456 431.03C574.58 439.519 575.397 448.859 573.805 457.871C572.212 466.883 568.281 475.161 562.509 481.658C556.737 488.155 549.383 492.58 541.377 494.372C533.371 496.165 525.073 495.245 517.532 491.728C509.99 488.212 503.544 482.258 499.009 474.618C494.474 466.978 492.054 457.996 492.054 448.808C492.074 436.494 496.428 424.69 504.164 415.983C511.9 407.275 522.386 402.373 533.326 402.351ZM533.326 406.286C525.854 406.286 518.551 408.78 512.338 413.452C506.126 418.125 501.284 424.766 498.425 432.535C495.566 440.305 494.818 448.855 496.275 457.104C497.733 465.352 501.331 472.929 506.614 478.875C511.897 484.822 518.628 488.872 525.956 490.513C533.284 492.154 540.879 491.311 547.782 488.093C554.685 484.875 560.585 479.425 564.735 472.432C568.886 465.439 571.102 457.218 571.102 448.808C571.092 437.534 567.109 426.725 560.027 418.753C552.944 410.781 543.342 406.297 533.326 406.286Z" fill="white" fill-opacity="0.75"/>
<path d="M533.325 379.588C545.488 379.588 557.377 383.648 567.49 391.254C577.602 398.86 585.484 409.67 590.139 422.318C594.793 434.967 596.011 448.885 593.638 462.312C591.265 475.739 585.408 488.073 576.808 497.754C568.208 507.434 557.251 514.027 545.322 516.698C533.393 519.368 521.029 517.998 509.792 512.759C498.555 507.519 488.951 498.647 482.194 487.264C475.437 475.881 471.831 462.498 471.831 448.808C471.847 430.455 478.331 412.86 489.86 399.883C501.389 386.905 517.021 379.607 533.325 379.588ZM533.325 383.523C521.854 383.523 510.641 387.352 501.103 394.525C491.565 401.699 484.131 411.895 479.741 423.824C475.351 435.754 474.203 448.88 476.441 461.544C478.679 474.208 484.202 485.841 492.314 494.971C500.425 504.101 510.759 510.319 522.01 512.838C533.261 515.357 544.922 514.064 555.52 509.123C566.118 504.182 575.176 495.814 581.549 485.078C587.922 474.342 591.324 461.72 591.324 448.808C591.311 431.498 585.196 414.901 574.322 402.661C563.448 390.421 548.703 383.538 533.325 383.523Z" fill="white" fill-opacity="0.75"/>
<path d="M240.294 208.736L240.956 155.343L290.442 156.123L306.979 175.265L257.493 174.485L256.847 227.897L240.294 208.736Z" fill="white" fill-opacity="0.75"/>
<path d="M281.204 256.093L281.867 202.7L331.352 203.48L347.889 222.622L298.403 221.842L297.757 275.254L281.204 256.093Z" fill="white" fill-opacity="0.75"/>
<path d="M260.749 232.415L261.412 179.022L310.898 179.802L327.434 198.944L277.949 198.164L277.302 251.576L260.749 232.415Z" fill="white" fill-opacity="0.75"/>
<path d="M813.014 410.783L784.3 394.691L755.238 410.97L726.191 394.691L697.144 410.97L668.097 394.691L639.036 410.97L612.709 396.222V400.764L639.036 415.512L668.097 399.233L697.144 415.512L726.191 399.233L755.238 415.512L784.3 399.233L813.014 415.325V410.783Z" fill="white" fill-opacity="0.75"/>
<path d="M813.014 429.274L784.3 413.199L755.238 429.461L726.191 413.199L697.144 429.461L668.097 413.199L639.036 429.461L612.709 414.713V419.254L639.036 434.003L668.097 417.741L697.144 434.003L726.191 417.741L755.238 434.003L784.3 417.741L813.014 433.833V429.274Z" fill="white" fill-opacity="0.75"/>
<path d="M813.014 447.781L784.3 431.689L755.238 447.969L726.191 431.689L697.144 447.969L668.097 431.689L639.036 447.969L612.709 433.203V437.745L639.036 452.51L668.097 436.231L697.144 452.51L726.191 436.231L755.238 452.51L784.3 436.231L813.014 452.323V447.781Z" fill="white" fill-opacity="0.75"/>
<path d="M813.014 466.271L784.3 450.179L755.238 466.458L726.191 450.179L697.144 466.458L668.097 450.179L639.036 466.458L612.709 451.71V456.251L639.036 471L668.097 454.721L697.144 471L726.191 454.721L755.238 471L784.3 454.721L813.014 470.813V466.271Z" fill="white" fill-opacity="0.75"/>
<path d="M535.478 362.212L423.754 349.665L489.262 247.018L535.478 362.212ZM433.014 344.955L527.281 355.542L488.287 258.428L433.014 344.955Z" fill="white" fill-opacity="0.75"/>
<path d="M493.507 199.108L433.126 293.696L536.094 305.26L493.507 199.108Z" fill="white" fill-opacity="0.75"/>
<path d="M418.389 112.78H347.723V192.32H418.389V112.78Z" fill="white" fill-opacity="0.75"/>
<path d="M451.117 229.157H376.182V144.812H451.117V229.157ZM380.45 224.352H446.9V149.645H380.45V224.352Z" fill="white" fill-opacity="0.75"/>
<path d="M821.5 182.885C835.583 182.885 847 170.034 847 154.183C847 138.331 835.583 125.48 821.5 125.48C807.417 125.48 796 138.331 796 154.183C796 170.034 807.417 182.885 821.5 182.885Z" fill="white" fill-opacity="0.75"/>
<path d="M1020.75 344.644C1017.13 344.644 1013.6 343.437 1010.59 341.177C1007.59 338.917 1005.25 335.705 1003.86 331.947C1002.48 328.188 1002.12 324.052 1002.82 320.062C1003.53 316.072 1005.27 312.407 1007.82 309.531C1010.38 306.654 1013.64 304.695 1017.18 303.902C1020.73 303.108 1024.4 303.515 1027.74 305.072C1031.08 306.629 1033.93 309.265 1035.94 312.648C1037.95 316.03 1039.02 320.007 1039.02 324.075C1039.02 329.53 1037.09 334.762 1033.67 338.619C1030.24 342.477 1025.59 344.644 1020.75 344.644Z" fill="white" fill-opacity="0.75"/>
<path d="M178.209 134.171C174.594 134.171 171.061 132.965 168.056 130.705C165.051 128.445 162.709 125.232 161.326 121.474C159.942 117.715 159.581 113.58 160.286 109.59C160.991 105.6 162.731 101.935 165.287 99.0582C167.843 96.1816 171.099 94.2226 174.643 93.4289C178.188 92.6353 181.863 93.0427 185.202 94.5995C188.541 96.1563 191.395 98.7926 193.403 102.175C195.411 105.558 196.483 109.534 196.483 113.602C196.483 119.058 194.557 124.289 191.13 128.147C187.703 132.004 183.055 134.171 178.209 134.171Z" fill="white" fill-opacity="0.75"/>
<path d="M176.764 52.4212C173.149 52.4212 169.616 51.2148 166.611 48.9547C163.606 46.6946 161.264 43.4823 159.881 39.7239C158.497 35.9654 158.136 31.8296 158.841 27.8396C159.546 23.8497 161.286 20.1848 163.842 17.3082C166.398 14.4316 169.654 12.4726 173.198 11.6789C176.743 10.8853 180.418 11.2927 183.757 12.8495C187.096 14.4063 189.95 17.0426 191.958 20.4251C193.966 23.8076 195.038 27.7843 195.038 31.8524C195.038 37.3076 193.112 42.5393 189.685 46.3967C186.258 50.254 181.61 52.4212 176.764 52.4212Z" fill="white" fill-opacity="0.75"/>
<path d="M98.2411 53.0056C94.6268 53.0056 91.0937 51.7993 88.0886 49.5392C85.0834 47.279 82.7412 44.0668 81.358 40.3084C79.9749 36.5499 79.6131 32.414 80.3182 28.4241C81.0233 24.4341 82.7638 20.7692 85.3195 17.8927C87.8751 15.0161 91.1312 13.057 94.676 12.2634C98.2208 11.4697 101.895 11.8771 105.234 13.4339C108.573 14.9907 111.427 17.6271 113.435 21.0096C115.443 24.3921 116.515 28.3688 116.515 32.4369C116.515 37.8921 114.59 43.1238 111.163 46.9811C107.736 50.8385 103.088 53.0056 98.2411 53.0056Z" fill="white" fill-opacity="0.75"/>
<path d="M98.2411 134.171C94.6268 134.171 91.0937 132.965 88.0886 130.705C85.0834 128.445 82.7412 125.232 81.358 121.474C79.9749 117.715 79.6131 113.58 80.3182 109.59C81.0233 105.6 82.7638 101.935 85.3195 99.0582C87.8751 96.1816 91.1312 94.2226 94.676 93.4289C98.2208 92.6353 101.895 93.0427 105.234 94.5995C108.573 96.1563 111.427 98.7926 113.435 102.175C115.443 105.558 116.515 109.534 116.515 113.602C116.515 119.058 114.59 124.289 111.163 128.147C107.736 132.004 103.088 134.171 98.2411 134.171Z" fill="white" fill-opacity="0.75"/>
<path d="M18.274 53.0056C14.6598 53.0056 11.1266 51.7993 8.12148 49.5392C5.11634 47.279 2.7742 44.0668 1.39108 40.3084C0.00796435 36.5499 -0.353985 32.414 0.351122 28.4241C1.05623 24.4341 2.79672 20.7692 5.35239 17.8927C7.90805 15.0161 11.1641 13.057 14.7089 12.2634C18.2537 11.4697 21.9281 11.8771 25.2672 13.4339C28.6063 14.9907 31.4603 17.6271 33.4683 21.0096C35.4763 24.3921 36.548 28.3688 36.548 32.4369C36.548 37.8921 34.6227 43.1238 31.1957 46.9811C27.7686 50.8385 23.1206 53.0056 18.274 53.0056Z" fill="white" fill-opacity="0.75"/>
<path d="M18.274 134.171C14.6598 134.171 11.1266 132.965 8.12148 130.705C5.11634 128.445 2.7742 125.232 1.39108 121.474C0.00796435 117.715 -0.353985 113.58 0.351122 109.59C1.05623 105.6 2.79672 101.935 5.35239 99.0582C7.90805 96.1816 11.1641 94.2226 14.7089 93.4289C18.2537 92.6353 21.9281 93.0427 25.2672 94.5995C28.6063 96.1563 31.4603 98.7926 33.4683 102.175C35.4763 105.558 36.548 109.534 36.548 113.602C36.548 119.058 34.6227 124.289 31.1957 128.147C27.7686 132.004 23.1206 134.171 18.274 134.171Z" fill="white" fill-opacity="0.75"/>
<path d="M611.175 367.632C634.512 356.569 645.462 326.306 635.633 300.038C625.804 273.771 598.917 261.445 575.58 272.509C552.243 283.572 541.293 313.835 551.122 340.103C560.951 366.37 587.838 378.696 611.175 367.632Z" fill="white" fill-opacity="0.75"/>
<path d="M276.237 134.249C266.499 134.257 256.977 131.014 248.876 124.93C240.776 118.846 234.46 110.195 230.728 100.07C226.997 89.9458 226.017 78.8031 227.912 68.0515C229.807 57.2999 234.493 47.4224 241.377 39.6688C248.26 31.9152 257.032 26.6335 266.583 24.4921C276.134 22.3507 286.034 23.4456 295.032 27.6384C304.03 31.8312 311.72 38.9336 317.132 48.0469C322.543 57.1603 325.431 67.8753 325.431 78.8365C325.421 93.5222 320.236 107.604 311.014 117.992C301.791 128.38 289.285 134.227 276.237 134.249ZM276.237 26.9622C267.113 26.9622 258.194 30.0081 250.609 35.7145C243.023 41.4209 237.111 49.5313 233.621 59.02C230.131 68.5087 229.22 78.9492 231.003 89.0209C232.785 99.0927 237.182 108.343 243.636 115.602C250.09 122.861 258.312 127.802 267.261 129.801C276.211 131.799 285.486 130.765 293.913 126.829C302.341 122.894 309.542 116.233 314.605 107.69C319.669 99.1476 322.368 89.1061 322.361 78.8365C322.342 65.0781 317.475 51.8901 308.828 42.1653C300.181 32.4405 288.461 26.9731 276.237 26.9622Z" fill="white" fill-opacity="0.75"/>
<path d="M276.238 109.978C270.764 109.986 265.411 108.167 260.857 104.75C256.302 101.333 252.75 96.4722 250.651 90.7827C248.551 85.0931 247.998 78.8303 249.061 72.7868C250.125 66.7433 252.757 61.1907 256.625 56.8315C260.492 52.4722 265.422 49.5021 270.79 48.2971C276.158 47.0922 281.723 47.7067 286.78 50.0625C291.838 52.4183 296.161 56.4095 299.203 61.5315C302.244 66.6535 303.868 72.676 303.868 78.8369C303.858 87.0855 300.945 94.9939 295.767 100.83C290.588 106.667 283.566 109.956 276.238 109.978ZM276.238 51.2336C271.378 51.2336 266.629 52.856 262.589 55.8954C258.549 58.9348 255.401 63.2547 253.543 68.3085C251.686 73.3622 251.201 78.9228 252.152 84.2864C253.103 89.65 255.445 94.5757 258.884 98.4402C262.322 102.305 266.702 104.934 271.469 105.996C276.235 107.058 281.175 106.505 285.662 104.406C290.149 102.308 293.982 98.7579 296.676 94.2064C299.371 89.6549 300.805 84.3062 300.798 78.8369C300.779 71.5156 298.184 64.5011 293.581 59.328C288.978 54.1549 282.742 51.2444 276.238 51.2336Z" fill="white" fill-opacity="0.75"/>
<path d="M536.901 93.9032L484.129 153.304L536.901 212.705L589.672 153.304L536.901 93.9032Z" fill="white" fill-opacity="0.75"/>
<path d="M791.444 311.712L834.439 198.36L946.498 446.923L903.516 560.241L791.444 311.712ZM835.34 228.847L804.093 311.225L902.615 529.754L933.862 447.377L835.34 228.847Z" fill="white" fill-opacity="0.75"/>
<path d="M773.781 241.15V330.916H694.146V241.15H773.781ZM768.16 324.588V247.478H699.768V324.588H768.16Z" fill="white" fill-opacity="0.75"/>
<path d="M741.679 277.253V367.051H661.904V277.253H741.679ZM736.057 360.723V283.582H667.526V360.723H736.057Z" fill="white" fill-opacity="0.75"/>
<path d="M681.865 27.5106L703.604 123.451L618.371 147.921L596.632 51.98L681.865 27.5106ZM696.862 118.947L677.863 35.0995L603.374 56.4845L622.373 140.332L696.862 118.947Z" fill="white" fill-opacity="0.75"/>
<path d="M665.632 58.2951L623.964 70.2573L634.592 117.159L676.259 105.197L665.632 58.2951Z" fill="white" fill-opacity="0.75"/>
<path d="M515.844 74.8579L491.673 59.7137L505.129 32.5035L478.27 15.6749L464.814 42.8851L440.655 27.7478L425.702 57.9841L449.862 73.1215L436.412 100.319L463.271 117.148L476.72 89.95L500.891 105.094L515.844 74.8579Z" fill="white" fill-opacity="0.75"/>
<path d="M638.894 167.704L660.701 216.56L617.28 241.1L595.567 192.258L638.894 167.704ZM653.255 213.782L636.426 176.085L603.013 195.036L619.748 232.719L653.255 213.782Z" fill="white" fill-opacity="0.75"/>
<path d="M727.732 154.534L759.509 186.116L731.453 221.883L699.676 190.302L727.732 154.534Z" fill="white" fill-opacity="0.75"/>
<path d="M671.967 192.24L705.664 225.729L735.415 187.802L701.718 154.312L671.967 192.24ZM705.439 221.662L675.558 191.964L701.91 158.37L731.791 188.067L705.439 221.662Z" fill="white" fill-opacity="0.75"/>
<path d="M1042.64 390.663L1033.13 487.034L963.787 429.607L1042.64 390.663ZM1037.66 398.293L972.091 430.603L1029.74 478.343L1037.66 398.293Z" fill="white" fill-opacity="0.75"/>
<path d="M963.647 343.091L993.725 376.947L963.647 410.772L933.598 376.947L963.647 343.091ZM981.806 376.947L963.647 356.539L945.516 376.947L963.647 397.356L981.806 376.947Z" fill="white" fill-opacity="0.75"/>
<path d="M1371.39 487.154H1073.46C1071.15 487.255 1068.9 486.32 1067.21 484.556C1065.51 482.792 1064.51 480.342 1064.41 477.745V426.76C1064.51 424.165 1065.51 421.718 1067.2 419.954C1068.89 418.191 1071.14 417.254 1073.44 417.35H1371.39C1373.69 417.259 1375.94 418.197 1377.63 419.96C1379.32 421.723 1380.32 424.168 1380.41 426.76V477.745C1380.32 480.337 1379.32 482.782 1377.63 484.545C1375.94 486.308 1373.69 487.246 1371.39 487.154ZM1073.46 419.992C1071.79 419.896 1070.15 420.546 1068.91 421.803C1067.66 423.059 1066.91 424.819 1066.82 426.698V477.683C1066.91 479.564 1067.66 481.325 1068.91 482.584C1070.15 483.843 1071.79 484.497 1073.46 484.404H1371.39C1373.06 484.493 1374.69 483.837 1375.93 482.578C1377.17 481.32 1377.93 479.561 1378.02 477.683V426.698C1377.93 424.822 1377.17 423.064 1375.93 421.808C1374.69 420.552 1373.06 419.9 1371.39 419.992H1073.46Z" fill="white" fill-opacity="0.75"/>
<path d="M1063.13 320.648L1057.71 412.606L1131.17 371.912L1063.13 320.648Z" fill="white" fill-opacity="0.75"/>
<path d="M1179.92 342.548C1174.63 340.356 1168.88 339.979 1163.4 341.466C1157.91 342.952 1152.95 346.235 1149.12 350.9C1145.3 355.564 1142.79 361.4 1141.91 367.67C1141.03 373.94 1141.82 380.362 1144.19 386.125C1146.55 391.887 1150.38 396.73 1155.19 400.043C1160 403.355 1165.58 404.987 1171.21 404.733C1176.85 404.479 1182.29 402.35 1186.85 398.615C1191.41 394.88 1194.88 389.708 1196.83 383.751C1199.44 375.763 1199.13 366.935 1195.96 359.208C1192.78 351.481 1187.02 345.488 1179.92 342.548ZM1178.83 345.883C1181.9 347.155 1184.56 349.422 1186.49 352.399C1188.41 355.376 1189.51 358.928 1189.64 362.607C1189.77 366.286 1188.93 369.925 1187.22 373.066C1185.52 376.206 1183.02 378.707 1180.05 380.251C1177.08 381.795 1173.77 382.313 1170.54 381.74C1167.31 381.166 1164.31 379.528 1161.9 377.031C1159.5 374.534 1157.81 371.291 1157.04 367.711C1156.27 364.132 1156.47 360.378 1157.6 356.923C1159.11 352.29 1162.2 348.524 1166.18 346.454C1170.16 344.383 1174.71 344.178 1178.83 345.883Z" fill="white" fill-opacity="0.75"/>
<path d="M1131.33 299.246L1154.2 311.993L1142.38 338.846L1130.29 343.44L1142.11 316.587L1119.23 303.844L1131.33 299.246Z" fill="white" fill-opacity="0.75"/>
<path d="M1116.38 304.928L1139.24 317.676L1127.43 344.529L1115.34 349.122L1127.15 322.269L1104.27 309.526L1116.38 304.928Z" fill="white" fill-opacity="0.75"/>
<path d="M964.803 271.994L945.23 280.114L938.016 258.079L916.266 267.102L923.48 289.136L903.916 297.252L911.933 321.737L931.497 313.621L938.708 335.646L960.458 326.623L953.247 304.599L972.82 296.48L964.803 271.994Z" fill="white" fill-opacity="0.75"/>
<path d="M1348.97 386.337L1237.86 404.516L1279.42 287.106L1348.97 386.337ZM1245.84 397.43L1339.59 382.091L1280.92 298.444L1245.84 397.43Z" fill="white" fill-opacity="0.75"/>
<path d="M1273.26 239.458L1234.95 347.655L1337.36 330.9L1273.26 239.458Z" fill="white" fill-opacity="0.75"/>
<path d="M1410.54 312.886L1426.67 384.084L1363.42 402.242L1347.29 331.045L1410.54 312.886ZM1421.67 380.741L1407.57 318.518L1352.29 334.388L1366.39 396.611L1421.67 380.741Z" fill="white" fill-opacity="0.75"/>
<path d="M1398.49 335.733L1367.57 344.61L1375.46 379.416L1406.38 370.539L1398.49 335.733Z" fill="white" fill-opacity="0.75"/>
<path d="M1468.74 489.708C1492.08 478.645 1503.03 448.382 1493.2 422.115C1483.37 395.847 1456.49 383.522 1433.15 394.585C1409.81 405.648 1398.86 435.911 1408.69 462.179C1418.52 488.446 1445.41 500.772 1468.74 489.708Z" fill="white" fill-opacity="0.75"/>
<path d="M1406.44 254.486L1379.48 246.2L1386.84 215.85L1356.89 206.643L1349.52 236.992L1322.58 228.71L1314.4 262.434L1341.34 270.717L1333.98 301.052L1363.94 310.26L1371.3 279.924L1398.26 288.21L1406.44 254.486Z" fill="white" fill-opacity="0.75"/>
<path d="M1459.59 209.54C1469.74 209.54 1477.97 200.276 1477.97 188.848C1477.97 177.42 1469.74 168.156 1459.59 168.156C1449.44 168.156 1441.21 177.42 1441.21 188.848C1441.21 200.276 1449.44 209.54 1459.59 209.54Z" fill="white" fill-opacity="0.75"/>
<path d="M1459.59 290.868C1455.98 290.868 1452.44 289.662 1449.44 287.401C1446.43 285.141 1444.09 281.929 1442.71 278.171C1441.33 274.412 1440.96 270.276 1441.67 266.286C1442.37 262.296 1444.11 258.632 1446.67 255.755C1449.23 252.878 1452.48 250.919 1456.03 250.126C1459.57 249.332 1463.25 249.739 1466.58 251.296C1469.92 252.853 1472.78 255.489 1474.79 258.872C1476.79 262.254 1477.87 266.231 1477.87 270.299C1477.87 275.754 1475.94 280.986 1472.51 284.843C1469.09 288.701 1464.44 290.868 1459.59 290.868Z" fill="white" fill-opacity="0.75"/>
<path d="M1459.59 372.033C1455.98 372.033 1452.44 370.827 1449.44 368.567C1446.43 366.306 1444.09 363.094 1442.71 359.336C1441.33 355.577 1440.96 351.441 1441.67 347.451C1442.37 343.461 1444.11 339.797 1446.67 336.92C1449.23 334.043 1452.48 332.084 1456.03 331.291C1459.57 330.497 1463.25 330.904 1466.58 332.461C1469.92 334.018 1472.78 336.654 1474.79 340.037C1476.79 343.419 1477.87 347.396 1477.87 351.464C1477.87 356.919 1475.94 362.151 1472.51 366.008C1469.09 369.866 1464.44 372.033 1459.59 372.033Z" fill="white" fill-opacity="0.75"/>
<path d="M1211.21 250.221L1233.02 299.076L1189.6 323.617L1167.88 274.774L1211.21 250.221ZM1225.57 296.298L1208.74 258.602L1175.33 277.552L1192.06 315.235L1225.57 296.298Z" fill="white" fill-opacity="0.75"/>
<path d="M1413.93 69.5383L1374.87 113.504L1413.93 157.47L1452.99 113.504L1413.93 69.5383Z" fill="white" fill-opacity="0.75"/>
<path d="M908.3 108.806L858.547 165.293L908.728 221.295L958.482 164.808L908.3 108.806Z" fill="white" fill-opacity="0.75"/>
<path d="M1004.76 164.582L952.004 224.481L898.792 165.098L951.551 105.199L1004.76 164.582ZM951.979 217.687L998.763 164.571L951.63 111.972L904.846 165.089L951.979 217.687Z" fill="white" fill-opacity="0.75"/>
<path d="M1192.61 66.4166L1301.01 83.8571L1116.67 269.974L1008.31 252.538L1192.61 66.4166ZM1275.08 92.7196L1196.3 80.0449L1034.24 243.676L1113.01 256.351L1275.08 92.7196Z" fill="white" fill-opacity="0.75"/>
<path d="M791.13 109.805L772.434 98.09L782.842 77.0423L762.066 64.025L751.658 85.0727L732.97 73.3637L721.404 96.7522L740.092 108.461L729.688 129.499L750.464 142.517L760.868 121.479L779.564 133.193L791.13 109.805Z" fill="white" fill-opacity="0.75"/>
<path d="M1285.9 156.832C1281.14 159.431 1277.17 163.56 1274.5 168.696C1271.83 173.832 1270.57 179.746 1270.88 185.688C1271.19 191.631 1273.06 197.335 1276.26 202.081C1279.45 206.827 1283.82 210.4 1288.82 212.349C1293.81 214.298 1299.21 214.536 1304.33 213.032C1309.45 211.528 1314.05 208.349 1317.56 203.899C1321.08 199.448 1323.34 193.925 1324.06 188.028C1324.78 182.131 1323.94 176.126 1321.63 170.77C1318.53 163.588 1313.03 158.085 1306.33 155.472C1299.63 152.858 1292.28 153.347 1285.9 156.832ZM1287.19 159.83C1289.95 158.323 1293.05 157.771 1296.08 158.243C1299.12 158.715 1301.97 160.191 1304.26 162.484C1306.56 164.777 1308.19 167.784 1308.97 171.125C1309.74 174.466 1309.62 177.99 1308.62 181.253C1307.61 184.515 1305.77 187.369 1303.33 189.453C1300.88 191.538 1297.94 192.759 1294.88 192.963C1291.82 193.167 1288.77 192.344 1286.12 190.599C1283.48 188.854 1281.35 186.264 1280.01 183.158C1278.21 178.992 1277.96 174.195 1279.31 169.82C1280.66 165.445 1283.49 161.852 1287.19 159.83Z" fill="white" fill-opacity="0.75"/>
<path d="M1315.03 131.518L1324.59 97.8855L1355.76 109.113L1362.94 124.809L1331.77 113.581L1322.22 147.23L1315.03 131.518Z" fill="white" fill-opacity="0.75"/>
<path d="M1323.91 150.934L1333.47 117.301L1364.64 128.529L1371.83 144.225L1340.66 132.997L1331.1 166.646L1323.91 150.934Z" fill="white" fill-opacity="0.75"/>
<path d="M1354.94 191.022C1351.96 191.022 1349.05 190.028 1346.57 188.164C1344.09 186.3 1342.16 183.65 1341.02 180.551C1339.88 177.451 1339.58 174.04 1340.16 170.749C1340.74 167.459 1342.18 164.436 1344.28 162.064C1346.39 159.691 1349.08 158.076 1352 157.421C1354.92 156.767 1357.95 157.103 1360.71 158.387C1363.46 159.67 1365.82 161.845 1367.47 164.634C1369.13 167.424 1370.01 170.704 1370.01 174.059C1370.01 178.558 1368.42 182.873 1365.6 186.054C1362.77 189.235 1358.94 191.022 1354.94 191.022Z" fill="white" fill-opacity="0.75"/>
<path d="M1363.78 87.3307L1390.59 60.562L1366.81 30.3854L1340 57.1541L1363.78 87.3307Z" fill="white" fill-opacity="0.75"/>
<path d="M1316.57 55.5757L1345 27.1903L1370.22 59.1895L1341.79 87.5749L1316.57 55.5757ZM1344.82 30.6297L1319.61 55.8009L1341.95 84.144L1367.16 58.9727L1344.82 30.6297Z" fill="white" fill-opacity="0.75"/>
<path d="M1457.16 23.8574L1487.24 57.7134L1457.16 91.5378L1427.11 57.7134L1457.16 23.8574ZM1475.32 57.7134L1457.16 37.3049L1439.03 57.7134L1457.16 78.1219L1475.32 57.7134Z" fill="white" fill-opacity="0.75"/>
<path d="M388.395 26.0321L353 65.0994L400.757 80.0689L388.395 26.0321Z" fill="white" fill-opacity="0.75"/>
<path d="M809.209 27.8371C804.68 29.5919 800.715 32.8189 797.816 37.1102C794.916 41.4014 793.212 46.5641 792.919 51.9453C792.627 57.3266 793.758 62.6847 796.171 67.3422C798.583 71.9997 802.169 75.7473 806.473 78.1112C810.778 80.475 815.609 81.3489 820.355 80.6224C825.101 79.8958 829.549 77.6015 833.136 74.0294C836.724 70.4574 839.29 65.768 840.509 60.5545C841.729 55.3409 841.548 49.8373 839.989 44.7395C837.899 37.9036 833.481 32.2824 827.709 29.1126C821.936 25.9428 815.282 25.484 809.209 27.8371ZM810.082 30.6909C812.708 29.6731 815.544 29.5549 818.231 30.3514C820.917 31.1478 823.334 32.8231 825.174 35.1653C827.015 37.5075 828.197 40.4116 828.572 43.5101C828.946 46.6087 828.496 49.7626 827.278 52.5731C826.06 55.3836 824.128 57.7244 821.729 59.2995C819.329 60.8746 816.568 61.6132 813.795 61.422C811.022 61.2309 808.362 60.1184 806.15 58.2254C803.939 56.3324 802.276 53.7438 801.372 50.787C800.159 46.822 800.396 42.4773 802.029 38.7085C803.663 34.9398 806.559 32.0558 810.082 30.6909Z" fill="white" fill-opacity="0.75"/>
<path d="M1062.85 152.838C1086.19 141.775 1097.14 111.512 1087.31 85.2444C1077.48 58.9768 1050.59 46.6514 1027.26 57.7149C1003.92 68.7784 992.968 99.0412 1002.8 125.309C1012.63 151.576 1039.51 163.902 1062.85 152.838Z" fill="white" fill-opacity="0.75"/>
</svg>
