<svg width="67" height="67" viewBox="0 0 67 67" fill="none" xmlns="http://www.w3.org/2000/svg">
<circle cx="33.4086" cy="33.4088" r="33.4086" fill="white"/>
<path d="M33 27.3C29.851 27.3 27.3 29.8519 27.3 33C27.3 36.1489 29.8519 38.7 33 38.7C36.1489 38.7 38.7 36.1481 38.7 33C38.7 29.8511 36.1481 27.3 33 27.3ZM33 23.5C38.2448 23.5 42.5 27.7505 42.5 33C42.5 38.2449 38.2495 42.5 33 42.5C27.7551 42.5 23.5 38.2495 23.5 33C23.5 27.7551 27.7505 23.5 33 23.5ZM45.35 23.0234C45.35 24.3346 44.2845 25.3984 42.975 25.3984C41.6638 25.3984 40.6 24.333 40.6 23.0234C40.6 21.7138 41.6653 20.65 42.975 20.65C44.2828 20.6483 45.35 21.7138 45.35 23.0234ZM33 17.8C28.2985 17.8 27.5322 17.8124 25.3454 17.9098C23.8556 17.9798 22.8569 18.1801 21.929 18.5404C21.1044 18.8602 20.5096 19.2421 19.8758 19.8758C19.2396 20.5121 18.8584 21.1053 18.5399 21.9303C18.1788 22.8603 17.9785 23.8574 17.9098 25.3452C17.8115 27.4429 17.8 28.176 17.8 33C17.8 37.7015 17.8124 38.4678 17.9098 40.6543C17.9798 42.1436 18.1804 43.1437 18.5398 44.0694C18.8604 44.8951 19.2431 45.4914 19.8738 46.1222C20.5125 46.76 21.1075 47.1425 21.9247 47.4579C22.8639 47.8209 23.8619 48.0216 25.3452 48.0902C27.4429 48.1884 28.176 48.2 33 48.2C37.7016 48.2 38.4678 48.1875 40.6544 48.0902C42.1403 48.0204 43.1413 47.8192 44.0694 47.4601C44.8929 47.1404 45.491 46.7564 46.1222 46.1262C46.7609 45.4864 47.1427 44.8929 47.4584 44.0738C47.8206 43.138 48.0216 42.1386 48.0902 40.6549C48.1884 38.5571 48.2 37.8239 48.2 33C48.2 28.2985 48.1875 27.5322 48.0902 25.3456C48.0203 23.8592 47.8191 22.8568 47.4596 21.929C47.1406 21.1067 46.7573 20.5101 46.1241 19.8758C45.4868 19.2386 44.8951 18.8582 44.0696 18.5399C43.1403 18.1791 42.1417 17.9785 40.6547 17.9098C38.5571 17.8115 37.8239 17.8 33 17.8ZM33 14C38.1616 14 38.806 14.019 40.8328 14.114C42.8546 14.2074 44.2338 14.5273 45.445 14.9975C46.6973 15.4804 47.755 16.1327 48.811 17.1888C49.8655 18.2449 50.518 19.3057 51.0025 20.555C51.471 21.7647 51.791 23.1453 51.886 25.1672C51.9763 27.1939 52 27.8383 52 33C52 38.1617 51.981 38.806 51.886 40.8327C51.7925 42.8547 51.471 44.2337 51.0025 45.445C50.5195 46.6975 49.8655 47.755 48.811 48.8112C47.755 49.8657 46.6925 50.518 45.445 51.0025C44.2338 51.4712 42.8546 51.791 40.8328 51.886C38.806 51.9763 38.1616 52 33 52C27.8383 52 27.1939 51.981 25.1672 51.886C23.1453 51.7925 21.7678 51.4712 20.555 51.0025C19.3041 50.5195 18.2449 49.8657 17.1888 48.8112C16.1327 47.755 15.482 46.6927 14.9975 45.445C14.5272 44.2337 14.209 42.8547 14.114 40.8327C14.0238 38.806 14 38.1617 14 33C14 27.8383 14.019 27.1939 14.114 25.1672C14.2074 23.1437 14.5272 21.7662 14.9975 20.555C15.4804 19.3042 16.1327 18.2449 17.1888 17.1888C18.2449 16.1327 19.3057 15.482 20.555 14.9975C21.7662 14.5273 23.1437 14.209 25.1672 14.114C27.1939 14.0237 27.8383 14 33 14Z" fill="black"/>
</svg>
