<svg width="371" height="3136" viewBox="0 0 371 3136" fill="none" xmlns="http://www.w3.org/2000/svg">
<circle cx="14.414" cy="260.312" r="11.56" fill="white"/>
<circle cx="14.414" cy="2307.83" r="11.56" fill="white"/>
<circle cx="359.365" cy="3124.43" r="11.56" fill="white"/>
<circle cx="354.741" cy="2612.09" r="11.56" fill="white"/>
<circle cx="14.414" cy="1801.03" r="11.56" fill="white"/>
<circle cx="14.414" cy="2825.72" r="11.56" fill="white"/>
<circle cx="354.741" cy="2088.65" r="11.56" fill="white"/>
<circle cx="359.365" cy="1576.31" r="11.56" fill="white"/>
<circle cx="359.365" cy="1063.97" r="11.56" fill="white"/>
<circle cx="14.414" cy="1283.14" r="11.56" fill="white"/>
<circle cx="11.6396" cy="781.901" r="11.56" fill="white"/>
<circle cx="359.365" cy="569.197" r="11.56" fill="white"/>
<circle cx="185.502" cy="12.4653" r="11.56" fill="white"/>
<path d="M359.167 3123.22C78.3844 3125.02 228.33 1375.89 185.499 12.2599" stroke="white" stroke-width="8"/>
<path d="M355.751 2613.18C237.681 2613.18 194.682 2607 190.681 2470" stroke="white" stroke-width="8"/>
<path d="M14.5003 2826C148.135 2822.43 216 2800 206.5 2714.5" stroke="white" stroke-width="8"/>
<path d="M12.3853 2307.34C172.133 2308.81 184.5 2285 184.5 2232.5" stroke="white" stroke-width="8"/>
<path d="M350.917 2089.41C218.5 2088 183 2066.5 183 1988.5" stroke="white" stroke-width="8"/>
<path d="M14.4824 1802.22C160.138 1801.47 183.714 1782.42 184.327 1729.76" stroke="white" stroke-width="8"/>
<path d="M359.262 1576.5C232.841 1577.06 186.5 1567.9 186.5 1492.4" stroke="white" stroke-width="8"/>
<path d="M14.5776 1284.2C173.347 1282.26 189.114 1282.36 190 1200" stroke="white" stroke-width="8"/>
<path d="M357.324 1064.79C234.591 1062 191.592 1049 193.091 948" stroke="white" stroke-width="8"/>
<path d="M8 782C161.623 781.804 195.578 784.609 194 677" stroke="white" stroke-width="8"/>
<path d="M362.973 569C265.107 565.935 197.433 562.178 192.973 413" stroke="white" stroke-width="8"/>
<path d="M24 260C184.025 255.846 192.729 223.94 189 160" stroke="white" stroke-width="8"/>
</svg>
