<svg width="222" height="87" viewBox="0 0 222 87" fill="none" xmlns="http://www.w3.org/2000/svg">
<path d="M89.0036 48.9516L85.8397 55.0456V58.5122H84.2715V55.0456L81.0938 48.9516H82.8408L85.0556 53.6425L87.2704 48.9516H89.0036ZM91.8026 48.9516V55.0456C91.8026 55.7701 91.9906 56.3158 92.3666 56.6826C92.7518 57.0495 93.2837 57.2329 93.9623 57.2329C94.6501 57.2329 95.1821 57.0495 95.5581 56.6826C95.9432 56.3158 96.1358 55.7701 96.1358 55.0456V48.9516H97.704V55.0181C97.704 55.7976 97.5344 56.4579 97.1951 56.999C96.8557 57.5401 96.4018 57.9436 95.8332 58.2096C95.2646 58.4755 94.6364 58.6085 93.9486 58.6085C93.2608 58.6085 92.6326 58.4755 92.064 58.2096C91.5046 57.9436 91.0598 57.5401 90.7296 56.999C90.3995 56.4579 90.2344 55.7976 90.2344 55.0181V48.9516H91.8026ZM112.195 48.9516L109.361 58.5122H107.587L105.579 51.2764L103.446 58.5122L101.686 58.526L98.9755 48.9516H100.64L102.621 56.7377L104.767 48.9516H106.528L108.522 56.6964L110.517 48.9516H112.195ZM119.253 56.5588H115.249L114.562 58.5122H112.925L116.35 48.9379H118.166L121.591 58.5122H119.94L119.253 56.5588ZM118.812 55.2795L117.258 50.8362L115.69 55.2795H118.812ZM128.046 58.5122L125.845 54.688H124.649V58.5122H123.08V48.9516H126.382C127.116 48.9516 127.735 49.08 128.239 49.3368C128.753 49.5936 129.133 49.9375 129.381 50.3685C129.638 50.7995 129.766 51.281 129.766 51.8129C129.766 52.4365 129.583 53.0051 129.216 53.5187C128.858 54.0231 128.303 54.367 127.551 54.5504L129.917 58.5122H128.046ZM124.649 53.4362H126.382C126.969 53.4362 127.409 53.2894 127.703 52.996C128.005 52.7025 128.157 52.3081 128.157 51.8129C128.157 51.3177 128.01 50.9325 127.716 50.6574C127.423 50.3731 126.978 50.2309 126.382 50.2309H124.649V53.4362ZM137.536 56.5588H133.533L132.845 58.5122H131.208L134.633 48.9379H136.449L139.875 58.5122H138.224L137.536 56.5588ZM137.096 55.2795L135.541 50.8362L133.973 55.2795H137.096ZM146.578 48.9516V55.8435C146.578 56.6964 146.316 57.3704 145.793 57.8657C145.28 58.3609 144.601 58.6085 143.757 58.6085C142.914 58.6085 142.231 58.3609 141.708 57.8657C141.194 57.3704 140.937 56.6964 140.937 55.8435H142.519C142.529 56.2654 142.634 56.6001 142.836 56.8477C143.047 57.0953 143.354 57.2191 143.757 57.2191C144.161 57.2191 144.468 57.0953 144.679 56.8477C144.89 56.5909 144.996 56.2562 144.996 55.8435V48.9516H146.578ZM154.893 56.5588H150.889L150.202 58.5122H148.565L151.99 48.9379H153.806L157.231 58.5122H155.58L154.893 56.5588ZM154.452 55.2795L152.898 50.8362L151.33 55.2795H154.452ZM166.682 53.7388L169.653 58.5122H167.893L165.733 55.0456L163.711 58.5122H161.964L164.935 53.7388L161.95 48.9516H163.711L165.884 52.4457L167.92 48.9516H169.667L166.682 53.7388ZM179.615 48.9516L176.025 58.5122H174.209L170.605 48.9516H172.283L175.117 56.9027L177.964 48.9516H179.615ZM182.495 48.9516V58.5122H180.927V48.9516H182.495ZM188.787 56.38C189.668 55.6188 190.36 54.9952 190.865 54.5091C191.378 54.0139 191.805 53.5003 192.144 52.9684C192.483 52.4365 192.653 51.9046 192.653 51.3727C192.653 50.8225 192.52 50.3914 192.254 50.0796C191.997 49.7678 191.589 49.6119 191.03 49.6119C190.489 49.6119 190.067 49.7862 189.764 50.1347C189.471 50.474 189.315 50.9325 189.296 51.5103H187.783C187.811 50.4648 188.123 49.6669 188.719 49.1167C189.324 48.5573 190.09 48.2776 191.016 48.2776C192.016 48.2776 192.795 48.5527 193.354 49.1029C193.923 49.6532 194.207 50.3868 194.207 51.3039C194.207 51.9642 194.038 52.6016 193.698 53.2161C193.368 53.8213 192.969 54.367 192.502 54.853C192.043 55.3299 191.456 55.8848 190.741 56.5176L190.122 57.0678H194.482V58.3746H187.797V57.2329L188.787 56.38ZM195.86 53.3674C195.86 51.7808 196.126 50.5428 196.658 49.6532C197.199 48.7544 198.125 48.3051 199.437 48.3051C200.748 48.3051 201.67 48.7544 202.202 49.6532C202.743 50.5428 203.013 51.7808 203.013 53.3674C203.013 54.9723 202.743 56.2287 202.202 57.1366C201.67 58.0353 200.748 58.4847 199.437 58.4847C198.125 58.4847 197.199 58.0353 196.658 57.1366C196.126 56.2287 195.86 54.9723 195.86 53.3674ZM201.473 53.3674C201.473 52.6245 201.422 51.9963 201.321 51.4828C201.23 50.9692 201.037 50.5519 200.744 50.2309C200.45 49.9008 200.015 49.7357 199.437 49.7357C198.859 49.7357 198.423 49.9008 198.13 50.2309C197.836 50.5519 197.639 50.9692 197.538 51.4828C197.447 51.9963 197.401 52.6245 197.401 53.3674C197.401 54.1377 197.447 54.7843 197.538 55.307C197.63 55.8297 197.823 56.2516 198.116 56.5726C198.419 56.8936 198.859 57.054 199.437 57.054C200.015 57.054 200.45 56.8936 200.744 56.5726C201.046 56.2516 201.243 55.8297 201.335 55.307C201.427 54.7843 201.473 54.1377 201.473 53.3674ZM205.539 56.38C206.42 55.6188 207.112 54.9952 207.617 54.5091C208.13 54.0139 208.557 53.5003 208.896 52.9684C209.235 52.4365 209.405 51.9046 209.405 51.3727C209.405 50.8225 209.272 50.3914 209.006 50.0796C208.749 49.7678 208.341 49.6119 207.782 49.6119C207.241 49.6119 206.819 49.7862 206.516 50.1347C206.223 50.474 206.067 50.9325 206.048 51.5103H204.535C204.563 50.4648 204.874 49.6669 205.471 49.1167C206.076 48.5573 206.842 48.2776 207.768 48.2776C208.768 48.2776 209.547 48.5527 210.106 49.1029C210.675 49.6532 210.959 50.3868 210.959 51.3039C210.959 51.9642 210.79 52.6016 210.45 53.2161C210.12 53.8213 209.721 54.367 209.254 54.853C208.795 55.3299 208.208 55.8848 207.493 56.5176L206.874 57.0678H211.234V58.3746H204.549V57.2329L205.539 56.38ZM212.42 56.4213V55.2382L217.042 48.6077H218.94V55.0594H220.219V56.4213H218.94V58.5122H217.399V56.4213H212.42ZM217.468 50.2034L214.222 55.0594H217.468V50.2034Z" fill="white"/>
<path d="M93.3196 45L86.6172 36.196V45H81.7608V25.0632H86.6172V33.8104L93.2628 25.0632H98.9712L91.2464 34.8328L99.2552 45H93.3196ZM106.42 25.0632V45H101.563V25.0632H106.42ZM127.774 45H122.918L114.795 32.7028V45H109.939V25.0632H114.795L122.918 37.4172V25.0632H127.774V45ZM138.764 25.0632C140.865 25.0632 142.702 25.4797 144.273 26.3128C145.845 27.1459 147.056 28.3197 147.908 29.8344C148.779 31.3301 149.215 33.0625 149.215 35.0316C149.215 36.9817 148.779 38.7141 147.908 40.2288C147.056 41.7435 145.835 42.9173 144.245 43.7504C142.673 44.5835 140.846 45 138.764 45H131.294V25.0632H138.764ZM138.451 40.7968C140.288 40.7968 141.717 40.2951 142.74 39.2916C143.762 38.2881 144.273 36.8681 144.273 35.0316C144.273 33.1951 143.762 31.7656 142.74 30.7432C141.717 29.7208 140.288 29.2096 138.451 29.2096H136.151V40.7968H138.451ZM169.764 45H164.908L156.785 32.7028V45H151.929V25.0632H156.785L164.908 37.4172V25.0632H169.764V45ZM178.141 28.954V32.9868H184.644V36.7356H178.141V41.1092H185.496V45H173.284V25.0632H185.496V28.954H178.141ZM195.863 45.1988C194.405 45.1988 193.098 44.9621 191.943 44.4888C190.789 44.0155 189.861 43.3149 189.16 42.3872C188.479 41.4595 188.119 40.3424 188.081 39.036H193.25C193.326 39.7744 193.581 40.3424 194.017 40.74C194.452 41.1187 195.02 41.308 195.721 41.308C196.44 41.308 197.008 41.1471 197.425 40.8252C197.841 40.4844 198.049 40.0205 198.049 39.4336C198.049 38.9413 197.879 38.5343 197.538 38.2124C197.216 37.8905 196.809 37.6255 196.317 37.4172C195.844 37.2089 195.162 36.9723 194.272 36.7072C192.985 36.3096 191.934 35.912 191.12 35.5144C190.306 35.1168 189.605 34.5299 189.018 33.7536C188.431 32.9773 188.138 31.9644 188.138 30.7148C188.138 28.8593 188.81 27.4109 190.154 26.3696C191.499 25.3093 193.25 24.7792 195.408 24.7792C197.605 24.7792 199.375 25.3093 200.719 26.3696C202.063 27.4109 202.783 28.8688 202.877 30.7432H197.623C197.586 30.0995 197.349 29.5977 196.913 29.238C196.478 28.8593 195.919 28.67 195.238 28.67C194.651 28.67 194.178 28.8309 193.818 29.1528C193.458 29.4557 193.278 29.9007 193.278 30.4876C193.278 31.1313 193.581 31.6331 194.187 31.9928C194.793 32.3525 195.74 32.7407 197.027 33.1572C198.315 33.5927 199.356 34.0092 200.151 34.4068C200.965 34.8044 201.666 35.3819 202.253 36.1392C202.84 36.8965 203.133 37.8716 203.133 39.0644C203.133 40.2004 202.84 41.2323 202.253 42.16C201.685 43.0877 200.852 43.8261 199.753 44.3752C198.655 44.9243 197.358 45.1988 195.863 45.1988ZM213.335 45.1988C211.877 45.1988 210.571 44.9621 209.416 44.4888C208.261 44.0155 207.333 43.3149 206.633 42.3872C205.951 41.4595 205.592 40.3424 205.554 39.036H210.723C210.798 39.7744 211.054 40.3424 211.489 40.74C211.925 41.1187 212.493 41.308 213.193 41.308C213.913 41.308 214.481 41.1471 214.897 40.8252C215.314 40.4844 215.522 40.0205 215.522 39.4336C215.522 38.9413 215.352 38.5343 215.011 38.2124C214.689 37.8905 214.282 37.6255 213.79 37.4172C213.316 37.2089 212.635 36.9723 211.745 36.7072C210.457 36.3096 209.407 35.912 208.593 35.5144C207.778 35.1168 207.078 34.5299 206.491 33.7536C205.904 32.9773 205.611 31.9644 205.611 30.7148C205.611 28.8593 206.283 27.4109 207.627 26.3696C208.971 25.3093 210.723 24.7792 212.881 24.7792C215.077 24.7792 216.847 25.3093 218.192 26.3696C219.536 27.4109 220.255 28.8688 220.35 30.7432H215.096C215.058 30.0995 214.822 29.5977 214.386 29.238C213.951 28.8593 213.392 28.67 212.711 28.67C212.124 28.67 211.65 28.8309 211.291 29.1528C210.931 29.4557 210.751 29.9007 210.751 30.4876C210.751 31.1313 211.054 31.6331 211.66 31.9928C212.266 32.3525 213.212 32.7407 214.5 33.1572C215.787 33.5927 216.829 34.0092 217.624 34.4068C218.438 34.8044 219.138 35.3819 219.725 36.1392C220.312 36.8965 220.606 37.8716 220.606 39.0644C220.606 40.2004 220.312 41.2323 219.725 42.16C219.157 43.0877 218.324 43.8261 217.226 44.3752C216.128 44.9243 214.831 45.1988 213.335 45.1988Z" fill="white"/>
<path d="M10.952 1C8.88381 1 6.9003 1.82159 5.43785 3.28404C3.9754 4.74649 3.15381 6.73 3.15381 8.79821V45.7666C3.15381 55.5886 8.66707 64.0074 15.8803 70.681C20.6207 75.0674 35.78 85.1441 35.78 85.1441C35.78 85.1441 49.1919 76.1543 55.3786 70.6259C62.7311 64.0549 67.8666 55.5713 67.8666 45.7116V8.79821C67.8666 6.73 67.045 4.74649 65.5825 3.28404C64.1201 1.82159 62.1366 1 60.0684 1H10.952Z" fill="url(#paint0_linear_383_391)" stroke="#271B4C" stroke-width="0.86347" stroke-miterlimit="10"/>
<path d="M35.643 76.7759C34.4644 76.4403 33.2555 76.0625 32.0381 75.6491C24.5841 73.0706 21.0871 70.9 18.8788 69.3026C15.9265 67.0016 13.3424 64.2639 11.2155 61.1838C9.07445 58.1171 7.45722 54.7163 6.42969 51.1201L6.4081 51.0435C6.03443 49.3681 5.84478 47.6569 5.84253 45.9404V10.3578C5.84253 8.53293 6.56747 6.78278 7.85786 5.49238C9.14826 4.20199 10.8984 3.47705 12.7233 3.47705H58.2983C60.1232 3.47705 61.8734 4.20199 63.1638 5.49238C64.4542 6.78278 65.1791 8.53293 65.1791 10.3578V45.8745C65.1786 47.763 64.9672 49.6455 64.5488 51.4871C62.7139 58.0095 58.7204 64.0905 53.2783 68.6183C50.4451 70.9367 47.0117 72.559 44.3328 73.715C41.5018 74.9127 38.5997 75.935 35.643 76.7759Z" fill="url(#paint1_radial_383_391)"/>
<path d="M18.0184 29.4362C18.0184 29.4362 14.4749 26.2436 12.9671 18.4399C12.9671 18.4399 1.31563 31.392 14.7814 40.7552L20.8516 39.0985L18.0184 29.4362Z" fill="url(#paint2_linear_383_391)"/>
<path d="M18.0184 29.4362C18.0184 29.4362 14.475 26.2436 12.9671 18.4399C12.9671 18.4399 6.81491 30.6893 19.659 39.4935L20.8463 39.0985L18.0184 29.4362Z" fill="url(#paint3_linear_383_391)"/>
<path d="M15.7486 41.4697C15.7486 41.4697 11.182 40.2144 7.4863 34.9473C7.4863 34.9473 3.47764 46.0558 16.5678 48.5296L26.8755 49.0499L15.7486 41.4697Z" fill="url(#paint4_linear_383_391)"/>
<path d="M15.7485 41.4697C15.7485 41.4697 11.1818 40.2144 7.48615 34.9473C7.48615 34.9473 6.4543 43.6338 20.9984 47.6284L26.8754 49.0499L15.7485 41.4697Z" fill="url(#paint5_linear_383_391)"/>
<path d="M16.5474 49.2099C16.5474 49.2099 11.5489 48.4263 7.68384 45.3491C7.68384 45.3491 8.42642 56.1889 20.3207 55.1786L25.3709 54.2072L16.5474 49.2099Z" fill="url(#paint6_linear_383_391)"/>
<path d="M16.5474 49.2099C16.5474 49.2099 11.5489 48.4263 7.68384 45.3491C7.68384 45.3491 10.2635 52.4242 20.6478 53.6158L25.3709 54.2083L16.5474 49.2099Z" fill="url(#paint7_linear_383_391)"/>
<path d="M21.1345 55.5322C21.1345 55.5322 15.7141 56.5489 11.6223 54.3892C11.6223 54.3892 15.8101 64.4896 27.1702 60.1096C38.5302 55.7297 28.8399 57.747 28.8399 57.747L21.1345 55.5322Z" fill="url(#paint8_linear_383_391)"/>
<path d="M21.1345 55.5322C21.1345 55.5322 15.7141 56.5489 11.6223 54.3892C11.6223 54.3892 17.7583 61.8711 27.658 57.652C38.8227 52.8932 28.2668 56.6806 28.2668 56.6806L21.1345 55.5322Z" fill="url(#paint9_linear_383_391)"/>
<path d="M27.6634 60.5783C25.0091 61.7495 22.2041 62.5437 19.3298 62.9378C19.3298 62.9378 27.4788 67.7322 34.0757 62.7327C40.6727 57.7332 34.3348 60.52 34.3348 60.52L27.6634 60.5783Z" fill="url(#paint10_linear_383_391)"/>
<path d="M27.6634 60.5783C25.0091 61.7495 22.2041 62.5437 19.3298 62.9377C19.3298 62.9377 27.9991 65.8822 34.1934 60.52C40.3877 55.1579 33.6753 59.798 33.6753 59.798L27.6634 60.5783Z" fill="url(#paint11_linear_383_391)"/>
<path d="M34.5214 62.6164C32.9709 64.2012 31.2526 65.6127 29.3967 66.8258C29.3967 66.8258 45.3375 67.8641 43.1928 55.1484L34.5214 62.6164Z" fill="url(#paint12_linear_383_391)"/>
<path d="M34.5214 62.6164C32.9709 64.2012 31.2526 65.6127 29.3967 66.8258C29.3967 66.8258 43.2123 64.7297 43.1928 55.1484L34.5214 62.6164Z" fill="url(#paint13_linear_383_391)"/>
<path d="M31.8069 38.5952C31.8069 38.5952 21.8155 33.3744 20.2925 23.0527C20.2925 23.0527 5.31347 40.1063 34.1134 45.0324L31.8069 38.5952Z" fill="url(#paint14_linear_383_391)"/>
<path d="M31.8071 38.5952C31.8071 38.5952 21.8156 33.3744 20.2927 23.0527C20.2927 23.0527 14.5031 38.7215 34.3381 42.4376L31.8071 38.5952Z" fill="url(#paint15_linear_383_391)"/>
<path d="M34.1189 44.7195C34.1189 44.7195 19.6698 42.5942 15.0146 34.5845C15.0146 34.5845 8.08092 51.6693 34.9338 48.2975L34.1189 44.7195Z" fill="url(#paint16_linear_383_391)"/>
<path d="M34.119 44.7195C34.119 44.7195 19.6699 42.5942 15.0148 34.5845C15.0148 34.5845 14.1513 47.6747 34.5886 46.5425L34.119 44.7195Z" fill="url(#paint17_linear_383_391)"/>
<path d="M35.0201 48.1412C35.0201 48.1412 22.2483 50.7111 14.7361 44.9614C14.7361 44.9614 14.3044 59.8951 38.0682 52.2178L35.0201 48.1412Z" fill="url(#paint18_linear_383_391)"/>
<path d="M35.0203 48.1412C35.0203 48.1412 22.2485 50.7111 14.7363 44.9614C14.7363 44.9614 19.3602 56.2351 36.1914 49.7828L35.0203 48.1412Z" fill="url(#paint19_linear_383_391)"/>
<path d="M36.9608 50.7642C36.9608 50.7642 28.6888 56.0205 18.0066 53.4992C18.0066 53.4992 24.3099 65.6741 38.9144 53.4625L36.9608 50.7642Z" fill="url(#paint20_linear_383_391)"/>
<path d="M36.9608 50.7642C36.9608 50.7642 28.6888 56.0205 18.0066 53.4992C18.0066 53.4992 25.454 61.9547 37.7239 52.2267L36.9608 50.7642Z" fill="url(#paint21_linear_383_391)"/>
<path d="M38.6154 53.1416C38.6154 53.1416 34.8755 57.8367 24.3833 59.6899C24.3833 59.6899 34.4837 67.404 41.6117 54.725L38.6154 53.1416Z" fill="url(#paint22_linear_383_391)"/>
<path d="M38.6154 53.1416C38.6154 53.1416 34.8755 57.8367 24.3833 59.6899C24.3833 59.6899 33.4638 63.7094 40.1319 54.0914L38.6154 53.1416Z" fill="url(#paint23_linear_383_391)"/>
<path d="M41.4337 54.6172C41.4337 54.6172 38.6814 60.0937 32.241 62.9443C32.241 62.9443 44.948 65.1515 43.8341 55.6156L41.4337 54.6172Z" fill="url(#paint24_linear_383_391)"/>
<path d="M41.4337 54.6172C41.4337 54.6172 38.6814 60.0937 32.241 62.9443C32.241 62.9443 42.6911 63.0285 42.9264 55.0317L41.4337 54.6172Z" fill="url(#paint25_linear_383_391)"/>
<path d="M44.1988 56.6829C44.1988 56.6829 32.2063 53.3056 33.3169 43.0584L29.8501 37.353L37.1486 41.965C37.1486 41.965 35.5468 49.2819 45.6678 48.8458C45.6678 48.8458 47.5329 56.1832 44.1988 56.6829Z" fill="url(#paint26_linear_383_391)"/>
<path d="M29.8501 37.353L37.1486 41.965C37.1486 41.965 35.5792 49.2603 45.6678 48.8458C45.6678 48.8458 47.467 56.3785 44.1988 56.6829C44.1988 56.6829 46.8 55.7881 44.46 50.6483C44.46 50.6483 35.9462 50.2608 35.9721 42.5425L29.8501 37.353Z" fill="url(#paint27_linear_383_391)"/>
<path d="M10.8926 8.27804H12.979C13.0239 8.27804 13.067 8.29589 13.0988 8.32767C13.1306 8.35945 13.1484 8.40256 13.1484 8.4475V14.8598C13.1475 14.9028 13.163 14.9444 13.1916 14.9764C13.2202 15.0083 13.2599 15.0283 13.3027 15.0321C13.3454 15.0359 13.3881 15.0234 13.4219 14.997C13.4558 14.9707 13.4784 14.9324 13.4852 14.8901L14.6724 8.41404C14.6797 8.37526 14.7003 8.34024 14.7307 8.31502C14.761 8.2898 14.7992 8.27596 14.8387 8.27588H16.6735C16.6985 8.27574 16.7231 8.28113 16.7457 8.29168C16.7683 8.30223 16.7883 8.31767 16.8042 8.33688C16.8201 8.35609 16.8316 8.37859 16.8377 8.40276C16.8438 8.42693 16.8445 8.45216 16.8397 8.47664L15.265 16.7325C15.2607 16.7524 15.2607 16.773 15.265 16.7929L16.9704 26.507C16.9746 26.5313 16.9735 26.5562 16.9671 26.58C16.9607 26.6038 16.9492 26.626 16.9334 26.6449C16.9175 26.6638 16.8978 26.679 16.8755 26.6895C16.8531 26.7 16.8288 26.7055 16.8041 26.7056H14.8451C14.805 26.7058 14.766 26.6917 14.7354 26.6658C14.7047 26.6399 14.6843 26.6038 14.6778 26.5642L13.4852 19.4503C13.4784 19.4081 13.4559 19.3701 13.4223 19.3438C13.3887 19.3174 13.3463 19.3048 13.3038 19.3083C13.2612 19.3119 13.2216 19.3314 13.1928 19.3629C13.164 19.3944 13.1481 19.4356 13.1484 19.4783V26.5361C13.1484 26.5811 13.1306 26.6242 13.0988 26.6559C13.067 26.6877 13.0239 26.7056 12.979 26.7056H10.8926C10.8477 26.7056 10.8046 26.6877 10.7728 26.6559C10.741 26.6242 10.7231 26.5811 10.7231 26.5361V8.4475C10.7231 8.42524 10.7275 8.40321 10.736 8.38265C10.7446 8.36209 10.757 8.34341 10.7728 8.32767C10.7885 8.31194 10.8072 8.29946 10.8278 8.29094C10.8483 8.28242 10.8703 8.27804 10.8926 8.27804Z" fill="white"/>
<path d="M17.8545 26.5413V8.44729C17.8545 8.40235 17.8723 8.35924 17.9041 8.32746C17.9359 8.29569 17.979 8.27783 18.0239 8.27783H20.1351C20.1801 8.27783 20.2232 8.29569 20.255 8.32746C20.2867 8.35924 20.3046 8.40235 20.3046 8.44729V26.5413C20.3046 26.5862 20.2867 26.6293 20.255 26.6611C20.2232 26.6929 20.1801 26.7108 20.1351 26.7108H18.025C18.0027 26.7109 17.9805 26.7066 17.9598 26.6982C17.9392 26.6897 17.9204 26.6773 17.9045 26.6615C17.8887 26.6458 17.8761 26.627 17.8675 26.6064C17.8589 26.5858 17.8545 26.5636 17.8545 26.5413Z" fill="white"/>
<path d="M25.9549 20.9417V20.9557C25.9567 21.0007 25.9764 21.043 26.0095 21.0735C26.0426 21.104 26.0864 21.12 26.1313 21.1182C26.1763 21.1163 26.2186 21.0967 26.2491 21.0636C26.2796 21.0305 26.2956 20.9866 26.2938 20.9417L26.0542 8.45376C26.0537 8.43124 26.0578 8.40886 26.0661 8.38792C26.0744 8.36699 26.0869 8.34792 26.1026 8.33184C26.1184 8.31576 26.1372 8.30299 26.158 8.29427C26.1788 8.28555 26.2011 8.28107 26.2236 8.28107H28.0887C28.1337 8.28107 28.1768 8.29892 28.2085 8.3307C28.2403 8.36248 28.2582 8.40558 28.2582 8.45053V26.5413C28.2582 26.5862 28.2403 26.6293 28.2085 26.6611C28.1768 26.6929 28.1337 26.7108 28.0887 26.7108H25.0407C24.998 26.7106 24.9568 26.6945 24.9255 26.6655C24.8941 26.6365 24.8747 26.5968 24.8712 26.5543L23.9182 14.0501V14.0339C23.9164 13.989 23.8969 13.9466 23.8639 13.916C23.8309 13.8854 23.7872 13.8692 23.7422 13.871C23.6973 13.8727 23.6549 13.8922 23.6243 13.9252C23.5937 13.9582 23.5775 14.0019 23.5792 14.0469L23.8189 26.5348C23.8193 26.5574 23.8152 26.5797 23.8069 26.6007C23.7986 26.6216 23.7862 26.6407 23.7704 26.6568C23.7546 26.6728 23.7358 26.6856 23.715 26.6943C23.6942 26.703 23.6719 26.7075 23.6494 26.7075H21.7832C21.7383 26.7075 21.6952 26.6897 21.6634 26.6579C21.6316 26.6261 21.6138 26.583 21.6138 26.5381V8.44729C21.6138 8.40235 21.6316 8.35924 21.6634 8.32746C21.6952 8.29569 21.7383 8.27783 21.7832 8.27783H24.8248C24.8675 8.27796 24.9086 8.29411 24.94 8.32309C24.9714 8.35207 24.9907 8.39177 24.9943 8.43434L25.9549 20.9417Z" fill="white"/>
<path d="M29.5739 8.44729C29.5739 8.40235 29.5918 8.35924 29.6235 8.32746C29.6553 8.29569 29.6984 8.27783 29.7434 8.27783H31.4897C34.351 8.27783 35.5405 9.24924 35.5405 17.4943C35.5405 25.4987 34.4244 26.6384 31.7326 26.7108H29.739C29.6941 26.7108 29.651 26.6929 29.6192 26.6611C29.5874 26.6293 29.5696 26.5862 29.5696 26.5413L29.5739 8.44729ZM31.9743 10.6599V24.3287C31.9745 24.3553 31.9809 24.3816 31.993 24.4053C32.0051 24.4291 32.0227 24.4496 32.0442 24.4654C32.0657 24.4811 32.0906 24.4916 32.1169 24.496C32.1432 24.5003 32.1702 24.4985 32.1956 24.4906C32.881 24.2909 33.0418 23.231 33.0418 17.4943C33.0418 11.7576 32.881 10.6945 32.1956 10.498C32.1699 10.4893 32.1425 10.4868 32.1156 10.4907C32.0887 10.4947 32.0632 10.5051 32.0411 10.5209C32.0191 10.5367 32.0011 10.5576 31.9887 10.5818C31.9764 10.606 31.97 10.6328 31.97 10.6599H31.9743Z" fill="white"/>
<path d="M40.9685 20.9417V20.9557C40.9704 21.0007 40.99 21.043 41.0231 21.0735C41.0562 21.104 41.1001 21.12 41.145 21.1182C41.19 21.1163 41.2323 21.0967 41.2628 21.0636C41.2932 21.0305 41.3093 20.9866 41.3075 20.9417L41.0678 8.45377C41.0674 8.43124 41.0715 8.40886 41.0798 8.38792C41.0881 8.36699 41.1005 8.34792 41.1163 8.33184C41.1321 8.31576 41.1509 8.30299 41.1717 8.29427C41.1925 8.28555 41.2148 8.28107 41.2373 8.28107H43.1024C43.1473 8.28107 43.1904 8.29892 43.2222 8.3307C43.254 8.36248 43.2718 8.40558 43.2718 8.45053V26.5413C43.2718 26.5862 43.254 26.6293 43.2222 26.6611C43.1904 26.6929 43.1473 26.7108 43.1024 26.7108H40.0587C40.0159 26.7106 39.9748 26.6945 39.9434 26.6655C39.9121 26.6365 39.8927 26.5968 39.8892 26.5543L38.9318 14.0501V14.035C38.9271 13.9923 38.9064 13.953 38.8738 13.925C38.8412 13.8971 38.7993 13.8825 38.7564 13.8843C38.7135 13.886 38.6728 13.9041 38.6427 13.9346C38.6125 13.9652 38.5951 14.0061 38.594 14.0491L38.8336 26.537C38.8339 26.5595 38.8297 26.5818 38.8214 26.6027C38.813 26.6235 38.8006 26.6425 38.7848 26.6586C38.7691 26.6746 38.7503 26.6874 38.7296 26.6962C38.7089 26.705 38.6866 26.7095 38.6642 26.7097H36.7969C36.752 26.7097 36.7089 26.6918 36.6771 26.66C36.6453 26.6283 36.6274 26.5852 36.6274 26.5402V8.44729C36.6274 8.40235 36.6453 8.35924 36.6771 8.32746C36.7089 8.29569 36.752 8.27783 36.7969 8.27783H39.8417C39.8844 8.27773 39.9255 8.29383 39.9568 8.32288C39.988 8.35193 40.0071 8.39177 40.0101 8.43434L40.9685 20.9417Z" fill="white"/>
<path d="M48.6781 26.7108H44.7515C44.7065 26.7108 44.6634 26.6929 44.6317 26.6611C44.5999 26.6293 44.582 26.5862 44.582 26.5413V8.44729C44.582 8.40235 44.5999 8.35924 44.6317 8.32746C44.6634 8.29569 44.7065 8.27783 44.7515 8.27783H48.6781C48.7231 8.27783 48.7662 8.29569 48.7979 8.32746C48.8297 8.35924 48.8476 8.40235 48.8476 8.44729V10.2908C48.8476 10.3357 48.8297 10.3788 48.7979 10.4106C48.7662 10.4424 48.7231 10.4603 48.6781 10.4603H47.153C47.1081 10.4603 47.065 10.4781 47.0332 10.5099C47.0014 10.5417 46.9836 10.5848 46.9836 10.6297V15.7479C46.9836 15.7929 47.0014 15.836 47.0332 15.8678C47.065 15.8995 47.1081 15.9174 47.153 15.9174H48.4396C48.4844 15.9177 48.5274 15.9356 48.5591 15.9673C48.5908 15.999 48.6088 16.042 48.609 16.0868V18.0523C48.609 18.0973 48.5912 18.1404 48.5594 18.1721C48.5276 18.2039 48.4845 18.2218 48.4396 18.2218H47.153C47.1081 18.2218 47.065 18.2396 47.0332 18.2714C47.0014 18.3032 46.9836 18.3463 46.9836 18.3912V24.3589C46.9836 24.4038 47.0014 24.4469 47.0332 24.4787C47.065 24.5105 47.1081 24.5283 47.153 24.5283H48.6781C48.7231 24.5283 48.7662 24.5462 48.7979 24.578C48.8297 24.6098 48.8476 24.6529 48.8476 24.6978V26.5413C48.8476 26.5636 48.8432 26.5856 48.8347 26.6062C48.8262 26.6267 48.8137 26.6454 48.7979 26.6611C48.7822 26.6769 48.7635 26.6893 48.743 26.6979C48.7224 26.7064 48.7004 26.7108 48.6781 26.7108Z" fill="white"/>
<path d="M54.9145 12.6441V14.1239C54.9145 14.1688 54.8967 14.212 54.8649 14.2437C54.8331 14.2755 54.79 14.2934 54.7451 14.2934H52.9015C52.8566 14.2934 52.8135 14.2755 52.7817 14.2437C52.7499 14.212 52.7321 14.1688 52.7321 14.1239V12.765C52.7321 10.8729 52.5378 10.1455 52.2226 10.1455C51.9798 10.1455 51.7855 10.6549 51.7855 11.4072C51.7855 15.7483 54.9631 18.805 54.9631 23.4127C54.9631 25.2325 54.1147 26.8331 52.2712 26.8331C50.6457 26.8331 49.5297 25.9114 49.5297 22.3452V21.1083C49.5297 21.0634 49.5475 21.0203 49.5793 20.9885C49.6111 20.9567 49.6542 20.9388 49.6991 20.9388H51.5437C51.5887 20.9388 51.6318 20.9567 51.6636 20.9885C51.6953 21.0203 51.7132 21.0634 51.7132 21.1083V22.2243C51.7132 24.1164 51.9075 24.8439 52.2226 24.8439C52.5378 24.8439 52.6544 24.1887 52.6544 23.5347C52.6544 19.5562 49.4768 16.5729 49.4768 11.5281C49.4768 9.61228 50.5691 8.15625 52.1697 8.15625C53.7985 8.15625 54.9145 9.078 54.9145 12.6441Z" fill="white"/>
<path d="M61.0268 12.6441V14.1239C61.0265 14.1688 61.0085 14.2117 60.9768 14.2434C60.9451 14.2751 60.9022 14.2931 60.8573 14.2934H59.0127C58.9679 14.2931 58.9249 14.2751 58.8932 14.2434C58.8615 14.2117 58.8436 14.1688 58.8433 14.1239V12.765C58.8433 10.8729 58.6501 10.1455 58.3338 10.1455C58.0921 10.1455 57.9021 10.6549 57.9021 11.4072C57.9021 15.7483 61.0797 18.805 61.0797 23.4127C61.0797 25.2325 60.2302 26.8331 58.3813 26.8331C56.7623 26.8331 55.6409 25.9114 55.6409 22.3452V21.1083C55.6409 21.0634 55.6587 21.0203 55.6905 20.9885C55.7223 20.9567 55.7654 20.9388 55.8103 20.9388H57.6549C57.6772 20.9388 57.6992 20.9432 57.7198 20.9517C57.7403 20.9603 57.759 20.9727 57.7747 20.9885C57.7905 21.0042 57.803 21.0229 57.8115 21.0435C57.82 21.064 57.8244 21.086 57.8244 21.1083V22.2243C57.8244 24.1164 58.0176 24.8439 58.3327 24.8439C58.6479 24.8439 58.7645 24.1887 58.7645 23.5347C58.7645 19.5562 55.5869 16.5729 55.5869 11.5281C55.5869 9.61228 56.6781 8.15625 58.2799 8.15625C59.9107 8.15625 61.0268 9.078 61.0268 12.6441Z" fill="white"/>
<path d="M26.9911 30.3989V29.7513L26.2949 28.5327H26.8907L27.1595 29.0972C27.1841 29.1482 27.2061 29.2005 27.2253 29.2537C27.2447 29.3077 27.2642 29.3692 27.2847 29.4383H27.2102C27.2286 29.3692 27.2469 29.3077 27.2642 29.2537C27.2815 29.2003 27.302 29.1481 27.3257 29.0972L27.5772 28.5327H28.1708L27.4951 29.7513V30.3989H26.9911Z" fill="white"/>
<path d="M29.6679 30.4218C29.5228 30.4249 29.3787 30.3962 29.2459 30.3376C29.1282 30.2858 29.0288 30.1999 28.9605 30.091C28.8921 29.9821 28.8581 29.8552 28.8627 29.7267V28.5308H29.37V29.6846C29.3689 29.7386 29.3823 29.7919 29.4089 29.8389C29.434 29.8843 29.4714 29.9217 29.5168 29.9469C29.5636 29.9729 29.6165 29.986 29.6701 29.9846C29.7243 29.9861 29.778 29.9731 29.8255 29.9469C29.8708 29.9216 29.9082 29.8842 29.9334 29.8389C29.96 29.7919 29.9734 29.7386 29.9723 29.6846V28.5308H30.4796V29.7267C30.4843 29.8555 30.4501 29.9827 30.3813 30.0917C30.3126 30.2007 30.2125 30.2864 30.0942 30.3376C29.9601 30.3967 29.8145 30.4254 29.6679 30.4218Z" fill="white"/>
<path d="M31.6634 30.3988L31.168 28.5305H31.7325L31.8836 29.2526C31.903 29.3443 31.9203 29.4436 31.9354 29.5526C31.9505 29.6616 31.9656 29.7685 31.9796 29.8764C31.9937 29.9843 32.0088 30.0836 32.0239 30.1765H31.9235C31.9419 30.0836 31.958 29.9843 31.9742 29.8764C31.9904 29.7685 32.0066 29.6605 32.0239 29.5526C32.0412 29.4447 32.0595 29.3443 32.0811 29.2526L32.2462 28.5283H32.7535L32.9197 29.2526C32.9402 29.3443 32.9597 29.4436 32.9769 29.5526C32.9942 29.6616 33.0104 29.7685 33.0266 29.8764C33.0428 29.9843 33.059 30.0836 33.0762 30.1765H32.9748C32.991 30.0836 33.0061 29.9843 33.0201 29.8764C33.0341 29.7685 33.0493 29.6605 33.0644 29.5526C33.0795 29.4447 33.0967 29.3443 33.1151 29.2526L33.2662 28.5283H33.8329L33.3374 30.3967H32.7643L32.5787 29.6357C32.5449 29.4956 32.5197 29.3536 32.5031 29.2105C32.4837 29.0583 32.461 28.9115 32.434 28.7712H32.5668C32.5346 28.9157 32.5112 29.062 32.4966 29.2094C32.4819 29.3529 32.4578 29.4954 32.4243 29.6357L32.2376 30.3967L31.6634 30.3988Z" fill="white"/>
<path d="M34.2432 30.3991L34.8487 28.5308H35.5405L36.1698 30.3991H35.5945L35.3786 29.6749C35.3322 29.5173 35.288 29.3511 35.2469 29.1848C35.2059 29.0186 35.1671 28.847 35.1304 28.6797H35.2459C35.2113 28.8466 35.1753 29.015 35.1379 29.1848C35.1023 29.3543 35.0624 29.5173 35.017 29.6749L34.8098 30.3991H34.2432ZM34.6922 30.0408V29.6619H35.7262V30.0408H34.6922Z" fill="white"/>
<path d="M36.8616 30.3988V28.5305H37.6689C37.7943 28.5275 37.9188 28.5534 38.0327 28.6061C38.1332 28.6527 38.218 28.7278 38.2766 28.8219C38.3371 28.9252 38.3674 29.0434 38.364 29.163C38.3678 29.2819 38.3367 29.3994 38.2744 29.5008C38.2147 29.5942 38.1276 29.667 38.0251 29.7091C37.9065 29.7585 37.7789 29.7824 37.6506 29.7793H37.1692V29.3864H37.548C37.6004 29.3877 37.6526 29.38 37.7024 29.3638C37.7422 29.3512 37.7768 29.3257 37.8006 29.2914C37.825 29.2532 37.8367 29.2083 37.8341 29.163C37.8363 29.1171 37.8247 29.0716 37.8006 29.0324C37.7766 28.9978 37.7422 28.9717 37.7024 28.9579C37.6527 28.9413 37.6005 28.9332 37.548 28.9342H37.3699V30.3967L36.8616 30.3988ZM37.8718 30.3988L37.4153 29.5408H37.9549L38.4245 30.3988H37.8718Z" fill="white"/>
<path d="M39.0278 30.3991L39.6344 28.5308H40.3263L40.9544 30.3991H40.3802L40.1644 29.6749C40.118 29.5173 40.0737 29.3511 40.0327 29.1848C39.9917 29.0186 39.9528 28.847 39.9161 28.6797H40.0316C39.9956 28.8466 39.9597 29.015 39.9237 29.1848C39.8881 29.3543 39.847 29.5173 39.8017 29.6749L39.5956 30.3991H39.0278ZM39.4768 30.0408V29.6619H40.5054V30.0408H39.4768Z" fill="white"/>
<path d="M42.2614 30.4237C42.0786 30.436 41.8978 30.3798 41.7541 30.2662C41.6932 30.2086 41.6457 30.1383 41.6149 30.0604C41.5841 29.9824 41.5709 29.8986 41.576 29.815V29.6984H42.0833V29.8247C42.079 29.8801 42.0955 29.9352 42.1297 29.9791C42.1653 30.0123 42.2122 30.0308 42.2609 30.0308C42.3096 30.0308 42.3564 30.0123 42.392 29.9791C42.4252 29.9339 42.4409 29.8783 42.4363 29.8225V28.5273H42.936V29.8085C42.9413 29.8922 42.9285 29.9761 42.8983 30.0543C42.8681 30.1326 42.8213 30.2034 42.7612 30.2618C42.6209 30.3768 42.4424 30.4346 42.2614 30.4237Z" fill="white"/>
<path d="M43.5781 30.3991L44.1836 28.5308H44.8755L45.5047 30.3991H44.9295L44.7136 29.6749C44.6672 29.5173 44.6229 29.3511 44.5819 29.1848C44.5409 29.0186 44.502 28.847 44.4653 28.6797H44.5765C44.542 28.8466 44.506 29.015 44.4686 29.1848C44.433 29.3543 44.3919 29.5173 44.3477 29.6749L44.1448 30.3991H43.5781ZM44.0271 30.0408V29.6619H45.0557V30.0408H44.0271Z" fill="white"/>
<path d="M34.2787 32.588C34.2787 33.3229 33.808 33.7646 33.7502 34.7554H34.2374V35.0444H33.4406V34.9454C33.4406 33.7605 33.9732 33.3105 33.9732 32.6086C33.9732 32.3031 33.9195 32.1545 33.8535 32.1545C33.7791 32.1545 33.7296 32.299 33.7296 32.6706V32.9307H33.4406V32.6499C33.4406 32.105 33.5851 31.8862 33.8658 31.8862C34.1259 31.8862 34.2787 32.1008 34.2787 32.588ZM34.3925 33.4756C34.3925 32.105 34.5617 31.8862 34.8631 31.8862C35.1686 31.8862 35.3338 32.105 35.3338 33.4756C35.3338 34.8504 35.1686 35.0651 34.8631 35.0651C34.5617 35.0651 34.3925 34.8504 34.3925 33.4756ZM35.0035 33.4756C35.0035 32.3651 34.9622 32.1545 34.8631 32.1545C34.7723 32.1545 34.7228 32.3651 34.7228 33.4756C34.7228 34.5862 34.7723 34.8009 34.8631 34.8009C34.9622 34.8009 35.0035 34.5862 35.0035 33.4756ZM36.3066 32.588C36.3066 33.3229 35.836 33.7646 35.7782 34.7554H36.2654V35.0444H35.4686V34.9454C35.4686 33.7605 36.0011 33.3105 36.0011 32.6086C36.0011 32.3031 35.9475 32.1545 35.8814 32.1545C35.8071 32.1545 35.7576 32.299 35.7576 32.6706V32.9307H35.4686V32.6499C35.4686 32.105 35.6131 31.8862 35.8938 31.8862C36.1539 31.8862 36.3066 32.1008 36.3066 32.588ZM37.0755 35.0444H36.77L36.7742 34.4128H36.254V34.227L36.6131 31.9068H37.0755V34.1403H37.2448V34.4128H37.0755V35.0444ZM36.5223 34.1403H36.7783L36.7948 32.1999L36.5223 34.1403Z" fill="white"/>
<path d="M34.7449 84.6636C34.5971 84.6107 34.4881 84.5676 34.3639 84.5212L34.0077 84.383L33.3083 84.1035C32.8442 83.9156 32.3866 83.7224 31.93 83.5271C31.0176 83.1349 30.1139 82.7284 29.2187 82.3074C27.4281 81.4634 25.6655 80.56 23.9375 79.5789C23.0741 79.091 22.2203 78.5762 21.3773 78.044C20.5344 77.5119 19.7033 76.9507 18.8884 76.3646C18.0735 75.7785 17.2748 75.1611 16.5009 74.5049C16.1112 74.1811 15.7346 73.8357 15.3579 73.4936L14.8053 72.9658C14.6196 72.7877 14.4502 72.6096 14.2721 72.4261C11.505 69.5812 9.15594 66.3578 7.29522 62.8524C6.3715 61.122 5.57779 59.3254 4.92068 57.4773C4.26836 55.6397 3.77756 53.7487 3.45386 51.8259L4.26984 51.6445C5.29737 55.283 6.99516 58.6872 9.0934 61.773C11.1766 64.8405 13.684 67.5972 16.5408 69.9609C16.72 70.1023 16.8959 70.2555 17.0751 70.3861L17.6094 70.7887C17.9785 71.0467 18.3412 71.3079 18.7222 71.5518C19.4777 72.0462 20.257 72.5117 21.06 72.9485C22.6757 73.8257 24.3374 74.6155 26.0379 75.3144C27.7443 76.0225 29.4864 76.6614 31.2479 77.2399C32.1286 77.5278 33.0133 77.8016 33.902 78.0613C34.3456 78.1898 34.7903 78.315 35.2328 78.4337L35.8944 78.6075L36.2182 78.6895C36.3262 78.7154 36.4406 78.7445 36.5215 78.7618L34.7449 84.6636Z" fill="#271B4C"/>
<path d="M35.0634 83.3686C34.9555 83.3254 34.8745 83.2876 34.7817 83.2477L34.5119 83.1311L33.9797 82.8958L32.9198 82.4209C32.2204 82.0971 31.5253 81.7733 30.8346 81.4495C29.453 80.7901 28.0833 80.1133 26.7331 79.3988C25.3828 78.6843 24.0498 77.9471 22.7395 77.1635C21.4292 76.3799 20.1491 75.5564 18.9122 74.6616C18.6046 74.4371 18.2948 74.2158 17.9948 73.9805L17.5414 73.6308L17.0957 73.2714C16.7956 73.0372 16.5117 72.7803 16.2203 72.5342C16.0757 72.4101 15.9375 72.2773 15.7961 72.15C15.6548 72.0226 15.5101 71.8952 15.3774 71.7592C14.2946 70.6982 13.2702 69.579 12.3088 68.4068C10.4002 66.0689 8.71684 63.5558 7.28125 60.9011L7.44855 60.8115C7.79825 61.4742 8.15875 62.1326 8.55595 62.7694C8.74807 63.0932 8.95746 63.4019 9.15822 63.7182C9.26615 63.8747 9.37408 64.0279 9.47554 64.1823C9.577 64.3366 9.69141 64.4921 9.79934 64.6432C10.2311 65.2573 10.6909 65.8477 11.1615 66.4306C11.6321 67.0134 12.1232 67.5768 12.6369 68.1208C13.6531 69.2143 14.7402 70.2398 15.8911 71.1904C17.0289 72.1407 18.2381 73.002 19.508 73.7668C19.8221 73.9632 20.1459 74.1457 20.4654 74.3324C20.7848 74.5191 21.113 74.694 21.4422 74.8721C22.0984 75.221 22.7625 75.5531 23.4346 75.8683C24.7773 76.504 26.1513 77.0739 27.5426 77.5952C28.9338 78.1165 30.3489 78.5861 31.7693 78.9984C32.4816 79.2078 33.1972 79.402 33.9161 79.5812C34.2744 79.6697 34.6327 79.7604 34.9954 79.8381L35.5351 79.9557L35.8017 80.0097C35.8891 80.027 35.983 80.0453 36.0585 80.0572L35.0634 83.3686Z" fill="white"/>
<path d="M35.643 76.7759C34.4644 76.4403 33.2555 76.0625 32.0381 75.6491C24.5841 73.0706 21.0871 70.9 18.8788 69.3026C15.9265 67.0016 13.3424 64.2639 11.2155 61.1838C9.07445 58.1171 7.45722 54.7163 6.42969 51.1201L6.4081 51.0435C6.03443 49.3681 5.84478 47.6569 5.84253 45.9404V10.3578C5.84253 8.53293 6.56747 6.78278 7.85786 5.49238C9.14826 4.20199 10.8984 3.47705 12.7233 3.47705H58.2983C60.1232 3.47705 61.8734 4.20199 63.1638 5.49238C64.4542 6.78278 65.1791 8.53293 65.1791 10.3578V45.8745C65.1786 47.763 64.9672 49.6455 64.5488 51.4871C62.7139 58.0095 58.7204 64.0905 53.2783 68.6183C50.4451 70.9367 47.0117 72.559 44.3328 73.7149C41.5018 74.9127 38.5997 75.935 35.643 76.7759Z" stroke="white" stroke-width="0.539669" stroke-miterlimit="10"/>
<mask id="mask0_383_391" style="mask-type:luminance" maskUnits="userSpaceOnUse" x="0" y="1" width="72" height="76">
<path d="M0 1.3667V59.624L23.5954 72.4745L23.9516 72.3418C25.9732 73.3456 28.5798 74.453 32.038 75.6489C33.2555 76.0623 34.4643 76.44 35.643 76.7757C38.5995 75.9369 41.5016 74.9167 44.3327 73.7212C47.0116 72.5652 50.445 70.943 53.2783 68.6245C56.7171 65.7618 59.5869 62.278 61.7381 58.3546L71.0204 58.2284V1.3667H0Z" fill="white"/>
</mask>
<g mask="url(#mask0_383_391)">
<path d="M28.718 74.4305C34.8443 69.8465 34.2809 64.3516 36.1439 51.4643C36.1611 51.3467 36.1784 51.2269 36.1967 51.106C36.2687 50.6361 36.3533 50.1493 36.4504 49.6457C36.7694 47.9467 37.1787 46.2659 37.6765 44.6105C37.7467 44.3817 37.8168 44.1561 37.8924 43.9338C38.8973 40.8285 40.0986 38.4292 41.356 36.5846C41.6463 36.1529 41.941 35.7578 42.2356 35.3865C43.8331 33.379 45.465 32.1701 46.8574 31.4426C47.821 30.9234 48.8647 30.5692 49.9454 30.3946H49.9561C50.1493 30.3665 50.2994 30.3536 50.4019 30.3471C50.5044 30.3406 50.5573 30.3417 50.5573 30.3417C51.5471 26.7356 56.1418 25.2354 56.1418 25.2354L55.8547 28.6817C57.0668 27.1501 59.301 27.2138 59.301 27.2138C59.301 27.2138 58.6621 28.5543 58.471 29.7675C58.2929 30.8976 57.0593 31.3066 56.8941 31.3574H56.8801L56.9459 31.3908L57.0744 31.4567C58.3426 32.1258 60.0695 33.2311 60.7733 33.6898L61.0798 33.8895L61.0917 33.8981C61.1931 34.2446 61.3075 34.5727 61.423 34.8857C61.423 34.8857 61.423 34.8954 61.423 34.9008C63.4673 40.2306 68.0178 40.8447 68.266 40.8739H68.2768C68.2768 40.8739 68.2876 40.9224 68.3103 41.0131C68.5608 42.0236 68.8896 43.0131 69.2936 43.9727L69.3357 44.072C69.5544 44.5758 69.5672 45.1454 69.3713 45.6586C69.2932 45.8687 69.1895 46.0685 69.0626 46.2533C68.5369 47.0196 67.5871 47.3175 66.6999 47.5668C65.8785 47.7978 65.0097 48.7897 65.0097 48.7897C64.9989 48.7261 62.5013 46.8685 61.7911 46.3537C60.1721 45.175 57.8601 44.6267 57.8601 44.6267C56.0415 45.9036 54.063 45.4254 54.063 45.4254C54.0058 45.5086 53.9551 45.5917 53.8979 45.6737C53.6962 45.9834 53.5186 46.3081 53.3669 46.6451C52.2541 49.1276 53.5989 50.6807 55.3992 52.4012C56.3966 53.3553 57.3129 53.637 59.1575 56.1929C59.1575 56.1929 64.7226 62.683 63.1683 71.0878L35.8935 79.049L28.718 74.4305Z" fill="url(#paint28_linear_383_391)"/>
<path opacity="0.7" d="M57.2372 35.2796L59.6193 36.2585C59.6193 36.2585 61.7467 40.5985 64.5972 41.4922C64.5972 41.4922 64.4267 42.5133 65.1077 43.1933C65.1077 43.1933 65.7888 41.0238 67.3204 42.5133C68.852 44.0028 65.0052 48.4162 65.0052 48.4162C65.0052 48.4162 65.7154 47.7243 66.6825 47.5441C67.6172 47.3692 70.1709 46.5122 69.3204 44.0449C68.4699 41.5775 68.2562 40.8533 68.2562 40.8533C68.2562 40.8533 63.0235 40.3859 61.0656 33.8764L56.8562 31.3335C56.8562 31.3335 61.0235 34.2585 57.2372 35.2796Z" fill="url(#paint29_linear_383_391)"/>
<path d="M65.0839 43.1514C65.0839 43.1514 64.4676 41.0025 67.0624 42.1725C67.0645 42.1725 65.4077 42.2362 65.0839 43.1514Z" fill="#E08282"/>
<path opacity="0.7" d="M56.8121 35.2202C56.8121 35.2202 56.6934 38.1409 59.7264 39.1199L59.518 36.3276L56.8121 35.2202Z" fill="url(#paint30_linear_383_391)"/>
<path opacity="0.5" d="M56.7905 35.1622C56.7905 35.1622 59.0776 34.9269 59.8526 36.0451C60.4279 36.8762 61.9174 39.607 61.9174 39.607L59.5137 36.8633C59.5137 36.8633 57.6195 37.5238 56.7905 35.1622Z" fill="#C65252"/>
<path d="M54.6997 30.8392C54.6997 30.8392 56.8854 28.0793 58.2615 27.8721C58.2583 27.8721 58.0025 31.7804 54.6997 30.8392Z" fill="url(#paint31_linear_383_391)"/>
<path d="M51.3818 31.8128C51.3818 31.8128 52.1633 28.414 55.2264 27.1382C55.2264 27.1382 55.0354 30.1215 53.8233 30.7281C53.8222 30.7281 52.7375 30.6482 51.3818 31.8128Z" fill="url(#paint32_linear_383_391)"/>
<path opacity="0.7" d="M57.8428 44.6082C57.8428 44.6082 59.5827 43.9865 61.2254 41.9434C61.5212 42.4829 61.9404 42.9448 62.4487 43.2914C62.9571 43.638 63.5402 43.8596 64.1504 43.938C64.1504 43.938 64.5001 45.2332 65.0139 48.795C65.0107 48.7939 62.9998 46.0146 57.8428 44.6082Z" fill="url(#paint33_linear_383_391)"/>
<path d="M54.4333 45.4656C52.1818 45.2076 48.2389 45.566 48.6847 38.0991C48.6847 38.0991 49.1952 45.662 59.6141 43.5552C59.6141 43.5552 58.4387 44.3636 57.8429 44.6086C56.8468 45.2958 55.6359 45.6002 54.4333 45.4656Z" fill="url(#paint34_linear_383_391)"/>
<path d="M54.037 45.4257C54.037 45.4257 48.2765 45.5282 48.6845 38.0991C48.6845 38.0991 46.228 45.5984 53.3753 46.6507L54.037 45.4257Z" fill="url(#paint35_linear_383_391)"/>
<path d="M50.4946 30.2715C50.4946 30.2715 43.9452 30.3514 42.3996 34.0956C42.3996 34.0956 37.0482 37.026 37.2263 40.8091C37.2263 40.8091 32.8712 43.8895 34.9424 48.0406C37.0137 52.1918 36.4697 53.5118 36.4697 53.5118C36.4697 53.5118 37.5609 51.379 37.712 50.0482C37.889 48.5598 37.9926 46.3633 38.3024 45.6866C38.3024 45.6866 40.569 49.4243 40.0132 51.324C40.0132 51.324 42.1438 49.7309 42.1071 47.1566C42.0682 44.4583 41.6646 41.7718 42.0963 40.4842C42.0963 40.4842 44.1589 43.842 44.0024 45.434C44.0024 45.434 46.3769 43.3833 46.8691 33.5678C46.8691 33.5699 48.2086 32.0589 50.4946 30.2715Z" fill="url(#paint36_linear_383_391)"/>
<path d="M36.4676 53.5172C36.4676 53.5172 36.7827 51.6014 34.4535 48.2036C32.1243 44.8059 36.3607 41.3671 37.2242 40.8091L38.2916 45.8237C38.2916 45.8237 38.7644 49.8842 36.4676 53.5172Z" fill="url(#paint37_linear_383_391)"/>
<path opacity="0.7" d="M37.2177 40.8018C37.2177 40.8018 32.3607 44.07 34.1675 47.7268C34.1675 47.7268 33.1604 44.2891 37.4487 41.6167L37.2177 40.8018Z" fill="url(#paint38_linear_383_391)"/>
<path d="M40.0132 51.3243C40.0132 51.3243 40.459 49.4624 38.2863 45.8196C36.1136 42.1769 36.3737 37.5746 42.2766 33.894L42.078 40.6583C42.078 40.6583 43.969 48.573 40.0132 51.3243Z" fill="url(#paint39_linear_383_391)"/>
<path opacity="0.7" d="M42.2238 33.937C42.2238 33.937 36.1579 37.2398 37.1293 42.7347C37.1293 42.7347 36.8843 37.9111 41.6528 35.2247L42.2238 33.937Z" fill="url(#paint40_linear_383_391)"/>
<path d="M43.9161 45.5951C43.9161 45.5951 44.1029 44.3852 42.0813 40.6626C40.0597 36.9399 41.7067 29.7893 50.5001 30.2718C50.5001 30.2718 46.9253 30.8114 46.8746 33.5681C46.8239 36.3247 46.7785 43.1677 43.9161 45.5951Z" fill="url(#paint41_linear_383_391)"/>
<path opacity="0.7" d="M50.4299 30.2824L50.4946 30.2716C50.312 30.2552 50.1286 30.2491 49.9452 30.2532C48.1298 30.1625 42.1859 30.5295 41.3516 36.5522C41.3516 36.5522 42.7471 31.5754 48.4838 30.4896C46.3932 31.1232 45.602 32.9818 45.8718 34.6396C47.0591 41.9478 43.9161 45.5949 43.9161 45.5949C46.8551 43.0682 46.7914 36.3428 46.8691 33.57C46.9404 31.0692 49.8276 30.3978 50.3975 30.2899H50.4677L50.4299 30.2824Z" fill="url(#paint42_linear_383_391)"/>
<path d="M60.4699 37.4289C60.4699 37.4289 59.4014 33.6437 56.1936 35.4138C56.1936 35.4138 56.5746 35.471 57.0722 36.1779C57.5579 36.8687 58.4149 37.7635 59.5115 36.8342C59.5795 36.7748 59.7954 36.6583 60.4699 37.4289Z" fill="url(#paint43_linear_383_391)"/>
<path d="M60.1051 36.2049C60.1051 36.2049 59.8816 33.2281 55.2815 34.941C55.2815 34.941 57.8525 34.016 60.1051 36.2049Z" fill="url(#paint44_linear_383_391)"/>
<path opacity="0.5" d="M56.812 35.5269C56.812 35.5269 58.4181 37.6996 59.5244 36.5199C59.2988 35.4125 57.5287 34.9462 56.812 35.5269Z" fill="#C65252"/>
<mask id="mask1_383_391" style="mask-type:luminance" maskUnits="userSpaceOnUse" x="28" y="25" width="42" height="55">
<path d="M28.718 74.4305C34.8443 69.8465 34.2809 64.3516 36.1439 51.4643C36.1611 51.3467 36.1784 51.2269 36.1967 51.106C36.2687 50.6361 36.3533 50.1493 36.4504 49.6457C36.7694 47.9467 37.1787 46.2659 37.6765 44.6105C37.7467 44.3817 37.8168 44.1561 37.8924 43.9338C38.8973 40.8285 40.0986 38.4292 41.356 36.5846C41.6463 36.1529 41.941 35.7578 42.2356 35.3865C43.8331 33.379 45.465 32.1701 46.8574 31.4426C47.821 30.9234 48.8647 30.5692 49.9454 30.3946H49.9561C50.1493 30.3665 50.2994 30.3536 50.4019 30.3471C50.5044 30.3406 50.5573 30.3417 50.5573 30.3417C51.5471 26.7356 56.1418 25.2354 56.1418 25.2354L55.8547 28.6817C57.0668 27.1501 59.301 27.2138 59.301 27.2138C59.301 27.2138 58.6621 28.5543 58.471 29.7675C58.2929 30.8976 57.0593 31.3066 56.8941 31.3574H56.8801L56.9459 31.3908L57.0744 31.4567C58.3426 32.1258 60.0695 33.2311 60.7733 33.6898L61.0798 33.8895L61.0917 33.8981C61.1931 34.2446 61.3075 34.5727 61.423 34.8857C61.423 34.8857 61.423 34.8954 61.423 34.9008C63.4673 40.2306 68.0178 40.8447 68.266 40.8739H68.2768C68.2768 40.8739 68.2876 40.9224 68.3103 41.0131C68.5608 42.0236 68.8896 43.0131 69.2936 43.9727L69.3357 44.072C69.5544 44.5758 69.5672 45.1454 69.3713 45.6586C69.2932 45.8687 69.1895 46.0685 69.0626 46.2533C68.5369 47.0196 67.5871 47.3175 66.6999 47.5668C65.8785 47.7978 65.0097 48.7897 65.0097 48.7897C64.9989 48.7261 62.5013 46.8685 61.7911 46.3537C60.1721 45.175 57.8601 44.6267 57.8601 44.6267C56.0415 45.9036 54.063 45.4254 54.063 45.4254C54.0058 45.5086 53.9551 45.5917 53.8979 45.6737C53.6962 45.9834 53.5186 46.3081 53.3669 46.6451C52.2541 49.1276 53.5989 50.6807 55.3992 52.4012C56.3966 53.3553 57.3129 53.637 59.1575 56.1929C59.1575 56.1929 64.7226 62.683 63.1683 71.0878L35.8935 79.049L28.718 74.4305Z" fill="white"/>
</mask>
<g mask="url(#mask1_383_391)">
<path style="mix-blend-mode:multiply" opacity="0.35" d="M43.7255 51.4722C43.7255 51.4722 51.3823 64.4803 46.6623 68.6487C39.7621 74.7384 34.726 80.2462 34.726 80.2462L26.4021 74.4901L34.5813 54.4641L43.7255 51.4722Z" fill="url(#paint45_linear_383_391)"/>
<path style="mix-blend-mode:multiply" opacity="0.35" d="M43.7253 51.4722C43.7253 51.4722 48.6504 66.7124 42.796 69.3147C34.3858 73.0514 27.4597 78.3185 27.4597 78.3185L19.8601 67.6007L40.1322 53.4161L43.7253 51.4722Z" fill="url(#paint46_linear_383_391)"/>
</g>
<path d="M11.4411 30.7635C11.4411 30.7635 7.21654 27.274 4.56676 18.1558C4.56676 18.1558 -6.22661 34.4538 9.46372 44.4376L15.7584 41.9703L11.4411 30.7635Z" fill="url(#paint47_linear_383_391)"/>
<path d="M11.4409 30.7635C11.4409 30.7635 7.21636 27.274 4.56659 18.1558C4.56659 18.1558 -0.413473 33.1704 14.5343 42.5412L15.7582 41.9703L11.4409 30.7635Z" fill="url(#paint48_linear_383_391)"/>
<path d="M10.5925 45.2001C10.5925 45.2001 5.52715 44.0895 0.863329 38.1553C0.863329 38.1553 -1.96885 51.647 12.4025 53.4948L23.5294 53.2617L10.5925 45.2001Z" fill="url(#paint49_linear_383_391)"/>
<path d="M10.5927 45.2001C10.5927 45.2001 5.52734 44.0895 0.863525 38.1553C0.863525 38.1553 0.904539 48.5288 17.0385 52.0625L23.5296 53.2617L10.5927 45.2001Z" fill="url(#paint50_linear_383_391)"/>
<path d="M12.4729 54.3008C12.4729 54.3008 7.00709 53.7849 2.45337 50.4595C2.45337 50.4595 4.6822 63.2367 17.3115 61.0607L22.6003 59.4946L12.4729 54.3008Z" fill="url(#paint51_linear_383_391)"/>
<path d="M12.4729 54.3008C12.4729 54.3008 7.00709 53.7849 2.45337 50.4595C2.45337 50.4595 6.1555 58.6257 17.4562 59.1816L22.6024 59.4946L12.4729 54.3008Z" fill="url(#paint52_linear_383_391)"/>
<path d="M18.23 61.4171C18.23 61.4171 12.5495 63.0663 7.87378 60.8472C7.87378 60.8472 13.7022 72.4652 25.3116 66.3399C36.9209 60.2147 26.7903 63.3998 26.7903 63.3998L18.23 61.4171Z" fill="url(#paint53_linear_383_391)"/>
<path d="M18.23 61.4169C18.23 61.4169 12.5495 63.0661 7.87378 60.847C7.87378 60.847 15.4464 69.2022 25.5102 63.3888C36.8605 56.8329 26.0336 62.1832 26.0336 62.1832L18.23 61.4169Z" fill="url(#paint54_linear_383_391)"/>
<path d="M25.9041 66.8502C25.9041 66.8502 22.2451 69.1945 17.2759 70.331C17.2759 70.331 26.6532 75.3392 33.0698 68.875C39.4865 62.4109 33.0558 66.2328 33.0558 66.2328L25.9041 66.8502Z" fill="url(#paint55_linear_383_391)"/>
<path d="M25.9041 66.8503C25.9041 66.8503 22.2451 69.1946 17.2759 70.3312C17.2759 70.3312 26.9662 73.1051 32.9047 66.2437C38.8432 59.3824 32.2474 65.431 32.2474 65.431L25.9041 66.8503Z" fill="url(#paint56_linear_383_391)"/>
<path d="M33.5306 68.7002C33.5306 68.7002 30.7804 71.5259 27.8943 73.9825C27.8943 73.9825 45.8296 74.0267 41.8469 59.1416L33.5306 68.7002Z" fill="url(#paint57_linear_383_391)"/>
<path d="M33.5306 68.7002C33.5306 68.7002 30.7804 71.5259 27.8943 73.9825C27.8943 73.9825 43.1367 70.4887 41.8469 59.1416L33.5306 68.7002Z" fill="url(#paint58_linear_383_391)"/>
<path d="M27.4421 40.4714C27.4421 40.4714 16.0314 35.1125 13.034 23.0142C13.034 23.0142 -0.781477 44.4476 30.7686 47.9102L27.4421 40.4714Z" fill="url(#paint59_linear_383_391)"/>
<path d="M27.4421 40.4714C27.4421 40.4714 16.0314 35.1125 13.0341 23.0142C13.0341 23.0142 8.89372 42.0504 30.6661 44.8168L27.4421 40.4714Z" fill="url(#paint60_linear_383_391)"/>
<path d="M30.732 47.5357C30.732 47.5357 14.9488 46.2092 8.89481 37.105C8.89481 37.105 3.71399 57.9114 32.079 51.7063L30.732 47.5357Z" fill="url(#paint61_linear_383_391)"/>
<path d="M30.7319 47.5357C30.7319 47.5357 14.9488 46.2092 8.89478 37.105C8.89478 37.105 9.70212 52.6809 31.4767 49.6566L30.7319 47.5357Z" fill="url(#paint62_linear_383_391)"/>
<path d="M32.1524 51.5139C32.1524 51.5139 18.7891 55.6089 9.96875 49.4189C9.96875 49.4189 11.4744 67.1417 35.9614 56.0903L32.1524 51.5139Z" fill="url(#paint63_linear_383_391)"/>
<path d="M32.1524 51.5139C32.1524 51.5139 18.7891 55.6089 9.96875 49.4189C9.96875 49.4189 16.4189 62.3904 33.6246 53.3618L32.1524 51.5139Z" fill="url(#paint64_linear_383_391)"/>
<path d="M34.581 54.4604C34.581 54.4604 26.4007 61.3682 14.6057 59.2613C14.6057 59.2613 22.9781 73.1621 37.0333 57.4955L34.581 54.4604Z" fill="url(#paint65_linear_383_391)"/>
<path d="M34.581 54.4604C34.581 54.4604 26.4007 61.3682 14.6057 59.2613C14.6057 59.2613 23.7142 68.6635 35.5934 56.1313L34.581 54.4604Z" fill="url(#paint66_linear_383_391)"/>
<path d="M36.6715 57.1406C36.6715 57.1406 33.2792 63.0101 22.2656 66.0635C22.2656 66.0635 34.1221 74.3744 40.0941 58.7607L36.6715 57.1406Z" fill="url(#paint67_linear_383_391)"/>
<path d="M36.6715 57.1406C36.6715 57.1406 33.2792 63.0101 22.2656 66.0635C22.2656 66.0635 32.5398 70.0765 38.4233 58.1358L36.6715 57.1406Z" fill="url(#paint68_linear_383_391)"/>
<path d="M39.889 58.6519C39.889 58.6519 37.6591 65.3643 31.127 69.2715C31.127 69.2715 45.0504 70.8387 42.5971 59.6351L39.889 58.6519Z" fill="url(#paint69_linear_383_391)"/>
<path d="M39.889 58.6519C39.889 58.6519 37.6591 65.3643 31.127 69.2715C31.127 69.2715 42.3521 68.5094 41.5436 59.0178L39.889 58.6519Z" fill="url(#paint70_linear_383_391)"/>
<path d="M43.1305 60.8772C43.1305 60.8772 29.8158 57.8626 29.6528 45.6337L25.179 39.1577L33.6194 44.0201C33.6194 44.0201 32.8638 52.8167 43.6702 51.4676C43.6702 51.4719 46.6416 60.0073 43.1305 60.8772Z" fill="url(#paint71_linear_383_391)"/>
<path d="M25.179 39.1621L33.6194 44.0245C33.6194 44.0245 32.9005 52.7931 43.6702 51.472C43.6702 51.472 46.5952 60.2448 43.1305 60.8751C43.1305 60.8751 45.8019 59.6015 42.6113 53.7062C42.6113 53.7062 33.4262 53.948 32.4332 44.8038L25.179 39.1621Z" fill="url(#paint72_linear_383_391)"/>
<path d="M43.1843 60.8772C43.1843 60.8772 29.8707 57.8626 29.7077 45.6337L25.2339 39.1577L33.6743 44.0147C33.6743 44.0147 32.9188 52.8124 43.7251 51.4622C43.7251 51.4719 46.6965 60.0073 43.1843 60.8772Z" fill="url(#paint73_linear_383_391)"/>
</g>
<path d="M62.8443 56.1411C60.6289 60.9648 57.36 65.2303 53.2781 68.6237C50.4449 70.9421 47.0115 72.5643 44.3326 73.7203C41.5015 74.9162 38.5994 75.9367 35.6428 76.7759C34.4642 76.4402 33.2553 76.0624 32.0378 75.6491C29.6324 74.8331 27.2712 73.8921 24.9639 72.8298" stroke="white" stroke-width="0.539669" stroke-miterlimit="10"/>
<path d="M34.7451 78.7619C34.8261 78.7457 34.9437 78.7155 35.0463 78.6906L35.3701 78.6086L36.0274 78.4359C36.4667 78.3183 36.9081 78.1931 37.3485 78.0668C38.2299 77.8099 39.1085 77.5383 39.9842 77.2519C41.7349 76.6787 43.4651 76.0441 45.165 75.3436C46.8545 74.6508 48.5063 73.8697 50.1138 73.0036C50.9136 72.5719 51.6864 72.1088 52.4409 71.6242C52.6276 71.5001 52.8175 71.3792 53.0021 71.254L53.5493 70.8697C53.7328 70.7424 53.9044 70.6053 54.0836 70.4726C54.1721 70.4056 54.2617 70.3419 54.3491 70.2718L54.6146 70.0559C57.4638 67.7296 59.9549 64.9966 62.0081 61.9447C64.0772 58.8751 65.7232 55.4762 66.7442 51.8594L67.5602 52.0407C66.9299 55.8475 65.625 59.5583 63.8138 63.0186C61.9838 66.5172 59.6478 69.7268 56.8813 72.5438L56.619 72.8093L56.3416 73.0738C56.157 73.2486 55.9778 73.431 55.79 73.5994L55.2266 74.1088C55.0367 74.2751 54.8435 74.4326 54.6513 74.5999C53.8785 75.2475 53.0874 75.8617 52.2768 76.4348C50.6609 77.5829 48.9856 78.645 47.2579 79.6167C45.5425 80.5895 43.7939 81.4922 42.0123 82.3248C41.1229 82.7428 40.2256 83.1465 39.3204 83.5358C38.866 83.729 38.4116 83.9211 37.9507 84.1067L37.2557 84.3852L36.9027 84.5223C36.7797 84.5687 36.6707 84.6108 36.5239 84.6637L34.7451 78.7619Z" fill="#271B4C"/>
<path d="M35.1357 80.0572C35.2113 80.0453 35.3052 80.027 35.3915 80.0097L35.6592 79.9557L36.1989 79.8381C36.5594 79.7604 36.9167 79.6697 37.2782 79.5812C37.9978 79.402 38.7134 79.2078 39.425 78.9984C40.8483 78.581 42.2572 78.1133 43.6517 77.5952C45.043 77.0739 46.417 76.504 47.7597 75.8683C48.4332 75.5538 49.0973 75.2218 49.7521 74.8721C50.0759 74.6983 50.3997 74.5169 50.7235 74.3324C51.0473 74.1478 51.3711 73.9632 51.682 73.7668C52.9517 73.0018 54.1609 72.1404 55.2989 71.1904C56.4498 70.2398 57.5369 69.2143 58.5531 68.1208C59.0668 67.5811 59.5536 67.0091 60.0285 66.4306C60.5034 65.852 60.9611 65.2573 61.3906 64.6432C61.4986 64.4921 61.6065 64.3377 61.7144 64.1823C61.8224 64.0269 61.9303 63.8747 62.0307 63.7182C62.2314 63.4019 62.4419 63.0911 62.634 62.7694C63.0312 62.1326 63.3896 61.4742 63.7403 60.8115L63.9087 60.9011C62.4732 63.5561 60.7894 66.0692 58.8801 68.4068C57.919 69.5793 56.8946 70.6984 55.8115 71.7592C55.6788 71.8952 55.5331 72.0194 55.3938 72.15C55.2546 72.2806 55.1143 72.4101 54.9696 72.5342C54.6782 72.7803 54.3944 73.0372 54.0943 73.2714L53.6431 73.6297L53.1909 73.9794C52.8908 74.2147 52.5811 74.436 52.2724 74.6605C51.0398 75.5564 49.7575 76.3767 48.4494 77.1624C47.1412 77.9482 45.8104 78.6897 44.4558 79.3977C43.1013 80.1058 41.737 80.7879 40.3543 81.4485C39.6636 81.7787 38.9685 82.0961 38.2691 82.4199L37.2178 82.8958L36.6846 83.1322L36.4148 83.2488C36.323 83.2887 36.2377 83.3265 36.133 83.3697L35.1357 80.0572Z" fill="white"/>
<path d="M35.6345 86C38.8135 86 41.3906 83.4229 41.3906 80.2439C41.3906 77.0649 38.8135 74.4878 35.6345 74.4878C32.4555 74.4878 29.8784 77.0649 29.8784 80.2439C29.8784 83.4229 32.4555 86 35.6345 86Z" fill="#F6AC94" stroke="white" stroke-width="1.07934" stroke-miterlimit="10"/>
<path d="M35.6343 85.0718C38.3006 85.0718 40.4621 82.9103 40.4621 80.2439C40.4621 77.5775 38.3006 75.416 35.6343 75.416C32.9679 75.416 30.8064 77.5775 30.8064 80.2439C30.8064 82.9103 32.9679 85.0718 35.6343 85.0718Z" fill="url(#paint74_radial_383_391)"/>
<path d="M33.0061 80.2051L32.1977 77.918H32.9726L33.4681 79.429H33.481L33.9894 77.918H34.6855L33.876 80.2051L34.7255 82.5991H33.9494L33.4098 80.9671H33.3968L32.8485 82.5991H32.1523L33.0061 80.2051Z" fill="#271B4C"/>
<path d="M35.0461 77.918H35.7887L36.2658 81.5489H36.2787L36.7601 77.918H37.4358L36.7267 82.5991H35.7553L35.0461 77.918Z" fill="#271B4C"/>
<path d="M37.9614 77.918H38.6975V82.5991H37.9614V77.918Z" fill="#271B4C"/>
<defs>
<linearGradient id="paint0_linear_383_391" x1="35.5102" y1="92.2288" x2="35.5102" y2="-26.6084" gradientUnits="userSpaceOnUse">
<stop stop-color="#5A3079"/>
<stop offset="0.48" stop-color="#AE1C71"/>
<stop offset="1" stop-color="#FFBE98"/>
</linearGradient>
<radialGradient id="paint1_radial_383_391" cx="0" cy="0" r="1" gradientUnits="userSpaceOnUse" gradientTransform="translate(35.5103 76.4154) scale(55.5913 55.5913)">
<stop offset="0.06" stop-color="#D84784"/>
<stop offset="1" stop-color="#5A3079"/>
</radialGradient>
<linearGradient id="paint2_linear_383_391" x1="8.99055" y1="44.8399" x2="3.06564" y2="9.63902" gradientUnits="userSpaceOnUse">
<stop stop-color="#C28832"/>
<stop offset="1" stop-color="#C6C1C1"/>
</linearGradient>
<linearGradient id="paint3_linear_383_391" x1="10.6801" y1="43.2833" x2="7.04362" y2="21.6784" gradientUnits="userSpaceOnUse">
<stop stop-color="#C28832"/>
<stop offset="1" stop-color="#C6C1C1"/>
</linearGradient>
<linearGradient id="paint4_linear_383_391" x1="11.1557" y1="53.0962" x2="8.31819" y2="36.2381" gradientUnits="userSpaceOnUse">
<stop stop-color="#C28832"/>
<stop offset="1" stop-color="#C6C1C1"/>
</linearGradient>
<linearGradient id="paint5_linear_383_391" x1="11.8704" y1="53.8549" x2="9.0327" y2="36.9958" gradientUnits="userSpaceOnUse">
<stop stop-color="#C28832"/>
<stop offset="1" stop-color="#C6C1C1"/>
</linearGradient>
<linearGradient id="paint6_linear_383_391" x1="10.7881" y1="58.5635" x2="8.83397" y2="46.9534" gradientUnits="userSpaceOnUse">
<stop stop-color="#C28832"/>
<stop offset="1" stop-color="#C6C1C1"/>
</linearGradient>
<linearGradient id="paint7_linear_383_391" x1="10.8636" y1="58.9488" x2="8.93274" y2="47.4774" gradientUnits="userSpaceOnUse">
<stop stop-color="#C28832"/>
<stop offset="1" stop-color="#C6C1C1"/>
</linearGradient>
<linearGradient id="paint8_linear_383_391" x1="16.2576" y1="63.4539" x2="14.8372" y2="55.0153" gradientUnits="userSpaceOnUse">
<stop stop-color="#C28832"/>
<stop offset="1" stop-color="#C6C1C1"/>
</linearGradient>
<linearGradient id="paint9_linear_383_391" x1="21.155" y1="61.6313" x2="15.5983" y2="57.2493" gradientUnits="userSpaceOnUse">
<stop stop-color="#C28832"/>
<stop offset="1" stop-color="#C6C1C1"/>
</linearGradient>
<linearGradient id="paint10_linear_383_391" x1="22.2364" y1="68.3283" x2="21.4952" y2="63.925" gradientUnits="userSpaceOnUse">
<stop stop-color="#C28832"/>
<stop offset="1" stop-color="#C6C1C1"/>
</linearGradient>
<linearGradient id="paint11_linear_383_391" x1="27.9407" y1="65.2812" x2="22.0678" y2="63.0664" gradientUnits="userSpaceOnUse">
<stop stop-color="#C28832"/>
<stop offset="1" stop-color="#C6C1C1"/>
</linearGradient>
<linearGradient id="paint12_linear_383_391" x1="33.953" y1="65.3544" x2="25.6999" y2="62.0362" gradientUnits="userSpaceOnUse">
<stop stop-color="#C28832"/>
<stop offset="1" stop-color="#C6C1C1"/>
</linearGradient>
<linearGradient id="paint13_linear_383_391" x1="34.1084" y1="64.3971" x2="27.7857" y2="63.865" gradientUnits="userSpaceOnUse">
<stop stop-color="#C28832"/>
<stop offset="1" stop-color="#C6C1C1"/>
</linearGradient>
<linearGradient id="paint14_linear_383_391" x1="19.0757" y1="23.6732" x2="39.3814" y2="48.1595" gradientUnits="userSpaceOnUse">
<stop offset="0.35" stop-color="#C69476"/>
<stop offset="1" stop-color="#C6C1C1"/>
</linearGradient>
<linearGradient id="paint15_linear_383_391" x1="22.348" y1="51.42" x2="18.7875" y2="30.2665" gradientUnits="userSpaceOnUse">
<stop stop-color="#C28832"/>
<stop offset="0.03" stop-color="#C69476"/>
<stop offset="1" stop-color="#C6C1C1"/>
</linearGradient>
<linearGradient id="paint16_linear_383_391" x1="19.219" y1="37.7696" x2="40.4139" y2="43.6549" gradientUnits="userSpaceOnUse">
<stop offset="0.35" stop-color="#C69476"/>
<stop offset="1" stop-color="#C6C1C1"/>
</linearGradient>
<linearGradient id="paint17_linear_383_391" x1="19.6696" y1="53.256" x2="17.1792" y2="38.4599" gradientUnits="userSpaceOnUse">
<stop stop-color="#C28832"/>
<stop offset="0.03" stop-color="#C69476"/>
<stop offset="1" stop-color="#C6C1C1"/>
</linearGradient>
<linearGradient id="paint18_linear_383_391" x1="22.479" y1="46.9854" x2="40.1686" y2="45.4327" gradientUnits="userSpaceOnUse">
<stop stop-color="#C28832"/>
<stop offset="1" stop-color="#C6C1C1"/>
</linearGradient>
<linearGradient id="paint19_linear_383_391" x1="20.0059" y1="57.5533" x2="18.3631" y2="47.7932" gradientUnits="userSpaceOnUse">
<stop stop-color="#C28832"/>
<stop offset="1" stop-color="#C6C1C1"/>
</linearGradient>
<linearGradient id="paint20_linear_383_391" x1="17.6999" y1="54.04" x2="26.4587" y2="62.6195" gradientUnits="userSpaceOnUse">
<stop stop-color="#C28832"/>
<stop offset="1" stop-color="#C6C1C1"/>
</linearGradient>
<linearGradient id="paint21_linear_383_391" x1="20.0157" y1="55.0446" x2="29.3085" y2="64.1475" gradientUnits="userSpaceOnUse">
<stop stop-color="#C28832"/>
<stop offset="1" stop-color="#C6C1C1"/>
</linearGradient>
<linearGradient id="paint22_linear_383_391" x1="20.5018" y1="57.6384" x2="30.8848" y2="65.4947" gradientUnits="userSpaceOnUse">
<stop stop-color="#C28832"/>
<stop offset="1" stop-color="#C6C1C1"/>
</linearGradient>
<linearGradient id="paint23_linear_383_391" x1="23.3401" y1="58.8794" x2="32.4871" y2="66.6089" gradientUnits="userSpaceOnUse">
<stop stop-color="#C28832"/>
<stop offset="1" stop-color="#C6C1C1"/>
</linearGradient>
<linearGradient id="paint24_linear_383_391" x1="26.4245" y1="60.5545" x2="35.1088" y2="66.0499" gradientUnits="userSpaceOnUse">
<stop stop-color="#C28832"/>
<stop offset="1" stop-color="#C6C1C1"/>
</linearGradient>
<linearGradient id="paint25_linear_383_391" x1="29.758" y1="61.9965" x2="37.0058" y2="65.1951" gradientUnits="userSpaceOnUse">
<stop stop-color="#C28832"/>
<stop offset="1" stop-color="#C6C1C1"/>
</linearGradient>
<linearGradient id="paint26_linear_383_391" x1="33.6148" y1="60.7021" x2="30.0551" y2="39.5531" gradientUnits="userSpaceOnUse">
<stop stop-color="#B14D43"/>
<stop offset="1" stop-color="#C3C4BD"/>
</linearGradient>
<linearGradient id="paint27_linear_383_391" x1="27.9221" y1="55.7025" x2="34.4442" y2="37.3119" gradientUnits="userSpaceOnUse">
<stop stop-color="#B14D43"/>
<stop offset="0.51" stop-color="#C3C4BD"/>
</linearGradient>
<linearGradient id="paint28_linear_383_391" x1="72.1937" y1="38.3072" x2="25.2188" y2="73.4688" gradientUnits="userSpaceOnUse">
<stop offset="0.09" stop-color="white"/>
<stop offset="0.24" stop-color="#FFFCFA"/>
<stop offset="0.41" stop-color="#FFF4ED"/>
<stop offset="0.58" stop-color="#FFE5D7"/>
<stop offset="0.76" stop-color="#FFD2B7"/>
<stop offset="0.91" stop-color="#FFBE98"/>
</linearGradient>
<linearGradient id="paint29_linear_383_391" x1="49.9603" y1="36.333" x2="72.7937" y2="43.707" gradientUnits="userSpaceOnUse">
<stop stop-color="#FBB040"/>
<stop offset="0.84" stop-color="#FFF8F8"/>
</linearGradient>
<linearGradient id="paint30_linear_383_391" x1="56.6988" y1="36.9461" x2="61.925" y2="37.6919" gradientUnits="userSpaceOnUse">
<stop stop-color="#FBB040"/>
<stop offset="0.62" stop-color="#FBB040" stop-opacity="0"/>
</linearGradient>
<linearGradient id="paint31_linear_383_391" x1="59.5006" y1="28.3092" x2="52.9814" y2="31.4166" gradientUnits="userSpaceOnUse">
<stop stop-color="white"/>
<stop offset="1" stop-color="#FFBE98"/>
</linearGradient>
<linearGradient id="paint32_linear_383_391" x1="57.7305" y1="27.0551" x2="50.377" y2="31.3001" gradientUnits="userSpaceOnUse">
<stop offset="0.08" stop-color="white"/>
<stop offset="1" stop-color="#FFBE98"/>
</linearGradient>
<linearGradient id="paint33_linear_383_391" x1="58.7203" y1="42.5338" x2="65.2826" y2="47.5484" gradientUnits="userSpaceOnUse">
<stop stop-color="#FBB040"/>
<stop offset="0.73" stop-color="#FBB040" stop-opacity="0"/>
</linearGradient>
<linearGradient id="paint34_linear_383_391" x1="47.2449" y1="40.7543" x2="58.8823" y2="44.0139" gradientUnits="userSpaceOnUse">
<stop stop-color="#EA6659"/>
<stop offset="1" stop-color="#FCFDF4"/>
</linearGradient>
<linearGradient id="paint35_linear_383_391" x1="34.9446" y1="39.2875" x2="54.4007" y2="43.0274" gradientUnits="userSpaceOnUse">
<stop offset="0.27" stop-color="#FFBE98"/>
<stop offset="0.44" stop-color="#FFC09B"/>
<stop offset="0.58" stop-color="#FFC6A5"/>
<stop offset="0.71" stop-color="#FFD1B6"/>
<stop offset="0.83" stop-color="#FFDFCD"/>
<stop offset="0.94" stop-color="#FFF2EB"/>
<stop offset="1" stop-color="white"/>
</linearGradient>
<linearGradient id="paint36_linear_383_391" x1="39.234" y1="43.9427" x2="56.017" y2="30.5478" gradientUnits="userSpaceOnUse">
<stop stop-color="#EA6659"/>
<stop offset="1" stop-color="#FCFDF4"/>
</linearGradient>
<linearGradient id="paint37_linear_383_391" x1="33.6745" y1="49.2084" x2="39.9982" y2="45.1252" gradientUnits="userSpaceOnUse">
<stop stop-color="#EA6659"/>
<stop offset="1" stop-color="#FCFDF4"/>
</linearGradient>
<linearGradient id="paint38_linear_383_391" x1="33.0296" y1="45.9852" x2="38.3377" y2="42.5578" gradientUnits="userSpaceOnUse">
<stop stop-color="#FBB040"/>
<stop offset="0.9" stop-color="#FFF8F8"/>
</linearGradient>
<linearGradient id="paint39_linear_383_391" x1="33.6241" y1="47.4631" x2="45.2504" y2="39.9561" gradientUnits="userSpaceOnUse">
<stop offset="0.11" stop-color="#EA6659"/>
<stop offset="0.94" stop-color="#FCFDF4"/>
</linearGradient>
<linearGradient id="paint40_linear_383_391" x1="35.8629" y1="40.7882" x2="43.466" y2="35.879" gradientUnits="userSpaceOnUse">
<stop stop-color="#FBB040"/>
<stop offset="0.9" stop-color="#FFF8F8"/>
</linearGradient>
<linearGradient id="paint41_linear_383_391" x1="38.1665" y1="44.1327" x2="48.0125" y2="34.938" gradientUnits="userSpaceOnUse">
<stop stop-color="#EA6659"/>
<stop offset="1" stop-color="#FCFDF4"/>
</linearGradient>
<linearGradient id="paint42_linear_383_391" x1="38.0733" y1="42.5163" x2="49.6987" y2="35.0099" gradientUnits="userSpaceOnUse">
<stop stop-color="#FBB040"/>
<stop offset="0.9" stop-color="#FFF8F8"/>
</linearGradient>
<linearGradient id="paint43_linear_383_391" x1="57.7663" y1="36.9854" x2="59.266" y2="35.4857" gradientUnits="userSpaceOnUse">
<stop stop-color="#FBB040"/>
<stop offset="1" stop-color="#FFF8F8"/>
</linearGradient>
<linearGradient id="paint44_linear_383_391" x1="55.5049" y1="33.9775" x2="59.7918" y2="36.1351" gradientUnits="userSpaceOnUse">
<stop stop-color="white"/>
<stop offset="0.55" stop-color="#FFBE98"/>
</linearGradient>
<linearGradient id="paint45_linear_383_391" x1="52.6624" y1="43.4667" x2="28.0427" y2="80.7028" gradientUnits="userSpaceOnUse">
<stop stop-color="#FBB040"/>
<stop offset="0.73" stop-color="#FBB040" stop-opacity="0"/>
</linearGradient>
<linearGradient id="paint46_linear_383_391" x1="56.6692" y1="49.0565" x2="20.9201" y2="76.5363" gradientUnits="userSpaceOnUse">
<stop stop-color="#FBB040"/>
<stop offset="0.73" stop-color="#FBB040" stop-opacity="0"/>
</linearGradient>
<linearGradient id="paint47_linear_383_391" x1="6.45442" y1="40.9326" x2="-4.20593" y2="-0.429537" gradientUnits="userSpaceOnUse">
<stop stop-color="#FBB040"/>
<stop offset="1" stop-color="#FFF8F8"/>
</linearGradient>
<linearGradient id="paint48_linear_383_391" x1="8.05986" y1="38.9688" x2="1.51682" y2="13.5818" gradientUnits="userSpaceOnUse">
<stop stop-color="#FBB040"/>
<stop offset="1" stop-color="#FFF8F8"/>
</linearGradient>
<linearGradient id="paint49_linear_383_391" x1="9.88133" y1="50.5539" x2="4.77622" y2="30.7461" gradientUnits="userSpaceOnUse">
<stop stop-color="#FBB040"/>
<stop offset="1" stop-color="#FFF8F8"/>
</linearGradient>
<linearGradient id="paint50_linear_383_391" x1="10.7495" y1="51.4006" x2="5.64418" y2="31.5918" gradientUnits="userSpaceOnUse">
<stop stop-color="#FBB040"/>
<stop offset="1" stop-color="#FFF8F8"/>
</linearGradient>
<linearGradient id="paint51_linear_383_391" x1="10.2183" y1="57.053" x2="6.70236" y2="43.4114" gradientUnits="userSpaceOnUse">
<stop stop-color="#FBB040"/>
<stop offset="1" stop-color="#FFF8F8"/>
</linearGradient>
<linearGradient id="paint52_linear_383_391" x1="10.351" y1="57.5047" x2="6.87701" y2="44.0256" gradientUnits="userSpaceOnUse">
<stop stop-color="#FBB040"/>
<stop offset="1" stop-color="#FFF8F8"/>
</linearGradient>
<linearGradient id="paint53_linear_383_391" x1="16.7425" y1="62.453" x2="14.1871" y2="52.5379" gradientUnits="userSpaceOnUse">
<stop stop-color="#FBB040"/>
<stop offset="1" stop-color="#FFF8F8"/>
</linearGradient>
<linearGradient id="paint54_linear_383_391" x1="21.7546" y1="59.9454" x2="14.761" y2="55.927" gradientUnits="userSpaceOnUse">
<stop stop-color="#FBB040"/>
<stop offset="1" stop-color="#FFF8F8"/>
</linearGradient>
<linearGradient id="paint55_linear_383_391" x1="23.8102" y1="67.7966" x2="22.4769" y2="62.6234" gradientUnits="userSpaceOnUse">
<stop stop-color="#FBB040"/>
<stop offset="1" stop-color="#FFF8F8"/>
</linearGradient>
<linearGradient id="paint56_linear_383_391" x1="29.5248" y1="63.7825" x2="22.771" y2="62.2699" gradientUnits="userSpaceOnUse">
<stop stop-color="#FBB040"/>
<stop offset="1" stop-color="#FFF8F8"/>
</linearGradient>
<linearGradient id="paint57_linear_383_391" x1="35.8205" y1="63.4076" x2="25.7244" y2="60.9289" gradientUnits="userSpaceOnUse">
<stop stop-color="#FBB040"/>
<stop offset="1" stop-color="#FFF8F8"/>
</linearGradient>
<linearGradient id="paint58_linear_383_391" x1="35.9063" y1="62.2145" x2="28.7247" y2="62.4765" gradientUnits="userSpaceOnUse">
<stop stop-color="#FBB040"/>
<stop offset="1" stop-color="#FFF8F8"/>
</linearGradient>
<linearGradient id="paint59_linear_383_391" x1="6.48394" y1="26.6751" x2="33.9487" y2="51.4481" gradientUnits="userSpaceOnUse">
<stop offset="0.35" stop-color="#FFBE98"/>
<stop offset="1" stop-color="#FFF8F8"/>
</linearGradient>
<linearGradient id="paint60_linear_383_391" x1="21.6687" y1="47.7702" x2="15.2624" y2="22.9138" gradientUnits="userSpaceOnUse">
<stop stop-color="#FBB040"/>
<stop offset="0.03" stop-color="#FFBE98"/>
<stop offset="1" stop-color="#FFF8F8"/>
</linearGradient>
<linearGradient id="paint61_linear_383_391" x1="8.52762" y1="43.404" x2="32.4124" y2="46.6585" gradientUnits="userSpaceOnUse">
<stop offset="0.35" stop-color="#FFBE98"/>
<stop offset="1" stop-color="#FFF8F8"/>
</linearGradient>
<linearGradient id="paint62_linear_383_391" x1="19.0399" y1="50.1348" x2="14.559" y2="32.749" gradientUnits="userSpaceOnUse">
<stop stop-color="#FBB040"/>
<stop offset="0.03" stop-color="#FFBE98"/>
<stop offset="1" stop-color="#FFF8F8"/>
</linearGradient>
<linearGradient id="paint63_linear_383_391" x1="13.2753" y1="54.067" x2="32.0744" y2="50.4247" gradientUnits="userSpaceOnUse">
<stop stop-color="#FBB040"/>
<stop offset="1" stop-color="#FFF8F8"/>
</linearGradient>
<linearGradient id="paint64_linear_383_391" x1="19.9749" y1="55.1976" x2="17.0195" y2="43.7307" gradientUnits="userSpaceOnUse">
<stop stop-color="#FBB040"/>
<stop offset="1" stop-color="#FFF8F8"/>
</linearGradient>
<linearGradient id="paint65_linear_383_391" x1="17.0311" y1="51.2025" x2="28.4442" y2="59.5525" gradientUnits="userSpaceOnUse">
<stop stop-color="#FBB040"/>
<stop offset="1" stop-color="#FFF8F8"/>
</linearGradient>
<linearGradient id="paint66_linear_383_391" x1="19.6506" y1="52.2269" x2="31.7595" y2="61.0856" gradientUnits="userSpaceOnUse">
<stop stop-color="#FBB040"/>
<stop offset="1" stop-color="#FFF8F8"/>
</linearGradient>
<linearGradient id="paint67_linear_383_391" x1="20.5196" y1="55.2639" x2="33.5058" y2="62.3776" gradientUnits="userSpaceOnUse">
<stop stop-color="#FBB040"/>
<stop offset="1" stop-color="#FFF8F8"/>
</linearGradient>
<linearGradient id="paint68_linear_383_391" x1="23.7306" y1="56.5303" x2="35.3681" y2="63.7606" gradientUnits="userSpaceOnUse">
<stop stop-color="#FBB040"/>
<stop offset="1" stop-color="#FFF8F8"/>
</linearGradient>
<linearGradient id="paint69_linear_383_391" x1="27.2645" y1="58.294" x2="37.848" y2="62.9889" gradientUnits="userSpaceOnUse">
<stop stop-color="#FBB040"/>
<stop offset="1" stop-color="#FFF8F8"/>
</linearGradient>
<linearGradient id="paint70_linear_383_391" x1="31.035" y1="59.7619" x2="39.4946" y2="62.1276" gradientUnits="userSpaceOnUse">
<stop stop-color="#FBB040"/>
<stop offset="1" stop-color="#FFF8F8"/>
</linearGradient>
<linearGradient id="paint71_linear_383_391" x1="35.0011" y1="57.9547" x2="28.5963" y2="33.1041" gradientUnits="userSpaceOnUse">
<stop stop-color="#EA6659"/>
<stop offset="1" stop-color="#FCFDF4"/>
</linearGradient>
<linearGradient id="paint72_linear_383_391" x1="28.2236" y1="52.4406" x2="34.9308" y2="30.8718" gradientUnits="userSpaceOnUse">
<stop stop-color="#EA6659"/>
<stop offset="0.51" stop-color="#FCFDF4"/>
</linearGradient>
<linearGradient id="paint73_linear_383_391" x1="29.4071" y1="50.061" x2="48.9209" y2="49.9044" gradientUnits="userSpaceOnUse">
<stop offset="0.11" stop-color="#EA6659" stop-opacity="0"/>
<stop offset="0.24" stop-color="white" stop-opacity="0"/>
<stop offset="0.29" stop-color="#FFFEFE" stop-opacity="0.03"/>
<stop offset="0.38" stop-color="#FFFDFC" stop-opacity="0.13"/>
<stop offset="0.49" stop-color="#FFFAF8" stop-opacity="0.28"/>
<stop offset="0.61" stop-color="#FFF7F3" stop-opacity="0.5"/>
<stop offset="0.75" stop-color="#FFF3EC" stop-opacity="0.77"/>
<stop offset="0.86" stop-color="#FFEFE6"/>
</linearGradient>
<radialGradient id="paint74_radial_383_391" cx="0" cy="0" r="1" gradientUnits="userSpaceOnUse" gradientTransform="translate(35.5458 74.9163) scale(7.79605 7.79605)">
<stop offset="0.09" stop-color="white"/>
<stop offset="0.24" stop-color="#FFFCFA"/>
<stop offset="0.41" stop-color="#FFF4ED"/>
<stop offset="0.58" stop-color="#FFE5D7"/>
<stop offset="0.76" stop-color="#FFD2B7"/>
<stop offset="0.91" stop-color="#FFBE98"/>
</radialGradient>
</defs>
</svg>
