<svg width="498" height="603" viewBox="0 0 498 603" fill="none" xmlns="http://www.w3.org/2000/svg">
<path d="M76.6642 4C62.1867 4 48.3021 9.75117 38.065 19.9883C27.8278 30.2255 22.0767 44.11 22.0767 58.5875V317.367C22.0767 386.12 60.6695 445.052 111.162 491.767C144.345 522.472 250.46 593.009 250.46 593.009C250.46 593.009 344.343 530.08 387.651 491.382C439.118 445.385 475.066 385.999 475.066 316.981V58.5875C475.066 44.11 469.315 30.2255 459.078 19.9883C448.841 9.75117 434.956 4 420.479 4H76.6642Z" fill="url(#paint0_linear_403_314)" stroke="#271B4C" stroke-width="6.0443" stroke-miterlimit="10"/>
<path d="M249.501 534.433C241.25 532.083 232.788 529.438 224.266 526.545C172.088 508.495 147.609 493.301 132.151 482.119C111.485 466.012 93.3962 446.848 78.5076 425.288C63.5205 403.821 52.1998 380.015 45.0071 354.841L44.856 354.305C42.2403 342.577 40.9127 330.599 40.897 318.583V69.5053C40.897 56.731 45.9715 44.48 55.0043 35.4472C64.0371 26.4144 76.2882 21.3398 89.0625 21.3398H408.088C420.862 21.3398 433.113 26.4144 442.146 35.4472C451.179 44.48 456.253 56.731 456.253 69.5053V318.122C456.25 331.342 454.77 344.519 451.841 357.41C438.997 403.067 411.042 445.634 372.948 477.329C353.115 493.558 329.081 504.914 310.329 513.006C290.512 521.39 270.198 528.546 249.501 534.433Z" fill="url(#paint1_radial_403_314)"/>
<path d="M126.129 203.054C126.129 203.054 101.325 180.705 90.7701 126.08C90.7701 126.08 9.20985 216.745 103.471 282.287L145.962 270.69L126.129 203.054Z" fill="url(#paint2_linear_403_314)"/>
<path d="M126.129 203.054C126.129 203.054 101.325 180.705 90.7697 126.08C90.7697 126.08 47.7041 211.826 137.613 273.455L145.924 270.69L126.129 203.054Z" fill="url(#paint3_linear_403_314)"/>
<path d="M110.241 287.288C110.241 287.288 78.2739 278.502 52.4043 241.631C52.4043 241.631 24.3437 319.391 115.975 336.708L188.129 340.35L110.241 287.288Z" fill="url(#paint4_linear_403_314)"/>
<path d="M110.24 287.288C110.24 287.288 78.2736 278.502 52.404 241.631C52.404 241.631 45.1811 302.437 146.99 330.399L188.129 340.35L110.24 287.288Z" fill="url(#paint5_linear_403_314)"/>
<path d="M115.831 341.468C115.831 341.468 80.8424 335.983 53.7866 314.443C53.7866 314.443 58.9847 390.321 142.245 383.25L177.596 376.45L115.831 341.468Z" fill="url(#paint6_linear_403_314)"/>
<path d="M115.831 341.468C115.831 341.468 80.8424 335.983 53.7866 314.443C53.7866 314.443 71.8439 363.968 144.534 372.309L177.596 376.457L115.831 341.468Z" fill="url(#paint7_linear_403_314)"/>
<path d="M147.941 385.727C147.941 385.727 109.998 392.844 81.356 377.726C81.356 377.726 110.671 448.429 190.191 417.77C269.711 387.11 201.879 401.231 201.879 401.231L147.941 385.727Z" fill="url(#paint8_linear_403_314)"/>
<path d="M147.941 385.727C147.941 385.727 109.998 392.844 81.356 377.726C81.356 377.726 124.308 430.1 193.606 400.566C271.759 367.254 197.867 393.766 197.867 393.766L147.941 385.727Z" fill="url(#paint9_linear_403_314)"/>
<path d="M193.644 421.049C175.064 429.247 155.429 434.806 135.309 437.565C135.309 437.565 192.352 471.126 238.53 436.129C284.708 401.133 240.343 420.641 240.343 420.641L193.644 421.049Z" fill="url(#paint10_linear_403_314)"/>
<path d="M193.644 421.049C175.064 429.247 155.429 434.806 135.309 437.565C135.309 437.565 195.993 458.176 239.354 420.641C282.714 383.106 235.727 415.586 235.727 415.586L193.644 421.049Z" fill="url(#paint11_linear_403_314)"/>
<path d="M241.651 435.313C230.797 446.407 218.769 456.287 205.778 464.779C205.778 464.779 317.363 472.047 302.351 383.038L241.651 435.313Z" fill="url(#paint12_linear_403_314)"/>
<path d="M241.651 435.313C230.797 446.407 218.769 456.287 205.778 464.779C205.778 464.779 302.487 450.107 302.351 383.038L241.651 435.313Z" fill="url(#paint13_linear_403_314)"/>
<path d="M222.65 267.168C222.65 267.168 152.709 230.623 142.049 158.371C142.049 158.371 37.1954 277.746 238.795 312.229L222.65 267.168Z" fill="url(#paint14_linear_403_314)"/>
<path d="M222.649 267.168C222.649 267.168 152.709 230.623 142.048 158.371C142.048 158.371 101.521 268.052 240.366 294.066L222.649 267.168Z" fill="url(#paint15_linear_403_314)"/>
<path d="M238.833 310.038C238.833 310.038 137.689 295.161 105.103 239.093C105.103 239.093 56.5669 358.687 244.537 335.084L238.833 310.038Z" fill="url(#paint16_linear_403_314)"/>
<path d="M238.833 310.038C238.833 310.038 137.689 295.161 105.103 239.093C105.103 239.093 99.0588 330.724 242.12 322.799L238.833 310.038Z" fill="url(#paint17_linear_403_314)"/>
<path d="M245.142 333.988C245.142 333.988 155.739 351.977 103.154 311.729C103.154 311.729 100.132 416.266 266.479 362.524L245.142 333.988Z" fill="url(#paint18_linear_403_314)"/>
<path d="M245.142 333.988C245.142 333.988 155.739 351.977 103.154 311.729C103.154 311.729 135.521 390.645 253.339 345.479L245.142 333.988Z" fill="url(#paint19_linear_403_314)"/>
<path d="M258.726 352.348C258.726 352.348 200.822 389.143 126.046 371.493C126.046 371.493 170.17 456.718 272.401 371.237L258.726 352.348Z" fill="url(#paint20_linear_403_314)"/>
<path d="M258.726 352.348C258.726 352.348 200.822 389.143 126.046 371.493C126.046 371.493 178.178 430.682 264.068 362.586L258.726 352.348Z" fill="url(#paint21_linear_403_314)"/>
<path d="M270.308 368.992C270.308 368.992 244.129 401.858 170.683 414.831C170.683 414.831 241.386 468.829 291.282 380.076L270.308 368.992Z" fill="url(#paint22_linear_403_314)"/>
<path d="M270.308 368.992C270.308 368.992 244.129 401.858 170.683 414.831C170.683 414.831 234.246 442.967 280.924 375.641L270.308 368.992Z" fill="url(#paint23_linear_403_314)"/>
<path d="M290.035 379.32C290.035 379.32 270.769 417.656 225.686 437.61C225.686 437.61 314.635 453.06 306.838 386.309L290.035 379.32Z" fill="url(#paint24_linear_403_314)"/>
<path d="M290.035 379.32C290.035 379.32 270.769 417.656 225.686 437.61C225.686 437.61 298.837 438.199 300.484 382.221L290.035 379.32Z" fill="url(#paint25_linear_403_314)"/>
<path d="M309.393 393.782C309.393 393.782 225.445 370.141 233.22 298.41L208.952 258.473L260.041 290.757C260.041 290.757 248.829 341.975 319.676 338.922C319.676 338.922 332.731 390.284 309.393 393.782Z" fill="url(#paint26_linear_403_314)"/>
<path d="M208.952 258.473L260.041 290.757C260.041 290.757 249.056 341.824 319.676 338.922C319.676 338.922 332.27 391.651 309.393 393.782C309.393 393.782 327.601 387.518 311.221 351.54C311.221 351.54 251.624 348.827 251.806 294.799L208.952 258.473Z" fill="url(#paint27_linear_403_314)"/>
<path d="M76.2492 54.9458H90.8537C91.1683 54.9458 91.47 55.0708 91.6925 55.2932C91.9149 55.5157 92.0399 55.8174 92.0399 56.132V101.018C92.0337 101.319 92.1418 101.61 92.3422 101.834C92.5427 102.058 92.8206 102.197 93.1198 102.224C93.4191 102.251 93.7174 102.163 93.9545 101.979C94.1915 101.794 94.3498 101.527 94.3972 101.23L102.708 55.8978C102.759 55.6263 102.903 55.3812 103.116 55.2046C103.328 55.0281 103.595 54.9312 103.872 54.9307H116.716C116.89 54.9297 117.063 54.9674 117.221 55.0413C117.379 55.1151 117.519 55.2232 117.63 55.3576C117.742 55.4921 117.822 55.6496 117.865 55.8188C117.908 55.988 117.913 56.1647 117.879 56.336L106.856 114.127C106.826 114.266 106.826 114.411 106.856 114.55L118.793 182.548C118.823 182.718 118.815 182.893 118.771 183.06C118.726 183.226 118.645 183.381 118.535 183.514C118.424 183.646 118.285 183.753 118.129 183.826C117.973 183.9 117.803 183.938 117.63 183.939H103.917C103.636 183.94 103.363 183.842 103.148 183.66C102.934 183.479 102.791 183.226 102.746 182.949L94.3972 133.151C94.3497 132.856 94.1925 132.59 93.9571 132.406C93.7217 132.222 93.4254 132.133 93.1276 132.158C92.8297 132.183 92.5522 132.319 92.3505 132.54C92.1488 132.76 92.0379 133.049 92.0399 133.348V182.752C92.0399 183.067 91.9149 183.369 91.6925 183.591C91.47 183.814 91.1683 183.939 90.8537 183.939H76.2492C75.9346 183.939 75.6329 183.814 75.4104 183.591C75.188 183.369 75.063 183.067 75.063 182.752V56.132C75.063 55.9762 75.0937 55.822 75.1533 55.6781C75.2129 55.5341 75.3003 55.4034 75.4104 55.2932C75.5206 55.1831 75.6513 55.0957 75.7952 55.0361C75.9392 54.9765 76.0934 54.9458 76.2492 54.9458Z" fill="white"/>
<path d="M124.981 182.791V56.1325C124.981 55.8179 125.106 55.5162 125.328 55.2937C125.551 55.0713 125.853 54.9463 126.167 54.9463H140.945C141.26 54.9463 141.562 55.0713 141.784 55.2937C142.007 55.5162 142.132 55.8179 142.132 56.1325V182.791C142.132 183.105 142.007 183.407 141.784 183.629C141.562 183.852 141.26 183.977 140.945 183.977H126.175C126.018 183.978 125.863 183.948 125.718 183.889C125.574 183.83 125.442 183.742 125.331 183.632C125.22 183.522 125.132 183.391 125.072 183.246C125.012 183.102 124.981 182.947 124.981 182.791Z" fill="white"/>
<path d="M181.684 143.593V143.692C181.697 144.006 181.835 144.303 182.066 144.516C182.298 144.729 182.605 144.842 182.919 144.829C183.234 144.816 183.531 144.678 183.744 144.447C183.957 144.215 184.069 143.908 184.056 143.593L182.379 56.1778C182.376 56.0201 182.405 55.8635 182.463 55.7169C182.521 55.5704 182.608 55.4369 182.719 55.3244C182.829 55.2118 182.961 55.1224 183.106 55.0614C183.252 55.0003 183.408 54.9689 183.565 54.969H196.621C196.936 54.969 197.237 55.0939 197.46 55.3164C197.682 55.5388 197.807 55.8406 197.807 56.1552V182.791C197.807 183.105 197.682 183.407 197.46 183.629C197.237 183.852 196.936 183.977 196.621 183.977H175.285C174.986 183.976 174.698 183.863 174.478 183.66C174.259 183.457 174.123 183.179 174.098 182.881L167.427 95.3524V95.2391C167.415 94.9245 167.279 94.6275 167.048 94.4136C166.817 94.1996 166.51 94.0862 166.196 94.0982C165.881 94.1102 165.584 94.2468 165.37 94.4777C165.156 94.7087 165.043 95.0151 165.055 95.3297L166.732 182.745C166.735 182.903 166.707 183.06 166.648 183.206C166.59 183.353 166.503 183.486 166.393 183.599C166.282 183.711 166.15 183.801 166.005 183.862C165.86 183.923 165.704 183.954 165.546 183.954H152.483C152.168 183.954 151.866 183.829 151.644 183.607C151.421 183.384 151.296 183.083 151.296 182.768V56.1325C151.296 55.8179 151.421 55.5162 151.644 55.2937C151.866 55.0713 152.168 54.9463 152.483 54.9463H173.774C174.073 54.9472 174.36 55.0602 174.58 55.2631C174.8 55.4659 174.935 55.7438 174.96 56.0418L181.684 143.593Z" fill="white"/>
<path d="M207.017 56.1325C207.017 55.8179 207.142 55.5162 207.364 55.2937C207.587 55.0713 207.889 54.9463 208.203 54.9463H220.428C240.457 54.9463 248.783 61.7461 248.783 119.462C248.783 175.492 240.971 183.471 222.128 183.977H208.173C207.858 183.977 207.557 183.852 207.334 183.629C207.112 183.407 206.987 183.105 206.987 182.791L207.017 56.1325ZM223.82 71.621V167.302C223.821 167.489 223.866 167.673 223.951 167.839C224.036 168.005 224.158 168.149 224.309 168.259C224.46 168.369 224.634 168.443 224.818 168.473C225.002 168.504 225.191 168.491 225.369 168.436C230.167 167.038 231.292 159.618 231.292 119.462C231.292 79.3048 230.167 71.8628 225.369 70.4877C225.189 70.4263 224.997 70.4088 224.809 70.4366C224.621 70.4645 224.442 70.5368 224.288 70.6477C224.133 70.7586 224.007 70.9047 223.921 71.074C223.834 71.2433 223.789 71.4309 223.79 71.621H223.82Z" fill="white"/>
<path d="M286.779 143.593V143.692C286.792 144.006 286.93 144.303 287.161 144.516C287.393 144.729 287.7 144.842 288.015 144.829C288.329 144.816 288.626 144.678 288.839 144.447C289.052 144.215 289.165 143.908 289.152 143.593L287.474 56.1778C287.471 56.0202 287.5 55.8635 287.558 55.7169C287.616 55.5704 287.703 55.4369 287.814 55.3244C287.924 55.2118 288.056 55.1224 288.201 55.0614C288.347 55.0003 288.503 54.9689 288.661 54.969H301.716C302.031 54.969 302.333 55.0939 302.555 55.3164C302.777 55.5388 302.902 55.8406 302.902 56.1552V182.791C302.902 183.105 302.777 183.407 302.555 183.629C302.333 183.852 302.031 183.977 301.716 183.977H280.41C280.111 183.976 279.823 183.863 279.604 183.66C279.384 183.457 279.249 183.179 279.224 182.881L272.522 95.3524V95.2466C272.489 94.9478 272.344 94.6727 272.116 94.4768C271.888 94.2809 271.594 94.1789 271.294 94.1913C270.994 94.2038 270.709 94.3299 270.498 94.544C270.287 94.7581 270.166 95.0444 270.157 95.3449L271.835 182.76C271.837 182.918 271.808 183.074 271.749 183.22C271.69 183.366 271.603 183.499 271.493 183.612C271.383 183.724 271.252 183.814 271.107 183.875C270.962 183.936 270.806 183.968 270.649 183.969H257.578C257.263 183.969 256.961 183.844 256.739 183.622C256.517 183.399 256.392 183.098 256.392 182.783V56.1325C256.392 55.8179 256.517 55.5162 256.739 55.2937C256.961 55.0713 257.263 54.9463 257.578 54.9463H278.891C279.19 54.9455 279.478 55.0583 279.697 55.2616C279.916 55.465 280.049 55.7438 280.07 56.0418L286.779 143.593Z" fill="white"/>
<path d="M340.747 183.977H313.261C312.946 183.977 312.645 183.852 312.422 183.629C312.2 183.407 312.075 183.105 312.075 182.791V56.1325C312.075 55.8179 312.2 55.5162 312.422 55.2937C312.645 55.0713 312.946 54.9463 313.261 54.9463H340.747C341.062 54.9463 341.364 55.0713 341.586 55.2937C341.809 55.5162 341.934 55.8179 341.934 56.1325V69.0371C341.934 69.3517 341.809 69.6534 341.586 69.8758C341.364 70.0983 341.062 70.2232 340.747 70.2232H330.072C329.757 70.2232 329.455 70.3482 329.233 70.5707C329.01 70.7931 328.885 71.0948 328.885 71.4094V107.237C328.885 107.552 329.01 107.853 329.233 108.076C329.455 108.298 329.757 108.423 330.072 108.423H339.078C339.392 108.425 339.692 108.551 339.914 108.773C340.136 108.995 340.262 109.295 340.264 109.609V123.368C340.264 123.682 340.139 123.984 339.916 124.206C339.694 124.429 339.392 124.554 339.078 124.554H330.072C329.757 124.554 329.455 124.679 329.233 124.901C329.01 125.124 328.885 125.426 328.885 125.74V167.514C328.885 167.828 329.01 168.13 329.233 168.353C329.455 168.575 329.757 168.7 330.072 168.7H340.747C341.062 168.7 341.364 168.825 341.586 169.047C341.809 169.27 341.934 169.572 341.934 169.886V182.791C341.934 182.946 341.903 183.101 341.843 183.245C341.784 183.389 341.696 183.519 341.586 183.629C341.476 183.74 341.345 183.827 341.201 183.887C341.057 183.946 340.903 183.977 340.747 183.977Z" fill="white"/>
<path d="M384.402 85.507V95.8654C384.402 96.18 384.277 96.4818 384.054 96.7042C383.832 96.9267 383.53 97.0516 383.216 97.0516H370.311C369.996 97.0516 369.695 96.9267 369.472 96.7042C369.25 96.4818 369.125 96.18 369.125 95.8654V86.3532C369.125 73.1087 367.765 68.0163 365.559 68.0163C363.859 68.0163 362.499 71.5825 362.499 76.8486C362.499 107.236 384.742 128.633 384.742 160.887C384.742 173.625 378.803 184.83 365.899 184.83C354.52 184.83 346.708 178.378 346.708 153.415V144.756C346.708 144.442 346.833 144.14 347.056 143.917C347.278 143.695 347.58 143.57 347.894 143.57H360.806C361.121 143.57 361.423 143.695 361.645 143.917C361.868 144.14 361.993 144.442 361.993 144.756V152.568C361.993 165.813 363.353 170.905 365.559 170.905C367.765 170.905 368.581 166.319 368.581 161.741C368.581 133.892 346.338 113.009 346.338 77.6948C346.338 64.284 353.984 54.0918 365.189 54.0918C376.59 54.0918 384.402 60.5441 384.402 85.507Z" fill="white"/>
<path d="M427.188 85.507V95.8654C427.186 96.1794 427.06 96.48 426.838 96.702C426.616 96.924 426.316 97.0496 426.002 97.0516H413.09C412.776 97.0496 412.475 96.924 412.253 96.702C412.031 96.48 411.905 96.1794 411.903 95.8654V86.3532C411.903 73.1087 410.551 68.0163 408.337 68.0163C406.645 68.0163 405.315 71.5825 405.315 76.8486C405.315 107.236 427.558 128.633 427.558 160.887C427.558 173.625 421.612 184.83 408.67 184.83C397.337 184.83 389.487 178.378 389.487 153.415V144.756C389.487 144.442 389.612 144.14 389.834 143.917C390.057 143.695 390.358 143.57 390.673 143.57H403.585C403.741 143.57 403.895 143.601 404.039 143.66C404.183 143.72 404.314 143.807 404.424 143.917C404.534 144.028 404.621 144.158 404.681 144.302C404.74 144.446 404.771 144.6 404.771 144.756V152.568C404.771 165.813 406.124 170.905 408.33 170.905C410.536 170.905 411.352 166.319 411.352 161.741C411.352 133.892 389.109 113.009 389.109 77.6948C389.109 64.284 396.747 54.0918 407.96 54.0918C419.376 54.0918 427.188 60.5441 427.188 85.507Z" fill="white"/>
<path d="M188.938 209.793V205.26L184.064 196.73H188.235L190.116 200.681C190.289 201.038 190.442 201.404 190.577 201.777C190.713 202.155 190.849 202.585 190.993 203.069H190.471C190.6 202.585 190.728 202.155 190.849 201.777C190.97 201.403 191.114 201.038 191.28 200.681L193.04 196.73H197.196L192.466 205.26V209.793H188.938Z" fill="white"/>
<path d="M207.675 209.952C206.659 209.974 205.65 209.773 204.721 209.363C203.897 209 203.201 208.399 202.723 207.636C202.245 206.874 202.006 205.986 202.039 205.086V196.715H205.59V204.792C205.582 205.17 205.676 205.543 205.862 205.872C206.037 206.19 206.299 206.452 206.617 206.627C206.945 206.81 207.315 206.901 207.69 206.892C208.07 206.902 208.445 206.811 208.778 206.627C209.095 206.451 209.357 206.189 209.533 205.872C209.719 205.543 209.813 205.17 209.805 204.792V196.715H213.357V205.086C213.39 205.988 213.15 206.878 212.669 207.641C212.187 208.404 211.487 209.004 210.659 209.363C209.72 209.776 208.701 209.977 207.675 209.952Z" fill="white"/>
<path d="M221.644 209.793L218.176 196.714H222.128L223.185 201.769C223.321 202.411 223.442 203.106 223.548 203.869C223.654 204.632 223.76 205.38 223.858 206.136C223.956 206.891 224.062 207.586 224.168 208.236H223.465C223.593 207.586 223.707 206.891 223.82 206.136C223.933 205.38 224.047 204.625 224.168 203.869C224.289 203.114 224.417 202.411 224.568 201.769L225.724 196.699H229.275L230.439 201.769C230.582 202.411 230.718 203.106 230.839 203.869C230.96 204.632 231.073 205.38 231.187 206.136C231.3 206.891 231.413 207.586 231.534 208.236H230.824C230.937 207.586 231.043 206.891 231.141 206.136C231.24 205.38 231.345 204.625 231.451 203.869C231.557 203.114 231.678 202.411 231.806 201.769L232.864 196.699H236.83L233.363 209.778H229.351L228.051 204.451C227.815 203.47 227.638 202.476 227.522 201.474C227.386 200.409 227.228 199.381 227.039 198.399H227.968C227.743 199.411 227.579 200.435 227.477 201.467C227.374 202.472 227.205 203.468 226.971 204.451L225.664 209.778L221.644 209.793Z" fill="white"/>
<path d="M239.701 209.793L243.94 196.715H248.783L253.187 209.793H249.16L247.649 204.724C247.325 203.62 247.015 202.457 246.728 201.293C246.441 200.13 246.169 198.929 245.912 197.757H246.72C246.478 198.926 246.226 200.105 245.965 201.293C245.715 202.48 245.436 203.62 245.118 204.724L243.668 209.793H239.701ZM242.844 207.285V204.633H250.082V207.285H242.844Z" fill="white"/>
<path d="M258.031 209.793V196.715H263.683C264.561 196.694 265.432 196.875 266.229 197.244C266.933 197.571 267.526 198.096 267.936 198.755C268.36 199.478 268.572 200.305 268.548 201.142C268.575 201.975 268.357 202.797 267.921 203.507C267.503 204.161 266.894 204.67 266.176 204.965C265.346 205.311 264.453 205.478 263.554 205.457H260.185V202.706H262.836C263.203 202.715 263.568 202.662 263.917 202.548C264.196 202.46 264.438 202.282 264.604 202.042C264.775 201.774 264.857 201.459 264.839 201.142C264.855 200.821 264.773 200.502 264.604 200.228C264.436 199.986 264.196 199.803 263.917 199.707C263.569 199.59 263.203 199.534 262.836 199.541H261.59V209.778L258.031 209.793ZM265.103 209.793L261.907 203.787H265.685L268.971 209.793H265.103Z" fill="white"/>
<path d="M273.195 209.793L277.441 196.715H282.284L286.681 209.793H282.662L281.151 204.724C280.826 203.62 280.516 202.457 280.229 201.293C279.942 200.13 279.67 198.929 279.413 197.757H280.221C279.969 198.926 279.718 200.105 279.466 201.293C279.216 202.48 278.929 203.62 278.612 204.724L277.169 209.793H273.195ZM276.338 207.285V204.633H283.538V207.285H276.338Z" fill="white"/>
<path d="M295.831 209.967C294.551 210.052 293.285 209.659 292.28 208.864C291.853 208.461 291.52 207.969 291.305 207.423C291.09 206.877 290.997 206.291 291.033 205.705V204.889H294.584V205.773C294.553 206.162 294.669 206.547 294.909 206.854C295.158 207.087 295.486 207.216 295.827 207.216C296.168 207.216 296.496 207.087 296.745 206.854C296.977 206.538 297.087 206.149 297.055 205.758V196.692H300.553V205.66C300.59 206.246 300.5 206.833 300.289 207.381C300.077 207.929 299.75 208.424 299.329 208.833C298.347 209.638 297.098 210.043 295.831 209.967Z" fill="white"/>
<path d="M305.048 209.793L309.286 196.715H314.129L318.534 209.793H314.507L312.996 204.724C312.671 203.62 312.361 202.457 312.074 201.293C311.787 200.13 311.515 198.929 311.258 197.757H312.037C311.795 198.926 311.543 200.105 311.281 201.293C311.032 202.48 310.745 203.62 310.435 204.724L309.014 209.793H305.048ZM308.191 207.285V204.633H315.391V207.285H308.191Z" fill="white"/>
<path d="M239.951 226.116C239.951 231.261 236.656 234.353 236.252 241.289H239.662V243.312H234.084V242.618C234.084 234.324 237.812 231.174 237.812 226.261C237.812 224.122 237.437 223.082 236.974 223.082C236.454 223.082 236.107 224.093 236.107 226.694V228.515H234.084V226.55C234.084 222.735 235.096 221.204 237.061 221.204C238.882 221.204 239.951 222.706 239.951 226.116ZM240.747 232.33C240.747 222.735 241.932 221.204 244.042 221.204C246.18 221.204 247.336 222.735 247.336 232.33C247.336 241.953 246.18 243.456 244.042 243.456C241.932 243.456 240.747 241.953 240.747 232.33ZM245.024 232.33C245.024 224.556 244.735 223.082 244.042 223.082C243.406 223.082 243.059 224.556 243.059 232.33C243.059 240.104 243.406 241.606 244.042 241.606C244.735 241.606 245.024 240.104 245.024 232.33ZM254.146 226.116C254.146 231.261 250.852 234.353 250.447 241.289H253.857V243.312H248.28V242.618C248.28 234.324 252.008 231.174 252.008 226.261C252.008 224.122 251.632 223.082 251.17 223.082C250.65 223.082 250.303 224.093 250.303 226.694V228.515H248.28V226.55C248.28 222.735 249.291 221.204 251.257 221.204C253.077 221.204 254.146 222.706 254.146 226.116ZM259.529 243.312H257.39L257.419 238.89H253.778V237.589L256.292 221.348H259.529V236.983H260.714V238.89H259.529V243.312ZM255.656 236.983H257.448L257.564 223.4L255.656 236.983Z" fill="white"/>
<path d="M243.215 589.647C242.18 589.277 241.417 588.975 240.548 588.65L238.055 587.683L233.159 585.726C229.91 584.411 226.706 583.059 223.511 581.691C217.124 578.946 210.797 576.1 204.531 573.154C191.997 567.245 179.659 560.922 167.563 554.054C161.519 550.639 155.542 547.035 149.642 543.31C143.741 539.585 137.923 535.656 132.219 531.554C126.515 527.451 120.924 523.13 115.507 518.536C112.779 516.269 110.142 513.852 107.505 511.457L103.637 507.762C102.338 506.515 101.151 505.269 99.9047 503.984C80.5353 484.07 64.0919 461.506 51.0668 436.968C44.6007 424.856 39.0448 412.279 34.445 399.342C29.8788 386.479 26.4432 373.243 24.1772 359.782L29.8891 358.513C37.0818 383.982 48.9664 407.812 63.654 429.413C78.2364 450.885 95.7882 470.182 115.786 486.728C117.04 487.718 118.272 488.79 119.526 489.705L123.266 492.523C125.85 494.329 128.388 496.157 131.055 497.864C136.344 501.325 141.799 504.584 147.42 507.641C158.73 513.782 170.362 519.31 182.266 524.202C194.211 529.159 206.405 533.632 218.736 537.681C224.901 539.696 231.094 541.613 237.314 543.431C240.419 544.33 243.532 545.206 246.63 546.037L251.261 547.254L253.528 547.828C254.284 548.009 255.084 548.213 255.651 548.334L243.215 589.647Z" fill="#271B4C"/>
<path d="M245.443 580.581C244.688 580.279 244.121 580.014 243.472 579.735L241.583 578.919L237.858 577.272L230.438 573.947C225.543 571.681 220.677 569.414 215.842 567.147C206.171 562.531 196.583 557.794 187.131 552.792C177.679 547.79 168.348 542.63 159.176 537.145C150.004 531.66 141.043 525.895 132.385 519.632C130.232 518.06 128.063 516.511 125.963 514.864L122.79 512.416L119.669 509.9C117.569 508.261 115.582 506.463 113.542 504.74C112.529 503.871 111.562 502.942 110.573 502.05C109.583 501.159 108.57 500.267 107.641 499.315C100.062 491.888 92.891 484.054 86.1612 475.848C72.8008 459.483 61.0174 441.891 50.9683 423.308L52.1393 422.681C54.5873 427.32 57.1108 431.929 59.8912 436.387C61.236 438.653 62.7017 440.814 64.107 443.028C64.8626 444.123 65.6181 445.196 66.3283 446.277C67.0385 447.357 67.8394 448.445 68.5949 449.503C71.6171 453.802 74.8357 457.935 78.1298 462.014C81.424 466.094 84.8616 470.038 88.458 473.846C95.5712 481.501 103.181 488.679 111.237 495.334C119.202 501.985 127.666 508.015 136.555 513.368C138.754 514.743 141.021 516.02 143.257 517.327C145.493 518.634 147.79 519.858 150.095 521.105C154.688 523.548 159.337 525.872 164.042 528.079C173.441 532.529 183.059 536.518 192.798 540.167C202.537 543.816 212.442 547.103 222.384 549.989C227.371 551.455 232.38 552.815 237.412 554.069C239.92 554.689 242.429 555.323 244.967 555.867L248.745 556.691L250.611 557.068C251.223 557.189 251.881 557.318 252.41 557.401L245.443 580.581Z" fill="white"/>
<path d="M249.501 534.433C241.25 532.083 232.788 529.438 224.266 526.545C172.088 508.495 147.609 493.301 132.151 482.119C111.485 466.012 93.3962 446.848 78.5076 425.288C63.5205 403.821 52.1998 380.015 45.0071 354.841L44.856 354.305C42.2403 342.577 40.9127 330.599 40.897 318.583V69.5053C40.897 56.731 45.9715 44.48 55.0043 35.4472C64.0371 26.4144 76.2882 21.3398 89.0625 21.3398H408.088C420.862 21.3398 433.113 26.4144 442.146 35.4472C451.179 44.48 456.253 56.731 456.253 69.5053V318.122C456.25 331.342 454.77 344.519 451.841 357.41C438.997 403.067 411.042 445.634 372.948 477.329C353.115 493.558 329.081 504.914 310.329 513.006C290.512 521.39 270.198 528.546 249.501 534.433Z" stroke="white" stroke-width="3.77769" stroke-miterlimit="10"/>
<mask id="mask0_403_314" style="mask-type:luminance" maskUnits="userSpaceOnUse" x="0" y="6" width="498" height="529">
<path d="M0 6.56885V414.37L165.168 504.324L167.661 503.395C181.812 510.421 200.059 518.173 224.266 526.544C232.788 529.438 241.251 532.083 249.501 534.432C270.197 528.56 290.511 521.42 310.329 513.051C329.082 504.959 353.115 493.603 372.948 477.374C397.02 457.335 417.109 432.948 432.167 405.485L497.143 404.601V6.56885H0Z" fill="white"/>
</mask>
<g mask="url(#mask0_403_314)">
<path d="M201.025 518.014C243.91 485.926 239.966 447.462 253.006 357.251C253.127 356.427 253.248 355.589 253.377 354.743C253.88 351.453 254.472 348.046 255.152 344.52C257.385 332.627 260.25 320.862 263.735 309.274C264.226 307.673 264.717 306.094 265.246 304.537C272.28 282.8 280.689 266.005 289.491 253.093C291.524 250.071 293.586 247.305 295.649 244.706C306.831 230.653 318.255 222.191 328.001 217.099C334.746 213.464 342.053 210.985 349.617 209.763H349.692C351.045 209.566 352.095 209.476 352.813 209.43C353.531 209.385 353.901 209.392 353.901 209.392C360.829 184.15 392.992 173.648 392.992 173.648L390.982 197.772C399.467 187.051 415.107 187.497 415.107 187.497C415.107 187.497 410.634 196.881 409.297 205.373C408.05 213.283 399.414 216.147 398.258 216.502H398.16L398.621 216.736L399.52 217.197C408.398 221.881 420.486 229.618 425.412 232.829L427.558 234.227L427.641 234.287C428.351 236.713 429.152 239.009 429.961 241.201C429.961 241.201 429.961 241.269 429.961 241.306C444.271 278.615 476.124 282.914 477.862 283.118H477.937C477.937 283.118 478.013 283.458 478.171 284.092C479.925 291.166 482.226 298.092 485.054 304.809L485.349 305.504C486.881 309.031 486.97 313.018 485.598 316.611C485.052 318.082 484.326 319.48 483.438 320.774C479.758 326.138 473.109 328.223 466.899 329.969C461.149 331.585 455.067 338.529 455.067 338.529C454.992 338.083 437.508 325.08 432.537 321.476C421.204 313.226 405.02 309.388 405.02 309.388C392.29 318.326 378.441 314.979 378.441 314.979C378.04 315.56 377.685 316.142 377.285 316.716C375.873 318.884 374.63 321.157 373.567 323.516C365.778 340.894 375.192 351.766 387.794 363.809C394.775 370.488 401.19 372.46 414.102 390.351C414.102 390.351 453.057 435.781 442.178 494.615L251.253 550.344L201.025 518.014Z" fill="url(#paint28_linear_403_314)"/>
<path opacity="0.7" d="M400.661 243.958L417.336 250.811C417.336 250.811 432.227 281.191 452.181 287.447C452.181 287.447 450.987 294.594 455.755 299.354C455.755 299.354 460.522 284.168 471.243 294.594C481.964 305.02 455.037 335.914 455.037 335.914C455.037 335.914 460.009 331.071 466.778 329.81C473.321 328.586 491.197 322.587 485.244 305.315C479.29 288.043 477.794 282.974 477.794 282.974C477.794 282.974 441.166 279.702 427.46 234.136L397.994 216.335C397.994 216.335 427.165 236.81 400.661 243.958Z" fill="url(#paint29_linear_403_314)"/>
<path d="M455.589 299.06C455.589 299.06 451.274 284.017 469.438 292.207C469.453 292.207 457.855 292.653 455.589 299.06Z" fill="#E08282"/>
<path opacity="0.7" d="M397.685 243.543C397.685 243.543 396.853 263.988 418.084 270.841L416.626 251.295L397.685 243.543Z" fill="url(#paint30_linear_403_314)"/>
<path opacity="0.5" d="M397.534 243.135C397.534 243.135 413.544 241.488 418.968 249.315C422.995 255.133 433.422 274.248 433.422 274.248L416.596 255.042C416.596 255.042 403.336 259.666 397.534 243.135Z" fill="#C65252"/>
<path d="M382.898 212.876C382.898 212.876 398.198 193.557 407.831 192.106C407.808 192.106 406.018 219.464 382.898 212.876Z" fill="url(#paint31_linear_403_314)"/>
<path d="M359.673 219.69C359.673 219.69 365.143 195.898 386.586 186.968C386.586 186.968 385.248 207.851 376.764 212.097C376.756 212.097 369.163 211.538 359.673 219.69Z" fill="url(#paint32_linear_403_314)"/>
<path opacity="0.7" d="M404.9 309.26C404.9 309.26 417.079 304.908 428.578 290.605C430.649 294.382 433.583 297.615 437.142 300.042C440.7 302.468 444.782 304.019 449.053 304.568C449.053 304.568 451.501 313.634 455.098 338.567C455.075 338.559 440.999 319.104 404.9 309.26Z" fill="url(#paint33_linear_403_314)"/>
<path d="M381.033 315.258C365.272 313.453 337.673 315.961 340.793 263.693C340.793 263.693 344.367 316.633 417.299 301.885C417.299 301.885 409.071 307.544 404.9 309.259C397.927 314.07 389.452 316.2 381.033 315.258Z" fill="url(#paint34_linear_403_314)"/>
<path d="M378.259 314.979C378.259 314.979 337.936 315.696 340.792 263.693C340.792 263.693 323.596 316.188 373.628 323.554L378.259 314.979Z" fill="url(#paint35_linear_403_314)"/>
<path d="M353.463 208.901C353.463 208.901 307.617 209.46 296.798 235.67C296.798 235.67 259.339 256.183 260.585 282.664C260.585 282.664 230.099 304.227 244.598 333.285C259.097 362.343 255.289 371.584 255.289 371.584C255.289 371.584 262.927 356.654 263.985 347.338C265.224 336.92 265.949 321.544 268.118 316.807C268.118 316.807 283.984 342.971 280.093 356.269C280.093 356.269 295.007 345.117 294.751 327.098C294.479 308.209 291.653 289.404 294.675 280.39C294.675 280.39 309.113 303.895 308.018 315.039C308.018 315.039 324.64 300.684 328.085 231.975C328.085 231.991 337.461 221.413 353.463 208.901Z" fill="url(#paint36_linear_403_314)"/>
<path d="M255.273 371.621C255.273 371.621 257.48 358.211 241.175 334.426C224.871 310.642 254.526 286.571 260.57 282.665L268.042 317.767C268.042 317.767 271.351 346.19 255.273 371.621Z" fill="url(#paint37_linear_403_314)"/>
<path opacity="0.7" d="M260.524 282.612C260.524 282.612 226.525 305.489 239.173 331.087C239.173 331.087 232.124 307.023 262.141 288.316L260.524 282.612Z" fill="url(#paint38_linear_403_314)"/>
<path d="M280.093 356.269C280.093 356.269 283.213 343.236 268.004 317.737C252.795 292.237 254.616 260.021 295.936 234.257L294.546 281.607C294.546 281.607 307.783 337.01 280.093 356.269Z" fill="url(#paint39_linear_403_314)"/>
<path opacity="0.7" d="M295.566 234.56C295.566 234.56 253.105 257.679 259.905 296.143C259.905 296.143 258.19 262.378 291.569 243.573L295.566 234.56Z" fill="url(#paint40_linear_403_314)"/>
<path d="M307.413 316.165C307.413 316.165 308.721 307.695 294.569 281.637C280.418 255.578 291.948 205.524 353.501 208.901C353.501 208.901 328.478 212.679 328.123 231.976C327.768 251.272 327.45 299.173 307.413 316.165Z" fill="url(#paint41_linear_403_314)"/>
<path opacity="0.7" d="M353.01 208.977L353.463 208.902C352.184 208.787 350.901 208.744 349.617 208.773C336.909 208.139 295.302 210.708 289.461 252.867C289.461 252.867 299.231 218.029 339.387 210.428C324.753 214.863 319.214 227.873 321.103 239.478C329.414 290.636 307.413 316.165 307.413 316.165C327.986 298.478 327.54 251.401 328.084 231.991C328.583 214.485 348.794 209.786 352.783 209.03H353.274L353.01 208.977Z" fill="url(#paint42_linear_403_314)"/>
<path d="M423.289 259.001C423.289 259.001 415.81 232.504 393.355 244.895C393.355 244.895 396.022 245.295 399.505 250.244C402.905 255.08 408.904 261.343 416.58 254.838C417.056 254.422 418.567 253.606 423.289 259.001Z" fill="url(#paint43_linear_403_314)"/>
<path d="M420.736 250.433C420.736 250.433 419.172 229.596 386.971 241.586C386.971 241.586 404.968 235.111 420.736 250.433Z" fill="url(#paint44_linear_403_314)"/>
<path opacity="0.5" d="M397.685 245.689C397.685 245.689 408.927 260.898 416.672 252.64C415.093 244.888 402.702 241.624 397.685 245.689Z" fill="#C65252"/>
<mask id="mask1_403_314" style="mask-type:luminance" maskUnits="userSpaceOnUse" x="201" y="173" width="286" height="378">
<path d="M201.025 518.014C243.91 485.926 239.966 447.462 253.006 357.251C253.127 356.427 253.248 355.589 253.377 354.743C253.88 351.453 254.472 348.046 255.152 344.52C257.385 332.627 260.25 320.862 263.735 309.274C264.226 307.673 264.717 306.094 265.246 304.537C272.28 282.8 280.689 266.005 289.491 253.093C291.524 250.071 293.586 247.305 295.649 244.706C306.831 230.653 318.255 222.191 328.001 217.099C334.746 213.464 342.053 210.985 349.617 209.763H349.692C351.045 209.566 352.095 209.476 352.813 209.43C353.531 209.385 353.901 209.392 353.901 209.392C360.829 184.15 392.992 173.648 392.992 173.648L390.982 197.772C399.467 187.051 415.107 187.497 415.107 187.497C415.107 187.497 410.634 196.881 409.297 205.373C408.05 213.283 399.414 216.147 398.258 216.502H398.16L398.621 216.736L399.52 217.197C408.398 221.881 420.486 229.618 425.412 232.829L427.558 234.227L427.641 234.287C428.351 236.713 429.152 239.009 429.961 241.201C429.961 241.201 429.961 241.269 429.961 241.306C444.271 278.615 476.124 282.914 477.862 283.118H477.937C477.937 283.118 478.013 283.458 478.171 284.092C479.925 291.166 482.226 298.092 485.054 304.809L485.349 305.504C486.881 309.031 486.97 313.018 485.598 316.611C485.052 318.082 484.326 319.48 483.438 320.774C479.758 326.138 473.109 328.223 466.899 329.969C461.149 331.585 455.067 338.529 455.067 338.529C454.992 338.083 437.508 325.08 432.537 321.476C421.204 313.226 405.02 309.388 405.02 309.388C392.29 318.326 378.441 314.979 378.441 314.979C378.04 315.56 377.685 316.142 377.285 316.716C375.873 318.884 374.63 321.157 373.567 323.516C365.778 340.894 375.192 351.766 387.794 363.809C394.775 370.488 401.19 372.46 414.102 390.351C414.102 390.351 453.057 435.781 442.178 494.615L251.253 550.344L201.025 518.014Z" fill="white"/>
</mask>
<g mask="url(#mask1_403_314)">
<path style="mix-blend-mode:multiply" opacity="0.35" d="M306.076 357.304C306.076 357.304 359.674 448.361 326.634 477.54C278.332 520.167 243.079 558.722 243.079 558.722L184.812 518.43L242.067 378.247L306.076 357.304Z" fill="url(#paint45_linear_403_314)"/>
<path style="mix-blend-mode:multiply" opacity="0.35" d="M306.075 357.304C306.075 357.304 340.55 463.986 299.57 482.202C240.699 508.358 192.216 545.228 192.216 545.228L139.019 470.204L280.924 370.911L306.075 357.304Z" fill="url(#paint46_linear_403_314)"/>
</g>
<path d="M80.087 212.346C80.087 212.346 50.5153 187.92 31.9669 124.092C31.9669 124.092 -43.5868 238.178 66.2456 308.065L110.308 290.794L80.087 212.346Z" fill="url(#paint47_linear_403_314)"/>
<path d="M80.0865 212.346C80.0865 212.346 50.5148 187.92 31.9664 124.092C31.9664 124.092 -2.89409 229.195 101.74 294.79L110.308 290.794L80.0865 212.346Z" fill="url(#paint48_linear_403_314)"/>
<path d="M74.1486 313.4C74.1486 313.4 38.6913 305.625 6.04453 264.086C6.04453 264.086 -13.7808 358.528 86.819 371.463L164.707 369.831L74.1486 313.4Z" fill="url(#paint49_linear_403_314)"/>
<path d="M74.1485 313.4C74.1485 313.4 38.6912 305.625 6.04443 264.086C6.04443 264.086 6.33153 336.701 119.269 361.437L164.707 369.831L74.1485 313.4Z" fill="url(#paint50_linear_403_314)"/>
<path d="M87.3093 377.107C87.3093 377.107 49.049 373.495 17.1729 350.217C17.1729 350.217 32.7747 439.658 121.18 424.426L158.201 413.463L87.3093 377.107Z" fill="url(#paint51_linear_403_314)"/>
<path d="M87.3093 377.107C87.3093 377.107 49.049 373.495 17.1729 350.217C17.1729 350.217 43.0878 407.381 122.192 411.272L158.216 413.463L87.3093 377.107Z" fill="url(#paint52_linear_403_314)"/>
<path d="M127.61 426.918C127.61 426.918 87.8461 438.463 55.1162 422.929C55.1162 422.929 95.9152 504.255 177.181 461.378C258.446 418.502 187.532 440.798 187.532 440.798L127.61 426.918Z" fill="url(#paint53_linear_403_314)"/>
<path d="M127.61 426.919C127.61 426.919 87.8461 438.463 55.1162 422.929C55.1162 422.929 108.125 481.416 178.571 440.722C258.023 394.831 182.235 432.283 182.235 432.283L127.61 426.919Z" fill="url(#paint54_linear_403_314)"/>
<path d="M181.329 464.953C181.329 464.953 155.716 481.363 120.931 489.319C120.931 489.319 186.572 524.376 231.489 479.127C276.406 433.878 231.391 460.631 231.391 460.631L181.329 464.953Z" fill="url(#paint55_linear_403_314)"/>
<path d="M181.329 464.953C181.329 464.953 155.716 481.363 120.931 489.319C120.931 489.319 188.763 508.736 230.333 460.707C271.903 412.677 225.732 455.017 225.732 455.017L181.329 464.953Z" fill="url(#paint56_linear_403_314)"/>
<path d="M234.715 477.903C234.715 477.903 215.464 497.683 195.261 514.879C195.261 514.879 320.808 515.188 292.929 410.992L234.715 477.903Z" fill="url(#paint57_linear_403_314)"/>
<path d="M234.715 477.903C234.715 477.903 215.464 497.682 195.261 514.879C195.261 514.879 301.958 490.422 292.929 410.992L234.715 477.903Z" fill="url(#paint58_linear_403_314)"/>
<path d="M192.095 280.3C192.095 280.3 112.22 242.787 91.2383 158.099C91.2383 158.099 -5.4704 308.134 215.381 332.371L192.095 280.3Z" fill="url(#paint59_linear_403_314)"/>
<path d="M192.095 280.3C192.095 280.3 112.22 242.787 91.2384 158.099C91.2384 158.099 62.256 291.353 214.663 310.718L192.095 280.3Z" fill="url(#paint60_linear_403_314)"/>
<path d="M215.124 329.749C215.124 329.749 104.642 320.463 62.2641 256.734C62.2641 256.734 25.9984 402.379 224.553 358.943L215.124 329.749Z" fill="url(#paint61_linear_403_314)"/>
<path d="M215.124 329.749C215.124 329.749 104.642 320.463 62.2637 256.734C62.2637 256.734 67.9151 365.765 220.337 344.595L215.124 329.749Z" fill="url(#paint62_linear_403_314)"/>
<path d="M225.067 357.599C225.067 357.599 131.524 386.264 69.7812 342.934C69.7812 342.934 80.321 466.993 251.73 389.633L225.067 357.599Z" fill="url(#paint63_linear_403_314)"/>
<path d="M225.067 357.599C225.067 357.599 131.524 386.264 69.7812 342.934C69.7812 342.934 114.932 433.734 235.372 370.533L225.067 357.599Z" fill="url(#paint64_linear_403_314)"/>
<path d="M242.067 378.225C242.067 378.225 184.805 426.579 102.24 411.831C102.24 411.831 160.847 509.136 259.233 399.47L242.067 378.225Z" fill="url(#paint65_linear_403_314)"/>
<path d="M242.067 378.225C242.067 378.225 184.805 426.579 102.24 411.831C102.24 411.831 165.999 477.646 249.154 389.92L242.067 378.225Z" fill="url(#paint66_linear_403_314)"/>
<path d="M256.701 396.985C256.701 396.985 232.954 438.071 155.859 459.445C155.859 459.445 238.855 517.621 280.659 408.325L256.701 396.985Z" fill="url(#paint67_linear_403_314)"/>
<path d="M256.701 396.985C256.701 396.985 232.954 438.071 155.859 459.445C155.859 459.445 227.779 487.536 268.963 403.951L256.701 396.985Z" fill="url(#paint68_linear_403_314)"/>
<path d="M279.224 407.562C279.224 407.562 263.614 454.549 217.889 481.899C217.889 481.899 315.353 492.87 298.18 414.445L279.224 407.562Z" fill="url(#paint69_linear_403_314)"/>
<path d="M279.224 407.562C279.224 407.562 263.614 454.549 217.889 481.899C217.889 481.899 296.465 476.565 290.806 410.123L279.224 407.562Z" fill="url(#paint70_linear_403_314)"/>
<path d="M301.913 423.142C301.913 423.142 208.71 402.04 207.569 316.437L176.252 271.105L235.335 305.142C235.335 305.142 230.046 366.718 305.691 357.274C305.691 357.304 326.49 417.052 301.913 423.142Z" fill="url(#paint71_linear_403_314)"/>
<path d="M176.252 271.135L235.335 305.172C235.335 305.172 230.303 366.552 305.691 357.304C305.691 357.304 326.166 418.714 301.913 423.126C301.913 423.126 320.612 414.211 298.279 372.943C298.279 372.943 233.983 374.636 227.032 310.627L176.252 271.135Z" fill="url(#paint72_linear_403_314)"/>
<path d="M302.29 423.142C302.29 423.142 209.095 402.04 207.954 316.437L176.637 271.105L235.72 305.104C235.72 305.104 230.431 366.688 306.075 357.236C306.075 357.304 326.875 417.052 302.29 423.142Z" fill="url(#paint73_linear_403_314)"/>
</g>
<path d="M439.912 389.988C424.404 423.754 401.522 453.613 372.949 477.366C353.116 493.595 329.082 504.951 310.33 513.043C290.512 521.414 270.197 528.557 249.501 534.432C241.251 532.082 232.789 529.438 224.266 526.544C207.428 520.832 190.9 514.245 174.749 506.809" stroke="white" stroke-width="3.77769" stroke-miterlimit="10"/>
<path d="M243.215 548.334C243.782 548.22 244.606 548.009 245.323 547.835L247.59 547.261L252.191 546.052C255.266 545.228 258.356 544.352 261.439 543.468C267.609 541.67 273.759 539.768 279.889 537.764C292.144 533.752 304.255 529.309 316.155 524.406C327.981 519.556 339.544 514.089 350.796 508.026C356.395 505.004 361.804 501.762 367.086 498.37C368.393 497.501 369.722 496.655 371.014 495.779L374.845 493.089C376.129 492.197 377.331 491.238 378.585 490.308C379.204 489.84 379.832 489.394 380.443 488.903L382.302 487.392C402.246 471.108 419.684 451.976 434.056 430.613C448.54 409.126 460.062 385.334 467.209 360.016L472.921 361.285C468.509 387.933 459.374 413.909 446.697 438.131C433.886 462.621 417.534 485.088 398.168 504.807L396.332 506.666L394.391 508.517C393.099 509.741 391.845 511.018 390.53 512.196L386.586 515.763C385.256 516.926 383.904 518.029 382.559 519.2C377.149 523.733 371.611 528.032 365.937 532.044C354.626 540.081 342.899 547.516 330.805 554.318C318.797 561.127 306.557 567.446 294.086 573.274C287.86 576.2 281.579 579.026 275.243 581.751C272.062 583.104 268.881 584.448 265.655 585.748L260.789 587.697L258.319 588.657C257.457 588.982 256.694 589.276 255.667 589.646L243.215 548.334Z" fill="#271B4C"/>
<path d="M245.95 557.401C246.479 557.318 247.136 557.189 247.741 557.068L249.615 556.691L253.392 555.867C255.916 555.323 258.417 554.689 260.948 554.069C265.985 552.815 270.994 551.455 275.975 549.989C285.938 547.068 295.801 543.794 305.562 540.167C315.301 536.518 324.919 532.529 334.318 528.079C339.032 525.877 343.681 523.553 348.265 521.105C350.532 519.889 352.798 518.619 355.065 517.327C357.331 516.035 359.598 514.743 361.774 513.368C370.662 508.013 379.126 501.984 387.092 495.334C395.149 488.679 402.758 481.501 409.871 473.846C413.468 470.068 416.875 466.064 420.2 462.014C423.524 457.965 426.728 453.802 429.735 449.503C430.49 448.445 431.246 447.365 432.001 446.277C432.757 445.189 433.512 444.123 434.215 443.028C435.62 440.814 437.093 438.638 438.438 436.387C441.219 431.929 443.727 427.32 446.183 422.681L447.361 423.308C437.312 441.893 425.526 459.485 412.161 475.848C405.433 484.056 398.262 491.89 390.681 499.315C389.752 500.267 388.732 501.136 387.757 502.05C386.782 502.964 385.8 503.871 384.788 504.74C382.748 506.463 380.761 508.261 378.66 509.9L375.502 512.409L372.336 514.857C370.236 516.504 368.068 518.053 365.907 519.624C357.279 525.895 348.303 531.637 339.146 537.137C329.989 542.638 320.673 547.828 311.191 552.785C301.709 557.741 292.159 562.516 282.48 567.14C277.645 569.452 272.779 571.673 267.883 573.94L260.525 577.272L256.792 578.926L254.903 579.742C254.261 580.022 253.664 580.286 252.931 580.588L245.95 557.401Z" fill="white"/>
<path d="M249.441 599C271.694 599 289.733 580.96 289.733 558.707C289.733 536.454 271.694 518.414 249.441 518.414C227.188 518.414 209.148 536.454 209.148 558.707C209.148 580.96 227.188 599 249.441 599Z" fill="#F6AC94" stroke="white" stroke-width="7.55537" stroke-miterlimit="10"/>
<path d="M249.44 592.503C268.105 592.503 283.235 577.372 283.235 558.708C283.235 540.043 268.105 524.913 249.44 524.913C230.776 524.913 215.645 540.043 215.645 558.708C215.645 577.372 230.776 592.503 249.44 592.503Z" fill="url(#paint74_radial_403_314)"/>
<path d="M231.043 558.436L225.384 542.426H230.809L234.277 553.003H234.368L237.926 542.426H242.799L237.133 558.436L243.079 575.193H237.647L233.869 563.77H233.778L229.94 575.193H225.067L231.043 558.436Z" fill="#271B4C"/>
<path d="M245.323 542.426H250.521L253.86 567.842H253.951L257.321 542.426H262.05L257.086 575.193H250.287L245.323 542.426Z" fill="#271B4C"/>
<path d="M265.73 542.426H270.883V575.193H265.73V542.426Z" fill="#271B4C"/>
<defs>
<linearGradient id="paint0_linear_403_314" x1="248.572" y1="642.603" x2="248.572" y2="-189.259" gradientUnits="userSpaceOnUse">
<stop stop-color="#5A3079"/>
<stop offset="0.48" stop-color="#AE1C71"/>
<stop offset="1" stop-color="#FFBE98"/>
</linearGradient>
<radialGradient id="paint1_radial_403_314" cx="0" cy="0" r="1" gradientUnits="userSpaceOnUse" gradientTransform="translate(248.571 531.909) scale(389.139 389.139)">
<stop offset="0.06" stop-color="#D84784"/>
<stop offset="1" stop-color="#5A3079"/>
</radialGradient>
<linearGradient id="paint2_linear_403_314" x1="62.9343" y1="310.88" x2="21.46" y2="64.4736" gradientUnits="userSpaceOnUse">
<stop stop-color="#C28832"/>
<stop offset="1" stop-color="#C6C1C1"/>
</linearGradient>
<linearGradient id="paint3_linear_403_314" x1="74.7604" y1="299.984" x2="49.305" y2="148.749" gradientUnits="userSpaceOnUse">
<stop stop-color="#C28832"/>
<stop offset="1" stop-color="#C6C1C1"/>
</linearGradient>
<linearGradient id="paint4_linear_403_314" x1="78.0901" y1="368.674" x2="58.2276" y2="250.667" gradientUnits="userSpaceOnUse">
<stop stop-color="#C28832"/>
<stop offset="1" stop-color="#C6C1C1"/>
</linearGradient>
<linearGradient id="paint5_linear_403_314" x1="83.0935" y1="373.985" x2="63.2299" y2="255.971" gradientUnits="userSpaceOnUse">
<stop stop-color="#C28832"/>
<stop offset="1" stop-color="#C6C1C1"/>
</linearGradient>
<linearGradient id="paint6_linear_403_314" x1="75.5168" y1="406.944" x2="61.8376" y2="325.673" gradientUnits="userSpaceOnUse">
<stop stop-color="#C28832"/>
<stop offset="1" stop-color="#C6C1C1"/>
</linearGradient>
<linearGradient id="paint7_linear_403_314" x1="76.0447" y1="409.641" x2="62.5289" y2="329.341" gradientUnits="userSpaceOnUse">
<stop stop-color="#C28832"/>
<stop offset="1" stop-color="#C6C1C1"/>
</linearGradient>
<linearGradient id="paint8_linear_403_314" x1="113.803" y1="441.179" x2="103.86" y2="382.109" gradientUnits="userSpaceOnUse">
<stop stop-color="#C28832"/>
<stop offset="1" stop-color="#C6C1C1"/>
</linearGradient>
<linearGradient id="paint9_linear_403_314" x1="148.085" y1="428.421" x2="109.188" y2="397.747" gradientUnits="userSpaceOnUse">
<stop stop-color="#C28832"/>
<stop offset="1" stop-color="#C6C1C1"/>
</linearGradient>
<linearGradient id="paint10_linear_403_314" x1="155.655" y1="475.299" x2="150.466" y2="444.476" gradientUnits="userSpaceOnUse">
<stop stop-color="#C28832"/>
<stop offset="1" stop-color="#C6C1C1"/>
</linearGradient>
<linearGradient id="paint11_linear_403_314" x1="195.584" y1="453.969" x2="154.475" y2="438.465" gradientUnits="userSpaceOnUse">
<stop stop-color="#C28832"/>
<stop offset="1" stop-color="#C6C1C1"/>
</linearGradient>
<linearGradient id="paint12_linear_403_314" x1="237.672" y1="454.48" x2="179.9" y2="431.252" gradientUnits="userSpaceOnUse">
<stop stop-color="#C28832"/>
<stop offset="1" stop-color="#C6C1C1"/>
</linearGradient>
<linearGradient id="paint13_linear_403_314" x1="238.76" y1="447.779" x2="194.501" y2="444.054" gradientUnits="userSpaceOnUse">
<stop stop-color="#C28832"/>
<stop offset="1" stop-color="#C6C1C1"/>
</linearGradient>
<linearGradient id="paint14_linear_403_314" x1="133.531" y1="162.714" x2="275.671" y2="334.118" gradientUnits="userSpaceOnUse">
<stop offset="0.35" stop-color="#C69476"/>
<stop offset="1" stop-color="#C6C1C1"/>
</linearGradient>
<linearGradient id="paint15_linear_403_314" x1="156.435" y1="356.942" x2="131.512" y2="208.867" gradientUnits="userSpaceOnUse">
<stop stop-color="#C28832"/>
<stop offset="0.03" stop-color="#C69476"/>
<stop offset="1" stop-color="#C6C1C1"/>
</linearGradient>
<linearGradient id="paint16_linear_403_314" x1="134.533" y1="261.389" x2="282.898" y2="302.586" gradientUnits="userSpaceOnUse">
<stop offset="0.35" stop-color="#C69476"/>
<stop offset="1" stop-color="#C6C1C1"/>
</linearGradient>
<linearGradient id="paint17_linear_403_314" x1="137.687" y1="369.794" x2="120.254" y2="266.221" gradientUnits="userSpaceOnUse">
<stop stop-color="#C28832"/>
<stop offset="0.03" stop-color="#C69476"/>
<stop offset="1" stop-color="#C6C1C1"/>
</linearGradient>
<linearGradient id="paint18_linear_403_314" x1="157.355" y1="325.898" x2="281.182" y2="315.029" gradientUnits="userSpaceOnUse">
<stop stop-color="#C28832"/>
<stop offset="1" stop-color="#C6C1C1"/>
</linearGradient>
<linearGradient id="paint19_linear_403_314" x1="140.041" y1="399.873" x2="128.541" y2="331.552" gradientUnits="userSpaceOnUse">
<stop stop-color="#C28832"/>
<stop offset="1" stop-color="#C6C1C1"/>
</linearGradient>
<linearGradient id="paint20_linear_403_314" x1="123.899" y1="375.279" x2="185.211" y2="435.336" gradientUnits="userSpaceOnUse">
<stop stop-color="#C28832"/>
<stop offset="1" stop-color="#C6C1C1"/>
</linearGradient>
<linearGradient id="paint21_linear_403_314" x1="140.11" y1="382.311" x2="205.16" y2="446.031" gradientUnits="userSpaceOnUse">
<stop stop-color="#C28832"/>
<stop offset="1" stop-color="#C6C1C1"/>
</linearGradient>
<linearGradient id="paint22_linear_403_314" x1="143.513" y1="400.47" x2="216.194" y2="455.464" gradientUnits="userSpaceOnUse">
<stop stop-color="#C28832"/>
<stop offset="1" stop-color="#C6C1C1"/>
</linearGradient>
<linearGradient id="paint23_linear_403_314" x1="163.381" y1="409.157" x2="227.41" y2="463.263" gradientUnits="userSpaceOnUse">
<stop stop-color="#C28832"/>
<stop offset="1" stop-color="#C6C1C1"/>
</linearGradient>
<linearGradient id="paint24_linear_403_314" x1="184.971" y1="420.881" x2="245.761" y2="459.349" gradientUnits="userSpaceOnUse">
<stop stop-color="#C28832"/>
<stop offset="1" stop-color="#C6C1C1"/>
</linearGradient>
<linearGradient id="paint25_linear_403_314" x1="208.305" y1="430.975" x2="259.04" y2="453.365" gradientUnits="userSpaceOnUse">
<stop stop-color="#C28832"/>
<stop offset="1" stop-color="#C6C1C1"/>
</linearGradient>
<linearGradient id="paint26_linear_403_314" x1="235.305" y1="421.917" x2="210.387" y2="273.873" gradientUnits="userSpaceOnUse">
<stop stop-color="#B14D43"/>
<stop offset="1" stop-color="#C3C4BD"/>
</linearGradient>
<linearGradient id="paint27_linear_403_314" x1="195.456" y1="386.919" x2="241.11" y2="258.185" gradientUnits="userSpaceOnUse">
<stop stop-color="#B14D43"/>
<stop offset="0.51" stop-color="#C3C4BD"/>
</linearGradient>
<linearGradient id="paint28_linear_403_314" x1="505.356" y1="265.151" x2="176.531" y2="511.282" gradientUnits="userSpaceOnUse">
<stop offset="0.09" stop-color="white"/>
<stop offset="0.24" stop-color="#FFFCFA"/>
<stop offset="0.41" stop-color="#FFF4ED"/>
<stop offset="0.58" stop-color="#FFE5D7"/>
<stop offset="0.76" stop-color="#FFD2B7"/>
<stop offset="0.91" stop-color="#FFBE98"/>
</linearGradient>
<linearGradient id="paint29_linear_403_314" x1="349.723" y1="251.332" x2="509.557" y2="302.95" gradientUnits="userSpaceOnUse">
<stop stop-color="#FBB040"/>
<stop offset="0.84" stop-color="#FFF8F8"/>
</linearGradient>
<linearGradient id="paint30_linear_403_314" x1="396.891" y1="255.624" x2="433.474" y2="260.845" gradientUnits="userSpaceOnUse">
<stop stop-color="#FBB040"/>
<stop offset="0.62" stop-color="#FBB040" stop-opacity="0"/>
</linearGradient>
<linearGradient id="paint31_linear_403_314" x1="416.505" y1="195.166" x2="370.87" y2="216.918" gradientUnits="userSpaceOnUse">
<stop stop-color="white"/>
<stop offset="1" stop-color="#FFBE98"/>
</linearGradient>
<linearGradient id="paint32_linear_403_314" x1="404.114" y1="186.386" x2="352.639" y2="216.101" gradientUnits="userSpaceOnUse">
<stop offset="0.08" stop-color="white"/>
<stop offset="1" stop-color="#FFBE98"/>
</linearGradient>
<linearGradient id="paint33_linear_403_314" x1="411.042" y1="294.738" x2="456.979" y2="329.841" gradientUnits="userSpaceOnUse">
<stop stop-color="#FBB040"/>
<stop offset="0.73" stop-color="#FBB040" stop-opacity="0"/>
</linearGradient>
<linearGradient id="paint34_linear_403_314" x1="330.714" y1="282.279" x2="412.176" y2="305.096" gradientUnits="userSpaceOnUse">
<stop stop-color="#EA6659"/>
<stop offset="1" stop-color="#FCFDF4"/>
</linearGradient>
<linearGradient id="paint35_linear_403_314" x1="244.612" y1="272.011" x2="380.805" y2="298.191" gradientUnits="userSpaceOnUse">
<stop offset="0.27" stop-color="#FFBE98"/>
<stop offset="0.44" stop-color="#FFC09B"/>
<stop offset="0.58" stop-color="#FFC6A5"/>
<stop offset="0.71" stop-color="#FFD1B6"/>
<stop offset="0.83" stop-color="#FFDFCD"/>
<stop offset="0.94" stop-color="#FFF2EB"/>
<stop offset="1" stop-color="white"/>
</linearGradient>
<linearGradient id="paint36_linear_403_314" x1="274.639" y1="304.6" x2="392.12" y2="210.836" gradientUnits="userSpaceOnUse">
<stop stop-color="#EA6659"/>
<stop offset="1" stop-color="#FCFDF4"/>
</linearGradient>
<linearGradient id="paint37_linear_403_314" x1="235.722" y1="341.46" x2="279.988" y2="312.878" gradientUnits="userSpaceOnUse">
<stop stop-color="#EA6659"/>
<stop offset="1" stop-color="#FCFDF4"/>
</linearGradient>
<linearGradient id="paint38_linear_403_314" x1="231.207" y1="318.896" x2="268.364" y2="294.904" gradientUnits="userSpaceOnUse">
<stop stop-color="#FBB040"/>
<stop offset="0.9" stop-color="#FFF8F8"/>
</linearGradient>
<linearGradient id="paint39_linear_403_314" x1="235.369" y1="329.241" x2="316.753" y2="276.692" gradientUnits="userSpaceOnUse">
<stop offset="0.11" stop-color="#EA6659"/>
<stop offset="0.94" stop-color="#FCFDF4"/>
</linearGradient>
<linearGradient id="paint40_linear_403_314" x1="251.041" y1="282.518" x2="304.262" y2="248.154" gradientUnits="userSpaceOnUse">
<stop stop-color="#FBB040"/>
<stop offset="0.9" stop-color="#FFF8F8"/>
</linearGradient>
<linearGradient id="paint41_linear_403_314" x1="267.166" y1="305.928" x2="336.088" y2="241.565" gradientUnits="userSpaceOnUse">
<stop stop-color="#EA6659"/>
<stop offset="1" stop-color="#FCFDF4"/>
</linearGradient>
<linearGradient id="paint42_linear_403_314" x1="266.514" y1="294.615" x2="347.891" y2="242.071" gradientUnits="userSpaceOnUse">
<stop stop-color="#FBB040"/>
<stop offset="0.9" stop-color="#FFF8F8"/>
</linearGradient>
<linearGradient id="paint43_linear_403_314" x1="404.364" y1="255.896" x2="414.862" y2="245.398" gradientUnits="userSpaceOnUse">
<stop stop-color="#FBB040"/>
<stop offset="1" stop-color="#FFF8F8"/>
</linearGradient>
<linearGradient id="paint44_linear_403_314" x1="388.534" y1="234.842" x2="418.543" y2="249.945" gradientUnits="userSpaceOnUse">
<stop stop-color="white"/>
<stop offset="0.55" stop-color="#FFBE98"/>
</linearGradient>
<linearGradient id="paint45_linear_403_314" x1="368.634" y1="301.266" x2="196.296" y2="561.918" gradientUnits="userSpaceOnUse">
<stop stop-color="#FBB040"/>
<stop offset="0.73" stop-color="#FBB040" stop-opacity="0"/>
</linearGradient>
<linearGradient id="paint46_linear_403_314" x1="396.682" y1="340.394" x2="146.439" y2="532.753" gradientUnits="userSpaceOnUse">
<stop stop-color="#FBB040"/>
<stop offset="0.73" stop-color="#FBB040" stop-opacity="0"/>
</linearGradient>
<linearGradient id="paint47_linear_403_314" x1="45.1805" y1="283.53" x2="-29.442" y2="-6.00541" gradientUnits="userSpaceOnUse">
<stop stop-color="#FBB040"/>
<stop offset="1" stop-color="#FFF8F8"/>
</linearGradient>
<linearGradient id="paint48_linear_403_314" x1="56.4193" y1="269.783" x2="10.618" y2="92.0742" gradientUnits="userSpaceOnUse">
<stop stop-color="#FBB040"/>
<stop offset="1" stop-color="#FFF8F8"/>
</linearGradient>
<linearGradient id="paint49_linear_403_314" x1="69.1705" y1="350.877" x2="33.4348" y2="212.222" gradientUnits="userSpaceOnUse">
<stop stop-color="#FBB040"/>
<stop offset="1" stop-color="#FFF8F8"/>
</linearGradient>
<linearGradient id="paint50_linear_403_314" x1="75.2466" y1="356.803" x2="39.5091" y2="218.141" gradientUnits="userSpaceOnUse">
<stop stop-color="#FBB040"/>
<stop offset="1" stop-color="#FFF8F8"/>
</linearGradient>
<linearGradient id="paint51_linear_403_314" x1="71.5271" y1="396.372" x2="46.9158" y2="300.88" gradientUnits="userSpaceOnUse">
<stop stop-color="#FBB040"/>
<stop offset="1" stop-color="#FFF8F8"/>
</linearGradient>
<linearGradient id="paint52_linear_403_314" x1="72.4563" y1="399.534" x2="48.1383" y2="305.18" gradientUnits="userSpaceOnUse">
<stop stop-color="#FBB040"/>
<stop offset="1" stop-color="#FFF8F8"/>
</linearGradient>
<linearGradient id="paint53_linear_403_314" x1="117.197" y1="434.17" x2="99.3094" y2="364.764" gradientUnits="userSpaceOnUse">
<stop stop-color="#FBB040"/>
<stop offset="1" stop-color="#FFF8F8"/>
</linearGradient>
<linearGradient id="paint54_linear_403_314" x1="152.282" y1="416.618" x2="103.327" y2="388.489" gradientUnits="userSpaceOnUse">
<stop stop-color="#FBB040"/>
<stop offset="1" stop-color="#FFF8F8"/>
</linearGradient>
<linearGradient id="paint55_linear_403_314" x1="166.672" y1="471.578" x2="157.339" y2="435.365" gradientUnits="userSpaceOnUse">
<stop stop-color="#FBB040"/>
<stop offset="1" stop-color="#FFF8F8"/>
</linearGradient>
<linearGradient id="paint56_linear_403_314" x1="206.674" y1="443.478" x2="159.397" y2="432.89" gradientUnits="userSpaceOnUse">
<stop stop-color="#FBB040"/>
<stop offset="1" stop-color="#FFF8F8"/>
</linearGradient>
<linearGradient id="paint57_linear_403_314" x1="250.744" y1="440.854" x2="180.071" y2="423.504" gradientUnits="userSpaceOnUse">
<stop stop-color="#FBB040"/>
<stop offset="1" stop-color="#FFF8F8"/>
</linearGradient>
<linearGradient id="paint58_linear_403_314" x1="251.345" y1="432.502" x2="201.074" y2="434.337" gradientUnits="userSpaceOnUse">
<stop stop-color="#FBB040"/>
<stop offset="1" stop-color="#FFF8F8"/>
</linearGradient>
<linearGradient id="paint59_linear_403_314" x1="45.3876" y1="183.725" x2="237.641" y2="357.137" gradientUnits="userSpaceOnUse">
<stop offset="0.35" stop-color="#FFBE98"/>
<stop offset="1" stop-color="#FFF8F8"/>
</linearGradient>
<linearGradient id="paint60_linear_403_314" x1="151.681" y1="331.391" x2="106.837" y2="157.396" gradientUnits="userSpaceOnUse">
<stop stop-color="#FBB040"/>
<stop offset="0.03" stop-color="#FFBE98"/>
<stop offset="1" stop-color="#FFF8F8"/>
</linearGradient>
<linearGradient id="paint61_linear_403_314" x1="59.6938" y1="300.827" x2="226.887" y2="323.608" gradientUnits="userSpaceOnUse">
<stop offset="0.35" stop-color="#FFBE98"/>
<stop offset="1" stop-color="#FFF8F8"/>
</linearGradient>
<linearGradient id="paint62_linear_403_314" x1="133.279" y1="347.943" x2="101.913" y2="226.242" gradientUnits="userSpaceOnUse">
<stop stop-color="#FBB040"/>
<stop offset="0.03" stop-color="#FFBE98"/>
<stop offset="1" stop-color="#FFF8F8"/>
</linearGradient>
<linearGradient id="paint63_linear_403_314" x1="92.9268" y1="375.47" x2="224.521" y2="349.974" gradientUnits="userSpaceOnUse">
<stop stop-color="#FBB040"/>
<stop offset="1" stop-color="#FFF8F8"/>
</linearGradient>
<linearGradient id="paint64_linear_403_314" x1="139.825" y1="383.384" x2="119.137" y2="303.116" gradientUnits="userSpaceOnUse">
<stop stop-color="#FBB040"/>
<stop offset="1" stop-color="#FFF8F8"/>
</linearGradient>
<linearGradient id="paint65_linear_403_314" x1="119.217" y1="355.419" x2="199.109" y2="413.869" gradientUnits="userSpaceOnUse">
<stop stop-color="#FBB040"/>
<stop offset="1" stop-color="#FFF8F8"/>
</linearGradient>
<linearGradient id="paint66_linear_403_314" x1="137.554" y1="362.59" x2="222.316" y2="424.601" gradientUnits="userSpaceOnUse">
<stop stop-color="#FBB040"/>
<stop offset="1" stop-color="#FFF8F8"/>
</linearGradient>
<linearGradient id="paint67_linear_403_314" x1="143.637" y1="383.848" x2="234.541" y2="433.643" gradientUnits="userSpaceOnUse">
<stop stop-color="#FBB040"/>
<stop offset="1" stop-color="#FFF8F8"/>
</linearGradient>
<linearGradient id="paint68_linear_403_314" x1="166.115" y1="392.713" x2="247.577" y2="443.325" gradientUnits="userSpaceOnUse">
<stop stop-color="#FBB040"/>
<stop offset="1" stop-color="#FFF8F8"/>
</linearGradient>
<linearGradient id="paint69_linear_403_314" x1="190.852" y1="405.057" x2="264.936" y2="437.921" gradientUnits="userSpaceOnUse">
<stop stop-color="#FBB040"/>
<stop offset="1" stop-color="#FFF8F8"/>
</linearGradient>
<linearGradient id="paint70_linear_403_314" x1="217.246" y1="415.332" x2="276.463" y2="431.892" gradientUnits="userSpaceOnUse">
<stop stop-color="#FBB040"/>
<stop offset="1" stop-color="#FFF8F8"/>
</linearGradient>
<linearGradient id="paint71_linear_403_314" x1="245.007" y1="402.684" x2="200.173" y2="228.73" gradientUnits="userSpaceOnUse">
<stop stop-color="#EA6659"/>
<stop offset="1" stop-color="#FCFDF4"/>
</linearGradient>
<linearGradient id="paint72_linear_403_314" x1="197.565" y1="364.084" x2="244.515" y2="213.103" gradientUnits="userSpaceOnUse">
<stop stop-color="#EA6659"/>
<stop offset="0.51" stop-color="#FCFDF4"/>
</linearGradient>
<linearGradient id="paint73_linear_403_314" x1="205.849" y1="347.428" x2="342.446" y2="346.332" gradientUnits="userSpaceOnUse">
<stop offset="0.11" stop-color="#EA6659" stop-opacity="0"/>
<stop offset="0.24" stop-color="white" stop-opacity="0"/>
<stop offset="0.29" stop-color="#FFFEFE" stop-opacity="0.03"/>
<stop offset="0.38" stop-color="#FFFDFC" stop-opacity="0.13"/>
<stop offset="0.49" stop-color="#FFFAF8" stop-opacity="0.28"/>
<stop offset="0.61" stop-color="#FFF7F3" stop-opacity="0.5"/>
<stop offset="0.75" stop-color="#FFF3EC" stop-opacity="0.77"/>
<stop offset="0.86" stop-color="#FFEFE6"/>
</linearGradient>
<radialGradient id="paint74_radial_403_314" cx="0" cy="0" r="1" gradientUnits="userSpaceOnUse" gradientTransform="translate(248.821 521.414) scale(54.5724 54.5724)">
<stop offset="0.09" stop-color="white"/>
<stop offset="0.24" stop-color="#FFFCFA"/>
<stop offset="0.41" stop-color="#FFF4ED"/>
<stop offset="0.58" stop-color="#FFE5D7"/>
<stop offset="0.76" stop-color="#FFD2B7"/>
<stop offset="0.91" stop-color="#FFBE98"/>
</radialGradient>
</defs>
</svg>
