<svg width="635" height="769" viewBox="0 0 635 769" fill="none" xmlns="http://www.w3.org/2000/svg">
<path d="M97.8882 4C79.4027 4 61.6743 11.3433 48.603 24.4146C35.5318 37.4858 28.1885 55.2142 28.1885 73.6997V404.12C28.1885 491.907 77.4654 567.154 141.936 626.802C184.306 666.007 319.798 756.072 319.798 756.072C319.798 756.072 439.672 675.722 494.969 626.31C560.684 567.579 606.585 491.753 606.585 403.628V73.6997C606.585 55.2142 599.242 37.4858 586.17 24.4146C573.099 11.3433 555.371 4 536.885 4H97.8882Z" fill="url(#paint0_linear_545_2074)" stroke="#271B4C" stroke-width="7.71761" stroke-miterlimit="10"/>
<path d="M318.573 681.277C308.039 678.277 297.234 674.901 286.352 671.206C219.73 648.159 188.474 628.759 168.736 614.482C142.349 593.915 119.253 569.446 100.242 541.917C81.1059 514.507 66.6512 484.111 57.4672 451.968L57.2743 451.283C53.9344 436.309 52.2394 421.014 52.2192 405.672V87.6389C52.2192 71.3281 58.6986 55.6854 70.2321 44.152C81.7655 32.6186 97.4082 26.1392 113.719 26.1392H521.064C537.375 26.1392 553.018 32.6186 564.551 44.152C576.084 55.6854 582.564 71.3281 582.564 87.6389V405.083C582.559 421.963 580.67 438.788 576.93 455.248C560.53 513.545 524.836 567.896 476.196 608.365C450.872 629.087 420.185 643.587 396.241 653.919C370.938 664.624 345 673.761 318.573 681.277Z" fill="url(#paint1_radial_545_2074)"/>
<path d="M161.047 258.16C161.047 258.16 129.376 229.624 115.899 159.876C115.899 159.876 11.7594 275.641 132.116 359.328L186.37 344.52L161.047 258.16Z" fill="url(#paint2_linear_545_2074)"/>
<path d="M161.048 258.16C161.048 258.16 129.377 229.624 115.9 159.876C115.9 159.876 60.9117 269.36 175.711 348.051L186.323 344.52L161.048 258.16Z" fill="url(#paint3_linear_545_2074)"/>
<path d="M140.76 365.714C140.76 365.714 99.9437 354.495 66.9123 307.417C66.9123 307.417 31.0833 406.705 148.082 428.815L240.211 433.465L140.76 365.714Z" fill="url(#paint4_linear_545_2074)"/>
<path d="M140.76 365.714C140.76 365.714 99.9433 354.495 66.9119 307.417C66.9119 307.417 57.6894 385.057 187.683 420.76L240.211 433.465L140.76 365.714Z" fill="url(#paint5_linear_545_2074)"/>
<path d="M147.899 434.893C147.899 434.893 103.223 427.89 68.6772 400.386C68.6772 400.386 75.3144 497.271 181.624 488.241L226.763 479.559L147.899 434.893Z" fill="url(#paint6_linear_545_2074)"/>
<path d="M147.899 434.893C147.899 434.893 103.223 427.89 68.6772 400.386C68.6772 400.386 91.7336 463.622 184.548 474.272L226.763 479.569L147.899 434.893Z" fill="url(#paint7_linear_545_2074)"/>
<path d="M188.898 491.405C188.898 491.405 140.45 500.493 103.878 481.189C103.878 481.189 141.309 571.466 242.844 532.318C344.379 493.171 257.768 511.201 257.768 511.201L188.898 491.405Z" fill="url(#paint8_linear_545_2074)"/>
<path d="M188.898 491.405C188.898 491.405 140.45 500.493 103.878 481.189C103.878 481.189 158.722 548.062 247.204 510.352C346.993 467.818 252.645 501.67 252.645 501.67L188.898 491.405Z" fill="url(#paint9_linear_545_2074)"/>
<path d="M247.252 536.505C223.529 546.973 198.458 554.071 172.768 557.593C172.768 557.593 245.603 600.445 304.565 555.76C363.528 511.075 306.88 535.984 306.88 535.984L247.252 536.505Z" fill="url(#paint10_linear_545_2074)"/>
<path d="M247.252 536.505C223.529 546.974 198.458 554.072 172.768 557.594C172.768 557.594 250.252 583.911 305.617 535.985C360.981 488.058 300.986 529.531 300.986 529.531L247.252 536.505Z" fill="url(#paint11_linear_545_2074)"/>
<path d="M308.55 554.719C294.691 568.885 279.333 581.5 262.746 592.342C262.746 592.342 405.222 601.623 386.054 487.971L308.55 554.719Z" fill="url(#paint12_linear_545_2074)"/>
<path d="M308.55 554.719C294.691 568.884 279.333 581.5 262.746 592.342C262.746 592.342 386.227 573.608 386.054 487.971L308.55 554.719Z" fill="url(#paint13_linear_545_2074)"/>
<path d="M284.287 340.025C284.287 340.025 194.985 293.362 181.373 201.108C181.373 201.108 47.4918 353.531 304.903 397.56L284.287 340.025Z" fill="url(#paint14_linear_545_2074)"/>
<path d="M284.287 340.025C284.287 340.025 194.985 293.362 181.373 201.108C181.373 201.108 129.626 341.154 306.909 374.368L284.287 340.025Z" fill="url(#paint15_linear_545_2074)"/>
<path d="M304.952 394.761C304.952 394.761 175.808 375.766 134.2 304.176C134.2 304.176 72.2276 456.878 312.236 426.741L304.952 394.761Z" fill="url(#paint16_linear_545_2074)"/>
<path d="M304.952 394.761C304.952 394.761 175.808 375.766 134.2 304.176C134.2 304.176 126.483 421.175 309.149 411.055L304.952 394.761Z" fill="url(#paint17_linear_545_2074)"/>
<path d="M313.008 425.342C313.008 425.342 198.855 448.312 131.711 396.922C131.711 396.922 127.852 530.398 340.251 461.779L313.008 425.342Z" fill="url(#paint18_linear_545_2074)"/>
<path d="M313.008 425.342C313.008 425.342 198.855 448.312 131.711 396.922C131.711 396.922 173.039 497.685 323.475 440.015L313.008 425.342Z" fill="url(#paint19_linear_545_2074)"/>
<path d="M330.353 448.785C330.353 448.785 256.418 495.766 160.942 473.23C160.942 473.23 217.28 582.049 347.814 472.902L330.353 448.785Z" fill="url(#paint20_linear_545_2074)"/>
<path d="M330.353 448.785C330.353 448.785 256.418 495.766 160.942 473.23C160.942 473.23 227.506 548.805 337.174 461.856L330.353 448.785Z" fill="url(#paint21_linear_545_2074)"/>
<path d="M345.141 470.037C345.141 470.037 311.714 512.002 217.935 528.566C217.935 528.566 308.212 597.513 371.921 484.19L345.141 470.037Z" fill="url(#paint22_linear_545_2074)"/>
<path d="M345.141 470.037C345.141 470.037 311.714 512.002 217.935 528.566C217.935 528.566 299.095 564.491 358.695 478.527L345.141 470.037Z" fill="url(#paint23_linear_545_2074)"/>
<path d="M370.33 483.225C370.33 483.225 345.73 532.174 288.167 557.652C288.167 557.652 401.741 577.38 391.785 492.149L370.33 483.225Z" fill="url(#paint24_linear_545_2074)"/>
<path d="M370.33 483.225C370.33 483.225 345.73 532.174 288.167 557.652C288.167 557.652 381.569 558.404 383.672 486.93L370.33 483.225Z" fill="url(#paint25_linear_545_2074)"/>
<path d="M395.046 501.689C395.046 501.689 287.858 471.503 297.785 379.915L266.799 328.92L332.032 370.142C332.032 370.142 317.716 435.539 408.176 431.642C408.176 431.642 424.846 497.222 395.046 501.689Z" fill="url(#paint26_linear_545_2074)"/>
<path d="M266.799 328.92L332.032 370.142C332.032 370.142 318.005 435.346 408.176 431.642C408.176 431.642 424.257 498.968 395.046 501.689C395.046 501.689 418.296 493.691 397.381 447.752C397.381 447.752 321.285 444.289 321.517 375.303L266.799 328.92Z" fill="url(#paint27_linear_545_2074)"/>
<path d="M97.3583 69.0491H116.006C116.408 69.0491 116.793 69.2087 117.077 69.4927C117.361 69.7768 117.521 70.162 117.521 70.5637V127.877C117.513 128.26 117.651 128.632 117.907 128.918C118.163 129.204 118.517 129.382 118.899 129.416C119.282 129.451 119.662 129.339 119.965 129.103C120.268 128.867 120.47 128.526 120.53 128.147L131.142 70.2646C131.207 69.918 131.391 69.605 131.663 69.3796C131.934 69.1542 132.275 69.0305 132.628 69.0298H149.028C149.251 69.0285 149.471 69.0767 149.673 69.171C149.875 69.2653 150.054 69.4033 150.196 69.575C150.338 69.7467 150.44 69.9478 150.495 70.1638C150.55 70.3799 150.556 70.6054 150.513 70.8242L136.438 144.614C136.4 144.792 136.4 144.976 136.438 145.154L151.681 231.978C151.719 232.195 151.709 232.417 151.652 232.63C151.594 232.843 151.492 233.041 151.35 233.21C151.209 233.379 151.032 233.515 150.833 233.609C150.633 233.703 150.415 233.752 150.195 233.753H132.686C132.327 233.755 131.979 233.629 131.704 233.397C131.43 233.165 131.248 232.843 131.19 232.489L120.53 168.905C120.47 168.529 120.269 168.189 119.969 167.953C119.668 167.718 119.29 167.605 118.909 167.637C118.529 167.668 118.175 167.843 117.917 168.124C117.66 168.406 117.518 168.775 117.521 169.156V232.238C117.521 232.64 117.361 233.025 117.077 233.309C116.793 233.593 116.408 233.753 116.006 233.753H97.3583C96.9566 233.753 96.5714 233.593 96.2874 233.309C96.0033 233.025 95.8437 232.64 95.8438 232.238V70.5637C95.8438 70.3648 95.8829 70.1678 95.959 69.9841C96.0352 69.8003 96.1467 69.6334 96.2874 69.4927C96.428 69.3521 96.595 69.2405 96.7787 69.1644C96.9625 69.0883 97.1594 69.0491 97.3583 69.0491Z" fill="white"/>
<path d="M159.581 232.286V70.5639C159.581 70.1622 159.74 69.777 160.024 69.4929C160.308 69.2089 160.693 69.0493 161.095 69.0493H179.965C180.366 69.0493 180.752 69.2089 181.036 69.4929C181.32 69.777 181.479 70.1622 181.479 70.5639V232.286C181.479 232.688 181.32 233.073 181.036 233.357C180.752 233.641 180.366 233.801 179.965 233.801H161.105C160.905 233.802 160.707 233.764 160.522 233.689C160.337 233.613 160.169 233.502 160.028 233.361C159.886 233.22 159.773 233.053 159.697 232.868C159.62 232.684 159.581 232.486 159.581 232.286Z" fill="white"/>
<path d="M231.982 182.238V182.363C231.999 182.765 232.174 183.143 232.47 183.416C232.766 183.688 233.158 183.832 233.559 183.815C233.961 183.798 234.34 183.623 234.612 183.327C234.884 183.031 235.028 182.639 235.011 182.238L232.869 70.6218C232.866 70.4205 232.902 70.2204 232.976 70.0333C233.051 69.8462 233.162 69.6758 233.303 69.532C233.444 69.3883 233.612 69.2742 233.798 69.1963C233.983 69.1183 234.183 69.0782 234.384 69.0783H251.054C251.456 69.0783 251.841 69.2378 252.125 69.5219C252.409 69.8059 252.569 70.1912 252.569 70.5928V232.286C252.569 232.688 252.409 233.073 252.125 233.357C251.841 233.641 251.456 233.801 251.054 233.801H223.811C223.429 233.8 223.062 233.656 222.781 233.397C222.501 233.138 222.328 232.783 222.296 232.402L213.778 120.642V120.497C213.763 120.095 213.588 119.716 213.293 119.443C212.999 119.17 212.607 119.025 212.206 119.04C211.804 119.055 211.425 119.23 211.152 119.525C210.878 119.82 210.733 120.211 210.749 120.613L212.89 232.229C212.894 232.43 212.858 232.63 212.784 232.817C212.709 233.004 212.598 233.175 212.457 233.318C212.316 233.462 212.148 233.576 211.962 233.654C211.777 233.732 211.577 233.772 211.376 233.772H194.696C194.295 233.772 193.909 233.613 193.625 233.328C193.341 233.044 193.182 232.659 193.182 232.258V70.5639C193.182 70.1622 193.341 69.777 193.625 69.4929C193.909 69.2089 194.295 69.0493 194.696 69.0493H221.882C222.263 69.0504 222.631 69.1948 222.911 69.4538C223.192 69.7128 223.365 70.0677 223.396 70.4481L231.982 182.238Z" fill="white"/>
<path d="M264.329 70.5639C264.329 70.1622 264.489 69.777 264.773 69.4929C265.057 69.2089 265.442 69.0493 265.844 69.0493H281.453C307.027 69.0493 317.658 77.7316 317.658 151.425C317.658 222.967 307.683 233.155 283.623 233.801H265.805C265.403 233.801 265.018 233.641 264.734 233.357C264.45 233.073 264.291 232.688 264.291 232.286L264.329 70.5639ZM285.784 90.3403V212.51C285.785 212.748 285.842 212.983 285.951 213.195C286.059 213.407 286.216 213.591 286.408 213.732C286.601 213.873 286.823 213.966 287.058 214.005C287.293 214.045 287.534 214.028 287.762 213.957C293.888 212.172 295.325 202.699 295.325 151.425C295.325 100.151 293.888 90.649 287.762 88.8932C287.532 88.8149 287.287 88.7925 287.047 88.8281C286.806 88.8636 286.578 88.956 286.381 89.0976C286.184 89.2391 286.023 89.4257 285.913 89.6419C285.802 89.8581 285.745 90.0975 285.746 90.3403H285.784Z" fill="white"/>
<path d="M366.171 182.238V182.363C366.188 182.765 366.364 183.144 366.659 183.416C366.955 183.688 367.347 183.832 367.749 183.815C368.15 183.798 368.529 183.623 368.801 183.327C369.074 183.031 369.217 182.639 369.201 182.238L367.059 70.6218C367.055 70.4205 367.091 70.2204 367.166 70.0333C367.24 69.8462 367.351 69.6758 367.492 69.5321C367.633 69.3883 367.801 69.2742 367.987 69.1963C368.173 69.1183 368.372 69.0782 368.573 69.0783H385.244C385.645 69.0783 386.03 69.2378 386.314 69.5219C386.599 69.8059 386.758 70.1912 386.758 70.5928V232.286C386.758 232.688 386.599 233.073 386.314 233.357C386.03 233.641 385.645 233.801 385.244 233.801H358.039C357.657 233.8 357.29 233.656 357.009 233.397C356.729 233.138 356.556 232.783 356.524 232.402L347.967 120.642V120.507C347.925 120.125 347.74 119.774 347.449 119.524C347.158 119.273 346.783 119.143 346.399 119.159C346.016 119.175 345.652 119.336 345.383 119.609C345.114 119.883 344.958 120.248 344.948 120.632L347.09 232.248C347.092 232.449 347.055 232.648 346.98 232.835C346.905 233.021 346.794 233.191 346.653 233.335C346.513 233.478 346.345 233.592 346.16 233.671C345.975 233.749 345.776 233.79 345.575 233.791H328.886C328.484 233.791 328.099 233.632 327.815 233.348C327.531 233.064 327.371 232.679 327.371 232.277V70.5639C327.371 70.1622 327.531 69.777 327.815 69.4929C328.099 69.2089 328.484 69.0493 328.886 69.0493H356.1C356.481 69.0484 356.849 69.1923 357.128 69.4519C357.408 69.7116 357.578 70.0677 357.605 70.4481L366.171 182.238Z" fill="white"/>
<path d="M435.079 233.801H399.983C399.582 233.801 399.196 233.641 398.912 233.357C398.628 233.073 398.469 232.688 398.469 232.286V70.5639C398.469 70.1622 398.628 69.777 398.912 69.4929C399.196 69.2089 399.582 69.0493 399.983 69.0493H435.079C435.481 69.0493 435.866 69.2089 436.15 69.4929C436.434 69.777 436.594 70.1622 436.594 70.5639V87.041C436.594 87.4427 436.434 87.8279 436.15 88.112C435.866 88.396 435.481 88.5556 435.079 88.5556H421.448C421.046 88.5556 420.661 88.7152 420.377 88.9992C420.093 89.2832 419.933 89.6685 419.933 90.0702V135.816C419.933 136.218 420.093 136.603 420.377 136.887C420.661 137.171 421.046 137.331 421.448 137.331H432.947C433.348 137.333 433.732 137.494 434.015 137.777C434.299 138.061 434.459 138.445 434.462 138.845V156.413C434.462 156.814 434.302 157.2 434.018 157.484C433.734 157.768 433.349 157.927 432.947 157.927H421.448C421.046 157.927 420.661 158.087 420.377 158.371C420.093 158.655 419.933 159.04 419.933 159.442V212.78C419.933 213.182 420.093 213.567 420.377 213.851C420.661 214.135 421.046 214.295 421.448 214.295H435.079C435.481 214.295 435.866 214.454 436.15 214.738C436.434 215.022 436.594 215.408 436.594 215.809V232.286C436.594 232.485 436.555 232.682 436.478 232.866C436.402 233.05 436.291 233.217 436.15 233.357C436.01 233.498 435.843 233.61 435.659 233.686C435.475 233.762 435.278 233.801 435.079 233.801Z" fill="white"/>
<path d="M490.821 108.072V121.298C490.821 121.7 490.662 122.085 490.378 122.369C490.094 122.653 489.708 122.813 489.307 122.813H472.83C472.428 122.813 472.043 122.653 471.759 122.369C471.475 122.085 471.315 121.7 471.315 121.298V109.153C471.315 92.2415 469.579 85.7394 466.762 85.7394C464.591 85.7394 462.855 90.2928 462.855 97.0168C462.855 135.817 491.255 163.137 491.255 204.321C491.255 220.585 483.673 234.892 467.196 234.892C452.667 234.892 442.692 226.653 442.692 194.78V183.724C442.692 183.322 442.852 182.937 443.136 182.653C443.42 182.369 443.805 182.21 444.207 182.21H460.694C461.095 182.21 461.481 182.369 461.765 182.653C462.049 182.937 462.208 183.322 462.208 183.724V193.699C462.208 210.61 463.945 217.112 466.762 217.112C469.579 217.112 470.621 211.257 470.621 205.411C470.621 169.852 442.22 143.187 442.22 98.0972C442.22 80.9738 451.982 67.96 466.289 67.96C480.846 67.96 490.821 76.1985 490.821 108.072Z" fill="white"/>
<path d="M545.451 108.072V121.298C545.449 121.699 545.289 122.083 545.005 122.366C544.722 122.65 544.338 122.81 543.937 122.813H527.45C527.049 122.81 526.666 122.65 526.382 122.366C526.099 122.083 525.938 121.699 525.936 121.298V109.153C525.936 92.2415 524.209 85.7394 521.382 85.7394C519.221 85.7394 517.523 90.2928 517.523 97.0168C517.523 135.817 545.924 163.137 545.924 204.321C545.924 220.585 538.332 234.892 521.807 234.892C507.336 234.892 497.313 226.653 497.313 194.78V183.724C497.313 183.322 497.472 182.937 497.757 182.653C498.041 182.369 498.426 182.21 498.828 182.21H515.314C515.513 182.21 515.71 182.249 515.894 182.325C516.078 182.401 516.245 182.513 516.385 182.653C516.526 182.794 516.637 182.961 516.714 183.145C516.79 183.328 516.829 183.525 516.829 183.724V193.699C516.829 210.61 518.556 217.112 521.373 217.112C524.19 217.112 525.231 211.257 525.231 205.411C525.231 169.852 496.831 143.187 496.831 98.0972C496.831 80.9738 506.584 67.96 520.9 67.96C535.477 67.96 545.451 76.1985 545.451 108.072Z" fill="white"/>
<path d="M241.243 266.765V260.976L235.021 250.085H240.346L242.748 255.13C242.968 255.586 243.165 256.053 243.337 256.529C243.51 257.012 243.684 257.561 243.867 258.179H243.202C243.366 257.561 243.53 257.012 243.684 256.529C243.839 256.052 244.022 255.585 244.234 255.13L246.482 250.085H251.788L245.748 260.976V266.765H241.243Z" fill="white"/>
<path d="M265.168 266.967C263.87 266.995 262.583 266.738 261.396 266.215C260.344 265.752 259.455 264.984 258.845 264.011C258.234 263.037 257.93 261.903 257.971 260.754V250.065H262.505V260.378C262.495 260.861 262.615 261.337 262.852 261.758C263.077 262.163 263.411 262.498 263.817 262.722C264.235 262.956 264.708 263.072 265.187 263.06C265.672 263.073 266.151 262.957 266.576 262.722C266.981 262.496 267.315 262.162 267.541 261.758C267.778 261.337 267.898 260.861 267.888 260.378V250.065H272.422V260.754C272.465 261.905 272.158 263.042 271.544 264.017C270.93 264.991 270.035 265.757 268.978 266.215C267.779 266.743 266.478 267 265.168 266.967Z" fill="white"/>
<path d="M283.006 266.765L278.578 250.066H283.623L284.974 256.52C285.147 257.34 285.302 258.227 285.437 259.201C285.572 260.176 285.707 261.131 285.832 262.095C285.958 263.06 286.093 263.948 286.228 264.777H285.331C285.495 263.948 285.639 263.06 285.784 262.095C285.929 261.131 286.073 260.166 286.228 259.201C286.382 258.237 286.546 257.34 286.739 256.52L288.215 250.046H292.749L294.235 256.52C294.418 257.34 294.592 258.227 294.746 259.201C294.9 260.176 295.045 261.131 295.19 262.095C295.335 263.06 295.479 263.948 295.634 264.777H294.727C294.871 263.948 295.007 263.06 295.132 262.095C295.257 261.131 295.392 260.166 295.527 259.201C295.663 258.237 295.817 257.34 295.981 256.52L297.331 250.046H302.396L297.968 266.745H292.846L291.186 259.944C290.885 258.692 290.659 257.423 290.511 256.143C290.337 254.783 290.135 253.471 289.894 252.217H291.08C290.793 253.509 290.583 254.817 290.453 256.134C290.322 257.417 290.106 258.69 289.807 259.944L288.138 266.745L283.006 266.765Z" fill="white"/>
<path d="M306.061 266.764L311.473 250.065H317.657L323.281 266.764H318.139L316.21 260.291C315.795 258.883 315.399 257.397 315.033 255.912C314.666 254.426 314.319 252.892 313.991 251.397H315.023C314.714 252.889 314.393 254.394 314.058 255.912C313.74 257.426 313.383 258.883 312.978 260.291L311.126 266.764H306.061ZM310.074 263.562V260.176H319.316V263.562H310.074Z" fill="white"/>
<path d="M329.464 266.765V250.066H336.68C337.801 250.04 338.914 250.271 339.931 250.741C340.83 251.159 341.588 251.829 342.112 252.671C342.652 253.594 342.923 254.65 342.893 255.719C342.927 256.782 342.649 257.832 342.092 258.739C341.558 259.573 340.78 260.224 339.864 260.601C338.804 261.042 337.664 261.255 336.516 261.228H332.214V257.716H335.6C336.068 257.727 336.534 257.659 336.979 257.514C337.335 257.401 337.644 257.174 337.857 256.867C338.075 256.525 338.18 256.124 338.156 255.719C338.177 255.309 338.072 254.902 337.857 254.552C337.643 254.242 337.335 254.009 336.979 253.886C336.535 253.737 336.068 253.666 335.6 253.674H334.008V266.746L329.464 266.765ZM338.494 266.765L334.413 259.096H339.237L343.433 266.765H338.494Z" fill="white"/>
<path d="M348.826 266.764L354.247 250.065H360.431L366.046 266.764H360.913L358.984 260.291C358.569 258.883 358.174 257.397 357.807 255.912C357.44 254.426 357.093 252.892 356.765 251.397H357.797C357.476 252.889 357.154 254.394 356.833 255.912C356.514 257.426 356.148 258.883 355.743 260.291L353.9 266.764H348.826ZM352.839 263.562V260.176H362.032V263.562H352.839Z" fill="white"/>
<path d="M377.728 266.987C376.095 267.096 374.479 266.594 373.194 265.578C372.65 265.064 372.225 264.436 371.95 263.739C371.675 263.042 371.556 262.294 371.603 261.546V260.504H376.137V261.633C376.098 262.128 376.246 262.621 376.551 263.012C376.869 263.309 377.288 263.475 377.724 263.475C378.159 263.475 378.578 263.309 378.896 263.012C379.192 262.609 379.332 262.112 379.291 261.614V250.037H383.758V261.488C383.805 262.236 383.69 262.986 383.42 263.685C383.151 264.385 382.733 265.017 382.195 265.54C380.942 266.568 379.346 267.084 377.728 266.987Z" fill="white"/>
<path d="M389.498 266.764L394.91 250.065H401.094L406.718 266.764H401.576L399.647 260.291C399.232 258.883 398.836 257.397 398.47 255.912C398.103 254.426 397.756 252.892 397.428 251.397H398.422C398.113 252.889 397.791 254.394 397.457 255.912C397.138 257.426 396.772 258.883 396.376 260.291L394.563 266.764H389.498ZM393.511 263.562V260.176H402.705V263.562H393.511Z" fill="white"/>
<path d="M306.38 287.578C306.38 294.146 302.173 298.094 301.657 306.95H306.011V309.533H298.889V308.648C298.889 298.057 303.649 294.035 303.649 287.762C303.649 285.032 303.17 283.703 302.579 283.703C301.915 283.703 301.472 284.995 301.472 288.316V290.64H298.889V288.131C298.889 283.261 300.181 281.305 302.69 281.305C305.015 281.305 306.38 283.224 306.38 287.578ZM307.397 295.511C307.397 283.261 308.91 281.305 311.603 281.305C314.334 281.305 315.81 283.261 315.81 295.511C315.81 307.799 314.334 309.718 311.603 309.718C308.91 309.718 307.397 307.799 307.397 295.511ZM312.858 295.511C312.858 285.585 312.489 283.703 311.603 283.703C310.792 283.703 310.349 285.585 310.349 295.511C310.349 305.437 310.792 307.356 311.603 307.356C312.489 307.356 312.858 305.437 312.858 295.511ZM324.505 287.578C324.505 294.146 320.299 298.094 319.782 306.95H324.136V309.533H317.015V308.648C317.015 298.057 321.775 294.035 321.775 287.762C321.775 285.032 321.295 283.703 320.705 283.703C320.041 283.703 319.598 284.995 319.598 288.316V290.64H317.015V288.131C317.015 283.261 318.306 281.305 320.815 281.305C323.14 281.305 324.505 283.224 324.505 287.578ZM331.378 309.533H328.647L328.684 303.888H324.035V302.227L327.245 281.489H331.378V301.452H332.891V303.888H331.378V309.533ZM326.433 301.452H328.721L328.869 284.109L326.433 301.452Z" fill="white"/>
<path d="M310.547 751.781C309.225 751.309 308.251 750.923 307.141 750.508L303.958 749.273L297.707 746.775C293.558 745.096 289.468 743.369 285.387 741.623C277.232 738.118 269.155 734.484 261.154 730.722C245.15 723.178 229.396 715.103 213.951 706.334C206.234 701.974 198.603 697.372 191.068 692.616C183.534 687.86 176.106 682.844 168.822 677.605C161.539 672.367 154.4 666.849 147.483 660.984C144.001 658.09 140.634 655.003 137.267 651.944L132.328 647.227C130.669 645.635 129.154 644.044 127.562 642.404C102.831 616.976 81.8348 588.165 65.2038 556.834C56.9477 541.369 49.8536 525.311 43.9804 508.792C38.15 492.368 33.7633 475.467 30.8701 458.281L38.1633 456.66C47.3472 489.18 62.522 519.607 81.2758 547.187C99.8951 574.604 122.306 599.243 147.84 620.37C149.442 621.633 151.014 623.003 152.615 624.171L157.391 627.769C160.69 630.075 163.931 632.409 167.337 634.589C174.09 639.008 181.055 643.169 188.232 647.073C202.673 654.913 217.525 661.972 232.724 668.219C247.976 674.547 263.546 680.258 279.29 685.429C287.162 688.002 295.07 690.449 303.012 692.771C306.977 693.919 310.952 695.038 314.907 696.099L320.821 697.652L323.715 698.385C324.68 698.617 325.702 698.877 326.426 699.032L310.547 751.781Z" fill="#271B4C"/>
<path d="M313.393 740.205C312.428 739.819 311.705 739.482 310.875 739.125L308.463 738.083L303.707 735.98L294.234 731.735C287.983 728.841 281.77 725.947 275.596 723.053C263.248 717.158 251.006 711.11 238.937 704.723C226.869 698.337 214.955 691.748 203.243 684.745C191.532 677.741 180.09 670.38 169.035 662.383C166.285 660.376 163.517 658.399 160.835 656.296L156.783 653.17L152.799 649.957C150.117 647.864 147.58 645.568 144.975 643.368C143.682 642.259 142.448 641.073 141.184 639.934C139.92 638.796 138.627 637.657 137.441 636.442C127.763 626.958 118.607 616.955 110.014 606.478C92.9553 585.582 77.9098 563.121 65.0786 539.393L66.5739 538.592C69.6995 544.516 72.9216 550.4 76.4717 556.092C78.1889 558.986 80.0604 561.745 81.8548 564.572C82.8195 565.971 83.7842 567.34 84.691 568.72C85.5978 570.099 86.6204 571.489 87.5851 572.839C91.4439 578.328 95.5535 583.605 99.7596 588.815C103.966 594.024 108.355 599.06 112.947 603.922C122.03 613.696 131.746 622.861 142.033 631.358C152.202 639.851 163.01 647.55 174.36 654.385C177.167 656.141 180.061 657.771 182.917 659.44C185.772 661.109 188.705 662.672 191.647 664.264C197.513 667.383 203.449 670.351 209.456 673.168C221.457 678.85 233.737 683.944 246.172 688.603C258.607 693.263 271.255 697.459 283.95 701.144C290.317 703.016 296.713 704.752 303.138 706.354C306.341 707.145 309.544 707.955 312.785 708.65L317.609 709.701L319.991 710.184C320.773 710.338 321.612 710.502 322.287 710.608L313.393 740.205Z" fill="white"/>
<path d="M318.573 681.277C308.039 678.277 297.234 674.901 286.352 671.206C219.73 648.159 188.474 628.759 168.736 614.482C142.349 593.915 119.253 569.446 100.242 541.917C81.1059 514.507 66.6512 484.111 57.4672 451.968L57.2743 451.283C53.9344 436.309 52.2394 421.014 52.2192 405.672V87.6389C52.2192 71.3281 58.6986 55.6854 70.2321 44.152C81.7655 32.6186 97.4082 26.1392 113.719 26.1392H521.064C537.375 26.1392 553.018 32.6186 564.551 44.152C576.084 55.6854 582.564 71.3281 582.564 87.6389V405.083C582.559 421.963 580.67 438.788 576.93 455.248C560.53 513.545 524.836 567.896 476.196 608.365C450.872 629.087 420.185 643.587 396.241 653.919C370.938 664.624 345 673.761 318.573 681.277Z" stroke="white" stroke-width="4.82351" stroke-miterlimit="10"/>
<mask id="mask0_545_2074" style="mask-type:luminance" maskUnits="userSpaceOnUse" x="0" y="7" width="635" height="675">
<path d="M0 7.28027V527.978L210.893 642.835L214.077 641.649C232.146 650.62 255.443 660.518 286.352 671.207C297.234 674.902 308.039 678.278 318.573 681.279C344.999 673.781 370.937 664.663 396.241 653.978C420.185 643.646 450.873 629.146 476.196 608.424C506.932 582.838 532.582 551.7 551.809 516.633L634.774 515.504V7.28027H0Z" fill="white"/>
</mask>
<g mask="url(#mask0_545_2074)">
<path d="M256.678 660.315C311.435 619.344 306.399 570.231 323.05 455.045C323.204 453.994 323.358 452.923 323.522 451.843C324.166 447.643 324.921 443.292 325.789 438.79C328.64 423.605 332.299 408.583 336.748 393.787C337.376 391.742 338.003 389.725 338.678 387.738C347.659 359.984 358.396 338.538 369.635 322.052C372.23 318.193 374.864 314.662 377.497 311.343C391.775 293.4 406.361 282.595 418.806 276.093C427.419 271.453 436.748 268.286 446.406 266.726H446.503C448.229 266.475 449.57 266.359 450.487 266.302C451.403 266.244 451.876 266.253 451.876 266.253C460.722 234.023 501.79 220.613 501.79 220.613L499.223 251.416C510.057 237.727 530.026 238.296 530.026 238.296C530.026 238.296 524.315 250.278 522.608 261.121C521.016 271.222 509.99 274.878 508.514 275.331H508.388L508.977 275.63L510.125 276.219C521.46 282.2 536.895 292.078 543.185 296.178L545.925 297.963L546.031 298.04C546.938 301.137 547.96 304.07 548.992 306.867C548.992 306.867 548.992 306.954 548.992 307.002C567.264 354.639 607.936 360.128 610.155 360.389H610.251C610.251 360.389 610.347 360.823 610.55 361.633C612.789 370.665 615.728 379.509 619.338 388.085L619.715 388.973C621.67 393.477 621.785 398.567 620.033 403.154C619.335 405.032 618.408 406.818 617.274 408.47C612.576 415.319 604.087 417.982 596.157 420.21C588.815 422.274 581.049 431.14 581.049 431.14C580.953 430.571 558.63 413.968 552.282 409.367C537.812 398.832 517.148 393.932 517.148 393.932C500.892 405.344 483.209 401.07 483.209 401.07C482.698 401.813 482.245 402.556 481.733 403.289C479.931 406.057 478.344 408.96 476.987 411.972C467.041 434.16 479.061 448.042 495.152 463.419C504.066 471.947 512.257 474.465 528.743 497.309C528.743 497.309 578.483 555.316 564.592 630.438L320.812 701.594L256.678 660.315Z" fill="url(#paint28_linear_545_2074)"/>
<path opacity="0.7" d="M511.582 310.388L532.873 319.138C532.873 319.138 551.887 357.929 577.365 365.916C577.365 365.916 575.84 375.042 581.928 381.12C581.928 381.12 588.015 361.73 601.704 375.042C615.393 388.355 581.011 427.802 581.011 427.802C581.011 427.802 587.359 421.618 596.003 420.007C604.357 418.444 627.182 410.785 619.58 388.732C611.978 366.678 610.068 360.205 610.068 360.205C610.068 360.205 563.299 356.028 545.8 297.847L508.176 275.119C508.176 275.119 545.423 301.262 511.582 310.388Z" fill="url(#paint29_linear_545_2074)"/>
<path d="M581.714 380.744C581.714 380.744 576.206 361.537 599.397 371.994C599.417 371.994 584.608 372.564 581.714 380.744Z" fill="#E08282"/>
<path opacity="0.7" d="M507.78 309.858C507.78 309.858 506.719 335.963 533.827 344.713L531.966 319.756L507.78 309.858Z" fill="url(#paint30_linear_545_2074)"/>
<path opacity="0.5" d="M507.587 309.338C507.587 309.338 528.029 307.235 534.956 317.229C540.098 324.657 553.411 349.064 553.411 349.064L531.927 324.542C531.927 324.542 514.996 330.445 507.587 309.338Z" fill="#C65252"/>
<path d="M488.9 270.7C488.9 270.7 508.435 246.033 520.735 244.181C520.706 244.181 518.42 279.113 488.9 270.7Z" fill="url(#paint31_linear_545_2074)"/>
<path d="M459.246 279.402C459.246 279.402 466.231 249.024 493.609 237.621C493.609 237.621 491.901 264.285 481.068 269.707C481.058 269.707 471.363 268.993 459.246 279.402Z" fill="url(#paint32_linear_545_2074)"/>
<path opacity="0.7" d="M516.993 393.768C516.993 393.768 532.544 388.211 547.227 369.949C549.871 374.771 553.617 378.9 558.161 381.998C562.704 385.096 567.916 387.076 573.37 387.777C573.37 387.777 576.496 399.353 581.088 431.188C581.059 431.179 563.087 406.338 516.993 393.768Z" fill="url(#paint33_linear_545_2074)"/>
<path d="M486.518 401.426C466.395 399.121 431.154 402.323 435.138 335.585C435.138 335.585 439.701 403.182 532.824 384.351C532.824 384.351 522.318 391.577 516.993 393.767C508.09 399.909 497.268 402.629 486.518 401.426Z" fill="url(#paint34_linear_545_2074)"/>
<path d="M482.977 401.069C482.977 401.069 431.491 401.986 435.138 335.585C435.138 335.585 413.181 402.613 477.064 412.019L482.977 401.069Z" fill="url(#paint35_linear_545_2074)"/>
<path d="M451.316 265.626C451.316 265.626 392.778 266.34 378.964 299.806C378.964 299.806 331.134 325.997 332.726 359.81C332.726 359.81 293.8 387.343 312.312 424.445C330.825 461.548 325.963 473.346 325.963 473.346C325.963 473.346 335.716 454.283 337.067 442.389C338.649 429.085 339.575 409.454 342.344 403.405C342.344 403.405 362.602 436.813 357.634 453.791C357.634 453.791 376.677 439.553 376.349 416.544C376.002 392.427 372.394 368.415 376.253 356.907C376.253 356.907 394.688 386.918 393.289 401.148C393.289 401.148 414.513 382.818 418.912 295.088C418.912 295.108 430.884 281.602 451.316 265.626Z" fill="url(#paint36_linear_545_2074)"/>
<path d="M325.943 473.395C325.943 473.395 328.76 456.272 307.942 425.903C287.124 395.534 324.988 364.799 332.706 359.812L342.247 404.632C342.247 404.632 346.472 440.924 325.943 473.395Z" fill="url(#paint37_linear_545_2074)"/>
<path opacity="0.7" d="M332.648 359.743C332.648 359.743 289.236 388.954 305.386 421.638C305.386 421.638 296.385 390.912 334.712 367.026L332.648 359.743Z" fill="url(#paint38_linear_545_2074)"/>
<path d="M357.634 453.792C357.634 453.792 361.618 437.15 342.199 404.592C322.779 372.033 325.104 330.898 377.864 298.002L376.089 358.46C376.089 358.46 392.99 429.201 357.634 453.792Z" fill="url(#paint39_linear_545_2074)"/>
<path opacity="0.7" d="M377.391 298.388C377.391 298.388 323.174 327.908 331.857 377.021C331.857 377.021 329.667 333.908 372.287 309.897L377.391 298.388Z" fill="url(#paint40_linear_545_2074)"/>
<path d="M392.518 402.585C392.518 402.585 394.187 391.771 376.118 358.498C358.049 325.226 372.77 261.314 451.365 265.627C451.365 265.627 419.414 270.45 418.96 295.089C418.507 319.727 418.102 380.889 392.518 402.585Z" fill="url(#paint41_linear_545_2074)"/>
<path opacity="0.7" d="M450.736 265.723L451.315 265.627C449.683 265.48 448.043 265.426 446.405 265.463C430.178 264.652 377.052 267.932 369.595 321.763C369.595 321.763 382.069 277.28 433.343 267.575C414.656 273.238 407.585 289.85 409.997 304.668C420.609 369.988 392.517 402.585 392.517 402.585C418.785 380.002 418.216 319.891 418.911 295.108C419.547 272.756 445.353 266.755 450.447 265.791H451.074L450.736 265.723Z" fill="url(#paint42_linear_545_2074)"/>
<path d="M540.473 329.594C540.473 329.594 530.923 295.762 502.252 311.583C502.252 311.583 505.657 312.095 510.105 318.413C514.446 324.588 522.106 332.585 531.907 324.279C532.515 323.748 534.444 322.706 540.473 329.594Z" fill="url(#paint43_linear_545_2074)"/>
<path d="M537.213 318.656C537.213 318.656 535.216 292.05 494.101 307.36C494.101 307.36 517.08 299.092 537.213 318.656Z" fill="url(#paint44_linear_545_2074)"/>
<path opacity="0.5" d="M507.78 312.598C507.78 312.598 522.135 332.018 532.023 321.474C530.007 311.576 514.185 307.408 507.78 312.598Z" fill="#C65252"/>
<mask id="mask1_545_2074" style="mask-type:luminance" maskUnits="userSpaceOnUse" x="256" y="220" width="366" height="482">
<path d="M256.678 660.315C311.435 619.344 306.399 570.231 323.05 455.045C323.204 453.994 323.358 452.923 323.522 451.843C324.166 447.643 324.921 443.292 325.789 438.79C328.64 423.605 332.299 408.583 336.748 393.787C337.376 391.742 338.003 389.725 338.678 387.738C347.659 359.984 358.396 338.538 369.635 322.052C372.23 318.193 374.864 314.662 377.497 311.343C391.775 293.4 406.361 282.595 418.806 276.093C427.419 271.453 436.748 268.286 446.406 266.726H446.503C448.229 266.475 449.57 266.359 450.487 266.302C451.403 266.244 451.876 266.253 451.876 266.253C460.722 234.023 501.79 220.613 501.79 220.613L499.223 251.416C510.057 237.727 530.026 238.296 530.026 238.296C530.026 238.296 524.315 250.278 522.608 261.121C521.016 271.222 509.99 274.878 508.514 275.331H508.388L508.977 275.63L510.125 276.219C521.46 282.2 536.895 292.078 543.185 296.178L545.925 297.963L546.031 298.04C546.938 301.137 547.96 304.07 548.992 306.867C548.992 306.867 548.992 306.954 548.992 307.002C567.264 354.639 607.936 360.128 610.155 360.389H610.251C610.251 360.389 610.347 360.823 610.55 361.633C612.789 370.665 615.728 379.509 619.338 388.085L619.715 388.973C621.67 393.477 621.785 398.567 620.033 403.154C619.335 405.032 618.408 406.818 617.274 408.47C612.576 415.319 604.087 417.982 596.157 420.21C588.815 422.274 581.049 431.14 581.049 431.14C580.953 430.571 558.63 413.968 552.282 409.367C537.812 398.832 517.148 393.932 517.148 393.932C500.892 405.344 483.209 401.07 483.209 401.07C482.698 401.813 482.245 402.556 481.733 403.289C479.931 406.057 478.344 408.96 476.987 411.972C467.041 434.16 479.061 448.042 495.152 463.419C504.066 471.947 512.257 474.465 528.743 497.309C528.743 497.309 578.483 555.316 564.592 630.438L320.812 701.594L256.678 660.315Z" fill="white"/>
</mask>
<g mask="url(#mask1_545_2074)">
<path style="mix-blend-mode:multiply" opacity="0.35" d="M390.811 455.113C390.811 455.113 459.247 571.378 417.06 608.635C355.387 663.064 310.374 712.292 310.374 712.292L235.976 660.845L309.081 481.854L390.811 455.113Z" fill="url(#paint45_linear_545_2074)"/>
<path style="mix-blend-mode:multiply" opacity="0.35" d="M390.811 455.113C390.811 455.113 434.83 591.328 382.505 614.587C307.335 647.985 245.43 695.063 245.43 695.063L177.506 599.268L358.696 472.487L390.811 455.113Z" fill="url(#paint46_linear_545_2074)"/>
</g>
<path d="M102.258 270.026C102.258 270.026 64.4999 238.837 40.8165 157.339C40.8165 157.339 -55.6536 303.009 84.585 392.244L140.846 370.191L102.258 270.026Z" fill="url(#paint47_linear_545_2074)"/>
<path d="M102.259 270.026C102.259 270.026 64.5006 238.837 40.8172 157.339C40.8172 157.339 -3.69413 291.538 129.907 375.294L140.847 370.191L102.259 270.026Z" fill="url(#paint48_linear_545_2074)"/>
<path d="M94.6762 399.054C94.6762 399.054 49.4028 389.127 7.71807 336.088C7.71807 336.088 -17.5957 456.676 110.854 473.191L210.305 471.107L94.6762 399.054Z" fill="url(#paint49_linear_545_2074)"/>
<path d="M94.6764 399.054C94.6764 399.054 49.403 389.127 7.71826 336.088C7.71826 336.088 8.08484 428.805 152.288 460.39L210.306 471.107L94.6764 399.054Z" fill="url(#paint50_linear_545_2074)"/>
<path d="M111.48 480.398C111.48 480.398 62.628 475.786 21.9272 446.064C21.9272 446.064 41.8484 560.265 154.728 540.817L201.998 526.819L111.48 480.398Z" fill="url(#paint51_linear_545_2074)"/>
<path d="M111.48 480.398C111.48 480.398 62.628 475.786 21.9272 446.064C21.9272 446.064 55.0165 519.053 156.021 524.021L202.018 526.819L111.48 480.398Z" fill="url(#paint52_linear_545_2074)"/>
<path d="M162.939 544.001C162.939 544.001 112.166 558.742 70.3755 538.908C70.3755 538.908 122.469 642.748 226.233 588.001C329.996 533.255 239.449 561.723 239.449 561.723L162.939 544.001Z" fill="url(#paint53_linear_545_2074)"/>
<path d="M162.939 544.001C162.939 544.001 112.166 558.742 70.3755 538.908C70.3755 538.908 138.059 613.585 228.008 561.626C329.456 503.03 232.687 550.851 232.687 550.851L162.939 544.001Z" fill="url(#paint54_linear_545_2074)"/>
<path d="M231.528 592.564C231.528 592.564 198.825 613.517 154.41 623.675C154.41 623.675 238.223 668.437 295.574 610.661C352.926 552.885 295.449 587.046 295.449 587.046L231.528 592.564Z" fill="url(#paint55_linear_545_2074)"/>
<path d="M231.528 592.565C231.528 592.565 198.825 613.518 154.41 623.676C154.41 623.676 241.021 648.469 294.098 587.143C347.176 525.817 288.223 579.879 288.223 579.879L231.528 592.565Z" fill="url(#paint56_linear_545_2074)"/>
<path d="M299.695 609.099C299.695 609.099 275.114 634.354 249.318 656.311C249.318 656.311 409.622 656.707 374.025 523.665L299.695 609.099Z" fill="url(#paint57_linear_545_2074)"/>
<path d="M299.695 609.099C299.695 609.099 275.114 634.354 249.318 656.311C249.318 656.311 385.553 625.084 374.025 523.665L299.695 609.099Z" fill="url(#paint58_linear_545_2074)"/>
<path d="M245.275 356.791C245.275 356.791 143.287 308.893 116.497 200.76C116.497 200.76 -6.98496 392.33 275.007 423.278L245.275 356.791Z" fill="url(#paint59_linear_545_2074)"/>
<path d="M245.275 356.791C245.275 356.791 143.287 308.893 116.497 200.76C116.497 200.76 79.491 370.904 274.091 395.629L245.275 356.791Z" fill="url(#paint60_linear_545_2074)"/>
<path d="M274.679 419.93C274.679 419.93 133.611 408.074 79.5005 326.702C79.5005 326.702 33.1948 512.667 286.718 457.206L274.679 419.93Z" fill="url(#paint61_linear_545_2074)"/>
<path d="M274.679 419.93C274.679 419.93 133.611 408.074 79.501 326.702C79.501 326.702 86.7169 465.918 281.336 438.887L274.679 419.93Z" fill="url(#paint62_linear_545_2074)"/>
<path d="M287.375 455.489C287.375 455.489 167.936 492.089 89.1001 436.764C89.1001 436.764 102.558 595.168 321.419 496.392L287.375 455.489Z" fill="url(#paint63_linear_545_2074)"/>
<path d="M287.375 455.489C287.375 455.489 167.936 492.089 89.1001 436.764C89.1001 436.764 146.751 552.701 300.534 472.004L287.375 455.489Z" fill="url(#paint64_linear_545_2074)"/>
<path d="M309.081 481.825C309.081 481.825 235.966 543.566 130.543 524.735C130.543 524.735 205.375 648.979 330.999 508.953L309.081 481.825Z" fill="url(#paint65_linear_545_2074)"/>
<path d="M309.081 481.825C309.081 481.825 235.966 543.566 130.543 524.735C130.543 524.735 211.955 608.77 318.13 496.759L309.081 481.825Z" fill="url(#paint66_linear_545_2074)"/>
<path d="M327.767 505.779C327.767 505.779 297.446 558.24 199.008 585.531C199.008 585.531 304.98 659.813 358.357 520.259L327.767 505.779Z" fill="url(#paint67_linear_545_2074)"/>
<path d="M327.767 505.779C327.767 505.779 297.446 558.24 199.008 585.531C199.008 585.531 290.838 621.399 343.424 514.674L327.767 505.779Z" fill="url(#paint68_linear_545_2074)"/>
<path d="M356.523 519.285C356.523 519.285 336.593 579.28 278.209 614.202C278.209 614.202 402.655 628.209 380.728 528.073L356.523 519.285Z" fill="url(#paint69_linear_545_2074)"/>
<path d="M356.523 519.285C356.523 519.285 336.593 579.28 278.209 614.202C278.209 614.202 378.538 607.391 371.312 522.555L356.523 519.285Z" fill="url(#paint70_linear_545_2074)"/>
<path d="M385.495 539.177C385.495 539.177 266.489 512.233 265.033 402.932L225.046 345.05L300.486 388.51C300.486 388.51 293.733 467.133 390.319 455.075C390.319 455.113 416.877 531.402 385.495 539.177Z" fill="url(#paint71_linear_545_2074)"/>
<path d="M225.046 345.089L300.486 388.549C300.486 388.549 294.061 466.921 390.319 455.113C390.319 455.113 416.462 533.524 385.495 539.158C385.495 539.158 409.371 527.774 380.855 475.082C380.855 475.082 298.759 477.243 289.883 395.514L225.046 345.089Z" fill="url(#paint72_linear_545_2074)"/>
<path d="M385.977 539.177C385.977 539.177 266.981 512.233 265.524 402.932L225.537 345.05L300.977 388.462C300.977 388.462 294.224 467.095 390.81 455.026C390.81 455.113 417.368 531.402 385.977 539.177Z" fill="url(#paint73_linear_545_2074)"/>
</g>
<path d="M561.697 496.849C541.896 539.963 512.679 578.088 476.196 608.417C450.872 629.139 420.185 643.638 396.241 653.97C370.937 664.659 344.998 673.78 318.573 681.281C308.039 678.281 297.234 674.904 286.352 671.21C264.852 663.917 243.748 655.506 223.125 646.012" stroke="white" stroke-width="4.82351" stroke-miterlimit="10"/>
<path d="M310.546 699.032C311.27 698.887 312.321 698.617 313.238 698.395L316.132 697.662L322.007 696.119C325.933 695.067 329.879 693.948 333.815 692.819C341.693 690.523 349.546 688.095 357.373 685.536C373.02 680.413 388.485 674.741 403.679 668.48C418.779 662.288 433.543 655.306 447.91 647.565C455.059 643.706 461.966 639.568 468.709 635.236C470.378 634.127 472.076 633.046 473.726 631.927L478.617 628.493C480.257 627.355 481.791 626.129 483.392 624.943C484.183 624.345 484.984 623.776 485.765 623.148L488.138 621.219C513.603 600.427 535.869 575.999 554.22 548.722C572.714 521.286 587.425 490.907 596.551 458.58L603.845 460.201C598.211 494.226 586.547 527.392 570.36 558.321C554.003 589.59 533.124 618.277 508.397 643.456L506.053 645.829L503.573 648.192C501.924 649.755 500.322 651.385 498.644 652.89L493.608 657.444C491.91 658.929 490.183 660.338 488.466 661.833C481.559 667.621 474.488 673.11 467.243 678.233C452.8 688.495 437.827 697.988 422.384 706.672C407.052 715.368 391.424 723.436 375.5 730.877C367.551 734.613 359.531 738.221 351.44 741.701C347.379 743.427 343.317 745.145 339.198 746.804L332.985 749.293L329.831 750.518C328.731 750.933 327.757 751.309 326.445 751.782L310.546 699.032Z" fill="#271B4C"/>
<path d="M314.041 710.608C314.716 710.502 315.555 710.338 316.327 710.184L318.719 709.701L323.543 708.65C326.765 707.955 329.958 707.145 333.19 706.354C339.621 704.752 346.017 703.016 352.378 701.144C365.099 697.414 377.692 693.234 390.155 688.603C402.59 683.944 414.871 678.85 426.872 673.168C432.892 670.358 438.828 667.39 444.68 664.264C447.575 662.711 450.469 661.09 453.363 659.44C456.257 657.791 459.151 656.141 461.929 654.385C473.278 647.547 484.085 639.849 494.256 631.358C504.543 622.861 514.26 613.696 523.342 603.922C527.934 599.098 532.285 593.985 536.53 588.815C540.774 583.644 544.865 578.328 548.704 572.839C549.669 571.489 550.634 570.109 551.598 568.72C552.563 567.331 553.528 565.971 554.425 564.572C556.219 561.745 558.1 558.967 559.818 556.092C563.368 550.4 566.57 544.516 569.706 538.592L571.211 539.393C558.38 563.123 543.331 585.585 526.265 606.478C517.675 616.958 508.519 626.961 498.839 636.442C497.652 637.657 496.35 638.767 495.105 639.934C493.861 641.101 492.607 642.259 491.314 643.368C488.709 645.568 486.172 647.864 483.49 649.957L479.458 653.16L475.416 656.286C472.734 658.389 469.965 660.367 467.206 662.373C456.189 670.38 444.729 677.712 433.036 684.735C421.344 691.758 409.45 698.385 397.343 704.714C385.236 711.042 373.042 717.139 360.684 723.043C354.51 725.995 348.297 728.831 342.046 731.726L332.65 735.98L327.884 738.093L325.472 739.134C324.652 739.491 323.89 739.829 322.954 740.215L314.041 710.608Z" fill="white"/>
<path d="M318.497 763.724C346.911 763.724 369.944 740.691 369.944 712.277C369.944 683.863 346.911 660.829 318.497 660.829C290.083 660.829 267.049 683.863 267.049 712.277C267.049 740.691 290.083 763.724 318.497 763.724Z" fill="#F6AC94" stroke="white" stroke-width="9.64701" stroke-miterlimit="10"/>
<path d="M318.496 755.428C342.327 755.428 361.647 736.109 361.647 712.277C361.647 688.445 342.327 669.126 318.496 669.126C294.664 669.126 275.345 688.445 275.345 712.277C275.345 736.109 294.664 755.428 318.496 755.428Z" fill="url(#paint74_radial_545_2074)"/>
<path d="M295.006 711.929L287.78 691.487H294.707L299.135 704.993H299.25L303.794 691.487H310.017L302.781 711.929L310.373 733.326H303.437L298.614 718.74H298.498L293.597 733.326H287.375L295.006 711.929Z" fill="#271B4C"/>
<path d="M313.238 691.487H319.875L324.139 723.94H324.255L328.558 691.487H334.597L328.259 733.326H319.576L313.238 691.487Z" fill="#271B4C"/>
<path d="M339.295 691.487H345.874V733.326H339.295V691.487Z" fill="#271B4C"/>
<defs>
<linearGradient id="paint0_linear_545_2074" x1="317.387" y1="819.395" x2="317.387" y2="-242.761" gradientUnits="userSpaceOnUse">
<stop stop-color="#5A3079"/>
<stop offset="0.48" stop-color="#AE1C71"/>
<stop offset="1" stop-color="#FFBE98"/>
</linearGradient>
<radialGradient id="paint1_radial_545_2074" cx="0" cy="0" r="1" gradientUnits="userSpaceOnUse" gradientTransform="translate(317.387 678.055) scale(496.87 496.869)">
<stop offset="0.06" stop-color="#D84784"/>
<stop offset="1" stop-color="#5A3079"/>
</radialGradient>
<linearGradient id="paint2_linear_545_2074" x1="80.3571" y1="395.837" x2="27.4009" y2="81.2147" gradientUnits="userSpaceOnUse">
<stop stop-color="#C28832"/>
<stop offset="1" stop-color="#C6C1C1"/>
</linearGradient>
<linearGradient id="paint3_linear_545_2074" x1="95.4582" y1="381.924" x2="62.9558" y2="188.821" gradientUnits="userSpaceOnUse">
<stop stop-color="#C28832"/>
<stop offset="1" stop-color="#C6C1C1"/>
</linearGradient>
<linearGradient id="paint4_linear_545_2074" x1="99.709" y1="469.631" x2="74.3477" y2="318.955" gradientUnits="userSpaceOnUse">
<stop stop-color="#C28832"/>
<stop offset="1" stop-color="#C6C1C1"/>
</linearGradient>
<linearGradient id="paint5_linear_545_2074" x1="106.098" y1="476.412" x2="80.7348" y2="325.728" gradientUnits="userSpaceOnUse">
<stop stop-color="#C28832"/>
<stop offset="1" stop-color="#C6C1C1"/>
</linearGradient>
<linearGradient id="paint6_linear_545_2074" x1="96.4232" y1="518.495" x2="78.9571" y2="414.725" gradientUnits="userSpaceOnUse">
<stop stop-color="#C28832"/>
<stop offset="1" stop-color="#C6C1C1"/>
</linearGradient>
<linearGradient id="paint7_linear_545_2074" x1="97.0974" y1="521.939" x2="79.8398" y2="419.408" gradientUnits="userSpaceOnUse">
<stop stop-color="#C28832"/>
<stop offset="1" stop-color="#C6C1C1"/>
</linearGradient>
<linearGradient id="paint8_linear_545_2074" x1="145.308" y1="562.209" x2="132.613" y2="486.786" gradientUnits="userSpaceOnUse">
<stop stop-color="#C28832"/>
<stop offset="1" stop-color="#C6C1C1"/>
</linearGradient>
<linearGradient id="paint9_linear_545_2074" x1="189.081" y1="545.919" x2="139.416" y2="506.753" gradientUnits="userSpaceOnUse">
<stop stop-color="#C28832"/>
<stop offset="1" stop-color="#C6C1C1"/>
</linearGradient>
<linearGradient id="paint10_linear_545_2074" x1="198.746" y1="605.773" x2="192.122" y2="566.417" gradientUnits="userSpaceOnUse">
<stop stop-color="#C28832"/>
<stop offset="1" stop-color="#C6C1C1"/>
</linearGradient>
<linearGradient id="paint11_linear_545_2074" x1="249.73" y1="578.54" x2="197.24" y2="558.744" gradientUnits="userSpaceOnUse">
<stop stop-color="#C28832"/>
<stop offset="1" stop-color="#C6C1C1"/>
</linearGradient>
<linearGradient id="paint12_linear_545_2074" x1="303.469" y1="579.192" x2="229.704" y2="549.534" gradientUnits="userSpaceOnUse">
<stop stop-color="#C28832"/>
<stop offset="1" stop-color="#C6C1C1"/>
</linearGradient>
<linearGradient id="paint13_linear_545_2074" x1="304.858" y1="570.635" x2="248.347" y2="565.88" gradientUnits="userSpaceOnUse">
<stop stop-color="#C28832"/>
<stop offset="1" stop-color="#C6C1C1"/>
</linearGradient>
<linearGradient id="paint14_linear_545_2074" x1="170.497" y1="206.653" x2="351.988" y2="425.509" gradientUnits="userSpaceOnUse">
<stop offset="0.35" stop-color="#C69476"/>
<stop offset="1" stop-color="#C6C1C1"/>
</linearGradient>
<linearGradient id="paint15_linear_545_2074" x1="199.743" y1="454.652" x2="167.92" y2="265.584" gradientUnits="userSpaceOnUse">
<stop stop-color="#C28832"/>
<stop offset="0.03" stop-color="#C69476"/>
<stop offset="1" stop-color="#C6C1C1"/>
</linearGradient>
<linearGradient id="paint16_linear_545_2074" x1="171.778" y1="332.644" x2="361.217" y2="385.246" gradientUnits="userSpaceOnUse">
<stop offset="0.35" stop-color="#C69476"/>
<stop offset="1" stop-color="#C6C1C1"/>
</linearGradient>
<linearGradient id="paint17_linear_545_2074" x1="175.804" y1="471.06" x2="153.545" y2="338.814" gradientUnits="userSpaceOnUse">
<stop stop-color="#C28832"/>
<stop offset="0.03" stop-color="#C69476"/>
<stop offset="1" stop-color="#C6C1C1"/>
</linearGradient>
<linearGradient id="paint18_linear_545_2074" x1="200.917" y1="415.013" x2="359.025" y2="401.135" gradientUnits="userSpaceOnUse">
<stop stop-color="#C28832"/>
<stop offset="1" stop-color="#C6C1C1"/>
</linearGradient>
<linearGradient id="paint19_linear_545_2074" x1="178.81" y1="509.467" x2="164.127" y2="422.233" gradientUnits="userSpaceOnUse">
<stop stop-color="#C28832"/>
<stop offset="1" stop-color="#C6C1C1"/>
</linearGradient>
<linearGradient id="paint20_linear_545_2074" x1="158.2" y1="478.064" x2="236.486" y2="554.747" gradientUnits="userSpaceOnUse">
<stop stop-color="#C28832"/>
<stop offset="1" stop-color="#C6C1C1"/>
</linearGradient>
<linearGradient id="paint21_linear_545_2074" x1="178.899" y1="487.043" x2="261.957" y2="568.403" gradientUnits="userSpaceOnUse">
<stop stop-color="#C28832"/>
<stop offset="1" stop-color="#C6C1C1"/>
</linearGradient>
<linearGradient id="paint22_linear_545_2074" x1="183.243" y1="510.229" x2="276.045" y2="580.448" gradientUnits="userSpaceOnUse">
<stop stop-color="#C28832"/>
<stop offset="1" stop-color="#C6C1C1"/>
</linearGradient>
<linearGradient id="paint23_linear_545_2074" x1="208.611" y1="521.322" x2="290.366" y2="590.407" gradientUnits="userSpaceOnUse">
<stop stop-color="#C28832"/>
<stop offset="1" stop-color="#C6C1C1"/>
</linearGradient>
<linearGradient id="paint24_linear_545_2074" x1="236.18" y1="536.293" x2="313.799" y2="585.409" gradientUnits="userSpaceOnUse">
<stop stop-color="#C28832"/>
<stop offset="1" stop-color="#C6C1C1"/>
</linearGradient>
<linearGradient id="paint25_linear_545_2074" x1="265.974" y1="549.181" x2="330.754" y2="577.769" gradientUnits="userSpaceOnUse">
<stop stop-color="#C28832"/>
<stop offset="1" stop-color="#C6C1C1"/>
</linearGradient>
<linearGradient id="paint26_linear_545_2074" x1="300.448" y1="537.613" x2="268.631" y2="348.585" gradientUnits="userSpaceOnUse">
<stop stop-color="#B14D43"/>
<stop offset="1" stop-color="#C3C4BD"/>
</linearGradient>
<linearGradient id="paint27_linear_545_2074" x1="249.567" y1="492.926" x2="307.861" y2="328.553" gradientUnits="userSpaceOnUse">
<stop stop-color="#B14D43"/>
<stop offset="0.51" stop-color="#C3C4BD"/>
</linearGradient>
<linearGradient id="paint28_linear_545_2074" x1="645.26" y1="337.448" x2="225.403" y2="651.719" gradientUnits="userSpaceOnUse">
<stop offset="0.09" stop-color="white"/>
<stop offset="0.24" stop-color="#FFFCFA"/>
<stop offset="0.41" stop-color="#FFF4ED"/>
<stop offset="0.58" stop-color="#FFE5D7"/>
<stop offset="0.76" stop-color="#FFD2B7"/>
<stop offset="0.91" stop-color="#FFBE98"/>
</linearGradient>
<linearGradient id="paint29_linear_545_2074" x1="446.541" y1="319.804" x2="650.624" y2="385.712" gradientUnits="userSpaceOnUse">
<stop stop-color="#FBB040"/>
<stop offset="0.84" stop-color="#FFF8F8"/>
</linearGradient>
<linearGradient id="paint30_linear_545_2074" x1="506.768" y1="325.283" x2="553.478" y2="331.95" gradientUnits="userSpaceOnUse">
<stop stop-color="#FBB040"/>
<stop offset="0.62" stop-color="#FBB040" stop-opacity="0"/>
</linearGradient>
<linearGradient id="paint31_linear_545_2074" x1="531.81" y1="248.088" x2="473.542" y2="275.861" gradientUnits="userSpaceOnUse">
<stop stop-color="white"/>
<stop offset="1" stop-color="#FFBE98"/>
</linearGradient>
<linearGradient id="paint32_linear_545_2074" x1="515.99" y1="236.878" x2="450.265" y2="274.82" gradientUnits="userSpaceOnUse">
<stop offset="0.08" stop-color="white"/>
<stop offset="1" stop-color="#FFBE98"/>
</linearGradient>
<linearGradient id="paint33_linear_545_2074" x1="524.836" y1="375.226" x2="583.49" y2="420.046" gradientUnits="userSpaceOnUse">
<stop stop-color="#FBB040"/>
<stop offset="0.73" stop-color="#FBB040" stop-opacity="0"/>
</linearGradient>
<linearGradient id="paint34_linear_545_2074" x1="422.269" y1="359.317" x2="526.283" y2="388.451" gradientUnits="userSpaceOnUse">
<stop stop-color="#EA6659"/>
<stop offset="1" stop-color="#FCFDF4"/>
</linearGradient>
<linearGradient id="paint35_linear_545_2074" x1="312.331" y1="346.207" x2="486.229" y2="379.634" gradientUnits="userSpaceOnUse">
<stop offset="0.27" stop-color="#FFBE98"/>
<stop offset="0.44" stop-color="#FFC09B"/>
<stop offset="0.58" stop-color="#FFC6A5"/>
<stop offset="0.71" stop-color="#FFD1B6"/>
<stop offset="0.83" stop-color="#FFDFCD"/>
<stop offset="0.94" stop-color="#FFF2EB"/>
<stop offset="1" stop-color="white"/>
</linearGradient>
<linearGradient id="paint36_linear_545_2074" x1="350.67" y1="387.819" x2="500.675" y2="268.096" gradientUnits="userSpaceOnUse">
<stop stop-color="#EA6659"/>
<stop offset="1" stop-color="#FCFDF4"/>
</linearGradient>
<linearGradient id="paint37_linear_545_2074" x1="300.979" y1="434.883" x2="357.5" y2="398.389" gradientUnits="userSpaceOnUse">
<stop stop-color="#EA6659"/>
<stop offset="1" stop-color="#FCFDF4"/>
</linearGradient>
<linearGradient id="paint38_linear_545_2074" x1="295.215" y1="406.072" x2="342.658" y2="375.438" gradientUnits="userSpaceOnUse">
<stop stop-color="#FBB040"/>
<stop offset="0.9" stop-color="#FFF8F8"/>
</linearGradient>
<linearGradient id="paint39_linear_545_2074" x1="300.529" y1="419.281" x2="404.443" y2="352.184" gradientUnits="userSpaceOnUse">
<stop offset="0.11" stop-color="#EA6659"/>
<stop offset="0.94" stop-color="#FCFDF4"/>
</linearGradient>
<linearGradient id="paint40_linear_545_2074" x1="320.538" y1="359.624" x2="388.494" y2="315.746" gradientUnits="userSpaceOnUse">
<stop stop-color="#FBB040"/>
<stop offset="0.9" stop-color="#FFF8F8"/>
</linearGradient>
<linearGradient id="paint41_linear_545_2074" x1="341.128" y1="389.514" x2="429.131" y2="307.333" gradientUnits="userSpaceOnUse">
<stop stop-color="#EA6659"/>
<stop offset="1" stop-color="#FCFDF4"/>
</linearGradient>
<linearGradient id="paint42_linear_545_2074" x1="340.295" y1="375.07" x2="444.201" y2="307.978" gradientUnits="userSpaceOnUse">
<stop stop-color="#FBB040"/>
<stop offset="0.9" stop-color="#FFF8F8"/>
</linearGradient>
<linearGradient id="paint43_linear_545_2074" x1="516.309" y1="325.63" x2="529.713" y2="312.226" gradientUnits="userSpaceOnUse">
<stop stop-color="#FBB040"/>
<stop offset="1" stop-color="#FFF8F8"/>
</linearGradient>
<linearGradient id="paint44_linear_545_2074" x1="496.097" y1="298.748" x2="534.413" y2="318.033" gradientUnits="userSpaceOnUse">
<stop stop-color="white"/>
<stop offset="0.55" stop-color="#FFBE98"/>
</linearGradient>
<linearGradient id="paint45_linear_545_2074" x1="470.688" y1="383.561" x2="250.64" y2="716.373" gradientUnits="userSpaceOnUse">
<stop stop-color="#FBB040"/>
<stop offset="0.73" stop-color="#FBB040" stop-opacity="0"/>
</linearGradient>
<linearGradient id="paint46_linear_545_2074" x1="506.502" y1="433.522" x2="186.98" y2="679.134" gradientUnits="userSpaceOnUse">
<stop stop-color="#FBB040"/>
<stop offset="0.73" stop-color="#FBB040" stop-opacity="0"/>
</linearGradient>
<linearGradient id="paint47_linear_545_2074" x1="57.6882" y1="360.916" x2="-37.5929" y2="-8.77473" gradientUnits="userSpaceOnUse">
<stop stop-color="#FBB040"/>
<stop offset="1" stop-color="#FFF8F8"/>
</linearGradient>
<linearGradient id="paint48_linear_545_2074" x1="72.0397" y1="343.364" x2="13.5587" y2="116.457" gradientUnits="userSpaceOnUse">
<stop stop-color="#FBB040"/>
<stop offset="1" stop-color="#FFF8F8"/>
</linearGradient>
<linearGradient id="paint49_linear_545_2074" x1="88.32" y1="446.906" x2="42.691" y2="269.866" gradientUnits="userSpaceOnUse">
<stop stop-color="#FBB040"/>
<stop offset="1" stop-color="#FFF8F8"/>
</linearGradient>
<linearGradient id="paint50_linear_545_2074" x1="96.0785" y1="454.473" x2="50.4473" y2="277.424" gradientUnits="userSpaceOnUse">
<stop stop-color="#FBB040"/>
<stop offset="1" stop-color="#FFF8F8"/>
</linearGradient>
<linearGradient id="paint51_linear_545_2074" x1="91.329" y1="504.997" x2="59.9043" y2="383.069" gradientUnits="userSpaceOnUse">
<stop stop-color="#FBB040"/>
<stop offset="1" stop-color="#FFF8F8"/>
</linearGradient>
<linearGradient id="paint52_linear_545_2074" x1="92.5155" y1="509.033" x2="61.4653" y2="388.559" gradientUnits="userSpaceOnUse">
<stop stop-color="#FBB040"/>
<stop offset="1" stop-color="#FFF8F8"/>
</linearGradient>
<linearGradient id="paint53_linear_545_2074" x1="149.643" y1="553.261" x2="126.803" y2="464.64" gradientUnits="userSpaceOnUse">
<stop stop-color="#FBB040"/>
<stop offset="1" stop-color="#FFF8F8"/>
</linearGradient>
<linearGradient id="paint54_linear_545_2074" x1="194.441" y1="530.849" x2="131.933" y2="494.933" gradientUnits="userSpaceOnUse">
<stop stop-color="#FBB040"/>
<stop offset="1" stop-color="#FFF8F8"/>
</linearGradient>
<linearGradient id="paint55_linear_545_2074" x1="212.813" y1="601.023" x2="200.896" y2="554.785" gradientUnits="userSpaceOnUse">
<stop stop-color="#FBB040"/>
<stop offset="1" stop-color="#FFF8F8"/>
</linearGradient>
<linearGradient id="paint56_linear_545_2074" x1="263.89" y1="565.144" x2="203.525" y2="551.625" gradientUnits="userSpaceOnUse">
<stop stop-color="#FBB040"/>
<stop offset="1" stop-color="#FFF8F8"/>
</linearGradient>
<linearGradient id="paint57_linear_545_2074" x1="320.162" y1="561.794" x2="229.923" y2="539.64" gradientUnits="userSpaceOnUse">
<stop stop-color="#FBB040"/>
<stop offset="1" stop-color="#FFF8F8"/>
</linearGradient>
<linearGradient id="paint58_linear_545_2074" x1="320.928" y1="551.13" x2="256.74" y2="553.472" gradientUnits="userSpaceOnUse">
<stop stop-color="#FBB040"/>
<stop offset="1" stop-color="#FFF8F8"/>
</linearGradient>
<linearGradient id="paint59_linear_545_2074" x1="57.9527" y1="233.481" x2="303.43" y2="454.9" gradientUnits="userSpaceOnUse">
<stop offset="0.35" stop-color="#FFBE98"/>
<stop offset="1" stop-color="#FFF8F8"/>
</linearGradient>
<linearGradient id="paint60_linear_545_2074" x1="193.673" y1="422.027" x2="136.414" y2="199.862" gradientUnits="userSpaceOnUse">
<stop stop-color="#FBB040"/>
<stop offset="0.03" stop-color="#FFBE98"/>
<stop offset="1" stop-color="#FFF8F8"/>
</linearGradient>
<linearGradient id="paint61_linear_545_2074" x1="76.2185" y1="383.002" x2="289.698" y2="412.09" gradientUnits="userSpaceOnUse">
<stop offset="0.35" stop-color="#FFBE98"/>
<stop offset="1" stop-color="#FFF8F8"/>
</linearGradient>
<linearGradient id="paint62_linear_545_2074" x1="170.177" y1="443.161" x2="130.127" y2="287.769" gradientUnits="userSpaceOnUse">
<stop stop-color="#FBB040"/>
<stop offset="0.03" stop-color="#FFBE98"/>
<stop offset="1" stop-color="#FFF8F8"/>
</linearGradient>
<linearGradient id="paint63_linear_545_2074" x1="118.653" y1="478.307" x2="286.679" y2="445.753" gradientUnits="userSpaceOnUse">
<stop stop-color="#FBB040"/>
<stop offset="1" stop-color="#FFF8F8"/>
</linearGradient>
<linearGradient id="paint64_linear_545_2074" x1="178.534" y1="488.413" x2="152.119" y2="385.923" gradientUnits="userSpaceOnUse">
<stop stop-color="#FBB040"/>
<stop offset="1" stop-color="#FFF8F8"/>
</linearGradient>
<linearGradient id="paint65_linear_545_2074" x1="152.221" y1="452.706" x2="254.231" y2="527.337" gradientUnits="userSpaceOnUse">
<stop stop-color="#FBB040"/>
<stop offset="1" stop-color="#FFF8F8"/>
</linearGradient>
<linearGradient id="paint66_linear_545_2074" x1="175.634" y1="461.862" x2="283.862" y2="541.041" gradientUnits="userSpaceOnUse">
<stop stop-color="#FBB040"/>
<stop offset="1" stop-color="#FFF8F8"/>
</linearGradient>
<linearGradient id="paint67_linear_545_2074" x1="183.402" y1="489.006" x2="299.471" y2="552.587" gradientUnits="userSpaceOnUse">
<stop stop-color="#FBB040"/>
<stop offset="1" stop-color="#FFF8F8"/>
</linearGradient>
<linearGradient id="paint68_linear_545_2074" x1="212.102" y1="500.324" x2="316.116" y2="564.948" gradientUnits="userSpaceOnUse">
<stop stop-color="#FBB040"/>
<stop offset="1" stop-color="#FFF8F8"/>
</linearGradient>
<linearGradient id="paint69_linear_545_2074" x1="243.686" y1="516.086" x2="338.281" y2="558.049" gradientUnits="userSpaceOnUse">
<stop stop-color="#FBB040"/>
<stop offset="1" stop-color="#FFF8F8"/>
</linearGradient>
<linearGradient id="paint70_linear_545_2074" x1="277.387" y1="529.206" x2="352.998" y2="550.351" gradientUnits="userSpaceOnUse">
<stop stop-color="#FBB040"/>
<stop offset="1" stop-color="#FFF8F8"/>
</linearGradient>
<linearGradient id="paint71_linear_545_2074" x1="312.835" y1="513.056" x2="255.59" y2="290.944" gradientUnits="userSpaceOnUse">
<stop stop-color="#EA6659"/>
<stop offset="1" stop-color="#FCFDF4"/>
</linearGradient>
<linearGradient id="paint72_linear_545_2074" x1="252.259" y1="463.771" x2="312.207" y2="270.991" gradientUnits="userSpaceOnUse">
<stop stop-color="#EA6659"/>
<stop offset="0.51" stop-color="#FCFDF4"/>
</linearGradient>
<linearGradient id="paint73_linear_545_2074" x1="262.837" y1="442.503" x2="437.249" y2="441.103" gradientUnits="userSpaceOnUse">
<stop offset="0.11" stop-color="#EA6659" stop-opacity="0"/>
<stop offset="0.24" stop-color="white" stop-opacity="0"/>
<stop offset="0.29" stop-color="#FFFEFE" stop-opacity="0.03"/>
<stop offset="0.38" stop-color="#FFFDFC" stop-opacity="0.13"/>
<stop offset="0.49" stop-color="#FFFAF8" stop-opacity="0.28"/>
<stop offset="0.61" stop-color="#FFF7F3" stop-opacity="0.5"/>
<stop offset="0.75" stop-color="#FFF3EC" stop-opacity="0.77"/>
<stop offset="0.86" stop-color="#FFEFE6"/>
</linearGradient>
<radialGradient id="paint74_radial_545_2074" cx="0" cy="0" r="1" gradientUnits="userSpaceOnUse" gradientTransform="translate(317.705 664.659) scale(69.6804 69.6804)">
<stop offset="0.09" stop-color="white"/>
<stop offset="0.24" stop-color="#FFFCFA"/>
<stop offset="0.41" stop-color="#FFF4ED"/>
<stop offset="0.58" stop-color="#FFE5D7"/>
<stop offset="0.76" stop-color="#FFD2B7"/>
<stop offset="0.91" stop-color="#FFBE98"/>
</radialGradient>
</defs>
</svg>
