<svg width="131" height="52" viewBox="0 0 131 52" fill="none" xmlns="http://www.w3.org/2000/svg">
<path d="M52.355 29.383L50.4939 32.9677V35.0068H49.5714V32.9677L47.7022 29.383H48.7299L50.0327 32.1423L51.3355 29.383H52.355ZM54.0015 29.383V32.9677C54.0015 33.3938 54.1121 33.7148 54.3333 33.9306C54.5598 34.1464 54.8727 34.2543 55.2719 34.2543C55.6765 34.2543 55.9894 34.1464 56.2106 33.9306C56.4372 33.7148 56.5504 33.3938 56.5504 32.9677V29.383H57.4729V32.9515C57.4729 33.41 57.3731 33.7984 57.1735 34.1167C56.9739 34.435 56.7069 34.6724 56.3724 34.8288C56.038 34.9853 55.6684 35.0635 55.2638 35.0635C54.8592 35.0635 54.4897 34.9853 54.1552 34.8288C53.8262 34.6724 53.5645 34.435 53.3703 34.1167C53.1761 33.7984 53.079 33.41 53.079 32.9515V29.383H54.0015ZM65.9972 29.383L64.3302 35.0068H63.2864L62.105 30.7505L60.8507 35.0068L59.815 35.0149L58.2209 29.383H59.2L60.3652 33.963L61.6275 29.383H62.6633L63.8366 33.9387L65.01 29.383H65.9972ZM70.1485 33.8578H67.7938L67.3892 35.0068H66.4262L68.4411 29.3749H69.5093L71.5241 35.0068H70.5531L70.1485 33.8578ZM69.8896 33.1052L68.9752 30.4915L68.0527 33.1052H69.8896ZM75.3214 35.0068L74.0267 32.7573H73.3227V35.0068H72.4002V29.383H74.3423C74.7738 29.383 75.138 29.4585 75.4347 29.6095C75.7368 29.7606 75.9607 29.9629 76.1063 30.2164C76.2574 30.47 76.3329 30.7532 76.3329 31.0661C76.3329 31.4329 76.225 31.7674 76.0092 32.0695C75.7988 32.3662 75.4724 32.5685 75.0301 32.6764L76.4219 35.0068H75.3214ZM73.3227 32.0209H74.3423C74.6875 32.0209 74.9465 31.9346 75.1191 31.762C75.2971 31.5894 75.3861 31.3574 75.3861 31.0661C75.3861 30.7748 75.2998 30.5482 75.1272 30.3864C74.9546 30.2191 74.6929 30.1355 74.3423 30.1355H73.3227V32.0209ZM80.9035 33.8578H78.5487L78.1441 35.0068H77.1812L79.1961 29.3749H80.2642L82.2791 35.0068H81.3081L80.9035 33.8578ZM80.6445 33.1052L79.7302 30.4915L78.8077 33.1052H80.6445ZM86.222 29.383V33.437C86.222 33.9387 86.0683 34.3352 85.7608 34.6265C85.4587 34.9178 85.0595 35.0635 84.5632 35.0635C84.0669 35.0635 83.665 34.9178 83.3575 34.6265C83.0554 34.3352 82.9043 33.9387 82.9043 33.437H83.8349C83.8403 33.6852 83.9023 33.8821 84.021 34.0277C84.1451 34.1734 84.3258 34.2462 84.5632 34.2462C84.8005 34.2462 84.9813 34.1734 85.1053 34.0277C85.2294 33.8767 85.2915 33.6798 85.2915 33.437V29.383H86.222ZM91.1132 33.8578H88.7585L88.3539 35.0068H87.3909L89.4058 29.3749H90.4739L92.4888 35.0068H91.5178L91.1132 33.8578ZM90.8543 33.1052L89.9399 30.4915L89.0174 33.1052H90.8543ZM98.0482 32.1989L99.7961 35.0068H98.7603L97.4899 32.9677L96.3004 35.0068H95.2727L97.0206 32.1989L95.2646 29.383H96.3004L97.5789 31.4383L98.7765 29.383H99.8042L98.0482 32.1989ZM105.656 29.383L103.544 35.0068H102.476L100.356 29.383H101.343L103.01 34.0601L104.685 29.383H105.656ZM107.35 29.383V35.0068H106.427V29.383H107.35ZM111.051 33.7526C111.569 33.3048 111.977 32.938 112.273 32.6521C112.575 32.3608 112.826 32.0587 113.026 31.7458C113.225 31.4329 113.325 31.12 113.325 30.8071C113.325 30.4835 113.247 30.2299 113.091 30.0465C112.939 29.8631 112.699 29.7714 112.37 29.7714C112.052 29.7714 111.804 29.8739 111.626 30.0789C111.453 30.2785 111.362 30.5482 111.351 30.8881H110.461C110.477 30.2731 110.66 29.8037 111.011 29.4801C111.367 29.151 111.817 28.9865 112.362 28.9865C112.95 28.9865 113.409 29.1483 113.738 29.472C114.072 29.7956 114.24 30.2272 114.24 30.7667C114.24 31.1551 114.14 31.53 113.94 31.8914C113.746 32.2475 113.511 32.5685 113.236 32.8544C112.966 33.1349 112.621 33.4613 112.2 33.8335L111.836 34.1572H114.401V34.9259H110.469V34.2543L111.051 33.7526ZM115.212 31.9805C115.212 31.0472 115.368 30.3189 115.681 29.7956C115.999 29.267 116.544 29.0026 117.316 29.0026C118.087 29.0026 118.629 29.267 118.942 29.7956C119.26 30.3189 119.42 31.0472 119.42 31.9805C119.42 32.9245 119.26 33.6636 118.942 34.1976C118.629 34.7263 118.087 34.9907 117.316 34.9907C116.544 34.9907 115.999 34.7263 115.681 34.1976C115.368 33.6636 115.212 32.9245 115.212 31.9805ZM118.513 31.9805C118.513 31.5435 118.484 31.174 118.424 30.8719C118.37 30.5698 118.257 30.3243 118.084 30.1355C117.912 29.9413 117.656 29.8442 117.316 29.8442C116.976 29.8442 116.72 29.9413 116.547 30.1355C116.374 30.3243 116.258 30.5698 116.199 30.8719C116.145 31.174 116.118 31.5435 116.118 31.9805C116.118 32.4336 116.145 32.8139 116.199 33.1214C116.253 33.4289 116.366 33.6771 116.539 33.8659C116.717 34.0547 116.976 34.1491 117.316 34.1491C117.656 34.1491 117.912 34.0547 118.084 33.8659C118.262 33.6771 118.378 33.4289 118.432 33.1214C118.486 32.8139 118.513 32.4336 118.513 31.9805ZM120.905 33.7526C121.423 33.3048 121.831 32.938 122.127 32.6521C122.429 32.3608 122.68 32.0587 122.88 31.7458C123.08 31.4329 123.179 31.12 123.179 30.8071C123.179 30.4835 123.101 30.2299 122.945 30.0465C122.794 29.8631 122.554 29.7714 122.224 29.7714C121.906 29.7714 121.658 29.8739 121.48 30.0789C121.307 30.2785 121.216 30.5482 121.205 30.8881H120.315C120.331 30.2731 120.514 29.8037 120.865 29.4801C121.221 29.151 121.672 28.9865 122.216 28.9865C122.804 28.9865 123.263 29.1483 123.592 29.472C123.926 29.7956 124.094 30.2272 124.094 30.7667C124.094 31.1551 123.994 31.53 123.794 31.8914C123.6 32.2475 123.365 32.5685 123.09 32.8544C122.821 33.1349 122.475 33.4613 122.055 33.8335L121.69 34.1572H124.256V34.9259H120.323V34.2543L120.905 33.7526ZM124.953 33.7769V33.081L127.672 29.1807H128.788V32.9758H129.541V33.7769H128.788V35.0068H127.882V33.7769H124.953ZM127.922 30.1193L126.013 32.9758H127.922V30.1193Z" fill="white"/>
<path d="M54.8939 26.6467L50.9513 21.4679V26.6467H48.0946V14.9192H50.9513V20.0646L54.8605 14.9192H58.2184L53.6744 20.666L58.3854 26.6467H54.8939ZM62.5997 14.9192V26.6467H59.743V14.9192H62.5997ZM75.1613 26.6467H72.3046L67.5267 19.4131V26.6467H64.67V14.9192H67.5267L72.3046 22.1863V14.9192H75.1613V26.6467ZM81.6257 14.9192C82.8619 14.9192 83.9422 15.1642 84.8666 15.6543C85.791 16.1443 86.5038 16.8348 87.005 17.7258C87.5173 18.6056 87.7734 19.6247 87.7734 20.783C87.7734 21.9301 87.5173 22.9492 87.005 23.8401C86.5038 24.7311 85.7854 25.4216 84.8499 25.9117C83.9255 26.4017 82.8508 26.6467 81.6257 26.6467H77.232V14.9192H81.6257ZM81.4419 24.1743C82.5222 24.1743 83.3631 23.8791 83.9645 23.2888C84.5659 22.6986 84.8666 21.8633 84.8666 20.783C84.8666 19.7026 84.5659 18.8618 83.9645 18.2604C83.3631 17.659 82.5222 17.3583 81.4419 17.3583H80.0887V24.1743H81.4419ZM99.8612 26.6467H97.0045L92.2266 19.4131V26.6467H89.3699V14.9192H92.2266L97.0045 22.1863V14.9192H99.8612V26.6467ZM104.789 17.2079V19.5801H108.614V21.7853H104.789V24.358H109.115V26.6467H101.932V14.9192H109.115V17.2079H104.789ZM115.213 26.7637C114.356 26.7637 113.587 26.6245 112.908 26.346C112.229 26.0676 111.683 25.6555 111.271 25.1098C110.87 24.5641 110.658 23.907 110.636 23.1385H113.676C113.721 23.5728 113.871 23.907 114.127 24.1408C114.384 24.3636 114.718 24.475 115.13 24.475C115.553 24.475 115.887 24.3803 116.132 24.191C116.377 23.9905 116.5 23.7176 116.5 23.3724C116.5 23.0828 116.399 22.8434 116.199 22.654C116.01 22.4647 115.77 22.3088 115.481 22.1863C115.202 22.0637 114.801 21.9245 114.278 21.7686C113.52 21.5347 112.902 21.3008 112.423 21.067C111.945 20.8331 111.532 20.4878 111.187 20.0312C110.842 19.5746 110.669 18.9787 110.669 18.2437C110.669 17.1522 111.065 16.3002 111.855 15.6877C112.646 15.064 113.676 14.7521 114.946 14.7521C116.238 14.7521 117.279 15.064 118.07 15.6877C118.861 16.3002 119.284 17.1578 119.34 18.2604H116.249C116.227 17.8817 116.088 17.5866 115.831 17.375C115.575 17.1522 115.247 17.0408 114.846 17.0408C114.501 17.0408 114.222 17.1355 114.011 17.3248C113.799 17.503 113.693 17.7648 113.693 18.11C113.693 18.4887 113.871 18.7838 114.228 18.9954C114.584 19.207 115.141 19.4354 115.898 19.6804C116.656 19.9365 117.268 20.1816 117.736 20.4154C118.215 20.6493 118.627 20.989 118.972 21.4345C119.317 21.88 119.49 22.4536 119.49 23.1552C119.49 23.8234 119.317 24.4304 118.972 24.9761C118.638 25.5219 118.148 25.9562 117.502 26.2792C116.856 26.6022 116.093 26.7637 115.213 26.7637ZM125.491 26.7637C124.634 26.7637 123.865 26.6245 123.186 26.346C122.507 26.0676 121.961 25.6555 121.549 25.1098C121.148 24.5641 120.936 23.907 120.914 23.1385H123.954C123.999 23.5728 124.149 23.907 124.406 24.1408C124.662 24.3636 124.996 24.475 125.408 24.475C125.831 24.475 126.165 24.3803 126.41 24.191C126.655 23.9905 126.778 23.7176 126.778 23.3724C126.778 23.0828 126.678 22.8434 126.477 22.654C126.288 22.4647 126.048 22.3088 125.759 22.1863C125.48 22.0637 125.079 21.9245 124.556 21.7686C123.799 21.5347 123.18 21.3008 122.702 21.067C122.223 20.8331 121.811 20.4878 121.465 20.0312C121.12 19.5746 120.947 18.9787 120.947 18.2437C120.947 17.1522 121.343 16.3002 122.134 15.6877C122.924 15.064 123.954 14.7521 125.224 14.7521C126.516 14.7521 127.557 15.064 128.348 15.6877C129.139 16.3002 129.562 17.1578 129.618 18.2604H126.527C126.505 17.8817 126.366 17.5866 126.11 17.375C125.853 17.1522 125.525 17.0408 125.124 17.0408C124.779 17.0408 124.5 17.1355 124.289 17.3248C124.077 17.503 123.971 17.7648 123.971 18.11C123.971 18.4887 124.149 18.7838 124.506 18.9954C124.862 19.207 125.419 19.4354 126.176 19.6804C126.934 19.9365 127.546 20.1816 128.014 20.4154C128.493 20.6493 128.905 20.989 129.25 21.4345C129.595 21.88 129.768 22.4536 129.768 23.1552C129.768 23.8234 129.595 24.4304 129.25 24.9761C128.916 25.5219 128.426 25.9562 127.78 26.2792C127.134 26.6022 126.371 26.7637 125.491 26.7637Z" fill="white"/>
<path d="M6.44241 1C5.22581 1 4.05904 1.48329 3.19878 2.34355C2.33852 3.20382 1.85522 4.37059 1.85522 5.58718V27.3333C1.85522 33.1109 5.09832 38.0632 9.34138 41.9888C12.1299 44.569 21.0471 50.4965 21.0471 50.4965C21.0471 50.4965 28.9364 45.2084 32.5757 41.9564C36.9007 38.0911 39.9216 33.1008 39.9216 27.3009V5.58718C39.9216 4.37059 39.4383 3.20382 38.578 2.34355C37.7177 1.48329 36.551 1 35.3344 1H6.44241Z" fill="url(#paint0_linear_403_429)" stroke="#271B4C" stroke-width="0.507924" stroke-miterlimit="10"/>
<path d="M20.9665 45.574C20.2732 45.3766 19.5621 45.1544 18.8459 44.9112C14.4612 43.3944 12.4042 42.1176 11.1051 41.178C9.36854 39.8244 7.84847 38.214 6.59732 36.4022C5.3379 34.5982 4.38659 32.5978 3.78216 30.4823L3.76946 30.4373C3.54965 29.4518 3.43809 28.4452 3.43677 27.4354V6.50455C3.43677 5.43108 3.8632 4.40158 4.62226 3.64252C5.38131 2.88346 6.41082 2.45703 7.48428 2.45703H34.2931C35.3666 2.45703 36.3961 2.88346 37.1552 3.64252C37.9142 4.40158 38.3406 5.43108 38.3406 6.50455V27.3967C38.3403 28.5076 38.216 29.615 37.9699 30.6982C36.8905 34.5349 34.5414 38.112 31.3402 40.7754C29.6736 42.1392 27.6539 43.0935 26.0781 43.7734C24.4128 44.478 22.7057 45.0793 20.9665 45.574Z" fill="url(#paint1_radial_403_429)"/>
<path d="M10.599 17.7274C10.599 17.7274 8.51464 15.8494 7.62768 11.259C7.62768 11.259 0.773885 18.8779 8.69495 24.3857L12.2657 23.4111L10.599 17.7274Z" fill="url(#paint2_linear_403_429)"/>
<path d="M10.5992 17.7274C10.5992 17.7274 8.51476 15.8494 7.6278 11.259C7.6278 11.259 4.00884 18.4646 11.5642 23.6435L12.2626 23.4111L10.5992 17.7274Z" fill="url(#paint3_linear_403_429)"/>
<path d="M9.26387 24.8057C9.26387 24.8057 6.57759 24.0673 4.40368 20.969C4.40368 20.969 2.04564 27.5034 9.74576 28.9586L15.8091 29.2647L9.26387 24.8057Z" fill="url(#paint4_linear_403_429)"/>
<path d="M9.26385 24.8057C9.26385 24.8057 6.57757 24.0673 4.40366 20.969C4.40366 20.969 3.79669 26.0787 12.352 28.4285L15.8091 29.2647L9.26385 24.8057Z" fill="url(#paint5_linear_403_429)"/>
<path d="M9.73361 29.3587C9.73361 29.3587 6.79337 28.8978 4.51978 27.0876C4.51978 27.0876 4.95659 33.464 11.9532 32.8697L14.924 32.2983L9.73361 29.3587Z" fill="url(#paint6_linear_403_429)"/>
<path d="M9.73361 29.3587C9.73361 29.3587 6.79337 28.8978 4.51978 27.0876C4.51978 27.0876 6.0372 31.2494 12.1456 31.9504L14.924 32.2989L9.73361 29.3587Z" fill="url(#paint7_linear_403_429)"/>
<path d="M12.4321 33.0779C12.4321 33.0779 9.24359 33.676 6.83667 32.4055C6.83667 32.4055 9.3001 38.347 15.9825 35.7705C22.6648 33.1941 16.9647 34.3807 16.9647 34.3807L12.4321 33.0779Z" fill="url(#paint8_linear_403_429)"/>
<path d="M12.4321 33.0779C12.4321 33.0779 9.24359 33.676 6.83667 32.4055C6.83667 32.4055 10.4461 36.8067 16.2694 34.3248C22.8369 31.5255 16.6275 33.7534 16.6275 33.7534L12.4321 33.0779Z" fill="url(#paint9_linear_403_429)"/>
<path d="M16.2725 36.046C14.7111 36.7349 13.0611 37.2021 11.3704 37.4339C11.3704 37.4339 16.1639 40.2541 20.0444 37.3133C23.925 34.3724 20.1968 36.0117 20.1968 36.0117L16.2725 36.046Z" fill="url(#paint10_linear_403_429)"/>
<path d="M16.2725 36.0462C14.7111 36.7351 13.0611 37.2023 11.3704 37.4341C11.3704 37.4341 16.4699 39.1661 20.1136 36.0119C23.7573 32.8577 19.8089 35.5871 19.8089 35.5871L16.2725 36.0462Z" fill="url(#paint11_linear_403_429)"/>
<path d="M20.3068 37.2452C19.3947 38.1775 18.3839 39.0077 17.2922 39.7213C17.2922 39.7213 26.6691 40.3321 25.4076 32.8523L20.3068 37.2452Z" fill="url(#paint12_linear_403_429)"/>
<path d="M20.3068 37.2452C19.3947 38.1775 18.3839 39.0077 17.2922 39.7213C17.2922 39.7213 25.419 38.4883 25.4076 32.8523L20.3068 37.2452Z" fill="url(#paint13_linear_403_429)"/>
<path d="M18.7099 23.1145C18.7099 23.1145 12.8326 20.0435 11.9367 13.9719C11.9367 13.9719 3.12553 24.0034 20.0667 26.9011L18.7099 23.1145Z" fill="url(#paint14_linear_403_429)"/>
<path d="M18.71 23.1145C18.71 23.1145 12.8327 20.0435 11.9368 13.9719C11.9368 13.9719 8.53119 23.1888 20.1988 25.3748L18.71 23.1145Z" fill="url(#paint15_linear_403_429)"/>
<path d="M20.07 26.7171C20.07 26.7171 11.5705 25.467 8.83215 20.7554C8.83215 20.7554 4.75353 30.8053 20.5493 28.8218L20.07 26.7171Z" fill="url(#paint16_linear_403_429)"/>
<path d="M20.07 26.7171C20.07 26.7171 11.5705 25.467 8.83219 20.7554C8.83219 20.7554 8.32426 28.4555 20.3462 27.7895L20.07 26.7171Z" fill="url(#paint17_linear_403_429)"/>
<path d="M20.6 28.73C20.6 28.73 13.0872 30.2418 8.66828 26.8596C8.66828 26.8596 8.41432 35.6442 22.393 31.1281L20.6 28.73Z" fill="url(#paint18_linear_403_429)"/>
<path d="M20.6002 28.73C20.6002 28.73 13.0874 30.2418 8.66846 26.8596C8.66846 26.8596 11.3884 33.4912 21.2891 29.6957L20.6002 28.73Z" fill="url(#paint19_linear_403_429)"/>
<path d="M21.7418 30.2727C21.7418 30.2727 16.8759 33.3647 10.5923 31.8816C10.5923 31.8816 14.3001 39.0433 22.891 31.86L21.7418 30.2727Z" fill="url(#paint20_linear_403_429)"/>
<path d="M21.7418 30.2727C21.7418 30.2727 16.8759 33.3647 10.5923 31.8816C10.5923 31.8816 14.9731 36.8554 22.1907 31.133L21.7418 30.2727Z" fill="url(#paint21_linear_403_429)"/>
<path d="M22.7151 31.6716C22.7151 31.6716 20.5152 34.4335 14.3433 35.5236C14.3433 35.5236 20.2847 40.0613 24.4776 32.603L22.7151 31.6716Z" fill="url(#paint22_linear_403_429)"/>
<path d="M22.7151 31.6716C22.7151 31.6716 20.5152 34.4335 14.3433 35.5236C14.3433 35.5236 19.6847 37.888 23.6072 32.2303L22.7151 31.6716Z" fill="url(#paint23_linear_403_429)"/>
<path d="M24.3728 32.5396C24.3728 32.5396 22.7538 35.7611 18.9653 37.4378C18.9653 37.4378 26.4401 38.7362 25.7848 33.1268L24.3728 32.5396Z" fill="url(#paint24_linear_403_429)"/>
<path d="M24.3728 32.5396C24.3728 32.5396 22.7538 35.7611 18.9653 37.4378C18.9653 37.4378 25.1125 37.4874 25.2509 32.7834L24.3728 32.5396Z" fill="url(#paint25_linear_403_429)"/>
<path d="M25.9993 33.7545C25.9993 33.7545 18.9448 31.7679 19.5982 25.7401L17.5588 22.384L21.8521 25.097C21.8521 25.097 20.9099 29.401 26.8634 29.1445C26.8634 29.1445 27.9605 33.4606 25.9993 33.7545Z" fill="url(#paint26_linear_403_429)"/>
<path d="M17.5588 22.384L21.8521 25.097C21.8521 25.097 20.9289 29.3883 26.8634 29.1445C26.8634 29.1445 27.9217 33.5755 25.9993 33.7545C25.9993 33.7545 27.5294 33.2282 26.1529 30.2048C26.1529 30.2048 21.1448 29.9769 21.16 25.4367L17.5588 22.384Z" fill="url(#paint27_linear_403_429)"/>
<path d="M6.40754 5.2813H7.63481C7.66125 5.2813 7.6866 5.2918 7.7053 5.3105C7.72399 5.32919 7.73449 5.35454 7.73449 5.38098V9.15295C7.73397 9.17819 7.74305 9.20269 7.7599 9.2215C7.77674 9.24031 7.80009 9.25202 7.82524 9.25428C7.85039 9.25653 7.87545 9.24916 7.89538 9.23366C7.9153 9.21815 7.9286 9.19566 7.93258 9.17073L8.63098 5.3613C8.63526 5.33849 8.64738 5.31789 8.66523 5.30305C8.68307 5.28822 8.70554 5.28008 8.72875 5.28003H9.80809C9.82276 5.27995 9.83727 5.28312 9.85056 5.28932C9.86385 5.29553 9.8756 5.30461 9.88496 5.31591C9.89431 5.32721 9.90104 5.34045 9.90466 5.35467C9.90827 5.36888 9.90869 5.38373 9.90586 5.39812L8.97954 10.2545C8.977 10.2662 8.977 10.2783 8.97954 10.2901L9.98269 16.0042C9.98518 16.0185 9.98453 16.0332 9.98077 16.0472C9.97701 16.0612 9.97024 16.0742 9.96093 16.0853C9.95162 16.0964 9.94 16.1054 9.92687 16.1116C9.91374 16.1177 9.89942 16.121 9.88491 16.121H8.73256C8.70893 16.1212 8.68603 16.1129 8.66798 16.0976C8.64994 16.0824 8.63794 16.0612 8.63415 16.0379L7.93258 11.8532C7.92859 11.8284 7.91538 11.806 7.8956 11.7905C7.87582 11.7751 7.85092 11.7676 7.82589 11.7697C7.80086 11.7718 7.77754 11.7833 7.76059 11.8018C7.74365 11.8203 7.73433 11.8446 7.73449 11.8697V16.0213C7.73449 16.0478 7.72399 16.0731 7.7053 16.0918C7.6866 16.1105 7.66125 16.121 7.63481 16.121H6.40754C6.3811 16.121 6.35575 16.1105 6.33706 16.0918C6.31836 16.0731 6.30786 16.0478 6.30786 16.0213V5.38098C6.30786 5.36789 6.31044 5.35493 6.31545 5.34284C6.32046 5.33074 6.3278 5.31975 6.33706 5.3105C6.34631 5.30124 6.3573 5.2939 6.36939 5.28889C6.38149 5.28388 6.39445 5.2813 6.40754 5.2813Z" fill="white"/>
<path d="M10.5027 16.0242V5.38069C10.5027 5.35425 10.5132 5.32889 10.5319 5.3102C10.5506 5.29151 10.5759 5.28101 10.6024 5.28101H11.8442C11.8707 5.28101 11.896 5.29151 11.9147 5.3102C11.9334 5.32889 11.9439 5.35425 11.9439 5.38069V16.0242C11.9439 16.0507 11.9334 16.076 11.9147 16.0947C11.896 16.1134 11.8707 16.1239 11.8442 16.1239H10.603C10.5899 16.124 10.5768 16.1215 10.5647 16.1165C10.5525 16.1115 10.5414 16.1042 10.5321 16.0949C10.5228 16.0857 10.5154 16.0747 10.5103 16.0625C10.5053 16.0504 10.5027 16.0374 10.5027 16.0242Z" fill="white"/>
<path d="M15.2675 12.7303V12.7386C15.2685 12.765 15.2801 12.79 15.2996 12.8079C15.319 12.8258 15.3448 12.8352 15.3713 12.8341C15.3977 12.8331 15.4226 12.8215 15.4405 12.802C15.4585 12.7826 15.4679 12.7568 15.4668 12.7303L15.3259 5.3845C15.3256 5.37125 15.328 5.35808 15.3329 5.34576C15.3378 5.33345 15.3451 5.32224 15.3544 5.31278C15.3637 5.30332 15.3747 5.2958 15.387 5.29068C15.3992 5.28555 15.4123 5.28291 15.4255 5.28291H16.5227C16.5491 5.28291 16.5745 5.29341 16.5931 5.31211C16.6118 5.3308 16.6223 5.35615 16.6223 5.38259V16.0242C16.6223 16.0507 16.6118 16.076 16.5931 16.0947C16.5745 16.1134 16.5491 16.1239 16.5227 16.1239H14.7297C14.7046 16.1238 14.6804 16.1143 14.6619 16.0973C14.6435 16.0802 14.6321 16.0569 14.63 16.0318L14.0694 8.67647V8.66695C14.0684 8.64051 14.0569 8.61556 14.0375 8.59758C14.0181 8.5796 13.9923 8.57007 13.9659 8.57108C13.9395 8.57209 13.9145 8.58356 13.8965 8.60297C13.8786 8.62238 13.869 8.64813 13.87 8.67457L14.011 16.0204C14.0112 16.0337 14.0088 16.0468 14.0039 16.0591C13.999 16.0715 13.9917 16.0827 13.9825 16.0921C13.9732 16.1016 13.9621 16.1091 13.9499 16.1142C13.9377 16.1194 13.9245 16.122 13.9113 16.122H12.8135C12.7871 16.122 12.7618 16.1115 12.7431 16.0928C12.7244 16.0741 12.7139 16.0488 12.7139 16.0223V5.38069C12.7139 5.35425 12.7244 5.32889 12.7431 5.3102C12.7618 5.29151 12.7871 5.28101 12.8135 5.28101H14.6027C14.6278 5.28108 14.652 5.29058 14.6705 5.30763C14.6889 5.32467 14.7003 5.34803 14.7024 5.37307L15.2675 12.7303Z" fill="white"/>
<path d="M17.3966 5.38069C17.3966 5.35425 17.4071 5.32889 17.4258 5.3102C17.4445 5.29151 17.4698 5.28101 17.4963 5.28101H18.5235C20.2067 5.28101 20.9063 5.85242 20.9063 10.7025C20.9063 15.4109 20.2498 16.0814 18.6664 16.1239H17.4937C17.4673 16.1239 17.4419 16.1134 17.4232 16.0947C17.4045 16.076 17.394 16.0507 17.394 16.0242L17.3966 5.38069ZM18.8086 6.68224V14.7227C18.8087 14.7384 18.8125 14.7538 18.8196 14.7678C18.8267 14.7817 18.837 14.7938 18.8497 14.8031C18.8623 14.8124 18.877 14.8185 18.8925 14.8211C18.9079 14.8237 18.9238 14.8226 18.9388 14.8179C19.3419 14.7004 19.4365 14.077 19.4365 10.7025C19.4365 7.32794 19.3419 6.70256 18.9388 6.587C18.9236 6.58185 18.9075 6.58038 18.8917 6.58272C18.8759 6.58505 18.8609 6.59114 18.8479 6.60045C18.8349 6.60977 18.8243 6.62205 18.8171 6.63628C18.8098 6.6505 18.806 6.66626 18.8061 6.68224H18.8086Z" fill="white"/>
<path d="M24.0992 12.7303V12.7386C24.1003 12.765 24.1119 12.79 24.1314 12.8079C24.1508 12.8258 24.1766 12.8352 24.203 12.8341C24.2295 12.8331 24.2544 12.8215 24.2723 12.802C24.2902 12.7826 24.2997 12.7568 24.2986 12.7303L24.1577 5.3845C24.1574 5.37125 24.1598 5.35808 24.1647 5.34576C24.1696 5.33345 24.1769 5.32224 24.1862 5.31278C24.1954 5.30332 24.2065 5.2958 24.2187 5.29068C24.231 5.28555 24.2441 5.28291 24.2573 5.28291H25.3544C25.3809 5.28291 25.4062 5.29341 25.4249 5.31211C25.4436 5.3308 25.4541 5.35615 25.4541 5.38259V16.0242C25.4541 16.0507 25.4436 16.076 25.4249 16.0947C25.4062 16.1134 25.3809 16.1239 25.3544 16.1239H23.564C23.5389 16.1238 23.5147 16.1143 23.4962 16.0973C23.4778 16.0802 23.4664 16.0569 23.4643 16.0318L22.9012 8.67648V8.66759C22.8984 8.64248 22.8862 8.61936 22.8671 8.60289C22.8479 8.58643 22.8232 8.57786 22.798 8.57891C22.7727 8.57995 22.7488 8.59055 22.7311 8.60854C22.7134 8.62654 22.7031 8.65059 22.7025 8.67584L22.8434 16.0217C22.8436 16.0349 22.8411 16.048 22.8362 16.0603C22.8313 16.0726 22.824 16.0838 22.8147 16.0932C22.8054 16.1027 22.7944 16.1102 22.7822 16.1153C22.77 16.1205 22.7569 16.1232 22.7437 16.1233H21.6453C21.6189 16.1233 21.5935 16.1128 21.5748 16.0941C21.5562 16.0754 21.5457 16.05 21.5457 16.0236V5.38069C21.5457 5.35425 21.5562 5.3289 21.5748 5.3102C21.5935 5.29151 21.6189 5.28101 21.6453 5.28101H23.4364C23.4615 5.28094 23.4857 5.29041 23.5041 5.3075C23.5225 5.32459 23.5337 5.34803 23.5354 5.37307L24.0992 12.7303Z" fill="white"/>
<path d="M28.6343 16.1239H26.3245C26.2981 16.1239 26.2727 16.1134 26.254 16.0947C26.2354 16.076 26.2249 16.0507 26.2249 16.0242V5.38069C26.2249 5.35425 26.2354 5.32889 26.254 5.3102C26.2727 5.29151 26.2981 5.28101 26.3245 5.28101H28.6343C28.6608 5.28101 28.6861 5.29151 28.7048 5.3102C28.7235 5.32889 28.734 5.35425 28.734 5.38069V6.4651C28.734 6.49154 28.7235 6.51689 28.7048 6.53559C28.6861 6.55428 28.6608 6.56478 28.6343 6.56478H27.7372C27.7108 6.56478 27.6854 6.57528 27.6667 6.59398C27.648 6.61267 27.6375 6.63803 27.6375 6.66446V9.67518C27.6375 9.70162 27.648 9.72697 27.6667 9.74566C27.6854 9.76436 27.7108 9.77486 27.7372 9.77486H28.494C28.5204 9.77503 28.5456 9.78558 28.5643 9.80424C28.583 9.8229 28.5935 9.84815 28.5937 9.87454V11.0307C28.5937 11.0571 28.5832 11.0825 28.5645 11.1012C28.5458 11.1199 28.5204 11.1304 28.494 11.1304H27.7372C27.7108 11.1304 27.6854 11.1409 27.6667 11.1596C27.648 11.1783 27.6375 11.2036 27.6375 11.2301V14.7404C27.6375 14.7669 27.648 14.7922 27.6667 14.8109C27.6854 14.8296 27.7108 14.8401 27.7372 14.8401H28.6343C28.6608 14.8401 28.6861 14.8506 28.7048 14.8693C28.7235 14.888 28.734 14.9134 28.734 14.9398V16.0242C28.734 16.0373 28.7314 16.0503 28.7264 16.0624C28.7214 16.0745 28.7141 16.0855 28.7048 16.0947C28.6955 16.104 28.6846 16.1113 28.6725 16.1163C28.6604 16.1213 28.6474 16.1239 28.6343 16.1239Z" fill="white"/>
<path d="M32.3027 7.84965V8.7201C32.3027 8.74654 32.2921 8.77189 32.2735 8.79059C32.2548 8.80928 32.2294 8.81978 32.203 8.81978H31.1186C31.0921 8.81978 31.0668 8.80928 31.0481 8.79059C31.0294 8.77189 31.0189 8.74654 31.0189 8.7201V7.92076C31.0189 6.80777 30.9046 6.37985 30.7192 6.37985C30.5763 6.37985 30.4621 6.67952 30.4621 7.12205C30.4621 9.67564 32.3312 11.4737 32.3312 14.1841C32.3312 15.2545 31.8322 16.1961 30.7478 16.1961C29.7916 16.1961 29.1351 15.6539 29.1351 13.5562V12.8286C29.1351 12.8021 29.1456 12.7768 29.1643 12.7581C29.183 12.7394 29.2084 12.7289 29.2348 12.7289H30.3198C30.3463 12.7289 30.3716 12.7394 30.3903 12.7581C30.409 12.7768 30.4195 12.8021 30.4195 12.8286V13.4851C30.4195 14.598 30.5338 15.026 30.7192 15.026C30.9046 15.026 30.9732 14.6406 30.9732 14.2558C30.9732 11.9156 29.104 10.1607 29.104 7.19316C29.104 6.0662 29.7465 5.20972 30.6881 5.20972C31.6462 5.20972 32.3027 5.75193 32.3027 7.84965Z" fill="white"/>
<path d="M35.8982 7.84965V8.7201C35.898 8.74649 35.8874 8.77175 35.8688 8.7904C35.8501 8.80906 35.8249 8.81962 35.7985 8.81978H34.7134C34.687 8.81962 34.6618 8.80906 34.6431 8.7904C34.6245 8.77175 34.6139 8.74649 34.6137 8.7201V7.92076C34.6137 6.80777 34.5001 6.37985 34.3141 6.37985C34.1719 6.37985 34.0601 6.67952 34.0601 7.12205C34.0601 9.67564 35.9293 11.4737 35.9293 14.1841C35.9293 15.2545 35.4296 16.1961 34.342 16.1961C33.3897 16.1961 32.73 15.6539 32.73 13.5562V12.8286C32.73 12.8021 32.7405 12.7768 32.7592 12.7581C32.7779 12.7394 32.8032 12.7289 32.8297 12.7289H33.9147C33.9278 12.7289 33.9408 12.7315 33.9529 12.7365C33.965 12.7415 33.9759 12.7488 33.9852 12.7581C33.9945 12.7673 34.0018 12.7783 34.0068 12.7904C34.0118 12.8025 34.0144 12.8155 34.0144 12.8286V13.4851C34.0144 14.598 34.128 15.026 34.3134 15.026C34.4988 15.026 34.5674 14.6406 34.5674 14.2558C34.5674 11.9156 32.6982 10.1607 32.6982 7.19316C32.6982 6.0662 33.3401 5.20972 34.2823 5.20972C35.2417 5.20972 35.8982 5.75193 35.8982 7.84965Z" fill="white"/>
<path d="M15.877 18.2933V17.9124L15.4675 17.1956H15.818L15.9761 17.5276C15.9906 17.5576 16.0035 17.5883 16.0148 17.6197C16.0262 17.6514 16.0377 17.6876 16.0497 17.7282H16.0059C16.0167 17.6876 16.0275 17.6514 16.0377 17.6197C16.0479 17.5883 16.0599 17.5575 16.0739 17.5276L16.2218 17.1956H16.571L16.1735 17.9124V18.2933H15.877Z" fill="white"/>
<path d="M17.4517 18.3069C17.3663 18.3088 17.2815 18.2919 17.2034 18.2574C17.1342 18.227 17.0757 18.1764 17.0355 18.1124C16.9953 18.0483 16.9753 17.9736 16.978 17.8981V17.1946H17.2764V17.8733C17.2758 17.9051 17.2837 17.9364 17.2993 17.9641C17.3141 17.9908 17.3361 18.0128 17.3628 18.0276C17.3903 18.0429 17.4214 18.0506 17.4529 18.0498C17.4848 18.0507 17.5164 18.043 17.5444 18.0276C17.571 18.0127 17.593 17.9907 17.6079 17.9641C17.6235 17.9364 17.6314 17.9051 17.6307 17.8733V17.1946H17.9291V17.8981C17.9319 17.9738 17.9118 18.0486 17.8713 18.1128C17.8309 18.1769 17.772 18.2273 17.7025 18.2574C17.6235 18.2922 17.5379 18.3091 17.4517 18.3069Z" fill="white"/>
<path d="M18.6254 18.2932L18.334 17.1941H18.666L18.7549 17.6189C18.7664 17.6729 18.7765 17.7313 18.7854 17.7954C18.7943 17.8595 18.8032 17.9224 18.8114 17.9859C18.8197 18.0494 18.8286 18.1078 18.8375 18.1624H18.7784C18.7892 18.1078 18.7987 18.0494 18.8083 17.9859C18.8178 17.9224 18.8273 17.8589 18.8375 17.7954C18.8476 17.7319 18.8584 17.6729 18.8711 17.6189L18.9683 17.1929H19.2667L19.3644 17.6189C19.3765 17.6729 19.3879 17.7313 19.3981 17.7954C19.4082 17.8595 19.4178 17.9224 19.4273 17.9859C19.4368 18.0494 19.4463 18.1078 19.4565 18.1624H19.3968C19.4063 18.1078 19.4152 18.0494 19.4235 17.9859C19.4317 17.9224 19.4406 17.8589 19.4495 17.7954C19.4584 17.7319 19.4686 17.6729 19.4794 17.6189L19.5682 17.1929H19.9016L19.6101 18.2919H19.273L19.1638 17.8443C19.144 17.7619 19.1291 17.6783 19.1194 17.5941C19.1079 17.5046 19.0946 17.4183 19.0787 17.3357H19.1568C19.1379 17.4207 19.1241 17.5068 19.1156 17.5935C19.1069 17.6779 19.0927 17.7617 19.073 17.8443L18.9632 18.2919L18.6254 18.2932Z" fill="white"/>
<path d="M20.1431 18.2936L20.4992 17.1946H20.9062L21.2764 18.2936H20.938L20.811 17.8676C20.7837 17.7749 20.7577 17.6771 20.7335 17.5793C20.7094 17.4816 20.6865 17.3806 20.665 17.2822H20.7329C20.7126 17.3804 20.6914 17.4794 20.6694 17.5793C20.6484 17.679 20.625 17.7749 20.5983 17.8676L20.4764 18.2936H20.1431ZM20.4072 18.0828V17.86H21.0154V18.0828H20.4072Z" fill="white"/>
<path d="M21.6831 18.2935V17.1945H22.158C22.2318 17.1927 22.305 17.2079 22.372 17.2389C22.4311 17.2664 22.481 17.3105 22.5155 17.3659C22.5511 17.4266 22.5689 17.4962 22.5669 17.5665C22.5691 17.6365 22.5508 17.7056 22.5142 17.7652C22.4791 17.8202 22.4278 17.863 22.3675 17.8878C22.2978 17.9168 22.2227 17.9309 22.1472 17.9291H21.8641V17.6979H22.0869C22.1177 17.6987 22.1484 17.6942 22.1777 17.6846C22.2011 17.6772 22.2214 17.6623 22.2355 17.6421C22.2498 17.6196 22.2567 17.5932 22.2552 17.5665C22.2565 17.5395 22.2496 17.5127 22.2355 17.4897C22.2213 17.4693 22.2011 17.454 22.1777 17.4459C22.1485 17.4361 22.1177 17.4314 22.0869 17.4319H21.9821V18.2922L21.6831 18.2935ZM22.2774 18.2935L22.0088 17.7887H22.3263L22.6024 18.2935H22.2774Z" fill="white"/>
<path d="M22.9575 18.2936L23.3143 17.1946H23.7213L24.0908 18.2936H23.7531L23.6261 17.8676C23.5988 17.7749 23.5727 17.6771 23.5486 17.5793C23.5245 17.4816 23.5016 17.3806 23.48 17.2822H23.548C23.5268 17.3804 23.5057 17.4794 23.4845 17.5793C23.4635 17.679 23.4394 17.7749 23.4127 17.8676L23.2915 18.2936H22.9575ZM23.2216 18.0828V17.86H23.8267V18.0828H23.2216Z" fill="white"/>
<path d="M24.8596 18.3082C24.7521 18.3154 24.6457 18.2823 24.5612 18.2155C24.5254 18.1816 24.4974 18.1403 24.4793 18.0944C24.4612 18.0486 24.4534 17.9993 24.4565 17.9501V17.8815H24.7549V17.9558C24.7523 17.9884 24.762 18.0208 24.7822 18.0466C24.8031 18.0661 24.8307 18.077 24.8593 18.077C24.8879 18.077 24.9155 18.0661 24.9364 18.0466C24.9559 18.02 24.9652 17.9873 24.9625 17.9545V17.1926H25.2564V17.9463C25.2596 17.9955 25.252 18.0448 25.2342 18.0909C25.2165 18.1369 25.189 18.1785 25.1536 18.2129C25.0711 18.2806 24.9661 18.3146 24.8596 18.3082Z" fill="white"/>
<path d="M25.634 18.2936L25.9902 17.1946H26.3972L26.7673 18.2936H26.4289L26.302 17.8676C26.2747 17.7749 26.2486 17.6771 26.2245 17.5793C26.2004 17.4816 26.1775 17.3806 26.1559 17.2822H26.2213C26.201 17.3804 26.1798 17.4794 26.1578 17.5793C26.1369 17.679 26.1128 17.7749 26.0867 17.8676L25.9674 18.2936H25.634ZM25.8982 18.0828V17.86H26.5032V18.0828H25.8982Z" fill="white"/>
<path d="M20.1639 19.2281C20.1639 19.6604 19.8871 19.9203 19.8531 20.5031H20.1397V20.6731H19.671V20.6148C19.671 19.9178 19.9842 19.6531 19.9842 19.2403C19.9842 19.0606 19.9527 18.9731 19.9138 18.9731C19.8701 18.9731 19.841 19.0581 19.841 19.2767V19.4297H19.671V19.2646C19.671 18.944 19.756 18.8153 19.9211 18.8153C20.0741 18.8153 20.1639 18.9416 20.1639 19.2281ZM20.2309 19.7503C20.2309 18.944 20.3305 18.8153 20.5077 18.8153C20.6874 18.8153 20.7846 18.944 20.7846 19.7503C20.7846 20.559 20.6874 20.6852 20.5077 20.6852C20.3305 20.6852 20.2309 20.559 20.2309 19.7503ZM20.5903 19.7503C20.5903 19.097 20.566 18.9731 20.5077 18.9731C20.4543 18.9731 20.4252 19.097 20.4252 19.7503C20.4252 20.4035 20.4543 20.5298 20.5077 20.5298C20.566 20.5298 20.5903 20.4035 20.5903 19.7503ZM21.3569 19.2281C21.3569 19.6604 21.08 19.9203 21.046 20.5031H21.3326V20.6731H20.8639V20.6148C20.8639 19.9178 21.1772 19.6531 21.1772 19.2403C21.1772 19.0606 21.1456 18.9731 21.1067 18.9731C21.063 18.9731 21.0339 19.0581 21.0339 19.2767V19.4297H20.8639V19.2646C20.8639 18.944 20.9489 18.8153 21.114 18.8153C21.267 18.8153 21.3569 18.9416 21.3569 19.2281ZM21.8092 20.6731H21.6294L21.6319 20.3015H21.3259V20.1923L21.5372 18.8274H21.8092V20.1413H21.9087V20.3015H21.8092V20.6731ZM21.4837 20.1413H21.6343L21.644 18.9999L21.4837 20.1413Z" fill="white"/>
<path d="M20.4383 50.2138C20.3513 50.1827 20.2871 50.1573 20.2141 50.13L20.0046 50.0487L19.5932 49.8843C19.3202 49.7738 19.051 49.6601 18.7824 49.5452C18.2457 49.3145 17.7141 49.0754 17.1875 48.8278C16.1342 48.3313 15.0974 47.7999 14.081 47.2227C13.573 46.9358 13.0708 46.6329 12.575 46.3199C12.0791 46.0069 11.5902 45.6767 11.1109 45.332C10.6315 44.9872 10.1617 44.6241 9.70646 44.238C9.47726 44.0476 9.25568 43.8444 9.0341 43.6431L8.70903 43.3327C8.59983 43.2279 8.50015 43.1232 8.39539 43.0152C6.76771 41.3417 5.38591 39.4456 4.29136 37.3836C3.748 36.3658 3.28111 35.3089 2.89457 34.2218C2.51086 33.1409 2.22215 32.0285 2.03174 30.8974L2.51173 30.7908C3.11616 32.931 4.11486 34.9335 5.34911 36.7487C6.57452 38.5531 8.04946 40.1747 9.72996 41.5651C9.83535 41.6483 9.93884 41.7384 10.0442 41.8153L10.3585 42.0521C10.5756 42.2038 10.789 42.3575 11.0131 42.501C11.4575 42.7917 11.9159 43.0656 12.3883 43.3225C13.3387 43.8385 14.3162 44.3031 15.3165 44.7142C16.3203 45.1307 17.345 45.5066 18.3812 45.8469C18.8992 46.0162 19.4197 46.1773 19.9424 46.3301C20.2033 46.4056 20.4649 46.4793 20.7252 46.5491L21.1144 46.6513L21.3049 46.6996C21.3684 46.7148 21.4357 46.732 21.4833 46.7421L20.4383 50.2138Z" fill="#271B4C"/>
<path d="M20.6256 49.452C20.5622 49.4266 20.5145 49.4044 20.4599 49.3809L20.3012 49.3123L19.9882 49.1739L19.3647 48.8945C18.9533 48.7041 18.5444 48.5136 18.1381 48.3231C17.3254 47.9352 16.5197 47.5371 15.7254 47.1168C14.9312 46.6965 14.1471 46.2628 13.3763 45.8019C12.6055 45.341 11.8525 44.8565 11.1249 44.3302C10.944 44.1981 10.7618 44.068 10.5853 43.9296L10.3186 43.7239L10.0564 43.5124C9.87989 43.3747 9.71291 43.2236 9.54148 43.0788C9.4564 43.0058 9.37514 42.9277 9.29196 42.8528C9.20879 42.7779 9.12371 42.7029 9.04562 42.6229C8.40868 41.9988 7.80612 41.3405 7.24059 40.6509C6.11787 39.2757 5.12767 37.7974 4.2832 36.2358L4.38161 36.1831C4.58732 36.5729 4.79938 36.9602 5.03303 37.3348C5.14604 37.5253 5.26921 37.7069 5.3873 37.8929C5.45079 37.985 5.51428 38.0751 5.57396 38.1659C5.63364 38.2567 5.70094 38.3481 5.76443 38.437C6.0184 38.7983 6.28887 39.1456 6.56568 39.4884C6.8425 39.8313 7.13138 40.1627 7.4336 40.4827C8.03134 41.1259 8.67081 41.7291 9.34784 42.2883C10.0171 42.8473 10.7284 43.354 11.4754 43.8039C11.6602 43.9194 11.8506 44.0267 12.0386 44.1366C12.2265 44.2464 12.4195 44.3492 12.6131 44.454C12.9992 44.6593 13.3898 44.8546 13.7852 45.04C14.575 45.414 15.3832 45.7492 16.2016 46.0559C17.02 46.3625 17.8524 46.6387 18.6879 46.8812C19.107 47.0044 19.5279 47.1187 19.9507 47.2241C20.1615 47.2762 20.3723 47.3295 20.5856 47.3752L20.9031 47.4444L21.0599 47.4762C21.1113 47.4863 21.1666 47.4971 21.211 47.5041L20.6256 49.452Z" fill="white"/>
<path d="M20.9665 45.574C20.2732 45.3766 19.5621 45.1544 18.8459 44.9112C14.4612 43.3944 12.4042 42.1176 11.1051 41.178C9.36854 39.8244 7.84847 38.214 6.59732 36.4022C5.3379 34.5982 4.38659 32.5978 3.78216 30.4823L3.76946 30.4373C3.54965 29.4518 3.43809 28.4452 3.43677 27.4354V6.50455C3.43677 5.43108 3.8632 4.40158 4.62226 3.64252C5.38131 2.88346 6.41082 2.45703 7.48428 2.45703H34.2931C35.3666 2.45703 36.3961 2.88346 37.1552 3.64252C37.9142 4.40158 38.3406 5.43108 38.3406 6.50455V27.3967C38.3403 28.5076 38.216 29.615 37.9699 30.6982C36.8905 34.5349 34.5414 38.112 31.3402 40.7754C29.6736 42.1392 27.6539 43.0935 26.0781 43.7734C24.4128 44.478 22.7057 45.0793 20.9665 45.574Z" stroke="white" stroke-width="0.317452" stroke-miterlimit="10"/>
<mask id="mask0_403_429" style="mask-type:luminance" maskUnits="userSpaceOnUse" x="0" y="1" width="42" height="45">
<path d="M0 1.21582V35.4848L13.8796 43.044L14.0892 42.9659C15.2783 43.5563 16.8116 44.2077 18.8459 44.9112C19.562 45.1544 20.2731 45.3766 20.9665 45.5741C22.7056 45.0806 24.4127 44.4806 26.0781 43.7773C27.6539 43.0973 29.6735 42.143 31.3402 40.7793C33.363 39.0953 35.0511 37.046 36.3165 34.7381L41.7767 34.6639V1.21582H0Z" fill="white"/>
</mask>
<g mask="url(#mask0_403_429)">
<path d="M16.8931 44.1944C20.4968 41.498 20.1654 38.2657 21.2612 30.6849C21.2714 30.6157 21.2815 30.5452 21.2923 30.4741C21.3346 30.1977 21.3844 29.9114 21.4415 29.6151C21.6292 28.6157 21.8699 27.627 22.1628 26.6533C22.204 26.5187 22.2453 26.386 22.2898 26.2552C22.8809 24.4286 23.5875 23.0172 24.3272 21.9321C24.498 21.6782 24.6713 21.4458 24.8446 21.2274C25.7843 20.0465 26.7442 19.3354 27.5633 18.9074C28.1301 18.602 28.7441 18.3936 29.3797 18.2909H29.3861C29.4997 18.2744 29.588 18.2668 29.6483 18.263C29.7086 18.2592 29.7397 18.2598 29.7397 18.2598C30.3219 16.1386 33.0247 15.2561 33.0247 15.2561L32.8558 17.2834C33.5688 16.3824 34.8831 16.4199 34.8831 16.4199C34.8831 16.4199 34.5072 17.2084 34.3948 17.9221C34.2901 18.5868 33.5644 18.8274 33.4672 18.8573H33.459L33.4977 18.877L33.5733 18.9157C34.3193 19.3093 35.3351 19.9595 35.7491 20.2293L35.9294 20.3468L35.9364 20.3518C35.9961 20.5557 36.0634 20.7487 36.1313 20.9328C36.1313 20.9328 36.1313 20.9385 36.1313 20.9417C37.3338 24.0768 40.0106 24.4381 40.1566 24.4552H40.163C40.163 24.4552 40.1693 24.4838 40.1826 24.5371C40.33 25.1316 40.5234 25.7136 40.761 26.278L40.7858 26.3365C40.9145 26.6329 40.922 26.9679 40.8067 27.2698C40.7608 27.3934 40.6998 27.5109 40.6252 27.6196C40.316 28.0704 39.7572 28.2456 39.2354 28.3923C38.7522 28.5281 38.2411 29.1116 38.2411 29.1116C38.2347 29.0742 36.7656 27.9815 36.3478 27.6786C35.3955 26.9853 34.0355 26.6628 34.0355 26.6628C32.9657 27.4139 31.8019 27.1326 31.8019 27.1326C31.7682 27.1815 31.7384 27.2304 31.7048 27.2787C31.5861 27.4608 31.4817 27.6519 31.3924 27.8501C30.7378 29.3103 31.5289 30.224 32.5879 31.236C33.1746 31.7973 33.7136 31.963 34.7986 33.4664C34.7986 33.4664 38.0722 37.2841 37.1579 42.2281L21.1139 46.9112L16.8931 44.1944Z" fill="url(#paint28_linear_403_429)"/>
<path opacity="0.7" d="M33.6689 21.1645L35.0702 21.7403C35.0702 21.7403 36.3216 24.2933 37.9984 24.819C37.9984 24.819 37.898 25.4196 38.2987 25.8196C38.2987 25.8196 38.6993 24.5434 39.6002 25.4196C40.5012 26.2958 38.2384 28.8919 38.2384 28.8919C38.2384 28.8919 38.6561 28.4849 39.225 28.3789C39.7748 28.276 41.277 27.7719 40.7767 26.3205C40.2764 24.8691 40.1507 24.4431 40.1507 24.4431C40.1507 24.4431 37.0727 24.1682 35.921 20.3391L33.4448 18.8433C33.4448 18.8433 35.8962 20.5639 33.6689 21.1645Z" fill="url(#paint29_linear_403_429)"/>
<path d="M38.2847 25.7952C38.2847 25.7952 37.9221 24.5311 39.4485 25.2193C39.4497 25.2193 38.4751 25.2568 38.2847 25.7952Z" fill="#E08282"/>
<path opacity="0.7" d="M33.4188 21.1296C33.4188 21.1296 33.349 22.8477 35.1331 23.4235L35.0105 21.781L33.4188 21.1296Z" fill="url(#paint30_linear_403_429)"/>
<path opacity="0.5" d="M33.406 21.0956C33.406 21.0956 34.7514 20.9572 35.2072 21.615C35.5456 22.1039 36.4218 23.7102 36.4218 23.7102L35.0079 22.0962C35.0079 22.0962 33.8936 22.4848 33.406 21.0956Z" fill="#C65252"/>
<path d="M32.1763 18.5527C32.1763 18.5527 33.462 16.9293 34.2715 16.8074C34.2695 16.8074 34.1191 19.1064 32.1763 18.5527Z" fill="url(#paint31_linear_403_429)"/>
<path d="M30.2246 19.1253C30.2246 19.1253 30.6843 17.1259 32.4861 16.3755C32.4861 16.3755 32.3738 18.1304 31.6608 18.4872C31.6601 18.4872 31.022 18.4402 30.2246 19.1253Z" fill="url(#paint32_linear_403_429)"/>
<path opacity="0.7" d="M34.0251 26.6521C34.0251 26.6521 35.0486 26.2863 36.0149 25.0845C36.1889 25.4018 36.4355 25.6735 36.7345 25.8774C37.0336 26.0813 37.3766 26.2117 37.7355 26.2578C37.7355 26.2578 37.9412 27.0197 38.2435 29.1148C38.2415 29.1142 37.0587 27.4793 34.0251 26.6521Z" fill="url(#paint33_linear_403_429)"/>
<path d="M32.0194 27.1562C30.695 27.0045 28.3757 27.2153 28.6379 22.823C28.6379 22.823 28.9382 27.2718 35.0669 26.0324C35.0669 26.0324 34.3755 26.508 34.0251 26.6521C33.4391 27.0564 32.7269 27.2354 32.0194 27.1562Z" fill="url(#paint34_linear_403_429)"/>
<path d="M31.7865 27.1327C31.7865 27.1327 28.398 27.193 28.638 22.823C28.638 22.823 27.193 27.2343 31.3973 27.8533L31.7865 27.1327Z" fill="url(#paint35_linear_403_429)"/>
<path d="M29.7028 18.2185C29.7028 18.2185 25.8502 18.2655 24.941 20.468C24.941 20.468 21.7931 22.1917 21.8979 24.4171C21.8979 24.4171 19.3361 26.2291 20.5544 28.6709C21.7728 31.1128 21.4528 31.8893 21.4528 31.8893C21.4528 31.8893 22.0947 30.6347 22.1836 29.8519C22.2877 28.9763 22.3487 27.6843 22.5309 27.2862C22.5309 27.2862 23.8642 29.4849 23.5372 30.6023C23.5372 30.6023 24.7905 29.6652 24.7689 28.151C24.7461 26.5637 24.5086 24.9834 24.7626 24.226C24.7626 24.226 25.9759 26.2012 25.8838 27.1376C25.8838 27.1376 27.2806 25.9313 27.5701 20.1575C27.5701 20.1588 28.3581 19.2699 29.7028 18.2185Z" fill="url(#paint36_linear_403_429)"/>
<path d="M21.4515 31.8924C21.4515 31.8924 21.6368 30.7654 20.2667 28.7667C18.8966 26.768 21.3886 24.7452 21.8965 24.417L22.5244 27.3668C22.5244 27.3668 22.8025 29.7553 21.4515 31.8924Z" fill="url(#paint37_linear_403_429)"/>
<path opacity="0.7" d="M21.8928 24.4126C21.8928 24.4126 19.0357 26.3351 20.0985 28.4861C20.0985 28.4861 19.5062 26.464 22.0286 24.8919L21.8928 24.4126Z" fill="url(#paint38_linear_403_429)"/>
<path d="M23.5373 30.6024C23.5373 30.6024 23.7995 29.5072 22.5215 27.3644C21.2434 25.2216 21.3964 22.5144 24.8687 20.3494L24.7519 24.3283C24.7519 24.3283 25.8642 28.9841 23.5373 30.6024Z" fill="url(#paint39_linear_403_429)"/>
<path opacity="0.7" d="M24.8375 20.3745C24.8375 20.3745 21.2694 22.3173 21.8408 25.5496C21.8408 25.5496 21.6967 22.7122 24.5017 21.132L24.8375 20.3745Z" fill="url(#paint40_linear_403_429)"/>
<path d="M25.8331 27.2322C25.8331 27.2322 25.9429 26.5205 24.7537 24.3307C23.5645 22.1409 24.5334 17.9347 29.706 18.2185C29.706 18.2185 27.6032 18.536 27.5733 20.1575C27.5435 21.779 27.5168 25.8043 25.8331 27.2322Z" fill="url(#paint41_linear_403_429)"/>
<path opacity="0.7" d="M29.6646 18.2248L29.7027 18.2184C29.5953 18.2088 29.4874 18.2052 29.3796 18.2076C28.3117 18.1543 24.8152 18.3701 24.3245 21.9129C24.3245 21.9129 25.1454 18.9854 28.5199 18.3467C27.2901 18.7193 26.8247 19.8126 26.9834 20.7879C27.6818 25.0868 25.833 27.2321 25.833 27.2321C27.5618 25.7458 27.5244 21.7897 27.5701 20.1587C27.612 18.6876 29.3104 18.2927 29.6456 18.2292H29.6869L29.6646 18.2248Z" fill="url(#paint42_linear_403_429)"/>
<path d="M35.5704 22.4285C35.5704 22.4285 34.9419 20.2019 33.0549 21.2431C33.0549 21.2431 33.2791 21.2768 33.5717 21.6926C33.8575 22.099 34.3616 22.6253 35.0066 22.0786C35.0466 22.0437 35.1736 21.9752 35.5704 22.4285Z" fill="url(#paint43_linear_403_429)"/>
<path d="M35.3559 21.7088C35.3559 21.7088 35.2245 19.9578 32.5186 20.9654C32.5186 20.9654 34.0309 20.4213 35.3559 21.7088Z" fill="url(#paint44_linear_403_429)"/>
<path opacity="0.5" d="M33.4187 21.31C33.4187 21.31 34.3634 22.5881 35.0142 21.8941C34.8815 21.2427 33.8403 20.9684 33.4187 21.31Z" fill="#C65252"/>
<mask id="mask1_403_429" style="mask-type:luminance" maskUnits="userSpaceOnUse" x="16" y="15" width="25" height="32">
<path d="M16.8931 44.1944C20.4968 41.498 20.1654 38.2657 21.2612 30.6849C21.2714 30.6157 21.2815 30.5452 21.2923 30.4741C21.3346 30.1977 21.3844 29.9114 21.4415 29.6151C21.6292 28.6157 21.8699 27.627 22.1628 26.6533C22.204 26.5187 22.2453 26.386 22.2898 26.2552C22.8809 24.4286 23.5875 23.0172 24.3272 21.9321C24.498 21.6782 24.6713 21.4458 24.8446 21.2274C25.7843 20.0465 26.7442 19.3354 27.5633 18.9074C28.1301 18.602 28.7441 18.3936 29.3797 18.2909H29.3861C29.4997 18.2744 29.588 18.2668 29.6483 18.263C29.7086 18.2592 29.7397 18.2598 29.7397 18.2598C30.3219 16.1386 33.0247 15.2561 33.0247 15.2561L32.8558 17.2834C33.5688 16.3824 34.8831 16.4199 34.8831 16.4199C34.8831 16.4199 34.5072 17.2084 34.3948 17.9221C34.2901 18.5868 33.5644 18.8274 33.4672 18.8573H33.459L33.4977 18.877L33.5733 18.9157C34.3193 19.3093 35.3351 19.9595 35.7491 20.2293L35.9294 20.3468L35.9364 20.3518C35.9961 20.5557 36.0634 20.7487 36.1313 20.9328C36.1313 20.9328 36.1313 20.9385 36.1313 20.9417C37.3338 24.0768 40.0106 24.4381 40.1566 24.4552H40.163C40.163 24.4552 40.1693 24.4838 40.1826 24.5371C40.33 25.1316 40.5234 25.7136 40.761 26.278L40.7858 26.3365C40.9145 26.6329 40.922 26.9679 40.8067 27.2698C40.7608 27.3934 40.6998 27.5109 40.6252 27.6196C40.316 28.0704 39.7572 28.2456 39.2354 28.3923C38.7522 28.5281 38.2411 29.1116 38.2411 29.1116C38.2347 29.0742 36.7656 27.9815 36.3478 27.6786C35.3955 26.9853 34.0355 26.6628 34.0355 26.6628C32.9657 27.4139 31.8019 27.1326 31.8019 27.1326C31.7682 27.1815 31.7384 27.2304 31.7048 27.2787C31.5861 27.4608 31.4817 27.6519 31.3924 27.8501C30.7378 29.3103 31.5289 30.224 32.5879 31.236C33.1746 31.7973 33.7136 31.963 34.7986 33.4664C34.7986 33.4664 38.0722 37.2841 37.1579 42.2281L21.1139 46.9112L16.8931 44.1944Z" fill="white"/>
</mask>
<g mask="url(#mask1_403_429)">
<path style="mix-blend-mode:multiply" opacity="0.35" d="M25.7207 30.6897C25.7207 30.6897 30.2247 38.3416 27.4483 40.7936C23.3894 44.3757 20.4269 47.6156 20.4269 47.6156L15.5305 44.2297L20.3418 32.4497L25.7207 30.6897Z" fill="url(#paint45_linear_403_429)"/>
<path style="mix-blend-mode:multiply" opacity="0.35" d="M25.7207 30.6897C25.7207 30.6897 28.6178 39.6545 25.1741 41.1853C20.2269 43.3833 16.1527 46.4817 16.1527 46.4817L11.6824 40.1771L23.6071 31.8332L25.7207 30.6897Z" fill="url(#paint46_linear_403_429)"/>
</g>
<path d="M6.7302 18.5081C6.7302 18.5081 4.24518 16.4555 2.68649 11.0918C2.68649 11.0918 -3.66256 20.6789 5.56705 26.5517L9.26981 25.1003L6.7302 18.5081Z" fill="url(#paint47_linear_403_429)"/>
<path d="M6.72991 18.5081C6.72991 18.5081 4.24489 16.4555 2.6862 11.0918C2.6862 11.0918 -0.243248 19.924 8.54954 25.4362L9.26953 25.1003L6.72991 18.5081Z" fill="url(#paint48_linear_403_429)"/>
<path d="M6.23094 27.0002C6.23094 27.0002 3.25133 26.3469 0.507913 22.8562C0.507913 22.8562 -1.15808 30.7925 7.29568 31.8795L13.8409 31.7423L6.23094 27.0002Z" fill="url(#paint49_linear_403_429)"/>
<path d="M6.23084 27.0002C6.23084 27.0002 3.25123 26.3469 0.507812 22.8562C0.507812 22.8562 0.531938 28.9583 10.0225 31.0369L13.8408 31.7423L6.23084 27.0002Z" fill="url(#paint50_linear_403_429)"/>
<path d="M7.33693 32.3534C7.33693 32.3534 4.12178 32.0499 1.44312 30.0938C1.44312 30.0938 2.75419 37.6098 10.1832 36.3298L13.2942 35.4085L7.33693 32.3534Z" fill="url(#paint51_linear_403_429)"/>
<path d="M7.33693 32.3534C7.33693 32.3534 4.12178 32.0499 1.44312 30.0938C1.44312 30.0938 3.62084 34.8974 10.2683 35.2244L13.2955 35.4085L7.33693 32.3534Z" fill="url(#paint52_linear_403_429)"/>
<path d="M10.7235 36.5393C10.7235 36.5393 7.382 37.5095 4.63159 36.2041C4.63159 36.2041 8.06008 43.0382 14.8891 39.4351C21.7181 35.832 15.7589 37.7057 15.7589 37.7057L10.7235 36.5393Z" fill="url(#paint53_linear_403_429)"/>
<path d="M10.7235 36.5394C10.7235 36.5394 7.382 37.5095 4.63159 36.2042C4.63159 36.2042 9.08608 41.119 15.0059 37.6994C21.6826 33.843 15.3139 36.9902 15.3139 36.9902L10.7235 36.5394Z" fill="url(#paint54_linear_403_429)"/>
<path d="M15.2378 39.7355C15.2378 39.7355 13.0855 41.1146 10.1624 41.7831C10.1624 41.7831 15.6784 44.7291 19.4529 40.9266C23.2274 37.1242 19.4447 39.3724 19.4447 39.3724L15.2378 39.7355Z" fill="url(#paint55_linear_403_429)"/>
<path d="M15.2378 39.7355C15.2378 39.7355 13.0855 41.1145 10.1624 41.783C10.1624 41.783 15.8625 43.4147 19.3558 39.3786C22.849 35.3426 18.9691 38.9006 18.9691 38.9006L15.2378 39.7355Z" fill="url(#paint56_linear_403_429)"/>
<path d="M19.7239 40.8236C19.7239 40.8236 18.1062 42.4858 16.4084 43.9309C16.4084 43.9309 26.9587 43.9569 24.6159 35.2009L19.7239 40.8236Z" fill="url(#paint57_linear_403_429)"/>
<path d="M19.7239 40.8236C19.7239 40.8236 18.1062 42.4858 16.4084 43.9309C16.4084 43.9309 25.3746 41.8757 24.6159 35.2009L19.7239 40.8236Z" fill="url(#paint58_linear_403_429)"/>
<path d="M16.1424 24.2182C16.1424 24.2182 9.43016 21.0659 7.66703 13.9492C7.66703 13.9492 -0.459749 26.5572 18.0991 28.5939L16.1424 24.2182Z" fill="url(#paint59_linear_403_429)"/>
<path d="M16.1424 24.2182C16.1424 24.2182 9.43021 21.0659 7.66708 13.9492C7.66708 13.9492 5.23159 25.147 18.0389 26.7743L16.1424 24.2182Z" fill="url(#paint60_linear_403_429)"/>
<path d="M18.0775 28.3738C18.0775 28.3738 8.79326 27.5935 5.23208 22.238C5.23208 22.238 2.18454 34.4771 18.8698 30.827L18.0775 28.3738Z" fill="url(#paint61_linear_403_429)"/>
<path d="M18.0776 28.3738C18.0776 28.3738 8.79336 27.5935 5.23218 22.238C5.23218 22.238 5.70709 31.4003 18.5157 29.6213L18.0776 28.3738Z" fill="url(#paint62_linear_403_429)"/>
<path d="M18.913 30.7143C18.913 30.7143 11.0522 33.1231 5.86377 29.4819C5.86377 29.4819 6.74946 39.9071 21.1535 33.4063L18.913 30.7143Z" fill="url(#paint63_linear_403_429)"/>
<path d="M18.913 30.7143C18.913 30.7143 11.0522 33.1231 5.86377 29.4819C5.86377 29.4819 9.65796 37.1122 19.779 31.8012L18.913 30.7143Z" fill="url(#paint64_linear_403_429)"/>
<path d="M20.3417 32.4473C20.3417 32.4473 15.5298 36.5107 8.59155 35.2713C8.59155 35.2713 13.5165 43.4483 21.7842 34.2326L20.3417 32.4473Z" fill="url(#paint65_linear_403_429)"/>
<path d="M20.3417 32.4473C20.3417 32.4473 15.5298 36.5107 8.59155 35.2713C8.59155 35.2713 13.9495 40.802 20.9373 33.4301L20.3417 32.4473Z" fill="url(#paint66_linear_403_429)"/>
<path d="M21.5715 34.0239C21.5715 34.0239 19.576 37.4765 13.0974 39.2727C13.0974 39.2727 20.0718 44.1614 23.5848 34.9769L21.5715 34.0239Z" fill="url(#paint67_linear_403_429)"/>
<path d="M21.5715 34.0239C21.5715 34.0239 19.576 37.4765 13.0974 39.2727C13.0974 39.2727 19.1411 41.6333 22.6019 34.6093L21.5715 34.0239Z" fill="url(#paint68_linear_403_429)"/>
<path d="M23.4642 34.9128C23.4642 34.9128 22.1525 38.8613 18.3101 41.1597C18.3101 41.1597 26.5003 42.0815 25.0572 35.4912L23.4642 34.9128Z" fill="url(#paint69_linear_403_429)"/>
<path d="M23.4642 34.9128C23.4642 34.9128 22.1525 38.8613 18.3101 41.1597C18.3101 41.1597 24.9131 40.7114 24.4375 35.1281L23.4642 34.9128Z" fill="url(#paint70_linear_403_429)"/>
<path d="M25.3708 36.222C25.3708 36.222 17.5386 34.4487 17.4427 27.2552L14.811 23.4458L19.776 26.306C19.776 26.306 19.3316 31.4805 25.6882 30.6869C25.6882 30.6894 27.4361 35.7103 25.3708 36.222Z" fill="url(#paint71_linear_403_429)"/>
<path d="M14.811 23.4482L19.776 26.3085C19.776 26.3085 19.3531 31.4665 25.6882 30.6893C25.6882 30.6893 27.4088 35.8498 25.3708 36.2206C25.3708 36.2206 26.9422 35.4714 25.0654 32.0036C25.0654 32.0036 19.6623 32.1458 19.0782 26.7669L14.811 23.4482Z" fill="url(#paint72_linear_403_429)"/>
<path d="M25.4026 36.222C25.4026 36.222 17.5711 34.4487 17.4752 27.2552L14.8435 23.4458L19.8085 26.3029C19.8085 26.3029 19.364 31.478 25.7207 30.6837C25.7207 30.6894 27.4686 35.7103 25.4026 36.222Z" fill="url(#paint73_linear_403_429)"/>
</g>
<path d="M36.9672 33.436C35.664 36.2735 33.7411 38.7826 31.34 40.7787C29.6734 42.1425 27.6538 43.0967 26.0779 43.7767C24.4126 44.4802 22.7055 45.0805 20.9663 45.5741C20.273 45.3767 19.5619 45.1545 18.8457 44.9113C17.4308 44.4313 16.0418 43.8778 14.6846 43.2529" stroke="white" stroke-width="0.317452" stroke-miterlimit="10"/>
<path d="M20.4382 46.7425C20.4859 46.7329 20.5551 46.7152 20.6154 46.7006L20.8058 46.6523L21.1925 46.5507C21.4509 46.4815 21.7106 46.4079 21.9696 46.3336C22.4881 46.1825 23.0049 46.0227 23.5201 45.8542C24.5499 45.5171 25.5676 45.1438 26.5676 44.7317C27.5614 44.3242 28.5331 43.8647 29.4786 43.3553C29.9491 43.1013 30.4037 42.8289 30.8475 42.5439C30.9573 42.4708 31.0691 42.3997 31.1776 42.3261L31.4995 42.1001C31.6075 42.0251 31.7084 41.9445 31.8138 41.8664C31.8659 41.827 31.9186 41.7896 31.97 41.7483L32.1262 41.6213C33.8021 40.2529 35.2675 38.6452 36.4753 36.85C37.6924 35.0444 38.6606 33.045 39.2612 30.9175L39.7412 31.0241C39.3705 33.2635 38.6029 35.4463 37.5375 37.4818C36.461 39.5397 35.0869 41.4277 33.4595 43.0848L33.3052 43.241L33.142 43.3965C33.0335 43.4994 32.9281 43.6067 32.8176 43.7057L32.4862 44.0054C32.3744 44.1032 32.2608 44.1959 32.1478 44.2943C31.6932 44.6752 31.2278 45.0365 30.751 45.3736C29.8005 46.049 28.815 46.6737 27.7987 47.2453C26.7896 47.8176 25.7611 48.3486 24.713 48.8383C24.1899 49.0842 23.6621 49.3217 23.1296 49.5507C22.8623 49.6643 22.595 49.7773 22.3239 49.8865L21.915 50.0503L21.7074 50.131C21.635 50.1583 21.5709 50.183 21.4846 50.2141L20.4382 46.7425Z" fill="#271B4C"/>
<path d="M20.668 47.5041C20.7124 47.4971 20.7676 47.4863 20.8184 47.4762L20.9759 47.4444L21.2934 47.3752C21.5054 47.3295 21.7156 47.2762 21.9283 47.2241C22.3515 47.1187 22.7725 47.0044 23.1911 46.8812C24.0283 46.6357 24.8571 46.3606 25.6774 46.0559C26.4958 45.7492 27.304 45.414 28.0938 45.04C28.49 44.8551 28.8807 44.6597 29.2658 44.454C29.4563 44.3518 29.6468 44.2451 29.8373 44.1366C30.0277 44.028 30.2182 43.9194 30.4011 43.8039C31.148 43.3538 31.8592 42.8472 32.5286 42.2883C33.2056 41.7291 33.8451 41.1259 34.4429 40.4827C34.7451 40.1652 35.0314 39.8287 35.3108 39.4884C35.5901 39.1481 35.8593 38.7983 36.112 38.437C36.1755 38.3481 36.239 38.2573 36.3025 38.1659C36.366 38.0745 36.4295 37.985 36.4885 37.8929C36.6066 37.7069 36.7304 37.524 36.8434 37.3348C37.0771 36.9602 37.2879 36.5729 37.4942 36.1831L37.5933 36.2358C36.7488 37.7976 35.7584 39.2759 34.6352 40.6509C34.0699 41.3406 33.4673 41.9989 32.8302 42.6229C32.7521 42.7029 32.6664 42.776 32.5845 42.8528C32.5026 42.9296 32.42 43.0058 32.335 43.0788C32.1635 43.2236 31.9966 43.3747 31.8201 43.5124L31.5547 43.7232L31.2887 43.9289C31.1121 44.0673 30.9299 44.1975 30.7483 44.3296C30.0233 44.8565 29.269 45.3391 28.4995 45.8013C27.73 46.2635 26.9472 46.6997 26.1504 47.1162C25.3536 47.5327 24.551 47.9339 23.7377 48.3225C23.3314 48.5168 22.9225 48.7034 22.5111 48.8939L21.8927 49.1739L21.5791 49.3129L21.4203 49.3815C21.3664 49.405 21.3162 49.4272 21.2546 49.4526L20.668 47.5041Z" fill="white"/>
<path d="M20.9614 50.9999C22.8314 50.9999 24.3473 49.484 24.3473 47.614C24.3473 45.744 22.8314 44.228 20.9614 44.228C19.0914 44.228 17.5754 45.744 17.5754 47.614C17.5754 49.484 19.0914 50.9999 20.9614 50.9999Z" fill="#F6AC94" stroke="white" stroke-width="0.634904" stroke-miterlimit="10"/>
<path d="M20.9613 50.454C22.5297 50.454 23.8012 49.1825 23.8012 47.6141C23.8012 46.0456 22.5297 44.7742 20.9613 44.7742C19.3928 44.7742 18.1213 46.0456 18.1213 47.6141C18.1213 49.1825 19.3928 50.454 20.9613 50.454Z" fill="url(#paint74_radial_403_429)"/>
<path d="M19.4153 47.591L18.9398 46.2456H19.3956L19.687 47.1345H19.6947L19.9937 46.2456H20.4032L19.927 47.591L20.4267 48.9992H19.9702L19.6527 48.0392H19.6451L19.3226 48.9992H18.9131L19.4153 47.591Z" fill="#271B4C"/>
<path d="M20.6152 46.2456H21.052L21.3327 48.3814H21.3403L21.6235 46.2456H22.0209L21.6038 48.9992H21.0324L20.6152 46.2456Z" fill="#271B4C"/>
<path d="M22.3303 46.2456H22.7633V48.9992H22.3303V46.2456Z" fill="#271B4C"/>
<defs>
<linearGradient id="paint0_linear_403_429" x1="20.8884" y1="54.664" x2="20.8884" y2="-15.2402" gradientUnits="userSpaceOnUse">
<stop stop-color="#5A3079"/>
<stop offset="0.48" stop-color="#AE1C71"/>
<stop offset="1" stop-color="#FFBE98"/>
</linearGradient>
<radialGradient id="paint1_radial_403_429" cx="0" cy="0" r="1" gradientUnits="userSpaceOnUse" gradientTransform="translate(20.8884 45.362) scale(32.7008 32.7008)">
<stop offset="0.06" stop-color="#D84784"/>
<stop offset="1" stop-color="#5A3079"/>
</radialGradient>
<linearGradient id="paint2_linear_403_429" x1="5.28854" y1="26.7884" x2="1.80331" y2="6.08202" gradientUnits="userSpaceOnUse">
<stop stop-color="#C28832"/>
<stop offset="1" stop-color="#C6C1C1"/>
</linearGradient>
<linearGradient id="paint3_linear_403_429" x1="6.28248" y1="25.8728" x2="4.14337" y2="13.164" gradientUnits="userSpaceOnUse">
<stop stop-color="#C28832"/>
<stop offset="1" stop-color="#C6C1C1"/>
</linearGradient>
<linearGradient id="paint4_linear_403_429" x1="6.56214" y1="31.6449" x2="4.89302" y2="21.7283" gradientUnits="userSpaceOnUse">
<stop stop-color="#C28832"/>
<stop offset="1" stop-color="#C6C1C1"/>
</linearGradient>
<linearGradient id="paint5_linear_403_429" x1="6.9826" y1="32.0911" x2="5.31339" y2="22.174" gradientUnits="userSpaceOnUse">
<stop stop-color="#C28832"/>
<stop offset="1" stop-color="#C6C1C1"/>
</linearGradient>
<linearGradient id="paint6_linear_403_429" x1="6.34584" y1="34.8608" x2="5.19633" y2="28.0314" gradientUnits="userSpaceOnUse">
<stop stop-color="#C28832"/>
<stop offset="1" stop-color="#C6C1C1"/>
</linearGradient>
<linearGradient id="paint7_linear_403_429" x1="6.3902" y1="35.0875" x2="5.25442" y2="28.3396" gradientUnits="userSpaceOnUse">
<stop stop-color="#C28832"/>
<stop offset="1" stop-color="#C6C1C1"/>
</linearGradient>
<linearGradient id="paint8_linear_403_429" x1="9.5633" y1="37.7377" x2="8.7278" y2="32.7739" gradientUnits="userSpaceOnUse">
<stop stop-color="#C28832"/>
<stop offset="1" stop-color="#C6C1C1"/>
</linearGradient>
<linearGradient id="paint9_linear_403_429" x1="12.4442" y1="36.6656" x2="9.17551" y2="34.088" gradientUnits="userSpaceOnUse">
<stop stop-color="#C28832"/>
<stop offset="1" stop-color="#C6C1C1"/>
</linearGradient>
<linearGradient id="paint10_linear_403_429" x1="13.0801" y1="40.6048" x2="12.6441" y2="38.0146" gradientUnits="userSpaceOnUse">
<stop stop-color="#C28832"/>
<stop offset="1" stop-color="#C6C1C1"/>
</linearGradient>
<linearGradient id="paint11_linear_403_429" x1="16.4356" y1="38.8126" x2="12.981" y2="37.5097" gradientUnits="userSpaceOnUse">
<stop stop-color="#C28832"/>
<stop offset="1" stop-color="#C6C1C1"/>
</linearGradient>
<linearGradient id="paint12_linear_403_429" x1="19.9724" y1="38.8558" x2="15.1176" y2="36.9039" gradientUnits="userSpaceOnUse">
<stop stop-color="#C28832"/>
<stop offset="1" stop-color="#C6C1C1"/>
</linearGradient>
<linearGradient id="paint13_linear_403_429" x1="20.0638" y1="38.2927" x2="16.3446" y2="37.9797" gradientUnits="userSpaceOnUse">
<stop stop-color="#C28832"/>
<stop offset="1" stop-color="#C6C1C1"/>
</linearGradient>
<linearGradient id="paint14_linear_403_429" x1="11.221" y1="14.3369" x2="23.1655" y2="28.7406" gradientUnits="userSpaceOnUse">
<stop offset="0.35" stop-color="#C69476"/>
<stop offset="1" stop-color="#C6C1C1"/>
</linearGradient>
<linearGradient id="paint15_linear_403_429" x1="13.1458" y1="30.6585" x2="11.0514" y2="18.2153" gradientUnits="userSpaceOnUse">
<stop stop-color="#C28832"/>
<stop offset="0.03" stop-color="#C69476"/>
<stop offset="1" stop-color="#C6C1C1"/>
</linearGradient>
<linearGradient id="paint16_linear_403_429" x1="11.3053" y1="22.629" x2="23.7729" y2="26.0909" gradientUnits="userSpaceOnUse">
<stop offset="0.35" stop-color="#C69476"/>
<stop offset="1" stop-color="#C6C1C1"/>
</linearGradient>
<linearGradient id="paint17_linear_403_429" x1="11.5703" y1="31.7386" x2="10.1054" y2="23.0351" gradientUnits="userSpaceOnUse">
<stop stop-color="#C28832"/>
<stop offset="0.03" stop-color="#C69476"/>
<stop offset="1" stop-color="#C6C1C1"/>
</linearGradient>
<linearGradient id="paint18_linear_403_429" x1="13.2229" y1="28.0502" x2="23.6286" y2="27.1369" gradientUnits="userSpaceOnUse">
<stop stop-color="#C28832"/>
<stop offset="1" stop-color="#C6C1C1"/>
</linearGradient>
<linearGradient id="paint19_linear_403_429" x1="11.7682" y1="34.2666" x2="10.8018" y2="28.5254" gradientUnits="userSpaceOnUse">
<stop stop-color="#C28832"/>
<stop offset="1" stop-color="#C6C1C1"/>
</linearGradient>
<linearGradient id="paint20_linear_403_429" x1="10.4119" y1="32.1997" x2="15.5641" y2="37.2464" gradientUnits="userSpaceOnUse">
<stop stop-color="#C28832"/>
<stop offset="1" stop-color="#C6C1C1"/>
</linearGradient>
<linearGradient id="paint21_linear_403_429" x1="11.7741" y1="32.7906" x2="17.2405" y2="38.1452" gradientUnits="userSpaceOnUse">
<stop stop-color="#C28832"/>
<stop offset="1" stop-color="#C6C1C1"/>
</linearGradient>
<linearGradient id="paint22_linear_403_429" x1="12.06" y1="34.3168" x2="18.1677" y2="38.9381" gradientUnits="userSpaceOnUse">
<stop stop-color="#C28832"/>
<stop offset="1" stop-color="#C6C1C1"/>
</linearGradient>
<linearGradient id="paint23_linear_403_429" x1="13.7296" y1="35.0468" x2="19.1102" y2="39.5936" gradientUnits="userSpaceOnUse">
<stop stop-color="#C28832"/>
<stop offset="1" stop-color="#C6C1C1"/>
</linearGradient>
<linearGradient id="paint24_linear_403_429" x1="15.5439" y1="36.0321" x2="20.6523" y2="39.2646" gradientUnits="userSpaceOnUse">
<stop stop-color="#C28832"/>
<stop offset="1" stop-color="#C6C1C1"/>
</linearGradient>
<linearGradient id="paint25_linear_403_429" x1="17.5048" y1="36.8803" x2="21.7682" y2="38.7618" gradientUnits="userSpaceOnUse">
<stop stop-color="#C28832"/>
<stop offset="1" stop-color="#C6C1C1"/>
</linearGradient>
<linearGradient id="paint26_linear_403_429" x1="19.7734" y1="36.1188" x2="17.6794" y2="23.6782" gradientUnits="userSpaceOnUse">
<stop stop-color="#B14D43"/>
<stop offset="1" stop-color="#C3C4BD"/>
</linearGradient>
<linearGradient id="paint27_linear_403_429" x1="16.4247" y1="33.1778" x2="20.2613" y2="22.3598" gradientUnits="userSpaceOnUse">
<stop stop-color="#B14D43"/>
<stop offset="0.51" stop-color="#C3C4BD"/>
</linearGradient>
<linearGradient id="paint28_linear_403_429" x1="42.467" y1="22.9454" x2="14.8347" y2="43.6287" gradientUnits="userSpaceOnUse">
<stop offset="0.09" stop-color="white"/>
<stop offset="0.24" stop-color="#FFFCFA"/>
<stop offset="0.41" stop-color="#FFF4ED"/>
<stop offset="0.58" stop-color="#FFE5D7"/>
<stop offset="0.76" stop-color="#FFD2B7"/>
<stop offset="0.91" stop-color="#FFBE98"/>
</linearGradient>
<linearGradient id="paint29_linear_403_429" x1="29.3884" y1="21.7841" x2="42.8198" y2="26.1218" gradientUnits="userSpaceOnUse">
<stop stop-color="#FBB040"/>
<stop offset="0.84" stop-color="#FFF8F8"/>
</linearGradient>
<linearGradient id="paint30_linear_403_429" x1="33.3522" y1="22.1449" x2="36.4264" y2="22.5836" gradientUnits="userSpaceOnUse">
<stop stop-color="#FBB040"/>
<stop offset="0.62" stop-color="#FBB040" stop-opacity="0"/>
</linearGradient>
<linearGradient id="paint31_linear_403_429" x1="35.0003" y1="17.0645" x2="31.1655" y2="18.8924" gradientUnits="userSpaceOnUse">
<stop stop-color="white"/>
<stop offset="1" stop-color="#FFBE98"/>
</linearGradient>
<linearGradient id="paint32_linear_403_429" x1="33.9591" y1="16.3266" x2="29.6335" y2="18.8237" gradientUnits="userSpaceOnUse">
<stop offset="0.08" stop-color="white"/>
<stop offset="1" stop-color="#FFBE98"/>
</linearGradient>
<linearGradient id="paint33_linear_403_429" x1="34.5413" y1="25.4318" x2="38.4015" y2="28.3815" gradientUnits="userSpaceOnUse">
<stop stop-color="#FBB040"/>
<stop offset="0.73" stop-color="#FBB040" stop-opacity="0"/>
</linearGradient>
<linearGradient id="paint34_linear_403_429" x1="27.7909" y1="24.3849" x2="34.6365" y2="26.3023" gradientUnits="userSpaceOnUse">
<stop stop-color="#EA6659"/>
<stop offset="1" stop-color="#FCFDF4"/>
</linearGradient>
<linearGradient id="paint35_linear_403_429" x1="20.5557" y1="23.522" x2="32.0005" y2="25.722" gradientUnits="userSpaceOnUse">
<stop offset="0.27" stop-color="#FFBE98"/>
<stop offset="0.44" stop-color="#FFC09B"/>
<stop offset="0.58" stop-color="#FFC6A5"/>
<stop offset="0.71" stop-color="#FFD1B6"/>
<stop offset="0.83" stop-color="#FFDFCD"/>
<stop offset="0.94" stop-color="#FFF2EB"/>
<stop offset="1" stop-color="white"/>
</linearGradient>
<linearGradient id="paint36_linear_403_429" x1="23.0789" y1="26.2604" x2="32.9512" y2="18.3811" gradientUnits="userSpaceOnUse">
<stop stop-color="#EA6659"/>
<stop offset="1" stop-color="#FCFDF4"/>
</linearGradient>
<linearGradient id="paint37_linear_403_429" x1="19.8085" y1="29.3577" x2="23.5283" y2="26.9559" gradientUnits="userSpaceOnUse">
<stop stop-color="#EA6659"/>
<stop offset="1" stop-color="#FCFDF4"/>
</linearGradient>
<linearGradient id="paint38_linear_403_429" x1="19.4292" y1="27.4617" x2="22.5516" y2="25.4456" gradientUnits="userSpaceOnUse">
<stop stop-color="#FBB040"/>
<stop offset="0.9" stop-color="#FFF8F8"/>
</linearGradient>
<linearGradient id="paint39_linear_403_429" x1="19.779" y1="28.3311" x2="26.618" y2="23.9153" gradientUnits="userSpaceOnUse">
<stop offset="0.11" stop-color="#EA6659"/>
<stop offset="0.94" stop-color="#FCFDF4"/>
</linearGradient>
<linearGradient id="paint40_linear_403_429" x1="21.0959" y1="24.4046" x2="25.5683" y2="21.5169" gradientUnits="userSpaceOnUse">
<stop stop-color="#FBB040"/>
<stop offset="0.9" stop-color="#FFF8F8"/>
</linearGradient>
<linearGradient id="paint41_linear_403_429" x1="22.4509" y1="26.372" x2="28.2427" y2="20.9634" gradientUnits="userSpaceOnUse">
<stop stop-color="#EA6659"/>
<stop offset="1" stop-color="#FCFDF4"/>
</linearGradient>
<linearGradient id="paint42_linear_403_429" x1="22.3961" y1="25.4212" x2="29.2345" y2="21.0057" gradientUnits="userSpaceOnUse">
<stop stop-color="#FBB040"/>
<stop offset="0.9" stop-color="#FFF8F8"/>
</linearGradient>
<linearGradient id="paint43_linear_403_429" x1="33.9801" y1="22.1676" x2="34.8622" y2="21.2854" gradientUnits="userSpaceOnUse">
<stop stop-color="#FBB040"/>
<stop offset="1" stop-color="#FFF8F8"/>
</linearGradient>
<linearGradient id="paint44_linear_403_429" x1="32.65" y1="20.3986" x2="35.1717" y2="21.6678" gradientUnits="userSpaceOnUse">
<stop stop-color="white"/>
<stop offset="0.55" stop-color="#FFBE98"/>
</linearGradient>
<linearGradient id="paint45_linear_403_429" x1="30.9777" y1="25.9806" x2="16.4956" y2="47.8842" gradientUnits="userSpaceOnUse">
<stop stop-color="#FBB040"/>
<stop offset="0.73" stop-color="#FBB040" stop-opacity="0"/>
</linearGradient>
<linearGradient id="paint46_linear_403_429" x1="33.3348" y1="29.2687" x2="12.3059" y2="45.4333" gradientUnits="userSpaceOnUse">
<stop stop-color="#FBB040"/>
<stop offset="0.73" stop-color="#FBB040" stop-opacity="0"/>
</linearGradient>
<linearGradient id="paint47_linear_403_429" x1="3.79687" y1="24.4899" x2="-2.47392" y2="0.159268" gradientUnits="userSpaceOnUse">
<stop stop-color="#FBB040"/>
<stop offset="1" stop-color="#FFF8F8"/>
</linearGradient>
<linearGradient id="paint48_linear_403_429" x1="4.74106" y1="23.3348" x2="0.89222" y2="8.40124" gradientUnits="userSpaceOnUse">
<stop stop-color="#FBB040"/>
<stop offset="1" stop-color="#FFF8F8"/>
</linearGradient>
<linearGradient id="paint49_linear_403_429" x1="5.81262" y1="30.1495" x2="2.80961" y2="18.4979" gradientUnits="userSpaceOnUse">
<stop stop-color="#FBB040"/>
<stop offset="1" stop-color="#FFF8F8"/>
</linearGradient>
<linearGradient id="paint50_linear_403_429" x1="6.32312" y1="30.6476" x2="3.31996" y2="18.9953" gradientUnits="userSpaceOnUse">
<stop stop-color="#FBB040"/>
<stop offset="1" stop-color="#FFF8F8"/>
</linearGradient>
<linearGradient id="paint51_linear_403_429" x1="6.01069" y1="33.9723" x2="3.94252" y2="25.9478" gradientUnits="userSpaceOnUse">
<stop stop-color="#FBB040"/>
<stop offset="1" stop-color="#FFF8F8"/>
</linearGradient>
<linearGradient id="paint52_linear_403_429" x1="6.08878" y1="34.238" x2="4.04525" y2="26.3091" gradientUnits="userSpaceOnUse">
<stop stop-color="#FBB040"/>
<stop offset="1" stop-color="#FFF8F8"/>
</linearGradient>
<linearGradient id="paint53_linear_403_429" x1="9.8485" y1="37.1487" x2="8.3453" y2="31.3163" gradientUnits="userSpaceOnUse">
<stop stop-color="#FBB040"/>
<stop offset="1" stop-color="#FFF8F8"/>
</linearGradient>
<linearGradient id="paint54_linear_403_429" x1="12.7968" y1="35.6738" x2="8.68291" y2="33.31" gradientUnits="userSpaceOnUse">
<stop stop-color="#FBB040"/>
<stop offset="1" stop-color="#FFF8F8"/>
</linearGradient>
<linearGradient id="paint55_linear_403_429" x1="14.0061" y1="40.2923" x2="13.2218" y2="37.2492" gradientUnits="userSpaceOnUse">
<stop stop-color="#FBB040"/>
<stop offset="1" stop-color="#FFF8F8"/>
</linearGradient>
<linearGradient id="paint56_linear_403_429" x1="17.3676" y1="37.9308" x2="13.3948" y2="37.0411" gradientUnits="userSpaceOnUse">
<stop stop-color="#FBB040"/>
<stop offset="1" stop-color="#FFF8F8"/>
</linearGradient>
<linearGradient id="paint57_linear_403_429" x1="21.0709" y1="37.7104" x2="15.132" y2="36.2523" gradientUnits="userSpaceOnUse">
<stop stop-color="#FBB040"/>
<stop offset="1" stop-color="#FFF8F8"/>
</linearGradient>
<linearGradient id="paint58_linear_403_429" x1="21.1214" y1="37.0085" x2="16.8969" y2="37.1626" gradientUnits="userSpaceOnUse">
<stop stop-color="#FBB040"/>
<stop offset="1" stop-color="#FFF8F8"/>
</linearGradient>
<linearGradient id="paint59_linear_403_429" x1="3.81403" y1="16.1027" x2="19.9698" y2="30.6751" gradientUnits="userSpaceOnUse">
<stop offset="0.35" stop-color="#FFBE98"/>
<stop offset="1" stop-color="#FFF8F8"/>
</linearGradient>
<linearGradient id="paint60_linear_403_429" x1="12.7463" y1="28.5116" x2="8.97789" y2="13.8902" gradientUnits="userSpaceOnUse">
<stop stop-color="#FBB040"/>
<stop offset="0.03" stop-color="#FFBE98"/>
<stop offset="1" stop-color="#FFF8F8"/>
</linearGradient>
<linearGradient id="paint61_linear_403_429" x1="5.01609" y1="25.9433" x2="19.066" y2="27.8577" gradientUnits="userSpaceOnUse">
<stop offset="0.35" stop-color="#FFBE98"/>
<stop offset="1" stop-color="#FFF8F8"/>
</linearGradient>
<linearGradient id="paint62_linear_403_429" x1="11.1999" y1="29.9026" x2="8.56408" y2="19.6757" gradientUnits="userSpaceOnUse">
<stop stop-color="#FBB040"/>
<stop offset="0.03" stop-color="#FFBE98"/>
<stop offset="1" stop-color="#FFF8F8"/>
</linearGradient>
<linearGradient id="paint63_linear_403_429" x1="7.80877" y1="32.2161" x2="18.8671" y2="30.0735" gradientUnits="userSpaceOnUse">
<stop stop-color="#FBB040"/>
<stop offset="1" stop-color="#FFF8F8"/>
</linearGradient>
<linearGradient id="paint64_linear_403_429" x1="11.7498" y1="32.8811" x2="10.0113" y2="26.1359" gradientUnits="userSpaceOnUse">
<stop stop-color="#FBB040"/>
<stop offset="1" stop-color="#FFF8F8"/>
</linearGradient>
<linearGradient id="paint65_linear_403_429" x1="10.0182" y1="30.5308" x2="16.7318" y2="35.4426" gradientUnits="userSpaceOnUse">
<stop stop-color="#FBB040"/>
<stop offset="1" stop-color="#FFF8F8"/>
</linearGradient>
<linearGradient id="paint66_linear_403_429" x1="11.5591" y1="31.1334" x2="18.682" y2="36.3444" gradientUnits="userSpaceOnUse">
<stop stop-color="#FBB040"/>
<stop offset="1" stop-color="#FFF8F8"/>
</linearGradient>
<linearGradient id="paint67_linear_403_429" x1="12.0703" y1="32.92" x2="19.7093" y2="37.1045" gradientUnits="userSpaceOnUse">
<stop stop-color="#FBB040"/>
<stop offset="1" stop-color="#FFF8F8"/>
</linearGradient>
<linearGradient id="paint68_linear_403_429" x1="13.9592" y1="33.6649" x2="20.8047" y2="37.918" gradientUnits="userSpaceOnUse">
<stop stop-color="#FBB040"/>
<stop offset="1" stop-color="#FFF8F8"/>
</linearGradient>
<linearGradient id="paint69_linear_403_429" x1="16.038" y1="34.7023" x2="22.2636" y2="37.464" gradientUnits="userSpaceOnUse">
<stop stop-color="#FBB040"/>
<stop offset="1" stop-color="#FFF8F8"/>
</linearGradient>
<linearGradient id="paint70_linear_403_429" x1="18.256" y1="35.5658" x2="23.2322" y2="36.9574" gradientUnits="userSpaceOnUse">
<stop stop-color="#FBB040"/>
<stop offset="1" stop-color="#FFF8F8"/>
</linearGradient>
<linearGradient id="paint71_linear_403_429" x1="20.5888" y1="34.5029" x2="16.8212" y2="19.8849" gradientUnits="userSpaceOnUse">
<stop stop-color="#EA6659"/>
<stop offset="1" stop-color="#FCFDF4"/>
</linearGradient>
<linearGradient id="paint72_linear_403_429" x1="16.602" y1="31.2591" x2="20.5474" y2="18.5716" gradientUnits="userSpaceOnUse">
<stop stop-color="#EA6659"/>
<stop offset="0.51" stop-color="#FCFDF4"/>
</linearGradient>
<linearGradient id="paint73_linear_403_429" x1="17.2983" y1="29.8595" x2="28.777" y2="29.7674" gradientUnits="userSpaceOnUse">
<stop offset="0.11" stop-color="#EA6659" stop-opacity="0"/>
<stop offset="0.24" stop-color="white" stop-opacity="0"/>
<stop offset="0.29" stop-color="#FFFEFE" stop-opacity="0.03"/>
<stop offset="0.38" stop-color="#FFFDFC" stop-opacity="0.13"/>
<stop offset="0.49" stop-color="#FFFAF8" stop-opacity="0.28"/>
<stop offset="0.61" stop-color="#FFF7F3" stop-opacity="0.5"/>
<stop offset="0.75" stop-color="#FFF3EC" stop-opacity="0.77"/>
<stop offset="0.86" stop-color="#FFEFE6"/>
</linearGradient>
<radialGradient id="paint74_radial_403_429" cx="0" cy="0" r="1" gradientUnits="userSpaceOnUse" gradientTransform="translate(20.9092 44.4802) scale(4.58591 4.58591)">
<stop offset="0.09" stop-color="white"/>
<stop offset="0.24" stop-color="#FFFCFA"/>
<stop offset="0.41" stop-color="#FFF4ED"/>
<stop offset="0.58" stop-color="#FFE5D7"/>
<stop offset="0.76" stop-color="#FFD2B7"/>
<stop offset="0.91" stop-color="#FFBE98"/>
</radialGradient>
</defs>
</svg>
