<svg width="67" height="67" viewBox="0 0 67 67" fill="none" xmlns="http://www.w3.org/2000/svg">
<circle cx="33.4086" cy="33.4088" r="33.4086" fill="white"/>
<path d="M40.6667 26.6174V38.9502C40.6667 45.0531 35.8165 50.0002 29.8333 50.0002C23.8502 50.0002 19 45.0531 19 38.9502C19 32.8474 23.8502 27.9002 29.8333 27.9002C30.6938 27.9002 31.5308 28.0026 32.3333 28.1959V33.5728C31.5757 33.2056 30.728 33.0002 29.8333 33.0002C26.6117 33.0002 24 35.6641 24 38.9502C24 42.2363 26.6117 44.9002 29.8333 44.9002C33.055 44.9002 35.6667 42.2363 35.6667 38.9502V16.0002H40.6667C40.6667 20.6947 44.3977 24.5002 49 24.5002V29.6002C45.8468 29.6002 42.9493 28.4838 40.6667 26.6174Z" fill="black"/>
</svg>
