<svg width="67" height="67" viewBox="0 0 67 67" fill="none" xmlns="http://www.w3.org/2000/svg">
<circle cx="33.5912" cy="33.4088" r="33.4086" fill="white"/>
<path d="M46.1694 24.8668C46.0475 24.3828 45.7027 24.0176 45.3078 23.9049C44.6062 23.7063 41.2 23.2502 34 23.2502C26.8 23.2502 23.3945 23.7064 22.69 23.9055C22.2988 24.016 21.9541 24.3811 21.8306 24.8668C21.6565 25.5565 21.2 28.4437 21.2 33.0002C21.2 37.5567 21.6565 40.444 21.8311 41.1356C21.9524 41.6178 22.2972 41.9829 22.6904 42.095C23.3945 42.2941 26.8 42.7502 34 42.7502C41.2 42.7502 44.6062 42.2943 45.3099 42.095C45.7011 41.9845 46.0459 41.6194 46.1694 41.1337C46.3435 40.444 46.8 37.5502 46.8 33.0002C46.8 28.4502 46.3435 25.5565 46.1694 24.8668ZM49.2691 24.0598C50 26.9552 50 33.0002 50 33.0002C50 33.0002 50 39.0452 49.2691 41.9407C48.8619 43.5421 47.6736 44.8007 46.1674 45.2261C43.4338 46.0002 34 46.0002 34 46.0002C34 46.0002 24.5718 46.0002 21.8326 45.2261C20.3208 44.7948 19.1325 43.5361 18.7308 41.9407C18 39.0452 18 33.0002 18 33.0002C18 33.0002 18 26.9552 18.7308 24.0598C19.1381 22.4584 20.3263 21.1998 21.8326 20.7743C24.5718 20.0002 34 20.0002 34 20.0002C34 20.0002 43.4338 20.0002 46.1674 20.7743C47.6792 21.2057 48.8675 22.4643 49.2691 24.0598ZM30.8 38.6877V27.3127L40.4 33.0002L30.8 38.6877Z" fill="black"/>
</svg>
